M48
;Layer_Color=9474304
;FILE_FORMAT=2:4
INCH
;TYPE=PLATED
T1F00S00C0.0157
T2F00S00C0.0315
T3F00S00C0.1181
%
T01
X032087Y022835
X034843
Y025591
Y028346
X032087
Y025591
Y031102
X034843
X029331
Y028346
Y025591
Y022835
X026575
X023819
Y025591
Y028346
X026575
Y025591
Y031102
X023819
Y033858
X026575
X029331
X032087
X034843
T02
X031835Y018799
X032835
X033835
X034835
X035835
Y019799
X034835
X033835
X032835
X031835
X037780Y021850
Y022850
Y023850
Y024850
Y025850
Y026850
Y027850
Y028850
Y029850
Y030850
X038780
Y029850
Y028850
Y027850
Y026850
Y025850
Y024850
Y023850
Y022850
Y021850
X030835Y019799
Y018799
X029835
Y019799
X028835
Y018799
X027835
Y019799
X026835
Y018799
X025835
Y019799
X024835
Y018799
X023835
Y019799
X022835
Y018799
X020685Y021843
X019685
Y022843
X020685
Y023843
X019685
Y024843
X020685
Y025843
X019685
Y026843
X020685
Y027843
X019685
Y028843
X020685
Y029843
X019685
Y030843
X020685
Y031843
X019685
Y032843
X020685
Y033843
X019685
Y034843
X020685
X022835Y036894
Y037894
X023835
Y036894
X024835
Y037894
X025835
Y036894
X026835
Y037894
X027835
Y036894
X028835
Y037894
X029835
Y036894
X030835
Y037894
X031835
Y036894
X032835
Y037894
X033835
Y036894
X034835
Y037894
X035835
Y036894
X037780Y034850
X038780
Y033850
X037780
Y032850
X038780
Y031850
X037780
T03
X038583Y018898
Y037795
M30
