G04 Layer_Color=65535*
%FSAX24Y24*%
%MOIN*%
G70*
G01*
G75*
%ADD21C,0.0079*%
%ADD22C,0.0060*%
D21*
X024094Y030866D02*
Y031339D01*
X023543Y030866D02*
Y031339D01*
X032362Y030866D02*
Y031339D01*
X031811Y030866D02*
Y031339D01*
X035118Y030866D02*
Y031339D01*
X034567Y030866D02*
Y031339D01*
X035118Y033622D02*
Y034094D01*
X034567Y033622D02*
Y034094D01*
X019185Y021343D02*
Y035343D01*
X021185Y021343D02*
Y035343D01*
X019185Y021343D02*
X021185D01*
X019185Y035343D02*
X021185D01*
X024094Y022598D02*
Y023071D01*
X023543Y022598D02*
Y023071D01*
X026850Y022598D02*
Y023071D01*
X026299Y022598D02*
Y023071D01*
X029606Y022598D02*
Y023071D01*
X029055Y022598D02*
Y023071D01*
X032362Y022598D02*
Y023071D01*
X031811Y022598D02*
Y023071D01*
X035118Y022598D02*
Y023071D01*
X034567Y022598D02*
Y023071D01*
X024094Y025354D02*
Y025827D01*
X023543Y025354D02*
Y025827D01*
X026850Y025354D02*
Y025827D01*
X026299Y025354D02*
Y025827D01*
X029606Y025354D02*
Y025827D01*
X029055Y025354D02*
Y025827D01*
X032362Y025354D02*
Y025827D01*
X031811Y025354D02*
Y025827D01*
X035118Y025354D02*
Y025827D01*
X034567Y025354D02*
Y025827D01*
X024094Y028110D02*
Y028583D01*
X023543Y028110D02*
Y028583D01*
X026850Y028110D02*
Y028583D01*
X026299Y028110D02*
Y028583D01*
X029606Y028110D02*
Y028583D01*
X029055Y028110D02*
Y028583D01*
X032362Y028110D02*
Y028583D01*
X031811Y028110D02*
Y028583D01*
X035118Y028110D02*
Y028583D01*
X034567Y028110D02*
Y028583D01*
X026850Y030866D02*
Y031339D01*
X026299Y030866D02*
Y031339D01*
X029606Y030866D02*
Y031339D01*
X029055Y030866D02*
Y031339D01*
X024094Y033622D02*
Y034094D01*
X023543Y033622D02*
Y034094D01*
X026850Y033622D02*
Y034094D01*
X026299Y033622D02*
Y034094D01*
X029606Y033622D02*
Y034094D01*
X029055Y033622D02*
Y034094D01*
X032362Y033622D02*
Y034094D01*
X031811Y033622D02*
Y034094D01*
X022335Y018299D02*
X036335D01*
X022335Y020299D02*
X036335D01*
Y018299D02*
Y020299D01*
X022335Y018299D02*
Y020299D01*
X039280Y021350D02*
Y035350D01*
X037280Y021350D02*
Y035350D01*
X039280D01*
X037280Y021350D02*
X039280D01*
X022335Y038394D02*
X036335D01*
X022335Y036394D02*
X036335D01*
X022335D02*
Y038394D01*
X036335Y036394D02*
Y038394D01*
X020472Y020801D02*
Y021063D01*
X020735Y020801D01*
X020800D01*
X020866Y020866D01*
Y020997D01*
X020800Y021063D01*
Y020669D02*
X020866Y020604D01*
Y020473D01*
X020800Y020407D01*
X020735D01*
X020669Y020473D01*
X020604Y020407D01*
X020538D01*
X020472Y020473D01*
Y020604D01*
X020538Y020669D01*
X020604D01*
X020669Y020604D01*
X020735Y020669D01*
X020800D01*
X020669Y020604D02*
Y020473D01*
X019685Y020801D02*
Y021063D01*
X019947Y020801D01*
X020013D01*
X020079Y020866D01*
Y020997D01*
X020013Y021063D01*
X020079Y020669D02*
Y020407D01*
X020013D01*
X019751Y020669D01*
X019685D01*
Y036024D02*
Y035892D01*
Y035958D01*
X020079D01*
X020013Y036024D01*
X020472Y035761D02*
Y036024D01*
X020735Y035761D01*
X020800D01*
X020866Y035827D01*
Y035958D01*
X020800Y036024D01*
X036877Y019587D02*
X036614D01*
X036877Y019849D01*
Y019915D01*
X036811Y019980D01*
X036680D01*
X036614Y019915D01*
X037008D02*
X037073Y019980D01*
X037205D01*
X037270Y019915D01*
Y019849D01*
X037205Y019783D01*
X037270Y019718D01*
Y019652D01*
X037205Y019587D01*
X037073D01*
X037008Y019652D01*
Y019718D01*
X037073Y019783D01*
X037008Y019849D01*
Y019915D01*
X037073Y019783D02*
X037205D01*
X036877Y018799D02*
X036614D01*
X036877Y019062D01*
Y019127D01*
X036811Y019193D01*
X036680D01*
X036614Y019127D01*
X037008Y019193D02*
X037270D01*
Y019127D01*
X037008Y018865D01*
Y018799D01*
X021654D02*
X021785D01*
X021719D01*
Y019193D01*
X021654Y019127D01*
X021916Y019587D02*
X021654D01*
X021916Y019849D01*
Y019915D01*
X021850Y019980D01*
X021719D01*
X021654Y019915D01*
X037992Y035892D02*
Y035630D01*
X037730Y035892D01*
X037664D01*
X037599Y035827D01*
Y035696D01*
X037664Y035630D01*
Y036023D02*
X037599Y036089D01*
Y036220D01*
X037664Y036286D01*
X037730D01*
X037795Y036220D01*
X037861Y036286D01*
X037927D01*
X037992Y036220D01*
Y036089D01*
X037927Y036023D01*
X037861D01*
X037795Y036089D01*
X037730Y036023D01*
X037664D01*
X037795Y036089D02*
Y036220D01*
X038780Y035892D02*
Y035630D01*
X038517Y035892D01*
X038452D01*
X038386Y035827D01*
Y035696D01*
X038452Y035630D01*
X038386Y036023D02*
Y036286D01*
X038452D01*
X038714Y036023D01*
X038780D01*
Y020669D02*
Y020800D01*
Y020735D01*
X038386D01*
X038452Y020669D01*
X037992Y020932D02*
Y020669D01*
X037730Y020932D01*
X037664D01*
X037599Y020866D01*
Y020735D01*
X037664Y020669D01*
X021793Y037106D02*
X022055D01*
X021793Y036844D01*
Y036778D01*
X021858Y036713D01*
X021990D01*
X022055Y036778D01*
X021662D02*
X021596Y036713D01*
X021465D01*
X021399Y036778D01*
Y036844D01*
X021465Y036910D01*
X021399Y036975D01*
Y037041D01*
X021465Y037106D01*
X021596D01*
X021662Y037041D01*
Y036975D01*
X021596Y036910D01*
X021662Y036844D01*
Y036778D01*
X021596Y036910D02*
X021465D01*
X021793Y037894D02*
X022055D01*
X021793Y037631D01*
Y037566D01*
X021858Y037500D01*
X021990D01*
X022055Y037566D01*
X021662Y037500D02*
X021399D01*
Y037566D01*
X021662Y037828D01*
Y037894D01*
X037016D02*
X036885D01*
X036950D01*
Y037500D01*
X037016Y037566D01*
X036753Y037106D02*
X037016D01*
X036753Y036844D01*
Y036778D01*
X036819Y036713D01*
X036950D01*
X037016Y036778D01*
D22*
X023228Y032308D02*
Y031988D01*
X023388D01*
X023442Y032042D01*
Y032255D01*
X023388Y032308D01*
X023228D01*
X023548Y031988D02*
X023655D01*
X023602D01*
Y032308D01*
X023548Y032255D01*
X024028Y032308D02*
X023921Y032255D01*
X023815Y032148D01*
Y032042D01*
X023868Y031988D01*
X023975D01*
X024028Y032042D01*
Y032095D01*
X023975Y032148D01*
X023815D01*
X024213Y030413D02*
Y030733D01*
X024373D01*
X024426Y030680D01*
Y030573D01*
X024373Y030520D01*
X024213D01*
X024319D02*
X024426Y030413D01*
Y031763D02*
X024373Y031816D01*
X024266D01*
X024213Y031763D01*
Y031549D01*
X024266Y031496D01*
X024373D01*
X024426Y031549D01*
Y031656D01*
X024319D01*
X023228Y031816D02*
Y031496D01*
X023388D01*
X023442Y031549D01*
Y031603D01*
X023388Y031656D01*
X023228D01*
X023388D01*
X023442Y031709D01*
Y031763D01*
X023388Y031816D01*
X023228D01*
Y030413D02*
Y030627D01*
X023335Y030733D01*
X023442Y030627D01*
Y030413D01*
Y030573D01*
X023228D01*
X031496Y032308D02*
Y031988D01*
X031656D01*
X031709Y032041D01*
Y032255D01*
X031656Y032308D01*
X031496D01*
X031816Y031988D02*
X031923D01*
X031869D01*
Y032308D01*
X031816Y032255D01*
X032083Y032041D02*
X032136Y031988D01*
X032242D01*
X032296Y032041D01*
Y032255D01*
X032242Y032308D01*
X032136D01*
X032083Y032255D01*
Y032201D01*
X032136Y032148D01*
X032296D01*
X032480Y030413D02*
Y030733D01*
X032640D01*
X032694Y030680D01*
Y030573D01*
X032640Y030520D01*
X032480D01*
X032587D02*
X032694Y030413D01*
Y031763D02*
X032640Y031816D01*
X032534D01*
X032480Y031763D01*
Y031549D01*
X032534Y031496D01*
X032640D01*
X032694Y031549D01*
Y031656D01*
X032587D01*
X031496Y031816D02*
Y031496D01*
X031656D01*
X031709Y031549D01*
Y031603D01*
X031656Y031656D01*
X031496D01*
X031656D01*
X031709Y031709D01*
Y031763D01*
X031656Y031816D01*
X031496D01*
Y030413D02*
Y030627D01*
X031603Y030733D01*
X031709Y030627D01*
Y030413D01*
Y030573D01*
X031496D01*
X034252Y032308D02*
Y031988D01*
X034412D01*
X034465Y032041D01*
Y032255D01*
X034412Y032308D01*
X034252D01*
X034785Y031988D02*
X034572D01*
X034785Y032201D01*
Y032255D01*
X034732Y032308D01*
X034625D01*
X034572Y032255D01*
X034892D02*
X034945Y032308D01*
X035052D01*
X035105Y032255D01*
Y032041D01*
X035052Y031988D01*
X034945D01*
X034892Y032041D01*
Y032255D01*
X035236Y030413D02*
Y030733D01*
X035396D01*
X035449Y030680D01*
Y030573D01*
X035396Y030520D01*
X035236D01*
X035343D02*
X035449Y030413D01*
Y031763D02*
X035396Y031816D01*
X035290D01*
X035236Y031763D01*
Y031549D01*
X035290Y031496D01*
X035396D01*
X035449Y031549D01*
Y031656D01*
X035343D01*
X034252Y031816D02*
Y031496D01*
X034412D01*
X034465Y031549D01*
Y031603D01*
X034412Y031656D01*
X034252D01*
X034412D01*
X034465Y031709D01*
Y031763D01*
X034412Y031816D01*
X034252D01*
Y030413D02*
Y030627D01*
X034359Y030733D01*
X034465Y030627D01*
Y030413D01*
Y030573D01*
X034252D01*
Y035064D02*
Y034744D01*
X034412D01*
X034465Y034797D01*
Y035011D01*
X034412Y035064D01*
X034252D01*
X034785Y034744D02*
X034572D01*
X034785Y034957D01*
Y035011D01*
X034732Y035064D01*
X034625D01*
X034572Y035011D01*
X035105Y035064D02*
X034892D01*
Y034904D01*
X034998Y034957D01*
X035052D01*
X035105Y034904D01*
Y034797D01*
X035052Y034744D01*
X034945D01*
X034892Y034797D01*
X035236Y033169D02*
Y033489D01*
X035396D01*
X035449Y033436D01*
Y033329D01*
X035396Y033276D01*
X035236D01*
X035343D02*
X035449Y033169D01*
Y034519D02*
X035396Y034572D01*
X035290D01*
X035236Y034519D01*
Y034305D01*
X035290Y034252D01*
X035396D01*
X035449Y034305D01*
Y034412D01*
X035343D01*
X034252Y034572D02*
Y034252D01*
X034412D01*
X034465Y034305D01*
Y034359D01*
X034412Y034412D01*
X034252D01*
X034412D01*
X034465Y034465D01*
Y034519D01*
X034412Y034572D01*
X034252D01*
Y033169D02*
Y033383D01*
X034359Y033489D01*
X034465Y033383D01*
Y033169D01*
Y033329D01*
X034252D01*
X036220Y032087D02*
X035901D01*
Y032247D01*
X035954Y032300D01*
X036061D01*
X036114Y032247D01*
Y032087D01*
Y032193D02*
X036220Y032300D01*
X035901Y032407D02*
Y032620D01*
X035954D01*
X036167Y032407D01*
X036220D01*
X035901Y032940D02*
Y032726D01*
X036061D01*
X036007Y032833D01*
Y032886D01*
X036061Y032940D01*
X036167D01*
X036220Y032886D01*
Y032780D01*
X036167Y032726D01*
X021472Y035039D02*
Y035359D01*
X021632D01*
X021686Y035306D01*
Y035199D01*
X021632Y035146D01*
X021472D01*
X021952Y035039D02*
Y035359D01*
X021792Y035199D01*
X022006D01*
X021752Y023351D02*
X021965D01*
X021859D01*
Y023031D01*
X022072D02*
Y023351D01*
X022232D01*
X022285Y023298D01*
Y023191D01*
X022232Y023138D01*
X022072D01*
X022605Y023031D02*
X022392D01*
X022605Y023245D01*
Y023298D01*
X022552Y023351D01*
X022445D01*
X022392Y023298D01*
X023228Y024040D02*
Y023720D01*
X023388D01*
X023442Y023774D01*
Y023987D01*
X023388Y024040D01*
X023228D01*
X023548Y023720D02*
X023655D01*
X023602D01*
Y024040D01*
X023548Y023987D01*
X024213Y022146D02*
Y022466D01*
X024373D01*
X024426Y022412D01*
Y022306D01*
X024373Y022252D01*
X024213D01*
X024319D02*
X024426Y022146D01*
Y023495D02*
X024373Y023548D01*
X024266D01*
X024213Y023495D01*
Y023282D01*
X024266Y023228D01*
X024373D01*
X024426Y023282D01*
Y023388D01*
X024319D01*
X023228Y023548D02*
Y023228D01*
X023388D01*
X023442Y023282D01*
Y023335D01*
X023388Y023388D01*
X023228D01*
X023388D01*
X023442Y023442D01*
Y023495D01*
X023388Y023548D01*
X023228D01*
Y022146D02*
Y022359D01*
X023335Y022466D01*
X023442Y022359D01*
Y022146D01*
Y022306D01*
X023228D01*
X025984Y024040D02*
Y023720D01*
X026144D01*
X026198Y023774D01*
Y023987D01*
X026144Y024040D01*
X025984D01*
X026517Y023720D02*
X026304D01*
X026517Y023934D01*
Y023987D01*
X026464Y024040D01*
X026357D01*
X026304Y023987D01*
X026969Y022146D02*
Y022466D01*
X027128D01*
X027182Y022412D01*
Y022306D01*
X027128Y022252D01*
X026969D01*
X027075D02*
X027182Y022146D01*
Y023495D02*
X027128Y023548D01*
X027022D01*
X026969Y023495D01*
Y023282D01*
X027022Y023228D01*
X027128D01*
X027182Y023282D01*
Y023388D01*
X027075D01*
X025984Y023548D02*
Y023228D01*
X026144D01*
X026198Y023282D01*
Y023335D01*
X026144Y023388D01*
X025984D01*
X026144D01*
X026198Y023442D01*
Y023495D01*
X026144Y023548D01*
X025984D01*
Y022146D02*
Y022359D01*
X026091Y022466D01*
X026198Y022359D01*
Y022146D01*
Y022306D01*
X025984D01*
X028740Y024040D02*
Y023720D01*
X028900D01*
X028953Y023774D01*
Y023987D01*
X028900Y024040D01*
X028740D01*
X029060Y023987D02*
X029113Y024040D01*
X029220D01*
X029273Y023987D01*
Y023934D01*
X029220Y023880D01*
X029167D01*
X029220D01*
X029273Y023827D01*
Y023774D01*
X029220Y023720D01*
X029113D01*
X029060Y023774D01*
X029724Y022146D02*
Y022466D01*
X029884D01*
X029938Y022412D01*
Y022306D01*
X029884Y022252D01*
X029724D01*
X029831D02*
X029938Y022146D01*
Y023495D02*
X029884Y023548D01*
X029778D01*
X029724Y023495D01*
Y023282D01*
X029778Y023228D01*
X029884D01*
X029938Y023282D01*
Y023388D01*
X029831D01*
X028740Y023548D02*
Y023228D01*
X028900D01*
X028953Y023282D01*
Y023335D01*
X028900Y023388D01*
X028740D01*
X028900D01*
X028953Y023442D01*
Y023495D01*
X028900Y023548D01*
X028740D01*
Y022146D02*
Y022359D01*
X028847Y022466D01*
X028953Y022359D01*
Y022146D01*
Y022306D01*
X028740D01*
X031496Y024040D02*
Y023720D01*
X031656D01*
X031709Y023774D01*
Y023987D01*
X031656Y024040D01*
X031496D01*
X031976Y023720D02*
Y024040D01*
X031816Y023880D01*
X032029D01*
X032480Y022146D02*
Y022466D01*
X032640D01*
X032694Y022412D01*
Y022306D01*
X032640Y022252D01*
X032480D01*
X032587D02*
X032694Y022146D01*
Y023495D02*
X032640Y023548D01*
X032534D01*
X032480Y023495D01*
Y023282D01*
X032534Y023228D01*
X032640D01*
X032694Y023282D01*
Y023388D01*
X032587D01*
X031496Y023548D02*
Y023228D01*
X031656D01*
X031709Y023282D01*
Y023335D01*
X031656Y023388D01*
X031496D01*
X031656D01*
X031709Y023442D01*
Y023495D01*
X031656Y023548D01*
X031496D01*
Y022146D02*
Y022359D01*
X031603Y022466D01*
X031709Y022359D01*
Y022146D01*
Y022306D01*
X031496D01*
X034252Y024040D02*
Y023720D01*
X034412D01*
X034465Y023774D01*
Y023987D01*
X034412Y024040D01*
X034252D01*
X034785D02*
X034572D01*
Y023880D01*
X034678Y023934D01*
X034732D01*
X034785Y023880D01*
Y023774D01*
X034732Y023720D01*
X034625D01*
X034572Y023774D01*
X035236Y022146D02*
Y022466D01*
X035396D01*
X035449Y022412D01*
Y022306D01*
X035396Y022252D01*
X035236D01*
X035343D02*
X035449Y022146D01*
Y023495D02*
X035396Y023548D01*
X035290D01*
X035236Y023495D01*
Y023282D01*
X035290Y023228D01*
X035396D01*
X035449Y023282D01*
Y023388D01*
X035343D01*
X034252Y023548D02*
Y023228D01*
X034412D01*
X034465Y023282D01*
Y023335D01*
X034412Y023388D01*
X034252D01*
X034412D01*
X034465Y023442D01*
Y023495D01*
X034412Y023548D01*
X034252D01*
Y022146D02*
Y022359D01*
X034359Y022466D01*
X034465Y022359D01*
Y022146D01*
Y022306D01*
X034252D01*
X023228Y026796D02*
Y026476D01*
X023388D01*
X023442Y026530D01*
Y026743D01*
X023388Y026796D01*
X023228D01*
X023762D02*
X023655Y026743D01*
X023548Y026636D01*
Y026530D01*
X023602Y026476D01*
X023708D01*
X023762Y026530D01*
Y026583D01*
X023708Y026636D01*
X023548D01*
X024213Y024902D02*
Y025221D01*
X024373D01*
X024426Y025168D01*
Y025062D01*
X024373Y025008D01*
X024213D01*
X024319D02*
X024426Y024902D01*
Y026251D02*
X024373Y026304D01*
X024266D01*
X024213Y026251D01*
Y026038D01*
X024266Y025984D01*
X024373D01*
X024426Y026038D01*
Y026144D01*
X024319D01*
X023228Y026304D02*
Y025984D01*
X023388D01*
X023442Y026038D01*
Y026091D01*
X023388Y026144D01*
X023228D01*
X023388D01*
X023442Y026198D01*
Y026251D01*
X023388Y026304D01*
X023228D01*
Y024902D02*
Y025115D01*
X023335Y025221D01*
X023442Y025115D01*
Y024902D01*
Y025062D01*
X023228D01*
X025984Y026796D02*
Y026476D01*
X026144D01*
X026198Y026530D01*
Y026743D01*
X026144Y026796D01*
X025984D01*
X026304D02*
X026517D01*
Y026743D01*
X026304Y026530D01*
Y026476D01*
X026969Y024902D02*
Y025221D01*
X027128D01*
X027182Y025168D01*
Y025062D01*
X027128Y025008D01*
X026969D01*
X027075D02*
X027182Y024902D01*
Y026251D02*
X027128Y026304D01*
X027022D01*
X026969Y026251D01*
Y026038D01*
X027022Y025984D01*
X027128D01*
X027182Y026038D01*
Y026144D01*
X027075D01*
X025984Y026304D02*
Y025984D01*
X026144D01*
X026198Y026038D01*
Y026091D01*
X026144Y026144D01*
X025984D01*
X026144D01*
X026198Y026198D01*
Y026251D01*
X026144Y026304D01*
X025984D01*
Y024902D02*
Y025115D01*
X026091Y025221D01*
X026198Y025115D01*
Y024902D01*
Y025062D01*
X025984D01*
X028740Y026796D02*
Y026476D01*
X028900D01*
X028953Y026530D01*
Y026743D01*
X028900Y026796D01*
X028740D01*
X029060Y026743D02*
X029113Y026796D01*
X029220D01*
X029273Y026743D01*
Y026690D01*
X029220Y026636D01*
X029273Y026583D01*
Y026530D01*
X029220Y026476D01*
X029113D01*
X029060Y026530D01*
Y026583D01*
X029113Y026636D01*
X029060Y026690D01*
Y026743D01*
X029113Y026636D02*
X029220D01*
X029724Y024902D02*
Y025221D01*
X029884D01*
X029938Y025168D01*
Y025062D01*
X029884Y025008D01*
X029724D01*
X029831D02*
X029938Y024902D01*
Y026251D02*
X029884Y026304D01*
X029778D01*
X029724Y026251D01*
Y026038D01*
X029778Y025984D01*
X029884D01*
X029938Y026038D01*
Y026144D01*
X029831D01*
X028740Y026304D02*
Y025984D01*
X028900D01*
X028953Y026038D01*
Y026091D01*
X028900Y026144D01*
X028740D01*
X028900D01*
X028953Y026198D01*
Y026251D01*
X028900Y026304D01*
X028740D01*
Y024902D02*
Y025115D01*
X028847Y025221D01*
X028953Y025115D01*
Y024902D01*
Y025062D01*
X028740D01*
X031496Y026796D02*
Y026476D01*
X031656D01*
X031709Y026530D01*
Y026743D01*
X031656Y026796D01*
X031496D01*
X031816Y026530D02*
X031869Y026476D01*
X031976D01*
X032029Y026530D01*
Y026743D01*
X031976Y026796D01*
X031869D01*
X031816Y026743D01*
Y026690D01*
X031869Y026636D01*
X032029D01*
X032480Y024902D02*
Y025221D01*
X032640D01*
X032694Y025168D01*
Y025062D01*
X032640Y025008D01*
X032480D01*
X032587D02*
X032694Y024902D01*
Y026251D02*
X032640Y026304D01*
X032534D01*
X032480Y026251D01*
Y026038D01*
X032534Y025984D01*
X032640D01*
X032694Y026038D01*
Y026144D01*
X032587D01*
X031496Y026304D02*
Y025984D01*
X031656D01*
X031709Y026038D01*
Y026091D01*
X031656Y026144D01*
X031496D01*
X031656D01*
X031709Y026198D01*
Y026251D01*
X031656Y026304D01*
X031496D01*
Y024902D02*
Y025115D01*
X031603Y025221D01*
X031709Y025115D01*
Y024902D01*
Y025062D01*
X031496D01*
X034252Y026796D02*
Y026476D01*
X034412D01*
X034465Y026530D01*
Y026743D01*
X034412Y026796D01*
X034252D01*
X034572Y026476D02*
X034678D01*
X034625D01*
Y026796D01*
X034572Y026743D01*
X034838D02*
X034892Y026796D01*
X034998D01*
X035052Y026743D01*
Y026530D01*
X034998Y026476D01*
X034892D01*
X034838Y026530D01*
Y026743D01*
X035236Y024902D02*
Y025221D01*
X035396D01*
X035449Y025168D01*
Y025062D01*
X035396Y025008D01*
X035236D01*
X035343D02*
X035449Y024902D01*
Y026251D02*
X035396Y026304D01*
X035290D01*
X035236Y026251D01*
Y026038D01*
X035290Y025984D01*
X035396D01*
X035449Y026038D01*
Y026144D01*
X035343D01*
X034252Y026304D02*
Y025984D01*
X034412D01*
X034465Y026038D01*
Y026091D01*
X034412Y026144D01*
X034252D01*
X034412D01*
X034465Y026198D01*
Y026251D01*
X034412Y026304D01*
X034252D01*
Y024902D02*
Y025115D01*
X034359Y025221D01*
X034465Y025115D01*
Y024902D01*
Y025062D01*
X034252D01*
X023228Y029552D02*
Y029232D01*
X023388D01*
X023442Y029286D01*
Y029499D01*
X023388Y029552D01*
X023228D01*
X023548Y029232D02*
X023655D01*
X023602D01*
Y029552D01*
X023548Y029499D01*
X023815Y029232D02*
X023921D01*
X023868D01*
Y029552D01*
X023815Y029499D01*
X024213Y027657D02*
Y027977D01*
X024373D01*
X024426Y027924D01*
Y027817D01*
X024373Y027764D01*
X024213D01*
X024319D02*
X024426Y027657D01*
Y029007D02*
X024373Y029060D01*
X024266D01*
X024213Y029007D01*
Y028793D01*
X024266Y028740D01*
X024373D01*
X024426Y028793D01*
Y028900D01*
X024319D01*
X023228Y029060D02*
Y028740D01*
X023388D01*
X023442Y028793D01*
Y028847D01*
X023388Y028900D01*
X023228D01*
X023388D01*
X023442Y028953D01*
Y029007D01*
X023388Y029060D01*
X023228D01*
Y027657D02*
Y027871D01*
X023335Y027977D01*
X023442Y027871D01*
Y027657D01*
Y027817D01*
X023228D01*
X025984Y029552D02*
Y029232D01*
X026144D01*
X026198Y029286D01*
Y029499D01*
X026144Y029552D01*
X025984D01*
X026304Y029232D02*
X026411D01*
X026357D01*
Y029552D01*
X026304Y029499D01*
X026784Y029232D02*
X026571D01*
X026784Y029446D01*
Y029499D01*
X026731Y029552D01*
X026624D01*
X026571Y029499D01*
X026969Y027657D02*
Y027977D01*
X027128D01*
X027182Y027924D01*
Y027817D01*
X027128Y027764D01*
X026969D01*
X027075D02*
X027182Y027657D01*
Y029007D02*
X027128Y029060D01*
X027022D01*
X026969Y029007D01*
Y028793D01*
X027022Y028740D01*
X027128D01*
X027182Y028793D01*
Y028900D01*
X027075D01*
X025984Y029060D02*
Y028740D01*
X026144D01*
X026198Y028793D01*
Y028847D01*
X026144Y028900D01*
X025984D01*
X026144D01*
X026198Y028953D01*
Y029007D01*
X026144Y029060D01*
X025984D01*
Y027657D02*
Y027871D01*
X026091Y027977D01*
X026198Y027871D01*
Y027657D01*
Y027817D01*
X025984D01*
X028740Y029552D02*
Y029232D01*
X028900D01*
X028953Y029286D01*
Y029499D01*
X028900Y029552D01*
X028740D01*
X029060Y029232D02*
X029167D01*
X029113D01*
Y029552D01*
X029060Y029499D01*
X029327D02*
X029380Y029552D01*
X029487D01*
X029540Y029499D01*
Y029446D01*
X029487Y029392D01*
X029433D01*
X029487D01*
X029540Y029339D01*
Y029286D01*
X029487Y029232D01*
X029380D01*
X029327Y029286D01*
X029724Y027657D02*
Y027977D01*
X029884D01*
X029938Y027924D01*
Y027817D01*
X029884Y027764D01*
X029724D01*
X029831D02*
X029938Y027657D01*
Y029007D02*
X029884Y029060D01*
X029778D01*
X029724Y029007D01*
Y028793D01*
X029778Y028740D01*
X029884D01*
X029938Y028793D01*
Y028900D01*
X029831D01*
X028740Y029060D02*
Y028740D01*
X028900D01*
X028953Y028793D01*
Y028847D01*
X028900Y028900D01*
X028740D01*
X028900D01*
X028953Y028953D01*
Y029007D01*
X028900Y029060D01*
X028740D01*
Y027657D02*
Y027871D01*
X028847Y027977D01*
X028953Y027871D01*
Y027657D01*
Y027817D01*
X028740D01*
X031496Y029552D02*
Y029232D01*
X031656D01*
X031709Y029286D01*
Y029499D01*
X031656Y029552D01*
X031496D01*
X031816Y029232D02*
X031923D01*
X031869D01*
Y029552D01*
X031816Y029499D01*
X032242Y029232D02*
Y029552D01*
X032083Y029392D01*
X032296D01*
X032480Y027657D02*
Y027977D01*
X032640D01*
X032694Y027924D01*
Y027817D01*
X032640Y027764D01*
X032480D01*
X032587D02*
X032694Y027657D01*
Y029007D02*
X032640Y029060D01*
X032534D01*
X032480Y029007D01*
Y028793D01*
X032534Y028740D01*
X032640D01*
X032694Y028793D01*
Y028900D01*
X032587D01*
X031496Y029060D02*
Y028740D01*
X031656D01*
X031709Y028793D01*
Y028847D01*
X031656Y028900D01*
X031496D01*
X031656D01*
X031709Y028953D01*
Y029007D01*
X031656Y029060D01*
X031496D01*
Y027657D02*
Y027871D01*
X031603Y027977D01*
X031709Y027871D01*
Y027657D01*
Y027817D01*
X031496D01*
X034252Y029552D02*
Y029232D01*
X034412D01*
X034465Y029286D01*
Y029499D01*
X034412Y029552D01*
X034252D01*
X034572Y029232D02*
X034678D01*
X034625D01*
Y029552D01*
X034572Y029499D01*
X035052Y029552D02*
X034838D01*
Y029392D01*
X034945Y029446D01*
X034998D01*
X035052Y029392D01*
Y029286D01*
X034998Y029232D01*
X034892D01*
X034838Y029286D01*
X035236Y027657D02*
Y027977D01*
X035396D01*
X035449Y027924D01*
Y027817D01*
X035396Y027764D01*
X035236D01*
X035343D02*
X035449Y027657D01*
Y029007D02*
X035396Y029060D01*
X035290D01*
X035236Y029007D01*
Y028793D01*
X035290Y028740D01*
X035396D01*
X035449Y028793D01*
Y028900D01*
X035343D01*
X034252Y029060D02*
Y028740D01*
X034412D01*
X034465Y028793D01*
Y028847D01*
X034412Y028900D01*
X034252D01*
X034412D01*
X034465Y028953D01*
Y029007D01*
X034412Y029060D01*
X034252D01*
Y027657D02*
Y027871D01*
X034359Y027977D01*
X034465Y027871D01*
Y027657D01*
Y027817D01*
X034252D01*
X025984Y032308D02*
Y031988D01*
X026144D01*
X026198Y032041D01*
Y032255D01*
X026144Y032308D01*
X025984D01*
X026304Y031988D02*
X026411D01*
X026357D01*
Y032308D01*
X026304Y032255D01*
X026571Y032308D02*
X026784D01*
Y032255D01*
X026571Y032041D01*
Y031988D01*
X026969Y030413D02*
Y030733D01*
X027128D01*
X027182Y030680D01*
Y030573D01*
X027128Y030520D01*
X026969D01*
X027075D02*
X027182Y030413D01*
Y031763D02*
X027128Y031816D01*
X027022D01*
X026969Y031763D01*
Y031549D01*
X027022Y031496D01*
X027128D01*
X027182Y031549D01*
Y031656D01*
X027075D01*
X025984Y031816D02*
Y031496D01*
X026144D01*
X026198Y031549D01*
Y031603D01*
X026144Y031656D01*
X025984D01*
X026144D01*
X026198Y031709D01*
Y031763D01*
X026144Y031816D01*
X025984D01*
Y030413D02*
Y030627D01*
X026091Y030733D01*
X026198Y030627D01*
Y030413D01*
Y030573D01*
X025984D01*
X028740Y032308D02*
Y031988D01*
X028900D01*
X028953Y032041D01*
Y032255D01*
X028900Y032308D01*
X028740D01*
X029060Y031988D02*
X029167D01*
X029113D01*
Y032308D01*
X029060Y032255D01*
X029327D02*
X029380Y032308D01*
X029487D01*
X029540Y032255D01*
Y032201D01*
X029487Y032148D01*
X029540Y032095D01*
Y032041D01*
X029487Y031988D01*
X029380D01*
X029327Y032041D01*
Y032095D01*
X029380Y032148D01*
X029327Y032201D01*
Y032255D01*
X029380Y032148D02*
X029487D01*
X029724Y030413D02*
Y030733D01*
X029884D01*
X029938Y030680D01*
Y030573D01*
X029884Y030520D01*
X029724D01*
X029831D02*
X029938Y030413D01*
Y031763D02*
X029884Y031816D01*
X029778D01*
X029724Y031763D01*
Y031549D01*
X029778Y031496D01*
X029884D01*
X029938Y031549D01*
Y031656D01*
X029831D01*
X028740Y031816D02*
Y031496D01*
X028900D01*
X028953Y031549D01*
Y031603D01*
X028900Y031656D01*
X028740D01*
X028900D01*
X028953Y031709D01*
Y031763D01*
X028900Y031816D01*
X028740D01*
Y030413D02*
Y030627D01*
X028847Y030733D01*
X028953Y030627D01*
Y030413D01*
Y030573D01*
X028740D01*
X023228Y035064D02*
Y034744D01*
X023388D01*
X023442Y034797D01*
Y035011D01*
X023388Y035064D01*
X023228D01*
X023762Y034744D02*
X023548D01*
X023762Y034957D01*
Y035011D01*
X023708Y035064D01*
X023602D01*
X023548Y035011D01*
X023868Y034744D02*
X023975D01*
X023921D01*
Y035064D01*
X023868Y035011D01*
X024213Y033169D02*
Y033489D01*
X024373D01*
X024426Y033436D01*
Y033329D01*
X024373Y033276D01*
X024213D01*
X024319D02*
X024426Y033169D01*
Y034519D02*
X024373Y034572D01*
X024266D01*
X024213Y034519D01*
Y034305D01*
X024266Y034252D01*
X024373D01*
X024426Y034305D01*
Y034412D01*
X024319D01*
X023228Y034572D02*
Y034252D01*
X023388D01*
X023442Y034305D01*
Y034359D01*
X023388Y034412D01*
X023228D01*
X023388D01*
X023442Y034465D01*
Y034519D01*
X023388Y034572D01*
X023228D01*
Y033169D02*
Y033383D01*
X023335Y033489D01*
X023442Y033383D01*
Y033169D01*
Y033329D01*
X023228D01*
X025984Y035064D02*
Y034744D01*
X026144D01*
X026198Y034797D01*
Y035011D01*
X026144Y035064D01*
X025984D01*
X026517Y034744D02*
X026304D01*
X026517Y034957D01*
Y035011D01*
X026464Y035064D01*
X026357D01*
X026304Y035011D01*
X026837Y034744D02*
X026624D01*
X026837Y034957D01*
Y035011D01*
X026784Y035064D01*
X026677D01*
X026624Y035011D01*
X026969Y033169D02*
Y033489D01*
X027128D01*
X027182Y033436D01*
Y033329D01*
X027128Y033276D01*
X026969D01*
X027075D02*
X027182Y033169D01*
Y034519D02*
X027128Y034572D01*
X027022D01*
X026969Y034519D01*
Y034305D01*
X027022Y034252D01*
X027128D01*
X027182Y034305D01*
Y034412D01*
X027075D01*
X025984Y034572D02*
Y034252D01*
X026144D01*
X026198Y034305D01*
Y034359D01*
X026144Y034412D01*
X025984D01*
X026144D01*
X026198Y034465D01*
Y034519D01*
X026144Y034572D01*
X025984D01*
Y033169D02*
Y033383D01*
X026091Y033489D01*
X026198Y033383D01*
Y033169D01*
Y033329D01*
X025984D01*
X028740Y035064D02*
Y034744D01*
X028900D01*
X028953Y034797D01*
Y035011D01*
X028900Y035064D01*
X028740D01*
X029273Y034744D02*
X029060D01*
X029273Y034957D01*
Y035011D01*
X029220Y035064D01*
X029113D01*
X029060Y035011D01*
X029380D02*
X029433Y035064D01*
X029540D01*
X029593Y035011D01*
Y034957D01*
X029540Y034904D01*
X029487D01*
X029540D01*
X029593Y034851D01*
Y034797D01*
X029540Y034744D01*
X029433D01*
X029380Y034797D01*
X029724Y033169D02*
Y033489D01*
X029884D01*
X029938Y033436D01*
Y033329D01*
X029884Y033276D01*
X029724D01*
X029831D02*
X029938Y033169D01*
Y034519D02*
X029884Y034572D01*
X029778D01*
X029724Y034519D01*
Y034305D01*
X029778Y034252D01*
X029884D01*
X029938Y034305D01*
Y034412D01*
X029831D01*
X028740Y034572D02*
Y034252D01*
X028900D01*
X028953Y034305D01*
Y034359D01*
X028900Y034412D01*
X028740D01*
X028900D01*
X028953Y034465D01*
Y034519D01*
X028900Y034572D01*
X028740D01*
Y033169D02*
Y033383D01*
X028847Y033489D01*
X028953Y033383D01*
Y033169D01*
Y033329D01*
X028740D01*
X031496Y035064D02*
Y034744D01*
X031656D01*
X031709Y034797D01*
Y035011D01*
X031656Y035064D01*
X031496D01*
X032029Y034744D02*
X031816D01*
X032029Y034957D01*
Y035011D01*
X031976Y035064D01*
X031869D01*
X031816Y035011D01*
X032296Y034744D02*
Y035064D01*
X032136Y034904D01*
X032349D01*
X032480Y033169D02*
Y033489D01*
X032640D01*
X032694Y033436D01*
Y033329D01*
X032640Y033276D01*
X032480D01*
X032587D02*
X032694Y033169D01*
Y034519D02*
X032640Y034572D01*
X032534D01*
X032480Y034519D01*
Y034305D01*
X032534Y034252D01*
X032640D01*
X032694Y034305D01*
Y034412D01*
X032587D01*
X031496Y034572D02*
Y034252D01*
X031656D01*
X031709Y034305D01*
Y034359D01*
X031656Y034412D01*
X031496D01*
X031656D01*
X031709Y034465D01*
Y034519D01*
X031656Y034572D01*
X031496D01*
Y033169D02*
Y033383D01*
X031603Y033489D01*
X031709Y033383D01*
Y033169D01*
Y033329D01*
X031496D01*
X021752Y032210D02*
X021965D01*
X021859D01*
Y031890D01*
X022072D02*
Y032210D01*
X022232D01*
X022285Y032156D01*
Y032050D01*
X022232Y031996D01*
X022072D01*
X022392Y031890D02*
X022498D01*
X022445D01*
Y032210D01*
X022392Y032156D01*
X021752Y027288D02*
X021965D01*
X021859D01*
Y026969D01*
X022072D02*
Y027288D01*
X022232D01*
X022285Y027235D01*
Y027128D01*
X022232Y027075D01*
X022072D01*
X022392Y027235D02*
X022445Y027288D01*
X022552D01*
X022605Y027235D01*
Y027182D01*
X022552Y027128D01*
X022498D01*
X022552D01*
X022605Y027075D01*
Y027022D01*
X022552Y026969D01*
X022445D01*
X022392Y027022D01*
X025591Y021063D02*
X025271D01*
Y021223D01*
X025324Y021276D01*
X025431D01*
X025484Y021223D01*
Y021063D01*
Y021170D02*
X025591Y021276D01*
Y021383D02*
Y021490D01*
Y021436D01*
X025271D01*
X025324Y021383D01*
X028346Y021063D02*
X028027D01*
Y021223D01*
X028080Y021276D01*
X028187D01*
X028240Y021223D01*
Y021063D01*
Y021170D02*
X028346Y021276D01*
Y021596D02*
Y021383D01*
X028133Y021596D01*
X028080D01*
X028027Y021543D01*
Y021436D01*
X028080Y021383D01*
X031102Y021063D02*
X030782D01*
Y021223D01*
X030836Y021276D01*
X030942D01*
X030996Y021223D01*
Y021063D01*
Y021170D02*
X031102Y021276D01*
X030836Y021383D02*
X030782Y021436D01*
Y021543D01*
X030836Y021596D01*
X030889D01*
X030942Y021543D01*
Y021490D01*
Y021543D01*
X030996Y021596D01*
X031049D01*
X031102Y021543D01*
Y021436D01*
X031049Y021383D01*
X033858Y021063D02*
X033538D01*
Y021223D01*
X033592Y021276D01*
X033698D01*
X033752Y021223D01*
Y021063D01*
Y021170D02*
X033858Y021276D01*
Y021543D02*
X033538D01*
X033698Y021383D01*
Y021596D01*
X036614Y021063D02*
X036294D01*
Y021223D01*
X036348Y021276D01*
X036454D01*
X036508Y021223D01*
Y021063D01*
Y021170D02*
X036614Y021276D01*
X036294Y021596D02*
Y021383D01*
X036454D01*
X036401Y021490D01*
Y021543D01*
X036454Y021596D01*
X036561D01*
X036614Y021543D01*
Y021436D01*
X036561Y021383D01*
X025591Y023819D02*
X025271D01*
Y023979D01*
X025324Y024032D01*
X025431D01*
X025484Y023979D01*
Y023819D01*
Y023926D02*
X025591Y024032D01*
X025271Y024352D02*
X025324Y024245D01*
X025431Y024139D01*
X025537D01*
X025591Y024192D01*
Y024299D01*
X025537Y024352D01*
X025484D01*
X025431Y024299D01*
Y024139D01*
X028346Y023819D02*
X028027D01*
Y023979D01*
X028080Y024032D01*
X028187D01*
X028240Y023979D01*
Y023819D01*
Y023926D02*
X028346Y024032D01*
X028027Y024139D02*
Y024352D01*
X028080D01*
X028293Y024139D01*
X028346D01*
X031102Y023819D02*
X030782D01*
Y023979D01*
X030836Y024032D01*
X030942D01*
X030996Y023979D01*
Y023819D01*
Y023926D02*
X031102Y024032D01*
X030836Y024139D02*
X030782Y024192D01*
Y024299D01*
X030836Y024352D01*
X030889D01*
X030942Y024299D01*
X030996Y024352D01*
X031049D01*
X031102Y024299D01*
Y024192D01*
X031049Y024139D01*
X030996D01*
X030942Y024192D01*
X030889Y024139D01*
X030836D01*
X030942Y024192D02*
Y024299D01*
X033858Y023819D02*
X033538D01*
Y023979D01*
X033592Y024032D01*
X033698D01*
X033752Y023979D01*
Y023819D01*
Y023926D02*
X033858Y024032D01*
X033805Y024139D02*
X033858Y024192D01*
Y024299D01*
X033805Y024352D01*
X033592D01*
X033538Y024299D01*
Y024192D01*
X033592Y024139D01*
X033645D01*
X033698Y024192D01*
Y024352D01*
X024606Y021063D02*
X024286D01*
Y021223D01*
X024340Y021276D01*
X024446D01*
X024500Y021223D01*
Y021063D01*
Y021170D02*
X024606Y021276D01*
Y021383D02*
Y021490D01*
Y021436D01*
X024286D01*
X024340Y021383D01*
Y021649D02*
X024286Y021703D01*
Y021809D01*
X024340Y021863D01*
X024553D01*
X024606Y021809D01*
Y021703D01*
X024553Y021649D01*
X024340D01*
X027362Y021063D02*
X027042D01*
Y021223D01*
X027096Y021276D01*
X027202D01*
X027256Y021223D01*
Y021063D01*
Y021170D02*
X027362Y021276D01*
Y021383D02*
Y021490D01*
Y021436D01*
X027042D01*
X027096Y021383D01*
X027362Y021649D02*
Y021756D01*
Y021703D01*
X027042D01*
X027096Y021649D01*
X030118Y021063D02*
X029798D01*
Y021223D01*
X029852Y021276D01*
X029958D01*
X030011Y021223D01*
Y021063D01*
Y021170D02*
X030118Y021276D01*
Y021383D02*
Y021490D01*
Y021436D01*
X029798D01*
X029852Y021383D01*
X030118Y021863D02*
Y021649D01*
X029905Y021863D01*
X029852D01*
X029798Y021809D01*
Y021703D01*
X029852Y021649D01*
X032874Y021063D02*
X032554D01*
Y021223D01*
X032607Y021276D01*
X032714D01*
X032767Y021223D01*
Y021063D01*
Y021170D02*
X032874Y021276D01*
Y021383D02*
Y021490D01*
Y021436D01*
X032554D01*
X032607Y021383D01*
Y021649D02*
X032554Y021703D01*
Y021809D01*
X032607Y021863D01*
X032661D01*
X032714Y021809D01*
Y021756D01*
Y021809D01*
X032767Y021863D01*
X032821D01*
X032874Y021809D01*
Y021703D01*
X032821Y021649D01*
X035630Y021063D02*
X035310D01*
Y021223D01*
X035363Y021276D01*
X035470D01*
X035523Y021223D01*
Y021063D01*
Y021170D02*
X035630Y021276D01*
Y021383D02*
Y021490D01*
Y021436D01*
X035310D01*
X035363Y021383D01*
X035630Y021809D02*
X035310D01*
X035470Y021649D01*
Y021863D01*
X024606Y023819D02*
X024286D01*
Y023979D01*
X024340Y024032D01*
X024446D01*
X024500Y023979D01*
Y023819D01*
Y023926D02*
X024606Y024032D01*
Y024139D02*
Y024245D01*
Y024192D01*
X024286D01*
X024340Y024139D01*
X024286Y024619D02*
Y024405D01*
X024446D01*
X024393Y024512D01*
Y024565D01*
X024446Y024619D01*
X024553D01*
X024606Y024565D01*
Y024459D01*
X024553Y024405D01*
X027362Y023819D02*
X027042D01*
Y023979D01*
X027096Y024032D01*
X027202D01*
X027256Y023979D01*
Y023819D01*
Y023926D02*
X027362Y024032D01*
Y024139D02*
Y024245D01*
Y024192D01*
X027042D01*
X027096Y024139D01*
X027042Y024619D02*
X027096Y024512D01*
X027202Y024405D01*
X027309D01*
X027362Y024459D01*
Y024565D01*
X027309Y024619D01*
X027256D01*
X027202Y024565D01*
Y024405D01*
X030118Y023819D02*
X029798D01*
Y023979D01*
X029852Y024032D01*
X029958D01*
X030011Y023979D01*
Y023819D01*
Y023926D02*
X030118Y024032D01*
Y024139D02*
Y024245D01*
Y024192D01*
X029798D01*
X029852Y024139D01*
X029798Y024405D02*
Y024619D01*
X029852D01*
X030065Y024405D01*
X030118D01*
X032874Y023819D02*
X032554D01*
Y023979D01*
X032607Y024032D01*
X032714D01*
X032767Y023979D01*
Y023819D01*
Y023926D02*
X032874Y024032D01*
Y024139D02*
Y024245D01*
Y024192D01*
X032554D01*
X032607Y024139D01*
Y024405D02*
X032554Y024459D01*
Y024565D01*
X032607Y024619D01*
X032661D01*
X032714Y024565D01*
X032767Y024619D01*
X032821D01*
X032874Y024565D01*
Y024459D01*
X032821Y024405D01*
X032767D01*
X032714Y024459D01*
X032661Y024405D01*
X032607D01*
X032714Y024459D02*
Y024565D01*
X025098Y021063D02*
X024779D01*
Y021223D01*
X024832Y021276D01*
X024938D01*
X024992Y021223D01*
Y021063D01*
Y021170D02*
X025098Y021276D01*
Y021383D02*
Y021490D01*
Y021436D01*
X024779D01*
X024832Y021383D01*
X025045Y021649D02*
X025098Y021703D01*
Y021809D01*
X025045Y021863D01*
X024832D01*
X024779Y021809D01*
Y021703D01*
X024832Y021649D01*
X024885D01*
X024938Y021703D01*
Y021863D01*
X027854Y021063D02*
X027534D01*
Y021223D01*
X027588Y021276D01*
X027694D01*
X027748Y021223D01*
Y021063D01*
Y021170D02*
X027854Y021276D01*
Y021596D02*
Y021383D01*
X027641Y021596D01*
X027588D01*
X027534Y021543D01*
Y021436D01*
X027588Y021383D01*
Y021703D02*
X027534Y021756D01*
Y021863D01*
X027588Y021916D01*
X027801D01*
X027854Y021863D01*
Y021756D01*
X027801Y021703D01*
X027588D01*
X030610Y021063D02*
X030290D01*
Y021223D01*
X030344Y021276D01*
X030450D01*
X030504Y021223D01*
Y021063D01*
Y021170D02*
X030610Y021276D01*
Y021596D02*
Y021383D01*
X030397Y021596D01*
X030344D01*
X030290Y021543D01*
Y021436D01*
X030344Y021383D01*
X030610Y021703D02*
Y021809D01*
Y021756D01*
X030290D01*
X030344Y021703D01*
X033366Y021063D02*
X033046D01*
Y021223D01*
X033100Y021276D01*
X033206D01*
X033260Y021223D01*
Y021063D01*
Y021170D02*
X033366Y021276D01*
Y021596D02*
Y021383D01*
X033153Y021596D01*
X033100D01*
X033046Y021543D01*
Y021436D01*
X033100Y021383D01*
X033366Y021916D02*
Y021703D01*
X033153Y021916D01*
X033100D01*
X033046Y021863D01*
Y021756D01*
X033100Y021703D01*
X036122Y021063D02*
X035802D01*
Y021223D01*
X035855Y021276D01*
X035962D01*
X036015Y021223D01*
Y021063D01*
Y021170D02*
X036122Y021276D01*
Y021596D02*
Y021383D01*
X035909Y021596D01*
X035855D01*
X035802Y021543D01*
Y021436D01*
X035855Y021383D01*
Y021703D02*
X035802Y021756D01*
Y021863D01*
X035855Y021916D01*
X035909D01*
X035962Y021863D01*
Y021809D01*
Y021863D01*
X036015Y021916D01*
X036069D01*
X036122Y021863D01*
Y021756D01*
X036069Y021703D01*
X025098Y023819D02*
X024779D01*
Y023979D01*
X024832Y024032D01*
X024938D01*
X024992Y023979D01*
Y023819D01*
Y023926D02*
X025098Y024032D01*
Y024352D02*
Y024139D01*
X024885Y024352D01*
X024832D01*
X024779Y024299D01*
Y024192D01*
X024832Y024139D01*
X025098Y024619D02*
X024779D01*
X024938Y024459D01*
Y024672D01*
X027854Y023819D02*
X027534D01*
Y023979D01*
X027588Y024032D01*
X027694D01*
X027748Y023979D01*
Y023819D01*
Y023926D02*
X027854Y024032D01*
Y024352D02*
Y024139D01*
X027641Y024352D01*
X027588D01*
X027534Y024299D01*
Y024192D01*
X027588Y024139D01*
X027534Y024672D02*
Y024459D01*
X027694D01*
X027641Y024565D01*
Y024619D01*
X027694Y024672D01*
X027801D01*
X027854Y024619D01*
Y024512D01*
X027801Y024459D01*
X030610Y023819D02*
X030290D01*
Y023979D01*
X030344Y024032D01*
X030450D01*
X030504Y023979D01*
Y023819D01*
Y023926D02*
X030610Y024032D01*
Y024352D02*
Y024139D01*
X030397Y024352D01*
X030344D01*
X030290Y024299D01*
Y024192D01*
X030344Y024139D01*
X030290Y024672D02*
X030344Y024565D01*
X030450Y024459D01*
X030557D01*
X030610Y024512D01*
Y024619D01*
X030557Y024672D01*
X030504D01*
X030450Y024619D01*
Y024459D01*
X033366Y023819D02*
X033046D01*
Y023979D01*
X033100Y024032D01*
X033206D01*
X033260Y023979D01*
Y023819D01*
Y023926D02*
X033366Y024032D01*
Y024352D02*
Y024139D01*
X033153Y024352D01*
X033100D01*
X033046Y024299D01*
Y024192D01*
X033100Y024139D01*
X033046Y024459D02*
Y024672D01*
X033100D01*
X033313Y024459D01*
X033366D01*
X036614Y023819D02*
X036294D01*
Y023979D01*
X036348Y024032D01*
X036454D01*
X036508Y023979D01*
Y023819D01*
Y023926D02*
X036614Y024032D01*
Y024352D02*
Y024139D01*
X036401Y024352D01*
X036348D01*
X036294Y024299D01*
Y024192D01*
X036348Y024139D01*
Y024459D02*
X036294Y024512D01*
Y024619D01*
X036348Y024672D01*
X036401D01*
X036454Y024619D01*
X036508Y024672D01*
X036561D01*
X036614Y024619D01*
Y024512D01*
X036561Y024459D01*
X036508D01*
X036454Y024512D01*
X036401Y024459D01*
X036348D01*
X036454Y024512D02*
Y024619D01*
X025591Y026575D02*
X025271D01*
Y026735D01*
X025324Y026788D01*
X025431D01*
X025484Y026735D01*
Y026575D01*
Y026681D02*
X025591Y026788D01*
Y027108D02*
Y026895D01*
X025377Y027108D01*
X025324D01*
X025271Y027055D01*
Y026948D01*
X025324Y026895D01*
X025537Y027215D02*
X025591Y027268D01*
Y027375D01*
X025537Y027428D01*
X025324D01*
X025271Y027375D01*
Y027268D01*
X025324Y027215D01*
X025377D01*
X025431Y027268D01*
Y027428D01*
X028346Y026575D02*
X028027D01*
Y026735D01*
X028080Y026788D01*
X028187D01*
X028240Y026735D01*
Y026575D01*
Y026681D02*
X028346Y026788D01*
X028080Y026895D02*
X028027Y026948D01*
Y027055D01*
X028080Y027108D01*
X028133D01*
X028187Y027055D01*
Y027001D01*
Y027055D01*
X028240Y027108D01*
X028293D01*
X028346Y027055D01*
Y026948D01*
X028293Y026895D01*
X028080Y027215D02*
X028027Y027268D01*
Y027375D01*
X028080Y027428D01*
X028293D01*
X028346Y027375D01*
Y027268D01*
X028293Y027215D01*
X028080D01*
X031102Y026575D02*
X030782D01*
Y026735D01*
X030836Y026788D01*
X030942D01*
X030996Y026735D01*
Y026575D01*
Y026681D02*
X031102Y026788D01*
X030836Y026895D02*
X030782Y026948D01*
Y027055D01*
X030836Y027108D01*
X030889D01*
X030942Y027055D01*
Y027001D01*
Y027055D01*
X030996Y027108D01*
X031049D01*
X031102Y027055D01*
Y026948D01*
X031049Y026895D01*
X031102Y027215D02*
Y027321D01*
Y027268D01*
X030782D01*
X030836Y027215D01*
X033858Y026575D02*
X033538D01*
Y026735D01*
X033592Y026788D01*
X033698D01*
X033752Y026735D01*
Y026575D01*
Y026681D02*
X033858Y026788D01*
X033592Y026895D02*
X033538Y026948D01*
Y027055D01*
X033592Y027108D01*
X033645D01*
X033698Y027055D01*
Y027001D01*
Y027055D01*
X033752Y027108D01*
X033805D01*
X033858Y027055D01*
Y026948D01*
X033805Y026895D01*
X033858Y027428D02*
Y027215D01*
X033645Y027428D01*
X033592D01*
X033538Y027375D01*
Y027268D01*
X033592Y027215D01*
X036614Y026575D02*
X036294D01*
Y026735D01*
X036348Y026788D01*
X036454D01*
X036508Y026735D01*
Y026575D01*
Y026681D02*
X036614Y026788D01*
X036348Y026895D02*
X036294Y026948D01*
Y027055D01*
X036348Y027108D01*
X036401D01*
X036454Y027055D01*
Y027001D01*
Y027055D01*
X036508Y027108D01*
X036561D01*
X036614Y027055D01*
Y026948D01*
X036561Y026895D01*
X036348Y027215D02*
X036294Y027268D01*
Y027375D01*
X036348Y027428D01*
X036401D01*
X036454Y027375D01*
Y027321D01*
Y027375D01*
X036508Y027428D01*
X036561D01*
X036614Y027375D01*
Y027268D01*
X036561Y027215D01*
X025591Y029331D02*
X025271D01*
Y029491D01*
X025324Y029544D01*
X025431D01*
X025484Y029491D01*
Y029331D01*
Y029437D02*
X025591Y029544D01*
X025324Y029651D02*
X025271Y029704D01*
Y029811D01*
X025324Y029864D01*
X025377D01*
X025431Y029811D01*
Y029757D01*
Y029811D01*
X025484Y029864D01*
X025537D01*
X025591Y029811D01*
Y029704D01*
X025537Y029651D01*
X025591Y030130D02*
X025271D01*
X025431Y029971D01*
Y030184D01*
X028346Y029331D02*
X028027D01*
Y029491D01*
X028080Y029544D01*
X028187D01*
X028240Y029491D01*
Y029331D01*
Y029437D02*
X028346Y029544D01*
X028080Y029651D02*
X028027Y029704D01*
Y029811D01*
X028080Y029864D01*
X028133D01*
X028187Y029811D01*
Y029757D01*
Y029811D01*
X028240Y029864D01*
X028293D01*
X028346Y029811D01*
Y029704D01*
X028293Y029651D01*
X028027Y030184D02*
Y029971D01*
X028187D01*
X028133Y030077D01*
Y030130D01*
X028187Y030184D01*
X028293D01*
X028346Y030130D01*
Y030024D01*
X028293Y029971D01*
X031102Y029331D02*
X030782D01*
Y029491D01*
X030836Y029544D01*
X030942D01*
X030996Y029491D01*
Y029331D01*
Y029437D02*
X031102Y029544D01*
X030836Y029651D02*
X030782Y029704D01*
Y029811D01*
X030836Y029864D01*
X030889D01*
X030942Y029811D01*
Y029757D01*
Y029811D01*
X030996Y029864D01*
X031049D01*
X031102Y029811D01*
Y029704D01*
X031049Y029651D01*
X030782Y030184D02*
X030836Y030077D01*
X030942Y029971D01*
X031049D01*
X031102Y030024D01*
Y030130D01*
X031049Y030184D01*
X030996D01*
X030942Y030130D01*
Y029971D01*
X035630Y023819D02*
X035310D01*
Y023979D01*
X035363Y024032D01*
X035470D01*
X035523Y023979D01*
Y023819D01*
Y023926D02*
X035630Y024032D01*
X035363Y024139D02*
X035310Y024192D01*
Y024299D01*
X035363Y024352D01*
X035417D01*
X035470Y024299D01*
Y024245D01*
Y024299D01*
X035523Y024352D01*
X035577D01*
X035630Y024299D01*
Y024192D01*
X035577Y024139D01*
X035310Y024459D02*
Y024672D01*
X035363D01*
X035577Y024459D01*
X035630D01*
X024606Y026575D02*
X024286D01*
Y026735D01*
X024340Y026788D01*
X024446D01*
X024500Y026735D01*
Y026575D01*
Y026681D02*
X024606Y026788D01*
X024340Y026895D02*
X024286Y026948D01*
Y027055D01*
X024340Y027108D01*
X024393D01*
X024446Y027055D01*
Y027001D01*
Y027055D01*
X024500Y027108D01*
X024553D01*
X024606Y027055D01*
Y026948D01*
X024553Y026895D01*
X024340Y027215D02*
X024286Y027268D01*
Y027375D01*
X024340Y027428D01*
X024393D01*
X024446Y027375D01*
X024500Y027428D01*
X024553D01*
X024606Y027375D01*
Y027268D01*
X024553Y027215D01*
X024500D01*
X024446Y027268D01*
X024393Y027215D01*
X024340D01*
X024446Y027268D02*
Y027375D01*
X027362Y026575D02*
X027042D01*
Y026735D01*
X027096Y026788D01*
X027202D01*
X027256Y026735D01*
Y026575D01*
Y026681D02*
X027362Y026788D01*
X027096Y026895D02*
X027042Y026948D01*
Y027055D01*
X027096Y027108D01*
X027149D01*
X027202Y027055D01*
Y027001D01*
Y027055D01*
X027256Y027108D01*
X027309D01*
X027362Y027055D01*
Y026948D01*
X027309Y026895D01*
Y027215D02*
X027362Y027268D01*
Y027375D01*
X027309Y027428D01*
X027096D01*
X027042Y027375D01*
Y027268D01*
X027096Y027215D01*
X027149D01*
X027202Y027268D01*
Y027428D01*
X030118Y026575D02*
X029798D01*
Y026735D01*
X029852Y026788D01*
X029958D01*
X030011Y026735D01*
Y026575D01*
Y026681D02*
X030118Y026788D01*
Y027055D02*
X029798D01*
X029958Y026895D01*
Y027108D01*
X029852Y027215D02*
X029798Y027268D01*
Y027375D01*
X029852Y027428D01*
X030065D01*
X030118Y027375D01*
Y027268D01*
X030065Y027215D01*
X029852D01*
X032874Y026575D02*
X032554D01*
Y026735D01*
X032607Y026788D01*
X032714D01*
X032767Y026735D01*
Y026575D01*
Y026681D02*
X032874Y026788D01*
Y027055D02*
X032554D01*
X032714Y026895D01*
Y027108D01*
X032874Y027215D02*
Y027321D01*
Y027268D01*
X032554D01*
X032607Y027215D01*
X035630Y026575D02*
X035310D01*
Y026735D01*
X035363Y026788D01*
X035470D01*
X035523Y026735D01*
Y026575D01*
Y026681D02*
X035630Y026788D01*
Y027055D02*
X035310D01*
X035470Y026895D01*
Y027108D01*
X035630Y027428D02*
Y027215D01*
X035417Y027428D01*
X035363D01*
X035310Y027375D01*
Y027268D01*
X035363Y027215D01*
X024606Y029331D02*
X024286D01*
Y029491D01*
X024340Y029544D01*
X024446D01*
X024500Y029491D01*
Y029331D01*
Y029437D02*
X024606Y029544D01*
Y029811D02*
X024286D01*
X024446Y029651D01*
Y029864D01*
X024340Y029971D02*
X024286Y030024D01*
Y030130D01*
X024340Y030184D01*
X024393D01*
X024446Y030130D01*
Y030077D01*
Y030130D01*
X024500Y030184D01*
X024553D01*
X024606Y030130D01*
Y030024D01*
X024553Y029971D01*
X027362Y029331D02*
X027042D01*
Y029491D01*
X027096Y029544D01*
X027202D01*
X027256Y029491D01*
Y029331D01*
Y029437D02*
X027362Y029544D01*
Y029811D02*
X027042D01*
X027202Y029651D01*
Y029864D01*
X027362Y030130D02*
X027042D01*
X027202Y029971D01*
Y030184D01*
X030118Y029331D02*
X029798D01*
Y029491D01*
X029852Y029544D01*
X029958D01*
X030011Y029491D01*
Y029331D01*
Y029437D02*
X030118Y029544D01*
Y029811D02*
X029798D01*
X029958Y029651D01*
Y029864D01*
X029798Y030184D02*
Y029971D01*
X029958D01*
X029905Y030077D01*
Y030130D01*
X029958Y030184D01*
X030065D01*
X030118Y030130D01*
Y030024D01*
X030065Y029971D01*
X036122Y023819D02*
X035802D01*
Y023979D01*
X035855Y024032D01*
X035962D01*
X036015Y023979D01*
Y023819D01*
Y023926D02*
X036122Y024032D01*
Y024299D02*
X035802D01*
X035962Y024139D01*
Y024352D01*
X035802Y024672D02*
X035855Y024565D01*
X035962Y024459D01*
X036069D01*
X036122Y024512D01*
Y024619D01*
X036069Y024672D01*
X036015D01*
X035962Y024619D01*
Y024459D01*
X025098Y026575D02*
X024779D01*
Y026735D01*
X024832Y026788D01*
X024938D01*
X024992Y026735D01*
Y026575D01*
Y026681D02*
X025098Y026788D01*
Y027055D02*
X024779D01*
X024938Y026895D01*
Y027108D01*
X024779Y027215D02*
Y027428D01*
X024832D01*
X025045Y027215D01*
X025098D01*
X027854Y026575D02*
X027534D01*
Y026735D01*
X027588Y026788D01*
X027694D01*
X027748Y026735D01*
Y026575D01*
Y026681D02*
X027854Y026788D01*
Y027055D02*
X027534D01*
X027694Y026895D01*
Y027108D01*
X027588Y027215D02*
X027534Y027268D01*
Y027375D01*
X027588Y027428D01*
X027641D01*
X027694Y027375D01*
X027748Y027428D01*
X027801D01*
X027854Y027375D01*
Y027268D01*
X027801Y027215D01*
X027748D01*
X027694Y027268D01*
X027641Y027215D01*
X027588D01*
X027694Y027268D02*
Y027375D01*
X030610Y026575D02*
X030290D01*
Y026735D01*
X030344Y026788D01*
X030450D01*
X030504Y026735D01*
Y026575D01*
Y026681D02*
X030610Y026788D01*
Y027055D02*
X030290D01*
X030450Y026895D01*
Y027108D01*
X030557Y027215D02*
X030610Y027268D01*
Y027375D01*
X030557Y027428D01*
X030344D01*
X030290Y027375D01*
Y027268D01*
X030344Y027215D01*
X030397D01*
X030450Y027268D01*
Y027428D01*
X033366Y026575D02*
X033046D01*
Y026735D01*
X033100Y026788D01*
X033206D01*
X033260Y026735D01*
Y026575D01*
Y026681D02*
X033366Y026788D01*
X033046Y027108D02*
Y026895D01*
X033206D01*
X033153Y027001D01*
Y027055D01*
X033206Y027108D01*
X033313D01*
X033366Y027055D01*
Y026948D01*
X033313Y026895D01*
X033100Y027215D02*
X033046Y027268D01*
Y027375D01*
X033100Y027428D01*
X033313D01*
X033366Y027375D01*
Y027268D01*
X033313Y027215D01*
X033100D01*
X036122Y026575D02*
X035802D01*
Y026735D01*
X035855Y026788D01*
X035962D01*
X036015Y026735D01*
Y026575D01*
Y026681D02*
X036122Y026788D01*
X035802Y027108D02*
Y026895D01*
X035962D01*
X035909Y027001D01*
Y027055D01*
X035962Y027108D01*
X036069D01*
X036122Y027055D01*
Y026948D01*
X036069Y026895D01*
X036122Y027215D02*
Y027321D01*
Y027268D01*
X035802D01*
X035855Y027215D01*
X025098Y029331D02*
X024779D01*
Y029491D01*
X024832Y029544D01*
X024938D01*
X024992Y029491D01*
Y029331D01*
Y029437D02*
X025098Y029544D01*
X024779Y029864D02*
Y029651D01*
X024938D01*
X024885Y029757D01*
Y029811D01*
X024938Y029864D01*
X025045D01*
X025098Y029811D01*
Y029704D01*
X025045Y029651D01*
X025098Y030184D02*
Y029971D01*
X024885Y030184D01*
X024832D01*
X024779Y030130D01*
Y030024D01*
X024832Y029971D01*
X027854Y029331D02*
X027534D01*
Y029491D01*
X027588Y029544D01*
X027694D01*
X027748Y029491D01*
Y029331D01*
Y029437D02*
X027854Y029544D01*
X027534Y029864D02*
Y029651D01*
X027694D01*
X027641Y029757D01*
Y029811D01*
X027694Y029864D01*
X027801D01*
X027854Y029811D01*
Y029704D01*
X027801Y029651D01*
X027588Y029971D02*
X027534Y030024D01*
Y030130D01*
X027588Y030184D01*
X027641D01*
X027694Y030130D01*
Y030077D01*
Y030130D01*
X027748Y030184D01*
X027801D01*
X027854Y030130D01*
Y030024D01*
X027801Y029971D01*
X030610Y029331D02*
X030290D01*
Y029491D01*
X030344Y029544D01*
X030450D01*
X030504Y029491D01*
Y029331D01*
Y029437D02*
X030610Y029544D01*
X030290Y029864D02*
Y029651D01*
X030450D01*
X030397Y029757D01*
Y029811D01*
X030450Y029864D01*
X030557D01*
X030610Y029811D01*
Y029704D01*
X030557Y029651D01*
X030610Y030130D02*
X030290D01*
X030450Y029971D01*
Y030184D01*
X033858Y029331D02*
X033538D01*
Y029491D01*
X033592Y029544D01*
X033698D01*
X033752Y029491D01*
Y029331D01*
Y029437D02*
X033858Y029544D01*
X033538Y029864D02*
Y029651D01*
X033698D01*
X033645Y029757D01*
Y029811D01*
X033698Y029864D01*
X033805D01*
X033858Y029811D01*
Y029704D01*
X033805Y029651D01*
X033538Y030184D02*
Y029971D01*
X033698D01*
X033645Y030077D01*
Y030130D01*
X033698Y030184D01*
X033805D01*
X033858Y030130D01*
Y030024D01*
X033805Y029971D01*
X036614Y029331D02*
X036294D01*
Y029491D01*
X036348Y029544D01*
X036454D01*
X036508Y029491D01*
Y029331D01*
Y029437D02*
X036614Y029544D01*
X036294Y029864D02*
Y029651D01*
X036454D01*
X036401Y029757D01*
Y029811D01*
X036454Y029864D01*
X036561D01*
X036614Y029811D01*
Y029704D01*
X036561Y029651D01*
X036294Y030184D02*
X036348Y030077D01*
X036454Y029971D01*
X036561D01*
X036614Y030024D01*
Y030130D01*
X036561Y030184D01*
X036508D01*
X036454Y030130D01*
Y029971D01*
X025591Y032087D02*
X025271D01*
Y032247D01*
X025324Y032300D01*
X025431D01*
X025484Y032247D01*
Y032087D01*
Y032193D02*
X025591Y032300D01*
X025271Y032620D02*
Y032407D01*
X025431D01*
X025377Y032513D01*
Y032566D01*
X025431Y032620D01*
X025537D01*
X025591Y032566D01*
Y032460D01*
X025537Y032407D01*
X025271Y032726D02*
Y032940D01*
X025324D01*
X025537Y032726D01*
X025591D01*
X028346Y032087D02*
X028027D01*
Y032247D01*
X028080Y032300D01*
X028187D01*
X028240Y032247D01*
Y032087D01*
Y032193D02*
X028346Y032300D01*
X028027Y032620D02*
Y032407D01*
X028187D01*
X028133Y032513D01*
Y032566D01*
X028187Y032620D01*
X028293D01*
X028346Y032566D01*
Y032460D01*
X028293Y032407D01*
X028080Y032726D02*
X028027Y032780D01*
Y032886D01*
X028080Y032940D01*
X028133D01*
X028187Y032886D01*
X028240Y032940D01*
X028293D01*
X028346Y032886D01*
Y032780D01*
X028293Y032726D01*
X028240D01*
X028187Y032780D01*
X028133Y032726D01*
X028080D01*
X028187Y032780D02*
Y032886D01*
X031102Y032087D02*
X030782D01*
Y032247D01*
X030836Y032300D01*
X030942D01*
X030996Y032247D01*
Y032087D01*
Y032193D02*
X031102Y032300D01*
X030782Y032620D02*
Y032407D01*
X030942D01*
X030889Y032513D01*
Y032566D01*
X030942Y032620D01*
X031049D01*
X031102Y032566D01*
Y032460D01*
X031049Y032407D01*
Y032726D02*
X031102Y032780D01*
Y032886D01*
X031049Y032940D01*
X030836D01*
X030782Y032886D01*
Y032780D01*
X030836Y032726D01*
X030889D01*
X030942Y032780D01*
Y032940D01*
X033858Y032087D02*
X033538D01*
Y032247D01*
X033592Y032300D01*
X033698D01*
X033752Y032247D01*
Y032087D01*
Y032193D02*
X033858Y032300D01*
X033538Y032620D02*
X033592Y032513D01*
X033698Y032407D01*
X033805D01*
X033858Y032460D01*
Y032566D01*
X033805Y032620D01*
X033752D01*
X033698Y032566D01*
Y032407D01*
X033592Y032726D02*
X033538Y032780D01*
Y032886D01*
X033592Y032940D01*
X033805D01*
X033858Y032886D01*
Y032780D01*
X033805Y032726D01*
X033592D01*
X036713Y032087D02*
X036393D01*
Y032247D01*
X036446Y032300D01*
X036553D01*
X036606Y032247D01*
Y032087D01*
Y032193D02*
X036713Y032300D01*
X036393Y032620D02*
X036446Y032513D01*
X036553Y032407D01*
X036659D01*
X036713Y032460D01*
Y032566D01*
X036659Y032620D01*
X036606D01*
X036553Y032566D01*
Y032407D01*
X036713Y032726D02*
Y032833D01*
Y032780D01*
X036393D01*
X036446Y032726D01*
X032874Y029331D02*
X032554D01*
Y029491D01*
X032607Y029544D01*
X032714D01*
X032767Y029491D01*
Y029331D01*
Y029437D02*
X032874Y029544D01*
X032554Y029864D02*
X032607Y029757D01*
X032714Y029651D01*
X032821D01*
X032874Y029704D01*
Y029811D01*
X032821Y029864D01*
X032767D01*
X032714Y029811D01*
Y029651D01*
X032874Y030184D02*
Y029971D01*
X032661Y030184D01*
X032607D01*
X032554Y030130D01*
Y030024D01*
X032607Y029971D01*
X035630Y029331D02*
X035310D01*
Y029491D01*
X035363Y029544D01*
X035470D01*
X035523Y029491D01*
Y029331D01*
Y029437D02*
X035630Y029544D01*
X035310Y029864D02*
X035363Y029757D01*
X035470Y029651D01*
X035577D01*
X035630Y029704D01*
Y029811D01*
X035577Y029864D01*
X035523D01*
X035470Y029811D01*
Y029651D01*
X035363Y029971D02*
X035310Y030024D01*
Y030130D01*
X035363Y030184D01*
X035417D01*
X035470Y030130D01*
Y030077D01*
Y030130D01*
X035523Y030184D01*
X035577D01*
X035630Y030130D01*
Y030024D01*
X035577Y029971D01*
X024606Y032087D02*
X024286D01*
Y032247D01*
X024340Y032300D01*
X024446D01*
X024500Y032247D01*
Y032087D01*
Y032193D02*
X024606Y032300D01*
X024286Y032620D02*
X024340Y032513D01*
X024446Y032407D01*
X024553D01*
X024606Y032460D01*
Y032566D01*
X024553Y032620D01*
X024500D01*
X024446Y032566D01*
Y032407D01*
X024606Y032886D02*
X024286D01*
X024446Y032726D01*
Y032940D01*
X027362Y032087D02*
X027042D01*
Y032247D01*
X027096Y032300D01*
X027202D01*
X027256Y032247D01*
Y032087D01*
Y032193D02*
X027362Y032300D01*
X027042Y032620D02*
X027096Y032513D01*
X027202Y032407D01*
X027309D01*
X027362Y032460D01*
Y032566D01*
X027309Y032620D01*
X027256D01*
X027202Y032566D01*
Y032407D01*
X027042Y032940D02*
Y032726D01*
X027202D01*
X027149Y032833D01*
Y032886D01*
X027202Y032940D01*
X027309D01*
X027362Y032886D01*
Y032780D01*
X027309Y032726D01*
X030118Y032087D02*
X029798D01*
Y032247D01*
X029852Y032300D01*
X029958D01*
X030011Y032247D01*
Y032087D01*
Y032193D02*
X030118Y032300D01*
X029798Y032620D02*
X029852Y032513D01*
X029958Y032407D01*
X030065D01*
X030118Y032460D01*
Y032566D01*
X030065Y032620D01*
X030011D01*
X029958Y032566D01*
Y032407D01*
X029798Y032940D02*
X029852Y032833D01*
X029958Y032726D01*
X030065D01*
X030118Y032780D01*
Y032886D01*
X030065Y032940D01*
X030011D01*
X029958Y032886D01*
Y032726D01*
X032874Y032087D02*
X032554D01*
Y032247D01*
X032607Y032300D01*
X032714D01*
X032767Y032247D01*
Y032087D01*
Y032193D02*
X032874Y032300D01*
X032554Y032620D02*
X032607Y032513D01*
X032714Y032407D01*
X032821D01*
X032874Y032460D01*
Y032566D01*
X032821Y032620D01*
X032767D01*
X032714Y032566D01*
Y032407D01*
X032554Y032726D02*
Y032940D01*
X032607D01*
X032821Y032726D01*
X032874D01*
X035728Y032087D02*
X035408D01*
Y032247D01*
X035462Y032300D01*
X035568D01*
X035622Y032247D01*
Y032087D01*
Y032193D02*
X035728Y032300D01*
X035408Y032620D02*
X035462Y032513D01*
X035568Y032407D01*
X035675D01*
X035728Y032460D01*
Y032566D01*
X035675Y032620D01*
X035622D01*
X035568Y032566D01*
Y032407D01*
X035462Y032726D02*
X035408Y032780D01*
Y032886D01*
X035462Y032940D01*
X035515D01*
X035568Y032886D01*
X035622Y032940D01*
X035675D01*
X035728Y032886D01*
Y032780D01*
X035675Y032726D01*
X035622D01*
X035568Y032780D01*
X035515Y032726D01*
X035462D01*
X035568Y032780D02*
Y032886D01*
X033366Y029331D02*
X033046D01*
Y029491D01*
X033100Y029544D01*
X033206D01*
X033260Y029491D01*
Y029331D01*
Y029437D02*
X033366Y029544D01*
X033046Y029864D02*
X033100Y029757D01*
X033206Y029651D01*
X033313D01*
X033366Y029704D01*
Y029811D01*
X033313Y029864D01*
X033260D01*
X033206Y029811D01*
Y029651D01*
X033313Y029971D02*
X033366Y030024D01*
Y030130D01*
X033313Y030184D01*
X033100D01*
X033046Y030130D01*
Y030024D01*
X033100Y029971D01*
X033153D01*
X033206Y030024D01*
Y030184D01*
X036122Y029331D02*
X035802D01*
Y029491D01*
X035855Y029544D01*
X035962D01*
X036015Y029491D01*
Y029331D01*
Y029437D02*
X036122Y029544D01*
X035802Y029651D02*
Y029864D01*
X035855D01*
X036069Y029651D01*
X036122D01*
X035855Y029971D02*
X035802Y030024D01*
Y030130D01*
X035855Y030184D01*
X036069D01*
X036122Y030130D01*
Y030024D01*
X036069Y029971D01*
X035855D01*
X025098Y032087D02*
X024779D01*
Y032247D01*
X024832Y032300D01*
X024938D01*
X024992Y032247D01*
Y032087D01*
Y032193D02*
X025098Y032300D01*
X024779Y032407D02*
Y032620D01*
X024832D01*
X025045Y032407D01*
X025098D01*
Y032726D02*
Y032833D01*
Y032780D01*
X024779D01*
X024832Y032726D01*
X027854Y032087D02*
X027534D01*
Y032247D01*
X027588Y032300D01*
X027694D01*
X027748Y032247D01*
Y032087D01*
Y032193D02*
X027854Y032300D01*
X027534Y032407D02*
Y032620D01*
X027588D01*
X027801Y032407D01*
X027854D01*
Y032940D02*
Y032726D01*
X027641Y032940D01*
X027588D01*
X027534Y032886D01*
Y032780D01*
X027588Y032726D01*
X030610Y032087D02*
X030290D01*
Y032247D01*
X030344Y032300D01*
X030450D01*
X030504Y032247D01*
Y032087D01*
Y032193D02*
X030610Y032300D01*
X030290Y032407D02*
Y032620D01*
X030344D01*
X030557Y032407D01*
X030610D01*
X030344Y032726D02*
X030290Y032780D01*
Y032886D01*
X030344Y032940D01*
X030397D01*
X030450Y032886D01*
Y032833D01*
Y032886D01*
X030504Y032940D01*
X030557D01*
X030610Y032886D01*
Y032780D01*
X030557Y032726D01*
X033366Y032087D02*
X033046D01*
Y032247D01*
X033100Y032300D01*
X033206D01*
X033260Y032247D01*
Y032087D01*
Y032193D02*
X033366Y032300D01*
X033046Y032407D02*
Y032620D01*
X033100D01*
X033313Y032407D01*
X033366D01*
Y032886D02*
X033046D01*
X033206Y032726D01*
Y032940D01*
X022350Y020587D02*
Y020907D01*
X022510D01*
X022564Y020853D01*
Y020747D01*
X022510Y020693D01*
X022350D01*
X022670Y020587D02*
X022777D01*
X022724D01*
Y020907D01*
X022670Y020853D01*
X036516Y022146D02*
Y022466D01*
X036676D01*
X036729Y022412D01*
Y022306D01*
X036676Y022252D01*
X036516D01*
X037049Y022146D02*
X036836D01*
X037049Y022359D01*
Y022412D01*
X036996Y022466D01*
X036889D01*
X036836Y022412D01*
X035835Y035713D02*
Y036032D01*
X035995D01*
X036048Y035979D01*
Y035873D01*
X035995Y035819D01*
X035835D01*
X036155Y035979D02*
X036208Y036032D01*
X036314D01*
X036368Y035979D01*
Y035926D01*
X036314Y035873D01*
X036261D01*
X036314D01*
X036368Y035819D01*
Y035766D01*
X036314Y035713D01*
X036208D01*
X036155Y035766D01*
X021752Y022699D02*
X021965D01*
X021859Y022806D02*
Y022593D01*
X022072Y022806D02*
X022125Y022859D01*
X022232D01*
X022285Y022806D01*
Y022753D01*
X022232Y022699D01*
X022178D01*
X022232D01*
X022285Y022646D01*
Y022593D01*
X022232Y022539D01*
X022125D01*
X022072Y022593D01*
X022392Y022859D02*
Y022646D01*
X022498Y022539D01*
X022605Y022646D01*
Y022859D01*
X022712Y022806D02*
X022765Y022859D01*
X022872D01*
X022925Y022806D01*
Y022753D01*
X022872Y022699D01*
X022818D01*
X022872D01*
X022925Y022646D01*
Y022593D01*
X022872Y022539D01*
X022765D01*
X022712Y022593D01*
X021752Y026636D02*
X021965D01*
X021859Y026743D02*
Y026530D01*
X022072Y026476D02*
X022178D01*
X022125D01*
Y026796D01*
X022072Y026743D01*
X022338Y026796D02*
Y026583D01*
X022445Y026476D01*
X022552Y026583D01*
Y026796D01*
X022872Y026476D02*
X022658D01*
X022872Y026690D01*
Y026743D01*
X022818Y026796D01*
X022712D01*
X022658Y026743D01*
X021965Y031664D02*
X021912Y031718D01*
X021805D01*
X021752Y031664D01*
Y031451D01*
X021805Y031398D01*
X021912D01*
X021965Y031451D01*
Y031558D01*
X021859D01*
X022072Y031398D02*
Y031718D01*
X022285Y031398D01*
Y031718D01*
X022392D02*
Y031398D01*
X022552D01*
X022605Y031451D01*
Y031664D01*
X022552Y031718D01*
X022392D01*
X028445Y020891D02*
Y020571D01*
X028605D01*
X028658Y020624D01*
Y020677D01*
X028605Y020731D01*
X028445D01*
X028605D01*
X028658Y020784D01*
Y020837D01*
X028605Y020891D01*
X028445D01*
X028765Y020571D02*
Y020784D01*
X028871Y020891D01*
X028978Y020784D01*
Y020571D01*
Y020731D01*
X028765D01*
X029085Y020571D02*
Y020891D01*
X029298Y020571D01*
Y020891D01*
X029405D02*
Y020571D01*
Y020677D01*
X029618Y020891D01*
X029458Y020731D01*
X029618Y020571D01*
X029724Y020518D02*
X029938D01*
X030204Y020571D02*
Y020891D01*
X030044Y020731D01*
X030258D01*
X036688Y033268D02*
X037008D01*
Y033428D01*
X036955Y033481D01*
X036901D01*
X036848Y033428D01*
Y033268D01*
Y033428D01*
X036795Y033481D01*
X036741D01*
X036688Y033428D01*
Y033268D01*
X037008Y033588D02*
X036795D01*
X036688Y033694D01*
X036795Y033801D01*
X037008D01*
X036848D01*
Y033588D01*
X037008Y033908D02*
X036688D01*
X037008Y034121D01*
X036688D01*
Y034227D02*
X037008D01*
X036901D01*
X036688Y034441D01*
X036848Y034281D01*
X037008Y034441D01*
X037061Y034547D02*
Y034761D01*
X036741Y034867D02*
X036688Y034921D01*
Y035027D01*
X036741Y035080D01*
X036795D01*
X036848Y035027D01*
Y034974D01*
Y035027D01*
X036901Y035080D01*
X036955D01*
X037008Y035027D01*
Y034921D01*
X036955Y034867D01*
X028543Y036147D02*
Y035827D01*
X028703D01*
X028757Y035880D01*
Y035933D01*
X028703Y035987D01*
X028543D01*
X028703D01*
X028757Y036040D01*
Y036093D01*
X028703Y036147D01*
X028543D01*
X028863Y035827D02*
Y036040D01*
X028970Y036147D01*
X029076Y036040D01*
Y035827D01*
Y035987D01*
X028863D01*
X029183Y035827D02*
Y036147D01*
X029396Y035827D01*
Y036147D01*
X029503D02*
Y035827D01*
Y035933D01*
X029716Y036147D01*
X029556Y035987D01*
X029716Y035827D01*
X029823Y035773D02*
X030036D01*
X030356Y035827D02*
X030143D01*
X030356Y036040D01*
Y036093D01*
X030303Y036147D01*
X030196D01*
X030143Y036093D01*
X021530Y032874D02*
X021850D01*
Y033034D01*
X021797Y033087D01*
X021744D01*
X021690Y033034D01*
Y032874D01*
Y033034D01*
X021637Y033087D01*
X021584D01*
X021530Y033034D01*
Y032874D01*
X021850Y033194D02*
X021637D01*
X021530Y033301D01*
X021637Y033407D01*
X021850D01*
X021690D01*
Y033194D01*
X021850Y033514D02*
X021530D01*
X021850Y033727D01*
X021530D01*
Y033834D02*
X021850D01*
X021744D01*
X021530Y034047D01*
X021690Y033887D01*
X021850Y034047D01*
X021904Y034154D02*
Y034367D01*
X021850Y034474D02*
Y034580D01*
Y034527D01*
X021530D01*
X021584Y034474D01*
M02*
