G04 Layer_Color=8388736*
%FSAX24Y24*%
%MOIN*%
G70*
G01*
G75*
%ADD23R,0.0257X0.0375*%
%ADD24R,0.0198X0.0237*%
%ADD25C,0.0651*%
%ADD26C,0.1200*%
%ADD27C,0.1438*%
%ADD28C,0.0491*%
%ADD29R,0.0491X0.0491*%
%ADD30R,0.0491X0.0491*%
G36*
X022298Y036167D02*
X022303D01*
X022309Y036166D01*
X022315Y036166D01*
X022328Y036164D01*
X022343Y036161D01*
X022356Y036158D01*
X022362Y036156D01*
X022368Y036154D01*
X022368D01*
X022369Y036153D01*
X022372Y036151D01*
X022374Y036150D01*
X022380Y036145D01*
X022384Y036142D01*
X022388Y036138D01*
X022392Y036134D01*
X022396Y036129D01*
X022399Y036124D01*
X022402Y036118D01*
X022405Y036111D01*
X022407Y036103D01*
X022408Y036095D01*
X022409Y036087D01*
Y036086D01*
Y036083D01*
X022408Y036080D01*
X022407Y036074D01*
X022405Y036068D01*
X022403Y036061D01*
X022400Y036053D01*
X022396Y036044D01*
X022391Y036035D01*
X022384Y036025D01*
X022376Y036015D01*
X022366Y036004D01*
X022354Y035994D01*
X022341Y035983D01*
X022334Y035978D01*
X022325Y035973D01*
X022317Y035968D01*
X022308Y035963D01*
X022307Y035963D01*
X022305Y035962D01*
X022301Y035960D01*
X022296Y035958D01*
X022289Y035955D01*
X022282Y035952D01*
X022273Y035948D01*
X022263Y035944D01*
X022251Y035939D01*
X022239Y035936D01*
X022226Y035931D01*
X022212Y035927D01*
X022197Y035922D01*
X022181Y035918D01*
X022164Y035914D01*
X022147Y035911D01*
X022122Y035827D01*
X022035D01*
X022112Y036075D01*
X022198D01*
X022162Y035958D01*
X022162D01*
X022164Y035959D01*
X022167Y035959D01*
X022170Y035961D01*
X022174Y035962D01*
X022179Y035963D01*
X022185Y035965D01*
X022191Y035967D01*
X022204Y035971D01*
X022219Y035977D01*
X022234Y035984D01*
X022249Y035992D01*
X022249Y035992D01*
X022251Y035993D01*
X022254Y035995D01*
X022257Y035997D01*
X022261Y036000D01*
X022266Y036004D01*
X022271Y036008D01*
X022276Y036013D01*
X022286Y036024D01*
X022290Y036030D01*
X022295Y036036D01*
X022298Y036043D01*
X022302Y036050D01*
X022303Y036058D01*
X022304Y036065D01*
Y036066D01*
Y036067D01*
Y036070D01*
X022304Y036074D01*
X022303Y036080D01*
X022300Y036086D01*
X022297Y036092D01*
X022292Y036097D01*
X022286Y036101D01*
X022285D01*
X022284Y036102D01*
X022280Y036103D01*
X022277Y036104D01*
X022271Y036105D01*
X022263Y036105D01*
X022254Y036106D01*
X021997D01*
X022035Y036168D01*
X022293D01*
X022298Y036167D01*
D02*
G37*
G36*
X021908Y035928D02*
X021907Y035927D01*
X021906Y035924D01*
X021904Y035920D01*
X021901Y035914D01*
X021899Y035907D01*
X021894Y035898D01*
X021890Y035889D01*
X021884Y035878D01*
X021878Y035868D01*
X021871Y035857D01*
X021863Y035846D01*
X021854Y035834D01*
X021845Y035823D01*
X021835Y035812D01*
X021824Y035802D01*
X021813Y035793D01*
X021812Y035792D01*
X021810Y035791D01*
X021807Y035789D01*
X021803Y035787D01*
X021798Y035783D01*
X021792Y035780D01*
X021785Y035776D01*
X021778Y035773D01*
X021770Y035769D01*
X021761Y035765D01*
X021742Y035759D01*
X021732Y035756D01*
X021722Y035754D01*
X021711Y035753D01*
X021700Y035752D01*
X021697D01*
X021694Y035753D01*
X021691D01*
X021687Y035754D01*
X021679Y035755D01*
X021669Y035756D01*
X021659Y035760D01*
X021650Y035763D01*
X021641Y035769D01*
X021639Y035770D01*
X021637Y035772D01*
X021633Y035776D01*
X021629Y035781D01*
X021624Y035787D01*
X021621Y035795D01*
X021618Y035803D01*
X021617Y035813D01*
Y035813D01*
Y035814D01*
X021618Y035817D01*
X021618Y035821D01*
X021619Y035827D01*
X021622Y035833D01*
X021625Y035840D01*
X021629Y035847D01*
X021636Y035853D01*
X021637Y035854D01*
X021639Y035856D01*
X021643Y035859D01*
X021648Y035862D01*
X021655Y035865D01*
X021663Y035868D01*
X021672Y035870D01*
X021681Y035871D01*
X021686D01*
X021691Y035870D01*
X021697Y035868D01*
X021704Y035866D01*
X021712Y035863D01*
X021720Y035859D01*
X021727Y035853D01*
X021728Y035853D01*
X021730Y035851D01*
X021733Y035847D01*
X021737Y035842D01*
X021740Y035836D01*
X021743Y035830D01*
X021745Y035822D01*
X021746Y035813D01*
Y035812D01*
Y035810D01*
X021745Y035807D01*
X021745Y035803D01*
X021746Y035804D01*
X021749Y035806D01*
X021753Y035808D01*
X021759Y035812D01*
X021765Y035817D01*
X021772Y035825D01*
X021779Y035833D01*
X021786Y035844D01*
X021787Y035845D01*
X021788Y035847D01*
X021790Y035852D01*
X021793Y035858D01*
X021796Y035866D01*
X021800Y035875D01*
X021805Y035887D01*
X021810Y035900D01*
X021882Y036106D01*
X021737D01*
X021732Y036105D01*
X021724Y036104D01*
X021715Y036102D01*
X021706Y036099D01*
X021696Y036094D01*
X021686Y036088D01*
X021686D01*
X021685Y036087D01*
X021682Y036085D01*
X021678Y036080D01*
X021673Y036074D01*
X021668Y036067D01*
X021664Y036059D01*
X021661Y036049D01*
X021660Y036044D01*
X021659Y036038D01*
Y036037D01*
Y036035D01*
X021660Y036032D01*
X021661Y036028D01*
X021663Y036024D01*
X021666Y036020D01*
X021669Y036017D01*
X021674Y036015D01*
Y036016D01*
X021675Y036019D01*
X021676Y036023D01*
X021678Y036028D01*
X021682Y036033D01*
X021686Y036039D01*
X021691Y036045D01*
X021697Y036050D01*
X021698Y036051D01*
X021701Y036053D01*
X021704Y036055D01*
X021709Y036057D01*
X021715Y036059D01*
X021722Y036062D01*
X021730Y036063D01*
X021738Y036064D01*
X021743D01*
X021747Y036063D01*
X021753Y036062D01*
X021760Y036060D01*
X021768Y036057D01*
X021775Y036053D01*
X021782Y036048D01*
X021783Y036048D01*
X021785Y036045D01*
X021788Y036042D01*
X021792Y036037D01*
X021796Y036030D01*
X021799Y036023D01*
X021801Y036015D01*
X021802Y036005D01*
Y036005D01*
Y036004D01*
X021802Y036000D01*
X021801Y035995D01*
X021799Y035989D01*
X021797Y035982D01*
X021792Y035974D01*
X021786Y035967D01*
X021783Y035964D01*
X021778Y035961D01*
X021777Y035960D01*
X021774Y035958D01*
X021770Y035956D01*
X021764Y035954D01*
X021757Y035951D01*
X021748Y035949D01*
X021738Y035947D01*
X021728Y035947D01*
X021723D01*
X021720Y035947D01*
X021716D01*
X021711Y035948D01*
X021701Y035949D01*
X021688Y035952D01*
X021675Y035956D01*
X021662Y035961D01*
X021649Y035968D01*
X021649Y035969D01*
X021648Y035969D01*
X021646Y035971D01*
X021644Y035973D01*
X021639Y035978D01*
X021633Y035986D01*
X021626Y035995D01*
X021621Y036007D01*
X021619Y036013D01*
X021617Y036020D01*
X021616Y036028D01*
X021616Y036035D01*
Y036036D01*
Y036038D01*
X021616Y036042D01*
Y036046D01*
X021617Y036052D01*
X021618Y036058D01*
X021620Y036064D01*
X021622Y036072D01*
X021624Y036080D01*
X021628Y036088D01*
X021632Y036096D01*
X021637Y036104D01*
X021643Y036113D01*
X021649Y036121D01*
X021657Y036128D01*
X021666Y036135D01*
X021667Y036136D01*
X021668Y036137D01*
X021671Y036138D01*
X021674Y036140D01*
X021678Y036143D01*
X021684Y036145D01*
X021690Y036149D01*
X021697Y036151D01*
X021704Y036154D01*
X021713Y036158D01*
X021722Y036160D01*
X021732Y036163D01*
X021743Y036165D01*
X021754Y036166D01*
X021765Y036167D01*
X021778Y036168D01*
X021991D01*
X021908Y035928D01*
D02*
G37*
G36*
X021552D02*
X021551Y035927D01*
X021550Y035924D01*
X021548Y035920D01*
X021546Y035914D01*
X021543Y035907D01*
X021538Y035898D01*
X021534Y035889D01*
X021528Y035878D01*
X021522Y035868D01*
X021515Y035857D01*
X021507Y035846D01*
X021498Y035834D01*
X021490Y035823D01*
X021479Y035812D01*
X021469Y035802D01*
X021457Y035793D01*
X021456Y035792D01*
X021455Y035791D01*
X021451Y035789D01*
X021447Y035787D01*
X021442Y035783D01*
X021436Y035780D01*
X021430Y035776D01*
X021422Y035773D01*
X021414Y035769D01*
X021405Y035765D01*
X021386Y035759D01*
X021376Y035756D01*
X021366Y035754D01*
X021355Y035753D01*
X021344Y035752D01*
X021341D01*
X021338Y035753D01*
X021335D01*
X021331Y035754D01*
X021323Y035755D01*
X021314Y035756D01*
X021304Y035760D01*
X021294Y035763D01*
X021285Y035769D01*
X021284Y035770D01*
X021281Y035772D01*
X021278Y035776D01*
X021273Y035781D01*
X021269Y035787D01*
X021265Y035795D01*
X021263Y035803D01*
X021262Y035813D01*
Y035813D01*
Y035814D01*
X021262Y035817D01*
X021263Y035821D01*
X021264Y035827D01*
X021266Y035833D01*
X021269Y035840D01*
X021274Y035847D01*
X021280Y035853D01*
X021281Y035854D01*
X021283Y035856D01*
X021287Y035859D01*
X021293Y035862D01*
X021299Y035865D01*
X021307Y035868D01*
X021316Y035870D01*
X021325Y035871D01*
X021330D01*
X021335Y035870D01*
X021341Y035868D01*
X021349Y035866D01*
X021356Y035863D01*
X021364Y035859D01*
X021371Y035853D01*
X021372Y035853D01*
X021374Y035851D01*
X021377Y035847D01*
X021381Y035842D01*
X021384Y035836D01*
X021387Y035830D01*
X021390Y035822D01*
X021390Y035813D01*
Y035812D01*
Y035810D01*
X021390Y035807D01*
X021389Y035803D01*
X021390Y035804D01*
X021393Y035806D01*
X021397Y035808D01*
X021403Y035812D01*
X021410Y035817D01*
X021416Y035825D01*
X021424Y035833D01*
X021430Y035844D01*
X021431Y035845D01*
X021432Y035847D01*
X021434Y035852D01*
X021437Y035858D01*
X021440Y035866D01*
X021445Y035875D01*
X021449Y035887D01*
X021454Y035900D01*
X021526Y036106D01*
X021381D01*
X021376Y036105D01*
X021368Y036104D01*
X021359Y036102D01*
X021350Y036099D01*
X021340Y036094D01*
X021330Y036088D01*
X021330D01*
X021329Y036087D01*
X021326Y036085D01*
X021322Y036080D01*
X021317Y036074D01*
X021312Y036067D01*
X021308Y036059D01*
X021305Y036049D01*
X021304Y036044D01*
X021304Y036038D01*
Y036037D01*
Y036035D01*
X021304Y036032D01*
X021305Y036028D01*
X021307Y036024D01*
X021310Y036020D01*
X021313Y036017D01*
X021318Y036015D01*
Y036016D01*
X021319Y036019D01*
X021320Y036023D01*
X021323Y036028D01*
X021326Y036033D01*
X021330Y036039D01*
X021335Y036045D01*
X021341Y036050D01*
X021342Y036051D01*
X021345Y036053D01*
X021348Y036055D01*
X021353Y036057D01*
X021359Y036059D01*
X021366Y036062D01*
X021374Y036063D01*
X021383Y036064D01*
X021387D01*
X021391Y036063D01*
X021397Y036062D01*
X021405Y036060D01*
X021412Y036057D01*
X021419Y036053D01*
X021426Y036048D01*
X021427Y036048D01*
X021430Y036045D01*
X021432Y036042D01*
X021436Y036037D01*
X021440Y036030D01*
X021443Y036023D01*
X021445Y036015D01*
X021446Y036005D01*
Y036005D01*
Y036004D01*
X021446Y036000D01*
X021445Y035995D01*
X021444Y035989D01*
X021441Y035982D01*
X021436Y035974D01*
X021430Y035967D01*
X021427Y035964D01*
X021422Y035961D01*
X021421Y035960D01*
X021419Y035958D01*
X021414Y035956D01*
X021409Y035954D01*
X021401Y035951D01*
X021392Y035949D01*
X021383Y035947D01*
X021372Y035947D01*
X021368D01*
X021364Y035947D01*
X021360D01*
X021355Y035948D01*
X021345Y035949D01*
X021332Y035952D01*
X021319Y035956D01*
X021306Y035961D01*
X021294Y035968D01*
X021293Y035969D01*
X021292Y035969D01*
X021290Y035971D01*
X021289Y035973D01*
X021283Y035978D01*
X021277Y035986D01*
X021270Y035995D01*
X021265Y036007D01*
X021263Y036013D01*
X021262Y036020D01*
X021260Y036028D01*
X021260Y036035D01*
Y036036D01*
Y036038D01*
X021260Y036042D01*
Y036046D01*
X021262Y036052D01*
X021263Y036058D01*
X021264Y036064D01*
X021266Y036072D01*
X021269Y036080D01*
X021272Y036088D01*
X021276Y036096D01*
X021281Y036104D01*
X021287Y036113D01*
X021294Y036121D01*
X021301Y036128D01*
X021310Y036135D01*
X021311Y036136D01*
X021313Y036137D01*
X021315Y036138D01*
X021319Y036140D01*
X021323Y036143D01*
X021328Y036145D01*
X021334Y036149D01*
X021341Y036151D01*
X021349Y036154D01*
X021358Y036158D01*
X021366Y036160D01*
X021376Y036163D01*
X021387Y036165D01*
X021398Y036166D01*
X021410Y036167D01*
X021422Y036168D01*
X021636D01*
X021552Y035928D01*
D02*
G37*
G36*
X022146Y018898D02*
X021896Y018648D01*
Y019148D01*
X022146Y018898D01*
D02*
G37*
G36*
X036766Y037545D02*
X036516Y037795D01*
X036766Y038045D01*
Y037545D01*
D02*
G37*
G36*
X019783Y035531D02*
X019533Y035782D01*
X020033D01*
X019783Y035531D01*
D02*
G37*
G36*
X038931Y020911D02*
X038431D01*
X038681Y021161D01*
X038931Y020911D01*
D02*
G37*
D23*
X023967Y030591D02*
D03*
Y031614D02*
D03*
X023671D02*
D03*
Y030591D02*
D03*
X032234D02*
D03*
Y031614D02*
D03*
X031939D02*
D03*
Y030591D02*
D03*
X034990D02*
D03*
Y031614D02*
D03*
X034695D02*
D03*
Y030591D02*
D03*
X034990Y033346D02*
D03*
Y034370D02*
D03*
X034695D02*
D03*
Y033346D02*
D03*
X023967Y022323D02*
D03*
Y023346D02*
D03*
X023671D02*
D03*
Y022323D02*
D03*
X026722D02*
D03*
Y023346D02*
D03*
X026427D02*
D03*
Y022323D02*
D03*
X029478D02*
D03*
Y023346D02*
D03*
X029183D02*
D03*
Y022323D02*
D03*
X032234D02*
D03*
Y023346D02*
D03*
X031939D02*
D03*
Y022323D02*
D03*
X034990D02*
D03*
Y023346D02*
D03*
X034695D02*
D03*
Y022323D02*
D03*
X023967Y025079D02*
D03*
Y026102D02*
D03*
X023671D02*
D03*
Y025079D02*
D03*
X026722D02*
D03*
Y026102D02*
D03*
X026427D02*
D03*
Y025079D02*
D03*
X029478D02*
D03*
Y026102D02*
D03*
X029183D02*
D03*
Y025079D02*
D03*
X032234D02*
D03*
Y026102D02*
D03*
X031939D02*
D03*
Y025079D02*
D03*
X034990D02*
D03*
Y026102D02*
D03*
X034695D02*
D03*
Y025079D02*
D03*
X023967Y027835D02*
D03*
Y028858D02*
D03*
X023671D02*
D03*
Y027835D02*
D03*
X026722D02*
D03*
Y028858D02*
D03*
X026427D02*
D03*
Y027835D02*
D03*
X029478D02*
D03*
Y028858D02*
D03*
X029183D02*
D03*
Y027835D02*
D03*
X032234D02*
D03*
Y028858D02*
D03*
X031939D02*
D03*
Y027835D02*
D03*
X034990D02*
D03*
Y028858D02*
D03*
X034695D02*
D03*
Y027835D02*
D03*
X026722Y030591D02*
D03*
Y031614D02*
D03*
X026427D02*
D03*
Y030591D02*
D03*
X029478D02*
D03*
Y031614D02*
D03*
X029183D02*
D03*
Y030591D02*
D03*
X023967Y033346D02*
D03*
Y034370D02*
D03*
X023671D02*
D03*
Y033346D02*
D03*
X026722D02*
D03*
Y034370D02*
D03*
X026427D02*
D03*
Y033346D02*
D03*
X029478D02*
D03*
Y034370D02*
D03*
X029183D02*
D03*
Y033346D02*
D03*
X032234D02*
D03*
Y034370D02*
D03*
X031939D02*
D03*
Y033346D02*
D03*
D24*
X034547Y032894D02*
D03*
Y032657D02*
D03*
X024016Y021871D02*
D03*
Y021633D02*
D03*
X026772Y021871D02*
D03*
Y021633D02*
D03*
X029528Y021871D02*
D03*
Y021633D02*
D03*
X032283Y021871D02*
D03*
Y021633D02*
D03*
X035039Y021891D02*
D03*
Y021654D02*
D03*
X024016Y024606D02*
D03*
Y024369D02*
D03*
X026772Y024627D02*
D03*
Y024389D02*
D03*
X029528Y024627D02*
D03*
Y024389D02*
D03*
X032283Y024627D02*
D03*
Y024389D02*
D03*
X023031Y021871D02*
D03*
Y021633D02*
D03*
X025787Y021871D02*
D03*
Y021633D02*
D03*
X028543Y021871D02*
D03*
Y021633D02*
D03*
X031299Y021871D02*
D03*
Y021633D02*
D03*
X034055Y021871D02*
D03*
Y021633D02*
D03*
X023031Y024627D02*
D03*
Y024389D02*
D03*
X025787Y024627D02*
D03*
Y024389D02*
D03*
X028543Y024627D02*
D03*
Y024389D02*
D03*
X031299Y024627D02*
D03*
Y024389D02*
D03*
X023524Y021871D02*
D03*
Y021633D02*
D03*
X026280Y021871D02*
D03*
Y021633D02*
D03*
X029035Y021871D02*
D03*
Y021633D02*
D03*
X031791Y021871D02*
D03*
Y021633D02*
D03*
X034547Y021871D02*
D03*
Y021633D02*
D03*
X023524Y024627D02*
D03*
Y024389D02*
D03*
X026280Y024627D02*
D03*
Y024389D02*
D03*
X029035Y024627D02*
D03*
Y024389D02*
D03*
X031791Y024627D02*
D03*
Y024389D02*
D03*
X035039Y024627D02*
D03*
Y024389D02*
D03*
X024016Y027383D02*
D03*
Y027145D02*
D03*
X026772Y027383D02*
D03*
Y027145D02*
D03*
X029528Y027362D02*
D03*
Y027124D02*
D03*
X032283Y027383D02*
D03*
Y027145D02*
D03*
X035039Y027383D02*
D03*
Y027145D02*
D03*
X024016Y030139D02*
D03*
Y029901D02*
D03*
X026772Y030139D02*
D03*
Y029901D02*
D03*
X029528Y030139D02*
D03*
Y029901D02*
D03*
X034055Y024627D02*
D03*
Y024389D02*
D03*
X023031Y027383D02*
D03*
Y027145D02*
D03*
X025787Y027383D02*
D03*
Y027145D02*
D03*
X028543Y027362D02*
D03*
Y027124D02*
D03*
X031299Y027383D02*
D03*
Y027145D02*
D03*
X034055Y027383D02*
D03*
Y027145D02*
D03*
X023031Y030139D02*
D03*
Y029901D02*
D03*
X025787Y030139D02*
D03*
Y029901D02*
D03*
X028543Y030139D02*
D03*
Y029901D02*
D03*
X034547Y024627D02*
D03*
Y024389D02*
D03*
X023524Y027403D02*
D03*
Y027165D02*
D03*
X026280Y027383D02*
D03*
Y027145D02*
D03*
X029035Y027383D02*
D03*
Y027145D02*
D03*
X031791Y027383D02*
D03*
Y027145D02*
D03*
X034547Y027383D02*
D03*
Y027145D02*
D03*
X023524Y030139D02*
D03*
Y029901D02*
D03*
X026280Y030139D02*
D03*
Y029901D02*
D03*
X029035Y030139D02*
D03*
Y029901D02*
D03*
X032283Y030139D02*
D03*
Y029901D02*
D03*
X035039Y030139D02*
D03*
Y029901D02*
D03*
X024016Y032894D02*
D03*
Y032657D02*
D03*
X026772Y032894D02*
D03*
Y032657D02*
D03*
X029528Y032894D02*
D03*
Y032657D02*
D03*
X032283Y032894D02*
D03*
Y032657D02*
D03*
X035039Y032894D02*
D03*
Y032657D02*
D03*
X031299Y030139D02*
D03*
Y029901D02*
D03*
X034055Y030139D02*
D03*
Y029901D02*
D03*
X023031Y032894D02*
D03*
Y032657D02*
D03*
X025787Y032894D02*
D03*
Y032657D02*
D03*
X028543Y032894D02*
D03*
Y032657D02*
D03*
X031299Y032894D02*
D03*
Y032657D02*
D03*
X034055Y032894D02*
D03*
Y032657D02*
D03*
X031791Y030139D02*
D03*
Y029901D02*
D03*
X034547Y030139D02*
D03*
Y029901D02*
D03*
X023524Y032894D02*
D03*
Y032657D02*
D03*
X026280Y032894D02*
D03*
Y032657D02*
D03*
X029035Y032894D02*
D03*
Y032657D02*
D03*
X031791Y032894D02*
D03*
Y032657D02*
D03*
D25*
X021949Y022146D02*
D03*
Y031004D02*
D03*
Y026083D02*
D03*
D26*
X020276Y019390D02*
D03*
X020276Y037303D02*
D03*
D27*
X038287Y019291D02*
D03*
Y037402D02*
D03*
D28*
X020685Y021843D02*
D03*
X019685D02*
D03*
X020685Y022843D02*
D03*
X019685D02*
D03*
X020685Y023843D02*
D03*
X019685D02*
D03*
X020685Y024843D02*
D03*
X019685D02*
D03*
X020685Y025843D02*
D03*
X019685D02*
D03*
X020685Y026843D02*
D03*
X019685D02*
D03*
X020685Y027843D02*
D03*
X019685D02*
D03*
X020685Y028843D02*
D03*
X019685D02*
D03*
X020685Y029843D02*
D03*
X019685D02*
D03*
X020685Y030843D02*
D03*
X019685D02*
D03*
X020685Y031843D02*
D03*
X019685D02*
D03*
X020685Y032843D02*
D03*
X019685D02*
D03*
X020685Y033843D02*
D03*
X019685D02*
D03*
X020685Y034843D02*
D03*
X035835Y019799D02*
D03*
Y018799D02*
D03*
X034835Y019799D02*
D03*
Y018799D02*
D03*
X033835Y019799D02*
D03*
Y018799D02*
D03*
X032835Y019799D02*
D03*
Y018799D02*
D03*
X031835Y019799D02*
D03*
Y018799D02*
D03*
X030835Y019799D02*
D03*
Y018799D02*
D03*
X029835Y019799D02*
D03*
Y018799D02*
D03*
X028835Y019799D02*
D03*
Y018799D02*
D03*
X027835Y019799D02*
D03*
Y018799D02*
D03*
X026835Y019799D02*
D03*
Y018799D02*
D03*
X025835Y019799D02*
D03*
Y018799D02*
D03*
X024835Y019799D02*
D03*
Y018799D02*
D03*
X023835Y019799D02*
D03*
Y018799D02*
D03*
X022835Y019799D02*
D03*
X037780Y034850D02*
D03*
X038780D02*
D03*
X037780Y033850D02*
D03*
X038780D02*
D03*
X037780Y032850D02*
D03*
X038780D02*
D03*
X037780Y031850D02*
D03*
X038780D02*
D03*
X037780Y030850D02*
D03*
X038780D02*
D03*
X037780Y029850D02*
D03*
X038780D02*
D03*
X037780Y028850D02*
D03*
X038780D02*
D03*
X037780Y027850D02*
D03*
X038780D02*
D03*
X037780Y026850D02*
D03*
X038780D02*
D03*
X037780Y025850D02*
D03*
X038780D02*
D03*
X037780Y024850D02*
D03*
X038780D02*
D03*
X037780Y023850D02*
D03*
X038780D02*
D03*
X037780Y022850D02*
D03*
X038780D02*
D03*
X037780Y021850D02*
D03*
X022835Y036894D02*
D03*
Y037894D02*
D03*
X023835Y036894D02*
D03*
Y037894D02*
D03*
X024835Y036894D02*
D03*
Y037894D02*
D03*
X025835Y036894D02*
D03*
Y037894D02*
D03*
X026835Y036894D02*
D03*
Y037894D02*
D03*
X027835Y036894D02*
D03*
Y037894D02*
D03*
X028835Y036894D02*
D03*
Y037894D02*
D03*
X029835Y036894D02*
D03*
Y037894D02*
D03*
X030835Y036894D02*
D03*
Y037894D02*
D03*
X031835Y036894D02*
D03*
Y037894D02*
D03*
X032835Y036894D02*
D03*
Y037894D02*
D03*
X033835Y036894D02*
D03*
Y037894D02*
D03*
X034835Y036894D02*
D03*
Y037894D02*
D03*
X035835Y036894D02*
D03*
D29*
X019685Y034843D02*
D03*
X038780Y021850D02*
D03*
D30*
X022835Y018799D02*
D03*
X035835Y037894D02*
D03*
M02*
