G04 Layer_Color=8388736*
%FSAX24Y24*%
%MOIN*%
G70*
G01*
G75*
%ADD23R,0.0198X0.0237*%
%ADD24C,0.0310*%
%ADD25R,0.0257X0.0375*%
%ADD26C,0.1200*%
%ADD27R,0.0651X0.0651*%
%ADD28C,0.0651*%
%ADD29R,0.0651X0.0651*%
%ADD30C,0.1635*%
%ADD31C,0.0332*%
D23*
X031791Y032657D02*
D03*
Y032894D02*
D03*
X029035Y032657D02*
D03*
Y032894D02*
D03*
X026280Y032657D02*
D03*
Y032894D02*
D03*
X023524Y032657D02*
D03*
Y032894D02*
D03*
X034547Y029901D02*
D03*
Y030139D02*
D03*
X031791Y029901D02*
D03*
Y030139D02*
D03*
X034055Y032657D02*
D03*
Y032894D02*
D03*
X031299Y032657D02*
D03*
Y032894D02*
D03*
X028543Y032657D02*
D03*
Y032894D02*
D03*
X025787Y032657D02*
D03*
Y032894D02*
D03*
X023031Y032657D02*
D03*
Y032894D02*
D03*
X034055Y029901D02*
D03*
Y030139D02*
D03*
X031299Y029901D02*
D03*
Y030139D02*
D03*
X035039Y032657D02*
D03*
Y032894D02*
D03*
X032283Y032657D02*
D03*
Y032894D02*
D03*
X029528Y032657D02*
D03*
Y032894D02*
D03*
X026772Y032657D02*
D03*
Y032894D02*
D03*
X024016Y032657D02*
D03*
Y032894D02*
D03*
X035039Y029901D02*
D03*
Y030139D02*
D03*
X032283Y029901D02*
D03*
Y030139D02*
D03*
X029035Y029901D02*
D03*
Y030139D02*
D03*
X026280Y029901D02*
D03*
Y030139D02*
D03*
X023524Y029901D02*
D03*
Y030139D02*
D03*
X034547Y027145D02*
D03*
Y027383D02*
D03*
X031791Y027145D02*
D03*
Y027383D02*
D03*
X029035Y027145D02*
D03*
Y027383D02*
D03*
X026280Y027145D02*
D03*
Y027383D02*
D03*
X023524Y027165D02*
D03*
Y027403D02*
D03*
X034547Y024389D02*
D03*
Y024627D02*
D03*
X028543Y029901D02*
D03*
Y030139D02*
D03*
X025787Y029901D02*
D03*
Y030139D02*
D03*
X023031Y029901D02*
D03*
Y030139D02*
D03*
X034055Y027145D02*
D03*
Y027383D02*
D03*
X031299Y027145D02*
D03*
Y027383D02*
D03*
X028543Y027124D02*
D03*
Y027362D02*
D03*
X025787Y027145D02*
D03*
Y027383D02*
D03*
X023031Y027145D02*
D03*
Y027383D02*
D03*
X034055Y024389D02*
D03*
Y024627D02*
D03*
X029528Y029901D02*
D03*
Y030139D02*
D03*
X026772Y029901D02*
D03*
Y030139D02*
D03*
X024016Y029901D02*
D03*
Y030139D02*
D03*
X035039Y027145D02*
D03*
Y027383D02*
D03*
X032283Y027145D02*
D03*
Y027383D02*
D03*
X029528Y027124D02*
D03*
Y027362D02*
D03*
X026772Y027145D02*
D03*
Y027383D02*
D03*
X024016Y027145D02*
D03*
Y027383D02*
D03*
X035039Y024389D02*
D03*
Y024627D02*
D03*
X031791Y024389D02*
D03*
Y024627D02*
D03*
X029035Y024389D02*
D03*
Y024627D02*
D03*
X026280Y024389D02*
D03*
Y024627D02*
D03*
X023524Y024389D02*
D03*
Y024627D02*
D03*
X034547Y021633D02*
D03*
Y021871D02*
D03*
X031791Y021633D02*
D03*
Y021871D02*
D03*
X029035Y021633D02*
D03*
Y021871D02*
D03*
X026280Y021633D02*
D03*
Y021871D02*
D03*
X023524Y021633D02*
D03*
Y021871D02*
D03*
X031299Y024389D02*
D03*
Y024627D02*
D03*
X028543Y024389D02*
D03*
Y024627D02*
D03*
X025787Y024389D02*
D03*
Y024627D02*
D03*
X023031Y024389D02*
D03*
Y024627D02*
D03*
X034055Y021633D02*
D03*
Y021871D02*
D03*
X031299Y021633D02*
D03*
Y021871D02*
D03*
X028543Y021633D02*
D03*
Y021871D02*
D03*
X025787Y021633D02*
D03*
Y021871D02*
D03*
X023031Y021633D02*
D03*
Y021871D02*
D03*
X032283Y024389D02*
D03*
Y024627D02*
D03*
X029528Y024389D02*
D03*
Y024627D02*
D03*
X026772Y024389D02*
D03*
Y024627D02*
D03*
X024016Y024369D02*
D03*
Y024606D02*
D03*
X035039Y021654D02*
D03*
Y021891D02*
D03*
X032283Y021633D02*
D03*
Y021871D02*
D03*
X029528Y021633D02*
D03*
Y021871D02*
D03*
X026772Y021633D02*
D03*
Y021871D02*
D03*
X024016Y021633D02*
D03*
Y021871D02*
D03*
X034547Y032657D02*
D03*
Y032894D02*
D03*
D24*
X021949Y026083D02*
D03*
Y031004D02*
D03*
Y022146D02*
D03*
D25*
X031939Y033346D02*
D03*
Y034370D02*
D03*
X032234D02*
D03*
Y033346D02*
D03*
X029183D02*
D03*
Y034370D02*
D03*
X029478D02*
D03*
Y033346D02*
D03*
X026427D02*
D03*
Y034370D02*
D03*
X026722D02*
D03*
Y033346D02*
D03*
X023671D02*
D03*
Y034370D02*
D03*
X023967D02*
D03*
Y033346D02*
D03*
X029183Y030591D02*
D03*
Y031614D02*
D03*
X029478D02*
D03*
Y030591D02*
D03*
X026427D02*
D03*
Y031614D02*
D03*
X026722D02*
D03*
Y030591D02*
D03*
X034695Y027835D02*
D03*
Y028858D02*
D03*
X034990D02*
D03*
Y027835D02*
D03*
X031939D02*
D03*
Y028858D02*
D03*
X032234D02*
D03*
Y027835D02*
D03*
X029183D02*
D03*
Y028858D02*
D03*
X029478D02*
D03*
Y027835D02*
D03*
X026427D02*
D03*
Y028858D02*
D03*
X026722D02*
D03*
Y027835D02*
D03*
X023671D02*
D03*
Y028858D02*
D03*
X023967D02*
D03*
Y027835D02*
D03*
X034695Y025079D02*
D03*
Y026102D02*
D03*
X034990D02*
D03*
Y025079D02*
D03*
X031939D02*
D03*
Y026102D02*
D03*
X032234D02*
D03*
Y025079D02*
D03*
X029183D02*
D03*
Y026102D02*
D03*
X029478D02*
D03*
Y025079D02*
D03*
X026427D02*
D03*
Y026102D02*
D03*
X026722D02*
D03*
Y025079D02*
D03*
X023671D02*
D03*
Y026102D02*
D03*
X023967D02*
D03*
Y025079D02*
D03*
X034695Y022323D02*
D03*
Y023346D02*
D03*
X034990D02*
D03*
Y022323D02*
D03*
X031939D02*
D03*
Y023346D02*
D03*
X032234D02*
D03*
Y022323D02*
D03*
X029183D02*
D03*
Y023346D02*
D03*
X029478D02*
D03*
Y022323D02*
D03*
X026427D02*
D03*
Y023346D02*
D03*
X026722D02*
D03*
Y022323D02*
D03*
X023671D02*
D03*
Y023346D02*
D03*
X023967D02*
D03*
Y022323D02*
D03*
X034695Y033346D02*
D03*
Y034370D02*
D03*
X034990D02*
D03*
Y033346D02*
D03*
X034695Y030591D02*
D03*
Y031614D02*
D03*
X034990D02*
D03*
Y030591D02*
D03*
X031939D02*
D03*
Y031614D02*
D03*
X032234D02*
D03*
Y030591D02*
D03*
X023671D02*
D03*
Y031614D02*
D03*
X023967D02*
D03*
Y030591D02*
D03*
D26*
X020374Y037500D02*
D03*
X020374Y019193D02*
D03*
D27*
X035835Y037894D02*
D03*
X022835Y018799D02*
D03*
D28*
X035835Y036894D02*
D03*
X034835Y037894D02*
D03*
Y036894D02*
D03*
X033835Y037894D02*
D03*
Y036894D02*
D03*
X032835Y037894D02*
D03*
Y036894D02*
D03*
X031835Y037894D02*
D03*
Y036894D02*
D03*
X030835Y037894D02*
D03*
Y036894D02*
D03*
X029835Y037894D02*
D03*
Y036894D02*
D03*
X028835Y037894D02*
D03*
Y036894D02*
D03*
X027835Y037894D02*
D03*
Y036894D02*
D03*
X026835Y037894D02*
D03*
Y036894D02*
D03*
X025835Y037894D02*
D03*
Y036894D02*
D03*
X024835Y037894D02*
D03*
Y036894D02*
D03*
X023835Y037894D02*
D03*
Y036894D02*
D03*
X022835Y037894D02*
D03*
Y036894D02*
D03*
X037780Y021850D02*
D03*
X038780Y022850D02*
D03*
X037780D02*
D03*
X038780Y023850D02*
D03*
X037780D02*
D03*
X038780Y024850D02*
D03*
X037780D02*
D03*
X038780Y025850D02*
D03*
X037780D02*
D03*
X038780Y026850D02*
D03*
X037780D02*
D03*
X038780Y027850D02*
D03*
X037780D02*
D03*
X038780Y028850D02*
D03*
X037780D02*
D03*
X038780Y029850D02*
D03*
X037780D02*
D03*
X038780Y030850D02*
D03*
X037780D02*
D03*
X038780Y031850D02*
D03*
X037780D02*
D03*
X038780Y032850D02*
D03*
X037780D02*
D03*
X038780Y033850D02*
D03*
X037780D02*
D03*
X038780Y034850D02*
D03*
X037780D02*
D03*
X022835Y019799D02*
D03*
X023835Y018799D02*
D03*
Y019799D02*
D03*
X024835Y018799D02*
D03*
Y019799D02*
D03*
X025835Y018799D02*
D03*
Y019799D02*
D03*
X026835Y018799D02*
D03*
Y019799D02*
D03*
X027835Y018799D02*
D03*
Y019799D02*
D03*
X028835Y018799D02*
D03*
Y019799D02*
D03*
X029835Y018799D02*
D03*
Y019799D02*
D03*
X030835Y018799D02*
D03*
Y019799D02*
D03*
X031835Y018799D02*
D03*
Y019799D02*
D03*
X032835Y018799D02*
D03*
Y019799D02*
D03*
X033835Y018799D02*
D03*
Y019799D02*
D03*
X034835Y018799D02*
D03*
Y019799D02*
D03*
X035835Y018799D02*
D03*
Y019799D02*
D03*
X020685Y034843D02*
D03*
X019685Y033843D02*
D03*
X020685D02*
D03*
X019685Y032843D02*
D03*
X020685D02*
D03*
X019685Y031843D02*
D03*
X020685D02*
D03*
X019685Y030843D02*
D03*
X020685D02*
D03*
X019685Y029843D02*
D03*
X020685D02*
D03*
X019685Y028843D02*
D03*
X020685D02*
D03*
X019685Y027843D02*
D03*
X020685D02*
D03*
X019685Y026843D02*
D03*
X020685D02*
D03*
X019685Y025843D02*
D03*
X020685D02*
D03*
X019685Y024843D02*
D03*
X020685D02*
D03*
X019685Y023843D02*
D03*
X020685D02*
D03*
X019685Y022843D02*
D03*
X020685D02*
D03*
X019685Y021843D02*
D03*
X020685D02*
D03*
D29*
X038780Y021850D02*
D03*
X019685Y034843D02*
D03*
D30*
X038484Y018996D02*
D03*
Y037697D02*
D03*
D31*
X034843Y033858D02*
D03*
X032087D02*
D03*
X029331D02*
D03*
X026575D02*
D03*
X023819D02*
D03*
Y031102D02*
D03*
X026575D02*
D03*
X029331D02*
D03*
X032087D02*
D03*
X034843D02*
D03*
X023819Y028346D02*
D03*
X026575D02*
D03*
X029331D02*
D03*
X032087D02*
D03*
X034843D02*
D03*
Y025591D02*
D03*
X032087Y025591D02*
D03*
X029331D02*
D03*
X026575D02*
D03*
X023819Y025591D02*
D03*
X034843Y022835D02*
D03*
X032087D02*
D03*
X029331D02*
D03*
X026575D02*
D03*
X023819D02*
D03*
M02*
