G04 Layer_Color=128*
%FSAX44Y44*%
%MOMM*%
G71*
G01*
G75*
%ADD34C,0.0508*%
D34*
X00485000Y00020000D02*
X00515000D01*
X00500000Y00005000D02*
Y00035000D01*
X00485000Y00500000D02*
X00515000D01*
X00500000Y00485000D02*
Y00515000D01*
X00041400Y00094800D02*
X00049400D01*
X00045400Y00090800D02*
Y00098800D01*
X00016000Y00094800D02*
X00024000D01*
X00020000Y00090800D02*
Y00098800D01*
X00041400Y00120200D02*
X00049400D01*
X00045400Y00116200D02*
Y00124200D01*
X00016000Y00120200D02*
X00024000D01*
X00020000Y00116200D02*
Y00124200D01*
X00041400Y00145600D02*
X00049400D01*
X00045400Y00141600D02*
Y00149600D01*
X00016000Y00145600D02*
X00024000D01*
X00020000Y00141600D02*
Y00149600D01*
X00041400Y00171000D02*
X00049400D01*
X00045400Y00167000D02*
Y00175000D01*
X00016000Y00171000D02*
X00024000D01*
X00020000Y00167000D02*
Y00175000D01*
X00041400Y00196400D02*
X00049400D01*
X00045400Y00192400D02*
Y00200400D01*
X00016000Y00196400D02*
X00024000D01*
X00020000Y00192400D02*
Y00200400D01*
X00041400Y00221800D02*
X00049400D01*
X00045400Y00217800D02*
Y00225800D01*
X00016000Y00221800D02*
X00024000D01*
X00020000Y00217800D02*
Y00225800D01*
X00041400Y00247200D02*
X00049400D01*
X00045400Y00243200D02*
Y00251200D01*
X00016000Y00247200D02*
X00024000D01*
X00020000Y00243200D02*
Y00251200D01*
X00041400Y00272600D02*
X00049400D01*
X00045400Y00268600D02*
Y00276600D01*
X00016000Y00272600D02*
X00024000D01*
X00020000Y00268600D02*
Y00276600D01*
X00041400Y00298000D02*
X00049400D01*
X00045400Y00294000D02*
Y00302000D01*
X00016000Y00298000D02*
X00024000D01*
X00020000Y00294000D02*
Y00302000D01*
X00041400Y00323400D02*
X00049400D01*
X00045400Y00319400D02*
Y00327400D01*
X00016000Y00323400D02*
X00024000D01*
X00020000Y00319400D02*
Y00327400D01*
X00041400Y00348800D02*
X00049400D01*
X00045400Y00344800D02*
Y00352800D01*
X00016000Y00348800D02*
X00024000D01*
X00020000Y00344800D02*
Y00352800D01*
X00041400Y00374200D02*
X00049400D01*
X00045400Y00370200D02*
Y00378200D01*
X00016000Y00374200D02*
X00024000D01*
X00020000Y00370200D02*
Y00378200D01*
X00041400Y00399600D02*
X00049400D01*
X00045400Y00395600D02*
Y00403600D01*
X00016000Y00399600D02*
X00024000D01*
X00020000Y00395600D02*
Y00403600D01*
X00041400Y00425000D02*
X00049400D01*
X00045400Y00421000D02*
Y00429000D01*
X00016000Y00425000D02*
X00024000D01*
X00020000Y00421000D02*
Y00429000D01*
X00096000Y00477100D02*
X00104000D01*
X00100000Y00473100D02*
Y00481100D01*
X00096000Y00502500D02*
X00104000D01*
X00100000Y00498500D02*
Y00506500D01*
X00121400Y00477100D02*
X00129400D01*
X00125400Y00473100D02*
Y00481100D01*
X00121400Y00502500D02*
X00129400D01*
X00125400Y00498500D02*
Y00506500D01*
X00146800Y00477100D02*
X00154800D01*
X00150800Y00473100D02*
Y00481100D01*
X00146800Y00502500D02*
X00154800D01*
X00150800Y00498500D02*
Y00506500D01*
X00172200Y00477100D02*
X00180200D01*
X00176200Y00473100D02*
Y00481100D01*
X00172200Y00502500D02*
X00180200D01*
X00176200Y00498500D02*
Y00506500D01*
X00197600Y00477100D02*
X00205600D01*
X00201600Y00473100D02*
Y00481100D01*
X00197600Y00502500D02*
X00205600D01*
X00201600Y00498500D02*
Y00506500D01*
X00223000Y00477100D02*
X00231000D01*
X00227000Y00473100D02*
Y00481100D01*
X00223000Y00502500D02*
X00231000D01*
X00227000Y00498500D02*
Y00506500D01*
X00248400Y00477100D02*
X00256400D01*
X00252400Y00473100D02*
Y00481100D01*
X00248400Y00502500D02*
X00256400D01*
X00252400Y00498500D02*
Y00506500D01*
X00273800Y00477100D02*
X00281800D01*
X00277800Y00473100D02*
Y00481100D01*
X00273800Y00502500D02*
X00281800D01*
X00277800Y00498500D02*
Y00506500D01*
X00299200Y00477100D02*
X00307200D01*
X00303200Y00473100D02*
Y00481100D01*
X00299200Y00502500D02*
X00307200D01*
X00303200Y00498500D02*
Y00506500D01*
X00324600Y00477100D02*
X00332600D01*
X00328600Y00473100D02*
Y00481100D01*
X00324600Y00502500D02*
X00332600D01*
X00328600Y00498500D02*
Y00506500D01*
X00350000Y00477100D02*
X00358000D01*
X00354000Y00473100D02*
Y00481100D01*
X00350000Y00502500D02*
X00358000D01*
X00354000Y00498500D02*
Y00506500D01*
X00375400Y00477100D02*
X00383400D01*
X00379400Y00473100D02*
Y00481100D01*
X00375400Y00502500D02*
X00383400D01*
X00379400Y00498500D02*
Y00506500D01*
X00400800Y00477100D02*
X00408800D01*
X00404800Y00473100D02*
Y00481100D01*
X00400800Y00502500D02*
X00408800D01*
X00404800Y00498500D02*
Y00506500D01*
X00426200Y00477100D02*
X00434200D01*
X00430200Y00473100D02*
Y00481100D01*
X00426200Y00502500D02*
X00434200D01*
X00430200Y00498500D02*
Y00506500D01*
X00475600Y00425200D02*
X00483600D01*
X00479600Y00421200D02*
Y00429200D01*
X00501000Y00425200D02*
X00509000D01*
X00505000Y00421200D02*
Y00429200D01*
X00475600Y00399800D02*
X00483600D01*
X00479600Y00395800D02*
Y00403800D01*
X00501000Y00399800D02*
X00509000D01*
X00505000Y00395800D02*
Y00403800D01*
X00475600Y00374400D02*
X00483600D01*
X00479600Y00370400D02*
Y00378400D01*
X00501000Y00374400D02*
X00509000D01*
X00505000Y00370400D02*
Y00378400D01*
X00475600Y00349000D02*
X00483600D01*
X00479600Y00345000D02*
Y00353000D01*
X00501000Y00349000D02*
X00509000D01*
X00505000Y00345000D02*
Y00353000D01*
X00475600Y00323600D02*
X00483600D01*
X00479600Y00319600D02*
Y00327600D01*
X00501000Y00323600D02*
X00509000D01*
X00505000Y00319600D02*
Y00327600D01*
X00475600Y00298200D02*
X00483600D01*
X00479600Y00294200D02*
Y00302200D01*
X00501000Y00298200D02*
X00509000D01*
X00505000Y00294200D02*
Y00302200D01*
X00475600Y00272800D02*
X00483600D01*
X00479600Y00268800D02*
Y00276800D01*
X00501000Y00272800D02*
X00509000D01*
X00505000Y00268800D02*
Y00276800D01*
X00475600Y00247400D02*
X00483600D01*
X00479600Y00243400D02*
Y00251400D01*
X00501000Y00247400D02*
X00509000D01*
X00505000Y00243400D02*
Y00251400D01*
X00475600Y00222000D02*
X00483600D01*
X00479600Y00218000D02*
Y00226000D01*
X00501000Y00222000D02*
X00509000D01*
X00505000Y00218000D02*
Y00226000D01*
X00475600Y00196600D02*
X00483600D01*
X00479600Y00192600D02*
Y00200600D01*
X00501000Y00196600D02*
X00509000D01*
X00505000Y00192600D02*
Y00200600D01*
X00475600Y00171200D02*
X00483600D01*
X00479600Y00167200D02*
Y00175200D01*
X00501000Y00171200D02*
X00509000D01*
X00505000Y00167200D02*
Y00175200D01*
X00475600Y00145800D02*
X00483600D01*
X00479600Y00141800D02*
Y00149800D01*
X00501000Y00145800D02*
X00509000D01*
X00505000Y00141800D02*
Y00149800D01*
X00475600Y00120400D02*
X00483600D01*
X00479600Y00116400D02*
Y00124400D01*
X00501000Y00120400D02*
X00509000D01*
X00505000Y00116400D02*
Y00124400D01*
X00475600Y00095000D02*
X00483600D01*
X00479600Y00091000D02*
Y00099000D01*
X00501000Y00095000D02*
X00509000D01*
X00505000Y00091000D02*
Y00099000D01*
X00426200Y00042900D02*
X00434200D01*
X00430200Y00038900D02*
Y00046900D01*
X00426200Y00017500D02*
X00434200D01*
X00430200Y00013500D02*
Y00021500D01*
X00400800Y00042900D02*
X00408800D01*
X00404800Y00038900D02*
Y00046900D01*
X00400800Y00017500D02*
X00408800D01*
X00404800Y00013500D02*
Y00021500D01*
X00375400Y00042900D02*
X00383400D01*
X00379400Y00038900D02*
Y00046900D01*
X00375400Y00017500D02*
X00383400D01*
X00379400Y00013500D02*
Y00021500D01*
X00350000Y00042900D02*
X00358000D01*
X00354000Y00038900D02*
Y00046900D01*
X00350000Y00017500D02*
X00358000D01*
X00354000Y00013500D02*
Y00021500D01*
X00324600Y00042900D02*
X00332600D01*
X00328600Y00038900D02*
Y00046900D01*
X00324600Y00017500D02*
X00332600D01*
X00328600Y00013500D02*
Y00021500D01*
X00299200Y00042900D02*
X00307200D01*
X00303200Y00038900D02*
Y00046900D01*
X00299200Y00017500D02*
X00307200D01*
X00303200Y00013500D02*
Y00021500D01*
X00273800Y00042900D02*
X00281800D01*
X00277800Y00038900D02*
Y00046900D01*
X00273800Y00017500D02*
X00281800D01*
X00277800Y00013500D02*
Y00021500D01*
X00248400Y00042900D02*
X00256400D01*
X00252400Y00038900D02*
Y00046900D01*
X00248400Y00017500D02*
X00256400D01*
X00252400Y00013500D02*
Y00021500D01*
X00223000Y00042900D02*
X00231000D01*
X00227000Y00038900D02*
Y00046900D01*
X00223000Y00017500D02*
X00231000D01*
X00227000Y00013500D02*
Y00021500D01*
X00197600Y00042900D02*
X00205600D01*
X00201600Y00038900D02*
Y00046900D01*
X00197600Y00017500D02*
X00205600D01*
X00201600Y00013500D02*
Y00021500D01*
X00172200Y00042900D02*
X00180200D01*
X00176200Y00038900D02*
Y00046900D01*
X00172200Y00017500D02*
X00180200D01*
X00176200Y00013500D02*
Y00021500D01*
X00146800Y00042900D02*
X00154800D01*
X00150800Y00038900D02*
Y00046900D01*
X00146800Y00017500D02*
X00154800D01*
X00150800Y00013500D02*
Y00021500D01*
X00121400Y00042900D02*
X00129400D01*
X00125400Y00038900D02*
Y00046900D01*
X00121400Y00017500D02*
X00129400D01*
X00125400Y00013500D02*
Y00021500D01*
X00096000Y00042900D02*
X00104000D01*
X00100000Y00038900D02*
Y00046900D01*
X00096000Y00017500D02*
X00104000D01*
X00100000Y00013500D02*
Y00021500D01*
X00123000Y00120000D02*
X00127000D01*
X00125000Y00118000D02*
Y00122000D01*
X00193000Y00120000D02*
X00197000D01*
X00195000Y00118000D02*
Y00122000D01*
X00263000Y00120000D02*
X00267000D01*
X00265000Y00118000D02*
Y00122000D01*
X00333000Y00120000D02*
X00337000D01*
X00335000Y00118000D02*
Y00122000D01*
X00403000Y00120000D02*
X00407000D01*
X00405000Y00118000D02*
Y00122000D01*
X00123000Y00190000D02*
X00127000D01*
X00125000Y00188000D02*
Y00192000D01*
X00193000Y00190000D02*
X00197000D01*
X00195000Y00188000D02*
Y00192000D01*
X00263000Y00190000D02*
X00267000D01*
X00265000Y00188000D02*
Y00192000D01*
X00333000Y00190000D02*
X00337000D01*
X00335000Y00188000D02*
Y00192000D01*
X00403000Y00190000D02*
X00407000D01*
X00405000Y00188000D02*
Y00192000D01*
X00403000Y00260000D02*
X00407000D01*
X00405000Y00258000D02*
Y00262000D01*
X00333000Y00260000D02*
X00337000D01*
X00335000Y00258000D02*
Y00262000D01*
X00263000Y00260000D02*
X00267000D01*
X00265000Y00258000D02*
Y00262000D01*
X00193000Y00260000D02*
X00197000D01*
X00195000Y00258000D02*
Y00262000D01*
X00123000Y00260000D02*
X00127000D01*
X00125000Y00258000D02*
Y00262000D01*
X00403000Y00330000D02*
X00407000D01*
X00405000Y00328000D02*
Y00332000D01*
X00333000Y00330000D02*
X00337000D01*
X00335000Y00328000D02*
Y00332000D01*
X00263000Y00330000D02*
X00267000D01*
X00265000Y00328000D02*
Y00332000D01*
X00193000Y00330000D02*
X00197000D01*
X00195000Y00328000D02*
Y00332000D01*
X00123000Y00330000D02*
X00127000D01*
X00125000Y00328000D02*
Y00332000D01*
X00123000Y00400000D02*
X00127000D01*
X00125000Y00398000D02*
Y00402000D01*
X00193000Y00400000D02*
X00197000D01*
X00195000Y00398000D02*
Y00402000D01*
X00263000Y00400000D02*
X00267000D01*
X00265000Y00398000D02*
Y00402000D01*
X00333000Y00400000D02*
X00337000D01*
X00335000Y00398000D02*
Y00402000D01*
X00403000Y00400000D02*
X00407000D01*
X00405000Y00398000D02*
Y00402000D01*
M02*
