G04 Layer_Physical_Order=2*
G04 Layer_Color=16711680*
%FSAX24Y24*%
%MOIN*%
G70*
G01*
G75*
%ADD13C,0.0400*%
%ADD14C,0.0394*%
%ADD16C,0.0591*%
%ADD17R,0.0591X0.0591*%
%ADD18C,0.1280*%
%ADD19R,0.0591X0.0591*%
%ADD20C,0.0272*%
G36*
X038271Y038443D02*
X038265Y038440D01*
X038223Y038418D01*
X038183Y038393D01*
X038145Y038366D01*
X038109Y038336D01*
X038074Y038304D01*
X038042Y038269D01*
X038012Y038233D01*
X037985Y038195D01*
X037960Y038155D01*
X037938Y038113D01*
X037919Y038070D01*
X037902Y038026D01*
X037888Y037981D01*
X037878Y037936D01*
X037871Y037894D01*
X038583D01*
Y037795D01*
X038681D01*
Y037083D01*
X038723Y037090D01*
X038769Y037101D01*
X038814Y037115D01*
X038858Y037131D01*
X038901Y037151D01*
X038942Y037173D01*
X038982Y037198D01*
X039020Y037225D01*
X039057Y037255D01*
X039091Y037287D01*
X039123Y037321D01*
X039153Y037358D01*
X039180Y037396D01*
X039205Y037436D01*
X039227Y037477D01*
X039230Y037484D01*
X039270Y037475D01*
Y019218D01*
X039230Y019209D01*
X039227Y019216D01*
X039205Y019257D01*
X039180Y019297D01*
X039153Y019335D01*
X039123Y019372D01*
X039091Y019406D01*
X039057Y019438D01*
X039020Y019468D01*
X038982Y019495D01*
X038942Y019520D01*
X038901Y019542D01*
X038858Y019562D01*
X038814Y019578D01*
X038769Y019592D01*
X038723Y019603D01*
X038681Y019610D01*
Y018898D01*
X038583D01*
Y018799D01*
X037871D01*
X037878Y018757D01*
X037888Y018712D01*
X037902Y018667D01*
X037919Y018623D01*
X037938Y018580D01*
X037960Y018538D01*
X037985Y018498D01*
X038012Y018460D01*
X038042Y018424D01*
X038074Y018389D01*
X038109Y018357D01*
X038145Y018327D01*
X038183Y018300D01*
X038223Y018275D01*
X038265Y018253D01*
X038271Y018250D01*
X038263Y018211D01*
X018998D01*
Y038482D01*
X038263D01*
X038271Y038443D01*
D02*
G37*
%LPC*%
G36*
X031835Y020155D02*
X031804Y020153D01*
X031773Y020149D01*
X031743Y020143D01*
X031713Y020133D01*
X031684Y020122D01*
X031657Y020107D01*
X031631Y020091D01*
X031606Y020072D01*
X031583Y020051D01*
X031562Y020028D01*
X031543Y020003D01*
X031527Y019977D01*
X031512Y019950D01*
X031500Y019921D01*
X031491Y019891D01*
X031484Y019861D01*
X031480Y019830D01*
X031479Y019799D01*
X031480Y019768D01*
X031484Y019737D01*
X031491Y019707D01*
X031500Y019678D01*
X031512Y019649D01*
X031527Y019621D01*
X031543Y019595D01*
X031562Y019571D01*
X031583Y019548D01*
X031606Y019527D01*
X031631Y019508D01*
X031657Y019491D01*
X031684Y019477D01*
X031713Y019465D01*
X031743Y019456D01*
X031773Y019449D01*
X031804Y019445D01*
X031835Y019444D01*
X031866Y019445D01*
X031896Y019449D01*
X031927Y019456D01*
X031956Y019465D01*
X031985Y019477D01*
X032012Y019491D01*
X032039Y019508D01*
X032063Y019527D01*
X032086Y019548D01*
X032107Y019571D01*
X032126Y019595D01*
X032143Y019621D01*
X032157Y019649D01*
X032169Y019678D01*
X032178Y019707D01*
X032185Y019737D01*
X032189Y019768D01*
X032190Y019799D01*
X032189Y019830D01*
X032185Y019861D01*
X032178Y019891D01*
X032169Y019921D01*
X032157Y019950D01*
X032143Y019977D01*
X032126Y020003D01*
X032107Y020028D01*
X032086Y020051D01*
X032063Y020072D01*
X032039Y020091D01*
X032012Y020107D01*
X031985Y020122D01*
X031956Y020133D01*
X031927Y020143D01*
X031896Y020149D01*
X031866Y020153D01*
X031835Y020155D01*
D02*
G37*
G36*
X030835D02*
X030804Y020153D01*
X030773Y020149D01*
X030743Y020143D01*
X030713Y020133D01*
X030684Y020122D01*
X030657Y020107D01*
X030631Y020091D01*
X030606Y020072D01*
X030583Y020051D01*
X030562Y020028D01*
X030543Y020003D01*
X030527Y019977D01*
X030512Y019950D01*
X030500Y019921D01*
X030491Y019891D01*
X030484Y019861D01*
X030480Y019830D01*
X030479Y019799D01*
X030480Y019768D01*
X030484Y019737D01*
X030491Y019707D01*
X030500Y019678D01*
X030512Y019649D01*
X030527Y019621D01*
X030543Y019595D01*
X030562Y019571D01*
X030583Y019548D01*
X030606Y019527D01*
X030631Y019508D01*
X030657Y019491D01*
X030684Y019477D01*
X030713Y019465D01*
X030743Y019456D01*
X030773Y019449D01*
X030804Y019445D01*
X030835Y019444D01*
X030866Y019445D01*
X030896Y019449D01*
X030927Y019456D01*
X030956Y019465D01*
X030985Y019477D01*
X031012Y019491D01*
X031039Y019508D01*
X031063Y019527D01*
X031086Y019548D01*
X031107Y019571D01*
X031126Y019595D01*
X031143Y019621D01*
X031157Y019649D01*
X031169Y019678D01*
X031178Y019707D01*
X031185Y019737D01*
X031189Y019768D01*
X031190Y019799D01*
X031189Y019830D01*
X031185Y019861D01*
X031178Y019891D01*
X031169Y019921D01*
X031157Y019950D01*
X031143Y019977D01*
X031126Y020003D01*
X031107Y020028D01*
X031086Y020051D01*
X031063Y020072D01*
X031039Y020091D01*
X031012Y020107D01*
X030985Y020122D01*
X030956Y020133D01*
X030927Y020143D01*
X030896Y020149D01*
X030866Y020153D01*
X030835Y020155D01*
D02*
G37*
G36*
X032835D02*
X032804Y020153D01*
X032773Y020149D01*
X032743Y020143D01*
X032713Y020133D01*
X032684Y020122D01*
X032657Y020107D01*
X032631Y020091D01*
X032606Y020072D01*
X032583Y020051D01*
X032562Y020028D01*
X032543Y020003D01*
X032527Y019977D01*
X032512Y019950D01*
X032500Y019921D01*
X032491Y019891D01*
X032484Y019861D01*
X032480Y019830D01*
X032479Y019799D01*
X032480Y019768D01*
X032484Y019737D01*
X032491Y019707D01*
X032500Y019678D01*
X032512Y019649D01*
X032527Y019621D01*
X032543Y019595D01*
X032562Y019571D01*
X032583Y019548D01*
X032606Y019527D01*
X032631Y019508D01*
X032657Y019491D01*
X032684Y019477D01*
X032713Y019465D01*
X032743Y019456D01*
X032773Y019449D01*
X032804Y019445D01*
X032835Y019444D01*
X032866Y019445D01*
X032896Y019449D01*
X032927Y019456D01*
X032956Y019465D01*
X032985Y019477D01*
X033012Y019491D01*
X033039Y019508D01*
X033063Y019527D01*
X033086Y019548D01*
X033107Y019571D01*
X033126Y019595D01*
X033143Y019621D01*
X033157Y019649D01*
X033169Y019678D01*
X033178Y019707D01*
X033185Y019737D01*
X033189Y019768D01*
X033190Y019799D01*
X033189Y019830D01*
X033185Y019861D01*
X033178Y019891D01*
X033169Y019921D01*
X033157Y019950D01*
X033143Y019977D01*
X033126Y020003D01*
X033107Y020028D01*
X033086Y020051D01*
X033063Y020072D01*
X033039Y020091D01*
X033012Y020107D01*
X032985Y020122D01*
X032956Y020133D01*
X032927Y020143D01*
X032896Y020149D01*
X032866Y020153D01*
X032835Y020155D01*
D02*
G37*
G36*
X034736Y020160D02*
X034707Y020151D01*
X034676Y020139D01*
X034647Y020123D01*
X034620Y020106D01*
X034594Y020086D01*
X034570Y020064D01*
X034548Y020040D01*
X034528Y020014D01*
X034510Y019986D01*
X034495Y019957D01*
X034483Y019927D01*
X034474Y019898D01*
X034736D01*
Y020160D01*
D02*
G37*
G36*
X033835Y020155D02*
X033804Y020153D01*
X033773Y020149D01*
X033743Y020143D01*
X033713Y020133D01*
X033684Y020122D01*
X033657Y020107D01*
X033631Y020091D01*
X033606Y020072D01*
X033583Y020051D01*
X033562Y020028D01*
X033543Y020003D01*
X033527Y019977D01*
X033512Y019950D01*
X033500Y019921D01*
X033491Y019891D01*
X033484Y019861D01*
X033480Y019830D01*
X033479Y019799D01*
X033480Y019768D01*
X033484Y019737D01*
X033491Y019707D01*
X033500Y019678D01*
X033512Y019649D01*
X033527Y019621D01*
X033543Y019595D01*
X033562Y019571D01*
X033583Y019548D01*
X033606Y019527D01*
X033631Y019508D01*
X033657Y019491D01*
X033684Y019477D01*
X033713Y019465D01*
X033743Y019456D01*
X033773Y019449D01*
X033804Y019445D01*
X033835Y019444D01*
X033866Y019445D01*
X033896Y019449D01*
X033927Y019456D01*
X033956Y019465D01*
X033985Y019477D01*
X034012Y019491D01*
X034039Y019508D01*
X034063Y019527D01*
X034086Y019548D01*
X034107Y019571D01*
X034126Y019595D01*
X034143Y019621D01*
X034157Y019649D01*
X034169Y019678D01*
X034178Y019707D01*
X034185Y019737D01*
X034189Y019768D01*
X034190Y019799D01*
X034189Y019830D01*
X034185Y019861D01*
X034178Y019891D01*
X034169Y019921D01*
X034157Y019950D01*
X034143Y019977D01*
X034126Y020003D01*
X034107Y020028D01*
X034086Y020051D01*
X034063Y020072D01*
X034039Y020091D01*
X034012Y020107D01*
X033985Y020122D01*
X033956Y020133D01*
X033927Y020143D01*
X033896Y020149D01*
X033866Y020153D01*
X033835Y020155D01*
D02*
G37*
G36*
X019783Y031204D02*
Y030941D01*
X020046D01*
X020037Y030971D01*
X020024Y031001D01*
X020009Y031030D01*
X019992Y031057D01*
X019972Y031083D01*
X019950Y031107D01*
X019926Y031129D01*
X019900Y031149D01*
X019872Y031167D01*
X019843Y031182D01*
X019813Y031194D01*
X019783Y031204D01*
D02*
G37*
G36*
X020587D02*
X020557Y031194D01*
X020527Y031182D01*
X020498Y031167D01*
X020470Y031149D01*
X020444Y031129D01*
X020420Y031107D01*
X020398Y031083D01*
X020378Y031057D01*
X020361Y031030D01*
X020346Y031001D01*
X020333Y030971D01*
X020324Y030941D01*
X020587D01*
Y031204D01*
D02*
G37*
G36*
X019587D02*
X019557Y031194D01*
X019527Y031182D01*
X019498Y031167D01*
X019470Y031149D01*
X019444Y031129D01*
X019420Y031107D01*
X019398Y031083D01*
X019378Y031057D01*
X019361Y031030D01*
X019346Y031001D01*
X019333Y030971D01*
X019324Y030941D01*
X019587D01*
Y031204D01*
D02*
G37*
G36*
X020783D02*
Y030941D01*
X021046D01*
X021037Y030971D01*
X021024Y031001D01*
X021009Y031030D01*
X020992Y031057D01*
X020972Y031083D01*
X020950Y031107D01*
X020926Y031129D01*
X020900Y031149D01*
X020872Y031167D01*
X020843Y031182D01*
X020813Y031194D01*
X020783Y031204D01*
D02*
G37*
G36*
X029835Y020155D02*
X029804Y020153D01*
X029773Y020149D01*
X029743Y020143D01*
X029713Y020133D01*
X029684Y020122D01*
X029657Y020107D01*
X029631Y020091D01*
X029606Y020072D01*
X029583Y020051D01*
X029562Y020028D01*
X029543Y020003D01*
X029527Y019977D01*
X029512Y019950D01*
X029500Y019921D01*
X029491Y019891D01*
X029484Y019861D01*
X029480Y019830D01*
X029479Y019799D01*
X029480Y019768D01*
X029484Y019737D01*
X029491Y019707D01*
X029500Y019678D01*
X029512Y019649D01*
X029527Y019621D01*
X029543Y019595D01*
X029562Y019571D01*
X029583Y019548D01*
X029606Y019527D01*
X029631Y019508D01*
X029657Y019491D01*
X029684Y019477D01*
X029713Y019465D01*
X029743Y019456D01*
X029773Y019449D01*
X029804Y019445D01*
X029835Y019444D01*
X029866Y019445D01*
X029896Y019449D01*
X029927Y019456D01*
X029956Y019465D01*
X029985Y019477D01*
X030012Y019491D01*
X030039Y019508D01*
X030063Y019527D01*
X030086Y019548D01*
X030107Y019571D01*
X030126Y019595D01*
X030143Y019621D01*
X030157Y019649D01*
X030169Y019678D01*
X030178Y019707D01*
X030185Y019737D01*
X030189Y019768D01*
X030190Y019799D01*
X030189Y019830D01*
X030185Y019861D01*
X030178Y019891D01*
X030169Y019921D01*
X030157Y019950D01*
X030143Y019977D01*
X030126Y020003D01*
X030107Y020028D01*
X030086Y020051D01*
X030063Y020072D01*
X030039Y020091D01*
X030012Y020107D01*
X029985Y020122D01*
X029956Y020133D01*
X029927Y020143D01*
X029896Y020149D01*
X029866Y020153D01*
X029835Y020155D01*
D02*
G37*
G36*
X020046Y030744D02*
X019783D01*
Y030481D01*
X019813Y030491D01*
X019843Y030503D01*
X019872Y030518D01*
X019900Y030536D01*
X019926Y030556D01*
X019950Y030578D01*
X019972Y030602D01*
X019992Y030628D01*
X020009Y030655D01*
X020024Y030684D01*
X020037Y030714D01*
X020046Y030744D01*
D02*
G37*
G36*
X020587D02*
X020324D01*
X020333Y030714D01*
X020346Y030684D01*
X020361Y030655D01*
X020378Y030628D01*
X020398Y030602D01*
X020420Y030578D01*
X020444Y030556D01*
X020470Y030536D01*
X020498Y030518D01*
X020527Y030503D01*
X020557Y030491D01*
X020587Y030481D01*
Y030744D01*
D02*
G37*
G36*
X019587D02*
X019324D01*
X019333Y030714D01*
X019346Y030684D01*
X019361Y030655D01*
X019378Y030628D01*
X019398Y030602D01*
X019420Y030578D01*
X019444Y030556D01*
X019470Y030536D01*
X019498Y030518D01*
X019527Y030503D01*
X019557Y030491D01*
X019587Y030481D01*
Y030744D01*
D02*
G37*
G36*
X037780Y030206D02*
X037749Y030205D01*
X037718Y030201D01*
X037687Y030194D01*
X037658Y030185D01*
X037629Y030173D01*
X037602Y030158D01*
X037576Y030142D01*
X037551Y030123D01*
X037528Y030102D01*
X037507Y030079D01*
X037488Y030054D01*
X037472Y030028D01*
X037457Y030001D01*
X037445Y029972D01*
X037436Y029942D01*
X037429Y029912D01*
X037425Y029881D01*
X037424Y029850D01*
X037425Y029819D01*
X037429Y029789D01*
X037436Y029758D01*
X037445Y029729D01*
X037457Y029700D01*
X037472Y029673D01*
X037488Y029646D01*
X037507Y029622D01*
X037528Y029599D01*
X037551Y029578D01*
X037576Y029559D01*
X037602Y029542D01*
X037629Y029528D01*
X037658Y029516D01*
X037687Y029507D01*
X037718Y029500D01*
X037749Y029496D01*
X037780Y029495D01*
X037811Y029496D01*
X037841Y029500D01*
X037872Y029507D01*
X037901Y029516D01*
X037930Y029528D01*
X037957Y029542D01*
X037984Y029559D01*
X038008Y029578D01*
X038031Y029599D01*
X038052Y029622D01*
X038071Y029646D01*
X038087Y029673D01*
X038102Y029700D01*
X038114Y029729D01*
X038123Y029758D01*
X038130Y029789D01*
X038134Y029819D01*
X038135Y029850D01*
X038134Y029881D01*
X038130Y029912D01*
X038123Y029942D01*
X038114Y029972D01*
X038102Y030001D01*
X038087Y030028D01*
X038071Y030054D01*
X038052Y030079D01*
X038031Y030102D01*
X038008Y030123D01*
X037984Y030142D01*
X037957Y030158D01*
X037930Y030173D01*
X037901Y030185D01*
X037872Y030194D01*
X037841Y030201D01*
X037811Y030205D01*
X037780Y030206D01*
D02*
G37*
G36*
X038780D02*
X038749Y030205D01*
X038718Y030201D01*
X038687Y030194D01*
X038658Y030185D01*
X038629Y030173D01*
X038602Y030158D01*
X038576Y030142D01*
X038551Y030123D01*
X038528Y030102D01*
X038507Y030079D01*
X038488Y030054D01*
X038472Y030028D01*
X038457Y030001D01*
X038445Y029972D01*
X038436Y029942D01*
X038429Y029912D01*
X038425Y029881D01*
X038424Y029850D01*
X038425Y029819D01*
X038429Y029789D01*
X038436Y029758D01*
X038445Y029729D01*
X038457Y029700D01*
X038472Y029673D01*
X038488Y029646D01*
X038507Y029622D01*
X038528Y029599D01*
X038551Y029578D01*
X038576Y029559D01*
X038602Y029542D01*
X038629Y029528D01*
X038658Y029516D01*
X038687Y029507D01*
X038718Y029500D01*
X038749Y029496D01*
X038780Y029495D01*
X038811Y029496D01*
X038841Y029500D01*
X038872Y029507D01*
X038901Y029516D01*
X038930Y029528D01*
X038957Y029542D01*
X038984Y029559D01*
X039008Y029578D01*
X039031Y029599D01*
X039052Y029622D01*
X039071Y029646D01*
X039088Y029673D01*
X039102Y029700D01*
X039114Y029729D01*
X039123Y029758D01*
X039130Y029789D01*
X039134Y029819D01*
X039135Y029850D01*
X039134Y029881D01*
X039130Y029912D01*
X039123Y029942D01*
X039114Y029972D01*
X039102Y030001D01*
X039088Y030028D01*
X039071Y030054D01*
X039052Y030079D01*
X039031Y030102D01*
X039008Y030123D01*
X038984Y030142D01*
X038957Y030158D01*
X038930Y030173D01*
X038901Y030185D01*
X038872Y030194D01*
X038841Y030201D01*
X038811Y030205D01*
X038780Y030206D01*
D02*
G37*
G36*
X038681Y021752D02*
X038406D01*
Y021476D01*
X038681D01*
Y021752D01*
D02*
G37*
G36*
X034933Y020160D02*
Y019898D01*
X035196D01*
X035186Y019927D01*
X035174Y019957D01*
X035159Y019986D01*
X035141Y020014D01*
X035121Y020040D01*
X035099Y020064D01*
X035075Y020086D01*
X035049Y020106D01*
X035022Y020123D01*
X034993Y020139D01*
X034963Y020151D01*
X034933Y020160D01*
D02*
G37*
G36*
X038780Y031206D02*
X038749Y031205D01*
X038718Y031201D01*
X038687Y031194D01*
X038658Y031185D01*
X038629Y031173D01*
X038602Y031158D01*
X038576Y031142D01*
X038551Y031123D01*
X038528Y031102D01*
X038507Y031079D01*
X038488Y031054D01*
X038472Y031028D01*
X038457Y031001D01*
X038445Y030972D01*
X038436Y030942D01*
X038429Y030912D01*
X038425Y030881D01*
X038424Y030850D01*
X038425Y030819D01*
X038429Y030789D01*
X038436Y030758D01*
X038445Y030729D01*
X038457Y030700D01*
X038472Y030673D01*
X038488Y030646D01*
X038507Y030622D01*
X038528Y030599D01*
X038551Y030578D01*
X038576Y030559D01*
X038602Y030542D01*
X038629Y030528D01*
X038658Y030516D01*
X038687Y030507D01*
X038718Y030500D01*
X038749Y030496D01*
X038780Y030495D01*
X038811Y030496D01*
X038841Y030500D01*
X038872Y030507D01*
X038901Y030516D01*
X038930Y030528D01*
X038957Y030542D01*
X038984Y030559D01*
X039008Y030578D01*
X039031Y030599D01*
X039052Y030622D01*
X039071Y030646D01*
X039088Y030673D01*
X039102Y030700D01*
X039114Y030729D01*
X039123Y030758D01*
X039130Y030789D01*
X039134Y030819D01*
X039135Y030850D01*
X039134Y030881D01*
X039130Y030912D01*
X039123Y030942D01*
X039114Y030972D01*
X039102Y031001D01*
X039088Y031028D01*
X039071Y031054D01*
X039052Y031079D01*
X039031Y031102D01*
X039008Y031123D01*
X038984Y031142D01*
X038957Y031158D01*
X038930Y031173D01*
X038901Y031185D01*
X038872Y031194D01*
X038841Y031201D01*
X038811Y031205D01*
X038780Y031206D01*
D02*
G37*
G36*
X021046Y030744D02*
X020783D01*
Y030481D01*
X020813Y030491D01*
X020843Y030503D01*
X020872Y030518D01*
X020900Y030536D01*
X020926Y030556D01*
X020950Y030578D01*
X020972Y030602D01*
X020992Y030628D01*
X021009Y030655D01*
X021024Y030684D01*
X021037Y030714D01*
X021046Y030744D01*
D02*
G37*
G36*
X037780Y031206D02*
X037749Y031205D01*
X037718Y031201D01*
X037687Y031194D01*
X037658Y031185D01*
X037629Y031173D01*
X037602Y031158D01*
X037576Y031142D01*
X037551Y031123D01*
X037528Y031102D01*
X037507Y031079D01*
X037488Y031054D01*
X037472Y031028D01*
X037457Y031001D01*
X037445Y030972D01*
X037436Y030942D01*
X037429Y030912D01*
X037425Y030881D01*
X037424Y030850D01*
X037425Y030819D01*
X037429Y030789D01*
X037436Y030758D01*
X037445Y030729D01*
X037457Y030700D01*
X037472Y030673D01*
X037488Y030646D01*
X037507Y030622D01*
X037528Y030599D01*
X037551Y030578D01*
X037576Y030559D01*
X037602Y030542D01*
X037629Y030528D01*
X037658Y030516D01*
X037687Y030507D01*
X037718Y030500D01*
X037749Y030496D01*
X037780Y030495D01*
X037811Y030496D01*
X037841Y030500D01*
X037872Y030507D01*
X037901Y030516D01*
X037930Y030528D01*
X037957Y030542D01*
X037984Y030559D01*
X038008Y030578D01*
X038031Y030599D01*
X038052Y030622D01*
X038071Y030646D01*
X038087Y030673D01*
X038102Y030700D01*
X038114Y030729D01*
X038123Y030758D01*
X038130Y030789D01*
X038134Y030819D01*
X038135Y030850D01*
X038134Y030881D01*
X038130Y030912D01*
X038123Y030942D01*
X038114Y030972D01*
X038102Y031001D01*
X038087Y031028D01*
X038071Y031054D01*
X038052Y031079D01*
X038031Y031102D01*
X038008Y031123D01*
X037984Y031142D01*
X037957Y031158D01*
X037930Y031173D01*
X037901Y031185D01*
X037872Y031194D01*
X037841Y031201D01*
X037811Y031205D01*
X037780Y031206D01*
D02*
G37*
G36*
X038780Y032206D02*
X038749Y032205D01*
X038718Y032201D01*
X038687Y032194D01*
X038658Y032185D01*
X038629Y032173D01*
X038602Y032158D01*
X038576Y032142D01*
X038551Y032123D01*
X038528Y032102D01*
X038507Y032079D01*
X038488Y032054D01*
X038472Y032028D01*
X038457Y032001D01*
X038445Y031972D01*
X038436Y031942D01*
X038429Y031912D01*
X038425Y031881D01*
X038424Y031850D01*
X038425Y031819D01*
X038429Y031789D01*
X038436Y031758D01*
X038445Y031729D01*
X038457Y031700D01*
X038472Y031673D01*
X038488Y031646D01*
X038507Y031622D01*
X038528Y031599D01*
X038551Y031578D01*
X038576Y031559D01*
X038602Y031542D01*
X038629Y031528D01*
X038658Y031516D01*
X038687Y031507D01*
X038718Y031500D01*
X038749Y031496D01*
X038780Y031495D01*
X038811Y031496D01*
X038841Y031500D01*
X038872Y031507D01*
X038901Y031516D01*
X038930Y031528D01*
X038957Y031542D01*
X038984Y031559D01*
X039008Y031578D01*
X039031Y031599D01*
X039052Y031622D01*
X039071Y031646D01*
X039088Y031673D01*
X039102Y031700D01*
X039114Y031729D01*
X039123Y031758D01*
X039130Y031789D01*
X039134Y031819D01*
X039135Y031850D01*
X039134Y031881D01*
X039130Y031912D01*
X039123Y031942D01*
X039114Y031972D01*
X039102Y032001D01*
X039088Y032028D01*
X039071Y032054D01*
X039052Y032079D01*
X039031Y032102D01*
X039008Y032123D01*
X038984Y032142D01*
X038957Y032158D01*
X038930Y032173D01*
X038901Y032185D01*
X038872Y032194D01*
X038841Y032201D01*
X038811Y032205D01*
X038780Y032206D01*
D02*
G37*
G36*
X020587Y032204D02*
X020557Y032194D01*
X020527Y032182D01*
X020498Y032167D01*
X020470Y032149D01*
X020444Y032129D01*
X020420Y032107D01*
X020398Y032083D01*
X020378Y032057D01*
X020361Y032030D01*
X020346Y032001D01*
X020333Y031971D01*
X020324Y031941D01*
X020587D01*
Y032204D01*
D02*
G37*
G36*
X037780Y032206D02*
X037749Y032205D01*
X037718Y032201D01*
X037687Y032194D01*
X037658Y032185D01*
X037629Y032173D01*
X037602Y032158D01*
X037576Y032142D01*
X037551Y032123D01*
X037528Y032102D01*
X037507Y032079D01*
X037488Y032054D01*
X037472Y032028D01*
X037457Y032001D01*
X037445Y031972D01*
X037436Y031942D01*
X037429Y031912D01*
X037425Y031881D01*
X037424Y031850D01*
X037425Y031819D01*
X037429Y031789D01*
X037436Y031758D01*
X037445Y031729D01*
X037457Y031700D01*
X037472Y031673D01*
X037488Y031646D01*
X037507Y031622D01*
X037528Y031599D01*
X037551Y031578D01*
X037576Y031559D01*
X037602Y031542D01*
X037629Y031528D01*
X037658Y031516D01*
X037687Y031507D01*
X037718Y031500D01*
X037749Y031496D01*
X037780Y031495D01*
X037811Y031496D01*
X037841Y031500D01*
X037872Y031507D01*
X037901Y031516D01*
X037930Y031528D01*
X037957Y031542D01*
X037984Y031559D01*
X038008Y031578D01*
X038031Y031599D01*
X038052Y031622D01*
X038071Y031646D01*
X038087Y031673D01*
X038102Y031700D01*
X038114Y031729D01*
X038123Y031758D01*
X038130Y031789D01*
X038134Y031819D01*
X038135Y031850D01*
X038134Y031881D01*
X038130Y031912D01*
X038123Y031942D01*
X038114Y031972D01*
X038102Y032001D01*
X038087Y032028D01*
X038071Y032054D01*
X038052Y032079D01*
X038031Y032102D01*
X038008Y032123D01*
X037984Y032142D01*
X037957Y032158D01*
X037930Y032173D01*
X037901Y032185D01*
X037872Y032194D01*
X037841Y032201D01*
X037811Y032205D01*
X037780Y032206D01*
D02*
G37*
G36*
X021046Y031744D02*
X020783D01*
Y031481D01*
X020813Y031491D01*
X020843Y031503D01*
X020872Y031518D01*
X020900Y031536D01*
X020926Y031556D01*
X020950Y031578D01*
X020972Y031602D01*
X020992Y031628D01*
X021009Y031655D01*
X021024Y031684D01*
X021037Y031714D01*
X021046Y031744D01*
D02*
G37*
G36*
X019685Y032198D02*
X019654Y032197D01*
X019623Y032193D01*
X019593Y032186D01*
X019563Y032177D01*
X019535Y032165D01*
X019507Y032150D01*
X019481Y032134D01*
X019456Y032115D01*
X019434Y032094D01*
X019413Y032071D01*
X019394Y032046D01*
X019377Y032020D01*
X019363Y031993D01*
X019351Y031964D01*
X019342Y031935D01*
X019335Y031904D01*
X019331Y031874D01*
X019329Y031843D01*
X019331Y031812D01*
X019335Y031781D01*
X019342Y031750D01*
X019351Y031721D01*
X019363Y031692D01*
X019377Y031665D01*
X019394Y031639D01*
X019413Y031614D01*
X019434Y031591D01*
X019456Y031570D01*
X019481Y031551D01*
X019507Y031535D01*
X019535Y031520D01*
X019563Y031508D01*
X019593Y031499D01*
X019623Y031492D01*
X019654Y031488D01*
X019685Y031487D01*
X019716Y031488D01*
X019747Y031492D01*
X019777Y031499D01*
X019807Y031508D01*
X019835Y031520D01*
X019863Y031535D01*
X019889Y031551D01*
X019914Y031570D01*
X019936Y031591D01*
X019957Y031614D01*
X019976Y031639D01*
X019993Y031665D01*
X020007Y031692D01*
X020019Y031721D01*
X020029Y031750D01*
X020035Y031781D01*
X020039Y031812D01*
X020041Y031843D01*
X020039Y031874D01*
X020035Y031904D01*
X020029Y031935D01*
X020019Y031964D01*
X020007Y031993D01*
X019993Y032020D01*
X019976Y032046D01*
X019957Y032071D01*
X019936Y032094D01*
X019914Y032115D01*
X019889Y032134D01*
X019863Y032150D01*
X019835Y032165D01*
X019807Y032177D01*
X019777Y032186D01*
X019747Y032193D01*
X019716Y032197D01*
X019685Y032198D01*
D02*
G37*
G36*
X037780Y033206D02*
X037749Y033205D01*
X037718Y033201D01*
X037687Y033194D01*
X037658Y033185D01*
X037629Y033173D01*
X037602Y033158D01*
X037576Y033142D01*
X037551Y033123D01*
X037528Y033102D01*
X037507Y033079D01*
X037488Y033054D01*
X037472Y033028D01*
X037457Y033001D01*
X037445Y032972D01*
X037436Y032942D01*
X037429Y032912D01*
X037425Y032881D01*
X037424Y032850D01*
X037425Y032819D01*
X037429Y032789D01*
X037436Y032758D01*
X037445Y032729D01*
X037457Y032700D01*
X037472Y032673D01*
X037488Y032646D01*
X037507Y032622D01*
X037528Y032599D01*
X037551Y032578D01*
X037576Y032559D01*
X037602Y032542D01*
X037629Y032528D01*
X037658Y032516D01*
X037687Y032507D01*
X037718Y032500D01*
X037749Y032496D01*
X037780Y032495D01*
X037811Y032496D01*
X037841Y032500D01*
X037872Y032507D01*
X037901Y032516D01*
X037930Y032528D01*
X037957Y032542D01*
X037984Y032559D01*
X038008Y032578D01*
X038031Y032599D01*
X038052Y032622D01*
X038071Y032646D01*
X038087Y032673D01*
X038102Y032700D01*
X038114Y032729D01*
X038123Y032758D01*
X038130Y032789D01*
X038134Y032819D01*
X038135Y032850D01*
X038134Y032881D01*
X038130Y032912D01*
X038123Y032942D01*
X038114Y032972D01*
X038102Y033001D01*
X038087Y033028D01*
X038071Y033054D01*
X038052Y033079D01*
X038031Y033102D01*
X038008Y033123D01*
X037984Y033142D01*
X037957Y033158D01*
X037930Y033173D01*
X037901Y033185D01*
X037872Y033194D01*
X037841Y033201D01*
X037811Y033205D01*
X037780Y033206D01*
D02*
G37*
G36*
X038780D02*
X038749Y033205D01*
X038718Y033201D01*
X038687Y033194D01*
X038658Y033185D01*
X038629Y033173D01*
X038602Y033158D01*
X038576Y033142D01*
X038551Y033123D01*
X038528Y033102D01*
X038507Y033079D01*
X038488Y033054D01*
X038472Y033028D01*
X038457Y033001D01*
X038445Y032972D01*
X038436Y032942D01*
X038429Y032912D01*
X038425Y032881D01*
X038424Y032850D01*
X038425Y032819D01*
X038429Y032789D01*
X038436Y032758D01*
X038445Y032729D01*
X038457Y032700D01*
X038472Y032673D01*
X038488Y032646D01*
X038507Y032622D01*
X038528Y032599D01*
X038551Y032578D01*
X038576Y032559D01*
X038602Y032542D01*
X038629Y032528D01*
X038658Y032516D01*
X038687Y032507D01*
X038718Y032500D01*
X038749Y032496D01*
X038780Y032495D01*
X038811Y032496D01*
X038841Y032500D01*
X038872Y032507D01*
X038901Y032516D01*
X038930Y032528D01*
X038957Y032542D01*
X038984Y032559D01*
X039008Y032578D01*
X039031Y032599D01*
X039052Y032622D01*
X039071Y032646D01*
X039088Y032673D01*
X039102Y032700D01*
X039114Y032729D01*
X039123Y032758D01*
X039130Y032789D01*
X039134Y032819D01*
X039135Y032850D01*
X039134Y032881D01*
X039130Y032912D01*
X039123Y032942D01*
X039114Y032972D01*
X039102Y033001D01*
X039088Y033028D01*
X039071Y033054D01*
X039052Y033079D01*
X039031Y033102D01*
X039008Y033123D01*
X038984Y033142D01*
X038957Y033158D01*
X038930Y033173D01*
X038901Y033185D01*
X038872Y033194D01*
X038841Y033201D01*
X038811Y033205D01*
X038780Y033206D01*
D02*
G37*
G36*
X020685Y033198D02*
X020654Y033197D01*
X020623Y033193D01*
X020593Y033186D01*
X020563Y033177D01*
X020535Y033165D01*
X020507Y033150D01*
X020481Y033134D01*
X020456Y033115D01*
X020434Y033094D01*
X020413Y033071D01*
X020394Y033046D01*
X020377Y033020D01*
X020363Y032993D01*
X020351Y032964D01*
X020342Y032935D01*
X020335Y032904D01*
X020331Y032874D01*
X020329Y032843D01*
X020331Y032812D01*
X020335Y032781D01*
X020342Y032750D01*
X020351Y032721D01*
X020363Y032692D01*
X020377Y032665D01*
X020394Y032639D01*
X020413Y032614D01*
X020434Y032591D01*
X020456Y032570D01*
X020481Y032551D01*
X020507Y032535D01*
X020535Y032520D01*
X020563Y032508D01*
X020593Y032499D01*
X020623Y032492D01*
X020654Y032488D01*
X020685Y032487D01*
X020716Y032488D01*
X020747Y032492D01*
X020777Y032499D01*
X020807Y032508D01*
X020835Y032520D01*
X020863Y032535D01*
X020889Y032551D01*
X020914Y032570D01*
X020937Y032591D01*
X020957Y032614D01*
X020976Y032639D01*
X020993Y032665D01*
X021007Y032692D01*
X021019Y032721D01*
X021029Y032750D01*
X021035Y032781D01*
X021039Y032812D01*
X021041Y032843D01*
X021039Y032874D01*
X021035Y032904D01*
X021029Y032935D01*
X021019Y032964D01*
X021007Y032993D01*
X020993Y033020D01*
X020976Y033046D01*
X020957Y033071D01*
X020937Y033094D01*
X020914Y033115D01*
X020889Y033134D01*
X020863Y033150D01*
X020835Y033165D01*
X020807Y033177D01*
X020777Y033186D01*
X020747Y033193D01*
X020716Y033197D01*
X020685Y033198D01*
D02*
G37*
G36*
X020783Y032204D02*
Y031941D01*
X021046D01*
X021037Y031971D01*
X021024Y032001D01*
X021009Y032030D01*
X020992Y032057D01*
X020972Y032083D01*
X020950Y032107D01*
X020926Y032129D01*
X020900Y032149D01*
X020872Y032167D01*
X020843Y032182D01*
X020813Y032194D01*
X020783Y032204D01*
D02*
G37*
G36*
X019685Y033198D02*
X019654Y033197D01*
X019623Y033193D01*
X019593Y033186D01*
X019563Y033177D01*
X019535Y033165D01*
X019507Y033150D01*
X019481Y033134D01*
X019456Y033115D01*
X019434Y033094D01*
X019413Y033071D01*
X019394Y033046D01*
X019377Y033020D01*
X019363Y032993D01*
X019351Y032964D01*
X019342Y032935D01*
X019335Y032904D01*
X019331Y032874D01*
X019329Y032843D01*
X019331Y032812D01*
X019335Y032781D01*
X019342Y032750D01*
X019351Y032721D01*
X019363Y032692D01*
X019377Y032665D01*
X019394Y032639D01*
X019413Y032614D01*
X019434Y032591D01*
X019456Y032570D01*
X019481Y032551D01*
X019507Y032535D01*
X019535Y032520D01*
X019563Y032508D01*
X019593Y032499D01*
X019623Y032492D01*
X019654Y032488D01*
X019685Y032487D01*
X019716Y032488D01*
X019747Y032492D01*
X019777Y032499D01*
X019807Y032508D01*
X019835Y032520D01*
X019863Y032535D01*
X019889Y032551D01*
X019914Y032570D01*
X019936Y032591D01*
X019957Y032614D01*
X019976Y032639D01*
X019993Y032665D01*
X020007Y032692D01*
X020019Y032721D01*
X020029Y032750D01*
X020035Y032781D01*
X020039Y032812D01*
X020041Y032843D01*
X020039Y032874D01*
X020035Y032904D01*
X020029Y032935D01*
X020019Y032964D01*
X020007Y032993D01*
X019993Y033020D01*
X019976Y033046D01*
X019957Y033071D01*
X019936Y033094D01*
X019914Y033115D01*
X019889Y033134D01*
X019863Y033150D01*
X019835Y033165D01*
X019807Y033177D01*
X019777Y033186D01*
X019747Y033193D01*
X019716Y033197D01*
X019685Y033198D01*
D02*
G37*
G36*
X025835Y020155D02*
X025804Y020153D01*
X025773Y020149D01*
X025743Y020143D01*
X025713Y020133D01*
X025684Y020122D01*
X025657Y020107D01*
X025631Y020091D01*
X025606Y020072D01*
X025583Y020051D01*
X025562Y020028D01*
X025543Y020003D01*
X025527Y019977D01*
X025512Y019950D01*
X025500Y019921D01*
X025491Y019891D01*
X025484Y019861D01*
X025480Y019830D01*
X025479Y019799D01*
X025480Y019768D01*
X025484Y019737D01*
X025491Y019707D01*
X025500Y019678D01*
X025512Y019649D01*
X025527Y019621D01*
X025543Y019595D01*
X025562Y019571D01*
X025583Y019548D01*
X025606Y019527D01*
X025631Y019508D01*
X025657Y019491D01*
X025684Y019477D01*
X025713Y019465D01*
X025743Y019456D01*
X025773Y019449D01*
X025804Y019445D01*
X025835Y019444D01*
X025866Y019445D01*
X025896Y019449D01*
X025927Y019456D01*
X025956Y019465D01*
X025985Y019477D01*
X026012Y019491D01*
X026039Y019508D01*
X026063Y019527D01*
X026086Y019548D01*
X026107Y019571D01*
X026126Y019595D01*
X026143Y019621D01*
X026157Y019649D01*
X026169Y019678D01*
X026178Y019707D01*
X026185Y019737D01*
X026189Y019768D01*
X026190Y019799D01*
X026189Y019830D01*
X026185Y019861D01*
X026178Y019891D01*
X026169Y019921D01*
X026157Y019950D01*
X026143Y019977D01*
X026126Y020003D01*
X026107Y020028D01*
X026086Y020051D01*
X026063Y020072D01*
X026039Y020091D01*
X026012Y020107D01*
X025985Y020122D01*
X025956Y020133D01*
X025927Y020143D01*
X025896Y020149D01*
X025866Y020153D01*
X025835Y020155D01*
D02*
G37*
G36*
X024835D02*
X024804Y020153D01*
X024773Y020149D01*
X024743Y020143D01*
X024713Y020133D01*
X024684Y020122D01*
X024657Y020107D01*
X024631Y020091D01*
X024606Y020072D01*
X024583Y020051D01*
X024562Y020028D01*
X024543Y020003D01*
X024527Y019977D01*
X024512Y019950D01*
X024500Y019921D01*
X024491Y019891D01*
X024484Y019861D01*
X024480Y019830D01*
X024479Y019799D01*
X024480Y019768D01*
X024484Y019737D01*
X024491Y019707D01*
X024500Y019678D01*
X024512Y019649D01*
X024527Y019621D01*
X024543Y019595D01*
X024562Y019571D01*
X024583Y019548D01*
X024606Y019527D01*
X024631Y019508D01*
X024657Y019491D01*
X024684Y019477D01*
X024713Y019465D01*
X024743Y019456D01*
X024773Y019449D01*
X024804Y019445D01*
X024835Y019444D01*
X024866Y019445D01*
X024896Y019449D01*
X024927Y019456D01*
X024956Y019465D01*
X024985Y019477D01*
X025012Y019491D01*
X025039Y019508D01*
X025063Y019527D01*
X025086Y019548D01*
X025107Y019571D01*
X025126Y019595D01*
X025143Y019621D01*
X025157Y019649D01*
X025169Y019678D01*
X025178Y019707D01*
X025185Y019737D01*
X025189Y019768D01*
X025190Y019799D01*
X025189Y019830D01*
X025185Y019861D01*
X025178Y019891D01*
X025169Y019921D01*
X025157Y019950D01*
X025143Y019977D01*
X025126Y020003D01*
X025107Y020028D01*
X025086Y020051D01*
X025063Y020072D01*
X025039Y020091D01*
X025012Y020107D01*
X024985Y020122D01*
X024956Y020133D01*
X024927Y020143D01*
X024896Y020149D01*
X024866Y020153D01*
X024835Y020155D01*
D02*
G37*
G36*
X026835D02*
X026804Y020153D01*
X026773Y020149D01*
X026743Y020143D01*
X026713Y020133D01*
X026684Y020122D01*
X026657Y020107D01*
X026631Y020091D01*
X026606Y020072D01*
X026583Y020051D01*
X026562Y020028D01*
X026543Y020003D01*
X026527Y019977D01*
X026512Y019950D01*
X026500Y019921D01*
X026491Y019891D01*
X026484Y019861D01*
X026480Y019830D01*
X026479Y019799D01*
X026480Y019768D01*
X026484Y019737D01*
X026491Y019707D01*
X026500Y019678D01*
X026512Y019649D01*
X026527Y019621D01*
X026543Y019595D01*
X026562Y019571D01*
X026583Y019548D01*
X026606Y019527D01*
X026631Y019508D01*
X026657Y019491D01*
X026684Y019477D01*
X026713Y019465D01*
X026743Y019456D01*
X026773Y019449D01*
X026804Y019445D01*
X026835Y019444D01*
X026866Y019445D01*
X026896Y019449D01*
X026927Y019456D01*
X026956Y019465D01*
X026985Y019477D01*
X027012Y019491D01*
X027039Y019508D01*
X027063Y019527D01*
X027086Y019548D01*
X027107Y019571D01*
X027126Y019595D01*
X027143Y019621D01*
X027157Y019649D01*
X027169Y019678D01*
X027178Y019707D01*
X027185Y019737D01*
X027189Y019768D01*
X027190Y019799D01*
X027189Y019830D01*
X027185Y019861D01*
X027178Y019891D01*
X027169Y019921D01*
X027157Y019950D01*
X027143Y019977D01*
X027126Y020003D01*
X027107Y020028D01*
X027086Y020051D01*
X027063Y020072D01*
X027039Y020091D01*
X027012Y020107D01*
X026985Y020122D01*
X026956Y020133D01*
X026927Y020143D01*
X026896Y020149D01*
X026866Y020153D01*
X026835Y020155D01*
D02*
G37*
G36*
X028835D02*
X028804Y020153D01*
X028773Y020149D01*
X028743Y020143D01*
X028713Y020133D01*
X028684Y020122D01*
X028657Y020107D01*
X028631Y020091D01*
X028606Y020072D01*
X028583Y020051D01*
X028562Y020028D01*
X028543Y020003D01*
X028527Y019977D01*
X028512Y019950D01*
X028500Y019921D01*
X028491Y019891D01*
X028484Y019861D01*
X028480Y019830D01*
X028479Y019799D01*
X028480Y019768D01*
X028484Y019737D01*
X028491Y019707D01*
X028500Y019678D01*
X028512Y019649D01*
X028527Y019621D01*
X028543Y019595D01*
X028562Y019571D01*
X028583Y019548D01*
X028606Y019527D01*
X028631Y019508D01*
X028657Y019491D01*
X028684Y019477D01*
X028713Y019465D01*
X028743Y019456D01*
X028773Y019449D01*
X028804Y019445D01*
X028835Y019444D01*
X028866Y019445D01*
X028896Y019449D01*
X028927Y019456D01*
X028956Y019465D01*
X028985Y019477D01*
X029012Y019491D01*
X029039Y019508D01*
X029063Y019527D01*
X029086Y019548D01*
X029107Y019571D01*
X029126Y019595D01*
X029143Y019621D01*
X029157Y019649D01*
X029169Y019678D01*
X029178Y019707D01*
X029185Y019737D01*
X029189Y019768D01*
X029190Y019799D01*
X029189Y019830D01*
X029185Y019861D01*
X029178Y019891D01*
X029169Y019921D01*
X029157Y019950D01*
X029143Y019977D01*
X029126Y020003D01*
X029107Y020028D01*
X029086Y020051D01*
X029063Y020072D01*
X029039Y020091D01*
X029012Y020107D01*
X028985Y020122D01*
X028956Y020133D01*
X028927Y020143D01*
X028896Y020149D01*
X028866Y020153D01*
X028835Y020155D01*
D02*
G37*
G36*
X027835D02*
X027804Y020153D01*
X027773Y020149D01*
X027743Y020143D01*
X027713Y020133D01*
X027684Y020122D01*
X027657Y020107D01*
X027631Y020091D01*
X027606Y020072D01*
X027583Y020051D01*
X027562Y020028D01*
X027543Y020003D01*
X027527Y019977D01*
X027512Y019950D01*
X027500Y019921D01*
X027491Y019891D01*
X027484Y019861D01*
X027480Y019830D01*
X027479Y019799D01*
X027480Y019768D01*
X027484Y019737D01*
X027491Y019707D01*
X027500Y019678D01*
X027512Y019649D01*
X027527Y019621D01*
X027543Y019595D01*
X027562Y019571D01*
X027583Y019548D01*
X027606Y019527D01*
X027631Y019508D01*
X027657Y019491D01*
X027684Y019477D01*
X027713Y019465D01*
X027743Y019456D01*
X027773Y019449D01*
X027804Y019445D01*
X027835Y019444D01*
X027866Y019445D01*
X027896Y019449D01*
X027927Y019456D01*
X027956Y019465D01*
X027985Y019477D01*
X028012Y019491D01*
X028039Y019508D01*
X028063Y019527D01*
X028086Y019548D01*
X028107Y019571D01*
X028126Y019595D01*
X028143Y019621D01*
X028157Y019649D01*
X028169Y019678D01*
X028178Y019707D01*
X028185Y019737D01*
X028189Y019768D01*
X028190Y019799D01*
X028189Y019830D01*
X028185Y019861D01*
X028178Y019891D01*
X028169Y019921D01*
X028157Y019950D01*
X028143Y019977D01*
X028126Y020003D01*
X028107Y020028D01*
X028086Y020051D01*
X028063Y020072D01*
X028039Y020091D01*
X028012Y020107D01*
X027985Y020122D01*
X027956Y020133D01*
X027927Y020143D01*
X027896Y020149D01*
X027866Y020153D01*
X027835Y020155D01*
D02*
G37*
G36*
X034736Y019701D02*
X034474D01*
X034483Y019671D01*
X034495Y019641D01*
X034510Y019612D01*
X034528Y019584D01*
X034548Y019559D01*
X034570Y019534D01*
X034594Y019512D01*
X034620Y019493D01*
X034647Y019475D01*
X034676Y019460D01*
X034707Y019447D01*
X034736Y019438D01*
Y019701D01*
D02*
G37*
G36*
X020587Y031744D02*
X020324D01*
X020333Y031714D01*
X020346Y031684D01*
X020361Y031655D01*
X020378Y031628D01*
X020398Y031602D01*
X020420Y031578D01*
X020444Y031556D01*
X020470Y031536D01*
X020498Y031518D01*
X020527Y031503D01*
X020557Y031491D01*
X020587Y031481D01*
Y031744D01*
D02*
G37*
G36*
X035196Y019701D02*
X034933D01*
Y019438D01*
X034963Y019447D01*
X034993Y019460D01*
X035022Y019475D01*
X035049Y019493D01*
X035075Y019512D01*
X035099Y019534D01*
X035121Y019559D01*
X035141Y019584D01*
X035159Y019612D01*
X035174Y019641D01*
X035186Y019671D01*
X035196Y019701D01*
D02*
G37*
G36*
X023835Y020155D02*
X023804Y020153D01*
X023773Y020149D01*
X023743Y020143D01*
X023713Y020133D01*
X023684Y020122D01*
X023657Y020107D01*
X023631Y020091D01*
X023606Y020072D01*
X023583Y020051D01*
X023562Y020028D01*
X023543Y020003D01*
X023527Y019977D01*
X023512Y019950D01*
X023500Y019921D01*
X023491Y019891D01*
X023484Y019861D01*
X023480Y019830D01*
X023479Y019799D01*
X023480Y019768D01*
X023484Y019737D01*
X023491Y019707D01*
X023500Y019678D01*
X023512Y019649D01*
X023527Y019621D01*
X023543Y019595D01*
X023562Y019571D01*
X023583Y019548D01*
X023606Y019527D01*
X023631Y019508D01*
X023657Y019491D01*
X023684Y019477D01*
X023713Y019465D01*
X023743Y019456D01*
X023773Y019449D01*
X023804Y019445D01*
X023835Y019444D01*
X023866Y019445D01*
X023896Y019449D01*
X023927Y019456D01*
X023956Y019465D01*
X023985Y019477D01*
X024012Y019491D01*
X024039Y019508D01*
X024063Y019527D01*
X024086Y019548D01*
X024107Y019571D01*
X024126Y019595D01*
X024143Y019621D01*
X024157Y019649D01*
X024169Y019678D01*
X024178Y019707D01*
X024185Y019737D01*
X024189Y019768D01*
X024190Y019799D01*
X024189Y019830D01*
X024185Y019861D01*
X024178Y019891D01*
X024169Y019921D01*
X024157Y019950D01*
X024143Y019977D01*
X024126Y020003D01*
X024107Y020028D01*
X024086Y020051D01*
X024063Y020072D01*
X024039Y020091D01*
X024012Y020107D01*
X023985Y020122D01*
X023956Y020133D01*
X023927Y020143D01*
X023896Y020149D01*
X023866Y020153D01*
X023835Y020155D01*
D02*
G37*
G36*
X022835D02*
X022804Y020153D01*
X022773Y020149D01*
X022743Y020143D01*
X022713Y020133D01*
X022684Y020122D01*
X022657Y020107D01*
X022631Y020091D01*
X022606Y020072D01*
X022583Y020051D01*
X022562Y020028D01*
X022543Y020003D01*
X022527Y019977D01*
X022512Y019950D01*
X022500Y019921D01*
X022491Y019891D01*
X022484Y019861D01*
X022480Y019830D01*
X022479Y019799D01*
X022480Y019768D01*
X022484Y019737D01*
X022491Y019707D01*
X022500Y019678D01*
X022512Y019649D01*
X022527Y019621D01*
X022543Y019595D01*
X022562Y019571D01*
X022583Y019548D01*
X022606Y019527D01*
X022631Y019508D01*
X022657Y019491D01*
X022684Y019477D01*
X022713Y019465D01*
X022743Y019456D01*
X022773Y019449D01*
X022804Y019445D01*
X022835Y019444D01*
X022866Y019445D01*
X022896Y019449D01*
X022927Y019456D01*
X022956Y019465D01*
X022985Y019477D01*
X023012Y019491D01*
X023039Y019508D01*
X023063Y019527D01*
X023086Y019548D01*
X023107Y019571D01*
X023126Y019595D01*
X023143Y019621D01*
X023157Y019649D01*
X023169Y019678D01*
X023178Y019707D01*
X023185Y019737D01*
X023189Y019768D01*
X023190Y019799D01*
X023189Y019830D01*
X023185Y019861D01*
X023178Y019891D01*
X023169Y019921D01*
X023157Y019950D01*
X023143Y019977D01*
X023126Y020003D01*
X023107Y020028D01*
X023086Y020051D01*
X023063Y020072D01*
X023039Y020091D01*
X023012Y020107D01*
X022985Y020122D01*
X022956Y020133D01*
X022927Y020143D01*
X022896Y020149D01*
X022866Y020153D01*
X022835Y020155D01*
D02*
G37*
G36*
X020685Y030198D02*
X020654Y030197D01*
X020623Y030193D01*
X020593Y030186D01*
X020563Y030177D01*
X020535Y030165D01*
X020507Y030150D01*
X020481Y030134D01*
X020456Y030115D01*
X020434Y030094D01*
X020413Y030071D01*
X020394Y030046D01*
X020377Y030020D01*
X020363Y029993D01*
X020351Y029964D01*
X020342Y029935D01*
X020335Y029904D01*
X020331Y029874D01*
X020329Y029843D01*
X020331Y029812D01*
X020335Y029781D01*
X020342Y029750D01*
X020351Y029721D01*
X020363Y029692D01*
X020377Y029665D01*
X020394Y029639D01*
X020413Y029614D01*
X020434Y029591D01*
X020456Y029570D01*
X020481Y029551D01*
X020507Y029535D01*
X020535Y029520D01*
X020563Y029508D01*
X020593Y029499D01*
X020623Y029492D01*
X020654Y029488D01*
X020685Y029487D01*
X020716Y029488D01*
X020747Y029492D01*
X020777Y029499D01*
X020807Y029508D01*
X020835Y029520D01*
X020863Y029535D01*
X020889Y029551D01*
X020914Y029570D01*
X020937Y029591D01*
X020957Y029614D01*
X020976Y029639D01*
X020993Y029665D01*
X021007Y029692D01*
X021019Y029721D01*
X021029Y029750D01*
X021035Y029781D01*
X021039Y029812D01*
X021041Y029843D01*
X021039Y029874D01*
X021035Y029904D01*
X021029Y029935D01*
X021019Y029964D01*
X021007Y029993D01*
X020993Y030020D01*
X020976Y030046D01*
X020957Y030071D01*
X020937Y030094D01*
X020914Y030115D01*
X020889Y030134D01*
X020863Y030150D01*
X020835Y030165D01*
X020807Y030177D01*
X020777Y030186D01*
X020747Y030193D01*
X020716Y030197D01*
X020685Y030198D01*
D02*
G37*
G36*
X038780Y026206D02*
X038749Y026205D01*
X038718Y026201D01*
X038687Y026194D01*
X038658Y026185D01*
X038629Y026173D01*
X038602Y026158D01*
X038576Y026142D01*
X038551Y026123D01*
X038528Y026102D01*
X038507Y026079D01*
X038488Y026054D01*
X038472Y026028D01*
X038457Y026001D01*
X038445Y025972D01*
X038436Y025942D01*
X038429Y025912D01*
X038425Y025881D01*
X038424Y025850D01*
X038425Y025819D01*
X038429Y025789D01*
X038436Y025758D01*
X038445Y025729D01*
X038457Y025700D01*
X038472Y025673D01*
X038488Y025646D01*
X038507Y025622D01*
X038528Y025599D01*
X038551Y025578D01*
X038576Y025559D01*
X038602Y025542D01*
X038629Y025528D01*
X038658Y025516D01*
X038687Y025507D01*
X038718Y025500D01*
X038749Y025496D01*
X038780Y025495D01*
X038811Y025496D01*
X038841Y025500D01*
X038872Y025507D01*
X038901Y025516D01*
X038930Y025528D01*
X038957Y025542D01*
X038984Y025559D01*
X039008Y025578D01*
X039031Y025599D01*
X039052Y025622D01*
X039071Y025646D01*
X039088Y025673D01*
X039102Y025700D01*
X039114Y025729D01*
X039123Y025758D01*
X039130Y025789D01*
X039134Y025819D01*
X039135Y025850D01*
X039134Y025881D01*
X039130Y025912D01*
X039123Y025942D01*
X039114Y025972D01*
X039102Y026001D01*
X039088Y026028D01*
X039071Y026054D01*
X039052Y026079D01*
X039031Y026102D01*
X039008Y026123D01*
X038984Y026142D01*
X038957Y026158D01*
X038930Y026173D01*
X038901Y026185D01*
X038872Y026194D01*
X038841Y026201D01*
X038811Y026205D01*
X038780Y026206D01*
D02*
G37*
G36*
X020685Y026198D02*
X020654Y026197D01*
X020623Y026193D01*
X020593Y026186D01*
X020563Y026177D01*
X020535Y026165D01*
X020507Y026150D01*
X020481Y026134D01*
X020456Y026115D01*
X020449Y026108D01*
X020287Y026100D01*
X020076D01*
X020049Y026100D01*
X019950Y026102D01*
X019926Y026104D01*
X019914Y026115D01*
X019889Y026134D01*
X019863Y026150D01*
X019835Y026165D01*
X019807Y026177D01*
X019777Y026186D01*
X019747Y026193D01*
X019716Y026197D01*
X019685Y026198D01*
X019654Y026197D01*
X019623Y026193D01*
X019593Y026186D01*
X019563Y026177D01*
X019535Y026165D01*
X019507Y026150D01*
X019481Y026134D01*
X019456Y026115D01*
X019434Y026094D01*
X019413Y026071D01*
X019394Y026046D01*
X019377Y026020D01*
X019363Y025993D01*
X019351Y025964D01*
X019342Y025935D01*
X019335Y025904D01*
X019331Y025874D01*
X019329Y025843D01*
X019331Y025812D01*
X019335Y025781D01*
X019342Y025750D01*
X019351Y025721D01*
X019363Y025692D01*
X019377Y025665D01*
X019394Y025639D01*
X019413Y025614D01*
X019434Y025591D01*
X019456Y025570D01*
X019481Y025551D01*
X019507Y025535D01*
X019535Y025520D01*
X019563Y025508D01*
X019593Y025499D01*
X019623Y025492D01*
X019654Y025488D01*
X019685Y025487D01*
X019716Y025488D01*
X019747Y025492D01*
X019777Y025499D01*
X019807Y025508D01*
X019835Y025520D01*
X019863Y025535D01*
X019889Y025551D01*
X019914Y025570D01*
X019921Y025577D01*
X020084Y025585D01*
X020294D01*
X020321Y025585D01*
X020420Y025583D01*
X020445Y025581D01*
X020456Y025570D01*
X020481Y025551D01*
X020507Y025535D01*
X020535Y025520D01*
X020563Y025508D01*
X020593Y025499D01*
X020623Y025492D01*
X020654Y025488D01*
X020685Y025487D01*
X020716Y025488D01*
X020747Y025492D01*
X020777Y025499D01*
X020807Y025508D01*
X020835Y025520D01*
X020863Y025535D01*
X020889Y025551D01*
X020914Y025570D01*
X020937Y025591D01*
X020957Y025614D01*
X020976Y025639D01*
X020993Y025665D01*
X021007Y025692D01*
X021019Y025721D01*
X021029Y025750D01*
X021035Y025781D01*
X021039Y025812D01*
X021041Y025843D01*
X021039Y025874D01*
X021035Y025904D01*
X021029Y025935D01*
X021019Y025964D01*
X021007Y025993D01*
X020993Y026020D01*
X020976Y026046D01*
X020957Y026071D01*
X020937Y026094D01*
X020914Y026115D01*
X020889Y026134D01*
X020863Y026150D01*
X020835Y026165D01*
X020807Y026177D01*
X020777Y026186D01*
X020747Y026193D01*
X020716Y026197D01*
X020685Y026198D01*
D02*
G37*
G36*
X037780Y026206D02*
X037749Y026205D01*
X037718Y026201D01*
X037687Y026194D01*
X037658Y026185D01*
X037629Y026173D01*
X037602Y026158D01*
X037576Y026142D01*
X037551Y026123D01*
X037528Y026102D01*
X037507Y026079D01*
X037488Y026054D01*
X037472Y026028D01*
X037457Y026001D01*
X037445Y025972D01*
X037436Y025942D01*
X037429Y025912D01*
X037425Y025881D01*
X037424Y025850D01*
X037425Y025819D01*
X037429Y025789D01*
X037436Y025758D01*
X037445Y025729D01*
X037457Y025700D01*
X037472Y025673D01*
X037488Y025646D01*
X037507Y025622D01*
X037528Y025599D01*
X037551Y025578D01*
X037576Y025559D01*
X037602Y025542D01*
X037629Y025528D01*
X037658Y025516D01*
X037687Y025507D01*
X037718Y025500D01*
X037749Y025496D01*
X037780Y025495D01*
X037811Y025496D01*
X037841Y025500D01*
X037872Y025507D01*
X037901Y025516D01*
X037930Y025528D01*
X037957Y025542D01*
X037984Y025559D01*
X038008Y025578D01*
X038031Y025599D01*
X038052Y025622D01*
X038071Y025646D01*
X038087Y025673D01*
X038102Y025700D01*
X038114Y025729D01*
X038123Y025758D01*
X038130Y025789D01*
X038134Y025819D01*
X038135Y025850D01*
X038134Y025881D01*
X038130Y025912D01*
X038123Y025942D01*
X038114Y025972D01*
X038102Y026001D01*
X038087Y026028D01*
X038071Y026054D01*
X038052Y026079D01*
X038031Y026102D01*
X038008Y026123D01*
X037984Y026142D01*
X037957Y026158D01*
X037930Y026173D01*
X037901Y026185D01*
X037872Y026194D01*
X037841Y026201D01*
X037811Y026205D01*
X037780Y026206D01*
D02*
G37*
G36*
X019783Y023204D02*
Y022941D01*
X020046D01*
X020037Y022971D01*
X020024Y023001D01*
X020009Y023030D01*
X019992Y023057D01*
X019972Y023083D01*
X019950Y023107D01*
X019926Y023129D01*
X019900Y023149D01*
X019872Y023167D01*
X019843Y023182D01*
X019813Y023194D01*
X019783Y023204D01*
D02*
G37*
G36*
X019587D02*
X019557Y023194D01*
X019527Y023182D01*
X019498Y023167D01*
X019470Y023149D01*
X019444Y023129D01*
X019420Y023107D01*
X019398Y023083D01*
X019378Y023057D01*
X019361Y023030D01*
X019346Y023001D01*
X019333Y022971D01*
X019324Y022941D01*
X019587D01*
Y023204D01*
D02*
G37*
G36*
X038780Y027206D02*
X038749Y027205D01*
X038718Y027201D01*
X038687Y027194D01*
X038658Y027185D01*
X038629Y027173D01*
X038602Y027158D01*
X038576Y027142D01*
X038551Y027123D01*
X038528Y027102D01*
X038507Y027079D01*
X038488Y027054D01*
X038472Y027028D01*
X038457Y027001D01*
X038445Y026972D01*
X038436Y026942D01*
X038429Y026912D01*
X038425Y026881D01*
X038424Y026850D01*
X038425Y026819D01*
X038429Y026789D01*
X038436Y026758D01*
X038445Y026729D01*
X038457Y026700D01*
X038472Y026673D01*
X038488Y026646D01*
X038507Y026622D01*
X038528Y026599D01*
X038551Y026578D01*
X038576Y026559D01*
X038602Y026542D01*
X038629Y026528D01*
X038658Y026516D01*
X038687Y026507D01*
X038718Y026500D01*
X038749Y026496D01*
X038780Y026495D01*
X038811Y026496D01*
X038841Y026500D01*
X038872Y026507D01*
X038901Y026516D01*
X038930Y026528D01*
X038957Y026542D01*
X038984Y026559D01*
X039008Y026578D01*
X039031Y026599D01*
X039052Y026622D01*
X039071Y026646D01*
X039088Y026673D01*
X039102Y026700D01*
X039114Y026729D01*
X039123Y026758D01*
X039130Y026789D01*
X039134Y026819D01*
X039135Y026850D01*
X039134Y026881D01*
X039130Y026912D01*
X039123Y026942D01*
X039114Y026972D01*
X039102Y027001D01*
X039088Y027028D01*
X039071Y027054D01*
X039052Y027079D01*
X039031Y027102D01*
X039008Y027123D01*
X038984Y027142D01*
X038957Y027158D01*
X038930Y027173D01*
X038901Y027185D01*
X038872Y027194D01*
X038841Y027201D01*
X038811Y027205D01*
X038780Y027206D01*
D02*
G37*
G36*
X019685Y028198D02*
X019654Y028197D01*
X019623Y028193D01*
X019593Y028186D01*
X019563Y028177D01*
X019535Y028165D01*
X019507Y028150D01*
X019481Y028134D01*
X019456Y028115D01*
X019434Y028094D01*
X019413Y028071D01*
X019394Y028046D01*
X019377Y028020D01*
X019363Y027993D01*
X019351Y027964D01*
X019342Y027935D01*
X019335Y027904D01*
X019331Y027874D01*
X019329Y027843D01*
X019331Y027812D01*
X019335Y027781D01*
X019342Y027750D01*
X019351Y027721D01*
X019363Y027692D01*
X019377Y027665D01*
X019394Y027639D01*
X019413Y027614D01*
X019434Y027591D01*
X019456Y027570D01*
X019481Y027551D01*
X019507Y027535D01*
X019535Y027520D01*
X019563Y027508D01*
X019593Y027499D01*
X019623Y027492D01*
X019654Y027488D01*
X019685Y027487D01*
X019716Y027488D01*
X019747Y027492D01*
X019777Y027499D01*
X019807Y027508D01*
X019835Y027520D01*
X019863Y027535D01*
X019889Y027551D01*
X019914Y027570D01*
X019936Y027591D01*
X019957Y027614D01*
X019976Y027639D01*
X019993Y027665D01*
X020007Y027692D01*
X020019Y027721D01*
X020029Y027750D01*
X020035Y027781D01*
X020039Y027812D01*
X020041Y027843D01*
X020039Y027874D01*
X020035Y027904D01*
X020029Y027935D01*
X020019Y027964D01*
X020007Y027993D01*
X019993Y028020D01*
X019976Y028046D01*
X019957Y028071D01*
X019936Y028094D01*
X019914Y028115D01*
X019889Y028134D01*
X019863Y028150D01*
X019835Y028165D01*
X019807Y028177D01*
X019777Y028186D01*
X019747Y028193D01*
X019716Y028197D01*
X019685Y028198D01*
D02*
G37*
G36*
X037780Y027206D02*
X037749Y027205D01*
X037718Y027201D01*
X037687Y027194D01*
X037658Y027185D01*
X037629Y027173D01*
X037602Y027158D01*
X037576Y027142D01*
X037551Y027123D01*
X037528Y027102D01*
X037507Y027079D01*
X037488Y027054D01*
X037472Y027028D01*
X037457Y027001D01*
X037445Y026972D01*
X037436Y026942D01*
X037429Y026912D01*
X037425Y026881D01*
X037424Y026850D01*
X037425Y026819D01*
X037429Y026789D01*
X037436Y026758D01*
X037445Y026729D01*
X037457Y026700D01*
X037472Y026673D01*
X037488Y026646D01*
X037507Y026622D01*
X037528Y026599D01*
X037551Y026578D01*
X037576Y026559D01*
X037602Y026542D01*
X037629Y026528D01*
X037658Y026516D01*
X037687Y026507D01*
X037718Y026500D01*
X037749Y026496D01*
X037780Y026495D01*
X037811Y026496D01*
X037841Y026500D01*
X037872Y026507D01*
X037901Y026516D01*
X037930Y026528D01*
X037957Y026542D01*
X037984Y026559D01*
X038008Y026578D01*
X038031Y026599D01*
X038052Y026622D01*
X038071Y026646D01*
X038087Y026673D01*
X038102Y026700D01*
X038114Y026729D01*
X038123Y026758D01*
X038130Y026789D01*
X038134Y026819D01*
X038135Y026850D01*
X038134Y026881D01*
X038130Y026912D01*
X038123Y026942D01*
X038114Y026972D01*
X038102Y027001D01*
X038087Y027028D01*
X038071Y027054D01*
X038052Y027079D01*
X038031Y027102D01*
X038008Y027123D01*
X037984Y027142D01*
X037957Y027158D01*
X037930Y027173D01*
X037901Y027185D01*
X037872Y027194D01*
X037841Y027201D01*
X037811Y027205D01*
X037780Y027206D01*
D02*
G37*
G36*
X019685Y027198D02*
X019654Y027197D01*
X019623Y027193D01*
X019593Y027186D01*
X019563Y027177D01*
X019535Y027165D01*
X019507Y027150D01*
X019481Y027134D01*
X019456Y027115D01*
X019434Y027094D01*
X019413Y027071D01*
X019394Y027046D01*
X019377Y027020D01*
X019363Y026993D01*
X019351Y026964D01*
X019342Y026935D01*
X019335Y026904D01*
X019331Y026874D01*
X019329Y026843D01*
X019331Y026812D01*
X019335Y026781D01*
X019342Y026750D01*
X019351Y026721D01*
X019363Y026692D01*
X019377Y026665D01*
X019394Y026639D01*
X019413Y026614D01*
X019434Y026591D01*
X019456Y026570D01*
X019481Y026551D01*
X019507Y026535D01*
X019535Y026520D01*
X019563Y026508D01*
X019593Y026499D01*
X019623Y026492D01*
X019654Y026488D01*
X019685Y026487D01*
X019716Y026488D01*
X019747Y026492D01*
X019777Y026499D01*
X019807Y026508D01*
X019835Y026520D01*
X019863Y026535D01*
X019889Y026551D01*
X019914Y026570D01*
X019936Y026591D01*
X019957Y026614D01*
X019976Y026639D01*
X019993Y026665D01*
X020007Y026692D01*
X020019Y026721D01*
X020029Y026750D01*
X020035Y026781D01*
X020039Y026812D01*
X020041Y026843D01*
X020039Y026874D01*
X020035Y026904D01*
X020029Y026935D01*
X020019Y026964D01*
X020007Y026993D01*
X019993Y027020D01*
X019976Y027046D01*
X019957Y027071D01*
X019936Y027094D01*
X019914Y027115D01*
X019889Y027134D01*
X019863Y027150D01*
X019835Y027165D01*
X019807Y027177D01*
X019777Y027186D01*
X019747Y027193D01*
X019716Y027197D01*
X019685Y027198D01*
D02*
G37*
G36*
X020685D02*
X020654Y027197D01*
X020623Y027193D01*
X020593Y027186D01*
X020563Y027177D01*
X020535Y027165D01*
X020507Y027150D01*
X020481Y027134D01*
X020456Y027115D01*
X020434Y027094D01*
X020413Y027071D01*
X020394Y027046D01*
X020377Y027020D01*
X020363Y026993D01*
X020351Y026964D01*
X020342Y026935D01*
X020335Y026904D01*
X020331Y026874D01*
X020329Y026843D01*
X020331Y026812D01*
X020335Y026781D01*
X020342Y026750D01*
X020351Y026721D01*
X020363Y026692D01*
X020377Y026665D01*
X020394Y026639D01*
X020413Y026614D01*
X020434Y026591D01*
X020456Y026570D01*
X020481Y026551D01*
X020507Y026535D01*
X020535Y026520D01*
X020563Y026508D01*
X020593Y026499D01*
X020623Y026492D01*
X020654Y026488D01*
X020685Y026487D01*
X020716Y026488D01*
X020747Y026492D01*
X020777Y026499D01*
X020807Y026508D01*
X020835Y026520D01*
X020863Y026535D01*
X020889Y026551D01*
X020914Y026570D01*
X020937Y026591D01*
X020957Y026614D01*
X020976Y026639D01*
X020993Y026665D01*
X021007Y026692D01*
X021019Y026721D01*
X021029Y026750D01*
X021035Y026781D01*
X021039Y026812D01*
X021041Y026843D01*
X021039Y026874D01*
X021035Y026904D01*
X021029Y026935D01*
X021019Y026964D01*
X021007Y026993D01*
X020993Y027020D01*
X020976Y027046D01*
X020957Y027071D01*
X020937Y027094D01*
X020914Y027115D01*
X020889Y027134D01*
X020863Y027150D01*
X020835Y027165D01*
X020807Y027177D01*
X020777Y027186D01*
X020747Y027193D01*
X020716Y027197D01*
X020685Y027198D01*
D02*
G37*
G36*
X038780Y024206D02*
X038749Y024205D01*
X038718Y024201D01*
X038687Y024194D01*
X038658Y024185D01*
X038629Y024173D01*
X038602Y024158D01*
X038576Y024142D01*
X038551Y024123D01*
X038528Y024102D01*
X038507Y024079D01*
X038488Y024054D01*
X038472Y024028D01*
X038457Y024001D01*
X038445Y023972D01*
X038436Y023942D01*
X038429Y023912D01*
X038425Y023881D01*
X038424Y023850D01*
X038425Y023819D01*
X038429Y023789D01*
X038436Y023758D01*
X038445Y023729D01*
X038457Y023700D01*
X038472Y023673D01*
X038488Y023646D01*
X038507Y023622D01*
X038528Y023599D01*
X038551Y023578D01*
X038576Y023559D01*
X038602Y023542D01*
X038629Y023528D01*
X038658Y023516D01*
X038687Y023507D01*
X038718Y023500D01*
X038749Y023496D01*
X038780Y023495D01*
X038811Y023496D01*
X038841Y023500D01*
X038872Y023507D01*
X038901Y023516D01*
X038930Y023528D01*
X038957Y023542D01*
X038984Y023559D01*
X039008Y023578D01*
X039031Y023599D01*
X039052Y023622D01*
X039071Y023646D01*
X039088Y023673D01*
X039102Y023700D01*
X039114Y023729D01*
X039123Y023758D01*
X039130Y023789D01*
X039134Y023819D01*
X039135Y023850D01*
X039134Y023881D01*
X039130Y023912D01*
X039123Y023942D01*
X039114Y023972D01*
X039102Y024001D01*
X039088Y024028D01*
X039071Y024054D01*
X039052Y024079D01*
X039031Y024102D01*
X039008Y024123D01*
X038984Y024142D01*
X038957Y024158D01*
X038930Y024173D01*
X038901Y024185D01*
X038872Y024194D01*
X038841Y024201D01*
X038811Y024205D01*
X038780Y024206D01*
D02*
G37*
G36*
X019685Y025198D02*
X019654Y025197D01*
X019623Y025193D01*
X019593Y025186D01*
X019563Y025177D01*
X019535Y025165D01*
X019507Y025150D01*
X019481Y025134D01*
X019456Y025115D01*
X019434Y025094D01*
X019413Y025071D01*
X019394Y025046D01*
X019377Y025020D01*
X019363Y024993D01*
X019351Y024964D01*
X019342Y024935D01*
X019335Y024904D01*
X019331Y024874D01*
X019329Y024843D01*
X019331Y024812D01*
X019335Y024781D01*
X019342Y024750D01*
X019351Y024721D01*
X019363Y024692D01*
X019377Y024665D01*
X019394Y024639D01*
X019413Y024614D01*
X019434Y024591D01*
X019456Y024570D01*
X019481Y024551D01*
X019507Y024535D01*
X019535Y024520D01*
X019563Y024508D01*
X019593Y024499D01*
X019623Y024492D01*
X019654Y024488D01*
X019685Y024487D01*
X019716Y024488D01*
X019747Y024492D01*
X019777Y024499D01*
X019807Y024508D01*
X019835Y024520D01*
X019863Y024535D01*
X019889Y024551D01*
X019914Y024570D01*
X019936Y024591D01*
X019957Y024614D01*
X019976Y024639D01*
X019993Y024665D01*
X020007Y024692D01*
X020019Y024721D01*
X020029Y024750D01*
X020035Y024781D01*
X020039Y024812D01*
X020041Y024843D01*
X020039Y024874D01*
X020035Y024904D01*
X020029Y024935D01*
X020019Y024964D01*
X020007Y024993D01*
X019993Y025020D01*
X019976Y025046D01*
X019957Y025071D01*
X019936Y025094D01*
X019914Y025115D01*
X019889Y025134D01*
X019863Y025150D01*
X019835Y025165D01*
X019807Y025177D01*
X019777Y025186D01*
X019747Y025193D01*
X019716Y025197D01*
X019685Y025198D01*
D02*
G37*
G36*
X037780Y024206D02*
X037749Y024205D01*
X037718Y024201D01*
X037687Y024194D01*
X037658Y024185D01*
X037629Y024173D01*
X037602Y024158D01*
X037576Y024142D01*
X037551Y024123D01*
X037528Y024102D01*
X037507Y024079D01*
X037488Y024054D01*
X037472Y024028D01*
X037457Y024001D01*
X037445Y023972D01*
X037436Y023942D01*
X037429Y023912D01*
X037425Y023881D01*
X037424Y023850D01*
X037425Y023819D01*
X037429Y023789D01*
X037436Y023758D01*
X037445Y023729D01*
X037457Y023700D01*
X037472Y023673D01*
X037488Y023646D01*
X037507Y023622D01*
X037528Y023599D01*
X037551Y023578D01*
X037576Y023559D01*
X037602Y023542D01*
X037629Y023528D01*
X037658Y023516D01*
X037687Y023507D01*
X037718Y023500D01*
X037749Y023496D01*
X037780Y023495D01*
X037811Y023496D01*
X037841Y023500D01*
X037872Y023507D01*
X037901Y023516D01*
X037930Y023528D01*
X037957Y023542D01*
X037984Y023559D01*
X038008Y023578D01*
X038031Y023599D01*
X038052Y023622D01*
X038071Y023646D01*
X038087Y023673D01*
X038102Y023700D01*
X038114Y023729D01*
X038123Y023758D01*
X038130Y023789D01*
X038134Y023819D01*
X038135Y023850D01*
X038134Y023881D01*
X038130Y023912D01*
X038123Y023942D01*
X038114Y023972D01*
X038102Y024001D01*
X038087Y024028D01*
X038071Y024054D01*
X038052Y024079D01*
X038031Y024102D01*
X038008Y024123D01*
X037984Y024142D01*
X037957Y024158D01*
X037930Y024173D01*
X037901Y024185D01*
X037872Y024194D01*
X037841Y024201D01*
X037811Y024205D01*
X037780Y024206D01*
D02*
G37*
G36*
X019685Y024198D02*
X019654Y024197D01*
X019623Y024193D01*
X019593Y024186D01*
X019563Y024177D01*
X019535Y024165D01*
X019507Y024150D01*
X019481Y024134D01*
X019456Y024115D01*
X019434Y024094D01*
X019413Y024071D01*
X019394Y024046D01*
X019377Y024020D01*
X019363Y023993D01*
X019351Y023964D01*
X019342Y023935D01*
X019335Y023904D01*
X019331Y023874D01*
X019329Y023843D01*
X019331Y023812D01*
X019335Y023781D01*
X019342Y023750D01*
X019351Y023721D01*
X019363Y023692D01*
X019377Y023665D01*
X019394Y023639D01*
X019413Y023614D01*
X019434Y023591D01*
X019456Y023570D01*
X019481Y023551D01*
X019507Y023535D01*
X019535Y023520D01*
X019563Y023508D01*
X019593Y023499D01*
X019623Y023492D01*
X019654Y023488D01*
X019685Y023487D01*
X019716Y023488D01*
X019747Y023492D01*
X019777Y023499D01*
X019807Y023508D01*
X019835Y023520D01*
X019863Y023535D01*
X019889Y023551D01*
X019914Y023570D01*
X019936Y023591D01*
X019957Y023614D01*
X019976Y023639D01*
X019993Y023665D01*
X020007Y023692D01*
X020019Y023721D01*
X020029Y023750D01*
X020035Y023781D01*
X020039Y023812D01*
X020041Y023843D01*
X020039Y023874D01*
X020035Y023904D01*
X020029Y023935D01*
X020019Y023964D01*
X020007Y023993D01*
X019993Y024020D01*
X019976Y024046D01*
X019957Y024071D01*
X019936Y024094D01*
X019914Y024115D01*
X019889Y024134D01*
X019863Y024150D01*
X019835Y024165D01*
X019807Y024177D01*
X019777Y024186D01*
X019747Y024193D01*
X019716Y024197D01*
X019685Y024198D01*
D02*
G37*
G36*
X020685D02*
X020654Y024197D01*
X020623Y024193D01*
X020593Y024186D01*
X020563Y024177D01*
X020535Y024165D01*
X020507Y024150D01*
X020481Y024134D01*
X020456Y024115D01*
X020434Y024094D01*
X020413Y024071D01*
X020394Y024046D01*
X020377Y024020D01*
X020363Y023993D01*
X020351Y023964D01*
X020342Y023935D01*
X020335Y023904D01*
X020331Y023874D01*
X020329Y023843D01*
X020331Y023812D01*
X020335Y023781D01*
X020342Y023750D01*
X020351Y023721D01*
X020363Y023692D01*
X020377Y023665D01*
X020394Y023639D01*
X020413Y023614D01*
X020434Y023591D01*
X020456Y023570D01*
X020481Y023551D01*
X020507Y023535D01*
X020535Y023520D01*
X020563Y023508D01*
X020593Y023499D01*
X020623Y023492D01*
X020654Y023488D01*
X020685Y023487D01*
X020716Y023488D01*
X020747Y023492D01*
X020777Y023499D01*
X020807Y023508D01*
X020835Y023520D01*
X020863Y023535D01*
X020889Y023551D01*
X020914Y023570D01*
X020937Y023591D01*
X020957Y023614D01*
X020976Y023639D01*
X020993Y023665D01*
X021007Y023692D01*
X021019Y023721D01*
X021029Y023750D01*
X021035Y023781D01*
X021039Y023812D01*
X021041Y023843D01*
X021039Y023874D01*
X021035Y023904D01*
X021029Y023935D01*
X021019Y023964D01*
X021007Y023993D01*
X020993Y024020D01*
X020976Y024046D01*
X020957Y024071D01*
X020937Y024094D01*
X020914Y024115D01*
X020889Y024134D01*
X020863Y024150D01*
X020835Y024165D01*
X020807Y024177D01*
X020777Y024186D01*
X020747Y024193D01*
X020716Y024197D01*
X020685Y024198D01*
D02*
G37*
G36*
X020783Y023204D02*
Y022941D01*
X021046D01*
X021037Y022971D01*
X021024Y023001D01*
X021009Y023030D01*
X020992Y023057D01*
X020972Y023083D01*
X020950Y023107D01*
X020926Y023129D01*
X020900Y023149D01*
X020872Y023167D01*
X020843Y023182D01*
X020813Y023194D01*
X020783Y023204D01*
D02*
G37*
G36*
X020587D02*
X020557Y023194D01*
X020527Y023182D01*
X020498Y023167D01*
X020470Y023149D01*
X020444Y023129D01*
X020420Y023107D01*
X020398Y023083D01*
X020378Y023057D01*
X020361Y023030D01*
X020346Y023001D01*
X020333Y022971D01*
X020324Y022941D01*
X020587D01*
Y023204D01*
D02*
G37*
G36*
X038780Y025206D02*
X038749Y025205D01*
X038718Y025201D01*
X038687Y025194D01*
X038658Y025185D01*
X038629Y025173D01*
X038602Y025158D01*
X038576Y025142D01*
X038551Y025123D01*
X038528Y025102D01*
X038507Y025079D01*
X038488Y025054D01*
X038472Y025028D01*
X038457Y025001D01*
X038445Y024972D01*
X038436Y024942D01*
X038429Y024912D01*
X038425Y024881D01*
X038424Y024850D01*
X038425Y024819D01*
X038429Y024789D01*
X038436Y024758D01*
X038445Y024729D01*
X038457Y024700D01*
X038472Y024673D01*
X038488Y024646D01*
X038507Y024622D01*
X038528Y024599D01*
X038551Y024578D01*
X038576Y024559D01*
X038602Y024542D01*
X038629Y024528D01*
X038658Y024516D01*
X038687Y024507D01*
X038718Y024500D01*
X038749Y024496D01*
X038780Y024495D01*
X038811Y024496D01*
X038841Y024500D01*
X038872Y024507D01*
X038901Y024516D01*
X038930Y024528D01*
X038957Y024542D01*
X038984Y024559D01*
X039008Y024578D01*
X039031Y024599D01*
X039052Y024622D01*
X039071Y024646D01*
X039088Y024673D01*
X039102Y024700D01*
X039114Y024729D01*
X039123Y024758D01*
X039130Y024789D01*
X039134Y024819D01*
X039135Y024850D01*
X039134Y024881D01*
X039130Y024912D01*
X039123Y024942D01*
X039114Y024972D01*
X039102Y025001D01*
X039088Y025028D01*
X039071Y025054D01*
X039052Y025079D01*
X039031Y025102D01*
X039008Y025123D01*
X038984Y025142D01*
X038957Y025158D01*
X038930Y025173D01*
X038901Y025185D01*
X038872Y025194D01*
X038841Y025201D01*
X038811Y025205D01*
X038780Y025206D01*
D02*
G37*
G36*
X020685Y025198D02*
X020654Y025197D01*
X020623Y025193D01*
X020593Y025186D01*
X020563Y025177D01*
X020535Y025165D01*
X020507Y025150D01*
X020481Y025134D01*
X020456Y025115D01*
X020434Y025094D01*
X020413Y025071D01*
X020394Y025046D01*
X020377Y025020D01*
X020363Y024993D01*
X020351Y024964D01*
X020342Y024935D01*
X020335Y024904D01*
X020331Y024874D01*
X020329Y024843D01*
X020331Y024812D01*
X020335Y024781D01*
X020342Y024750D01*
X020351Y024721D01*
X020363Y024692D01*
X020377Y024665D01*
X020394Y024639D01*
X020413Y024614D01*
X020434Y024591D01*
X020456Y024570D01*
X020481Y024551D01*
X020507Y024535D01*
X020535Y024520D01*
X020563Y024508D01*
X020593Y024499D01*
X020623Y024492D01*
X020654Y024488D01*
X020685Y024487D01*
X020716Y024488D01*
X020747Y024492D01*
X020777Y024499D01*
X020807Y024508D01*
X020835Y024520D01*
X020863Y024535D01*
X020889Y024551D01*
X020914Y024570D01*
X020937Y024591D01*
X020957Y024614D01*
X020976Y024639D01*
X020993Y024665D01*
X021007Y024692D01*
X021019Y024721D01*
X021029Y024750D01*
X021035Y024781D01*
X021039Y024812D01*
X021041Y024843D01*
X021039Y024874D01*
X021035Y024904D01*
X021029Y024935D01*
X021019Y024964D01*
X021007Y024993D01*
X020993Y025020D01*
X020976Y025046D01*
X020957Y025071D01*
X020937Y025094D01*
X020914Y025115D01*
X020889Y025134D01*
X020863Y025150D01*
X020835Y025165D01*
X020807Y025177D01*
X020777Y025186D01*
X020747Y025193D01*
X020716Y025197D01*
X020685Y025198D01*
D02*
G37*
G36*
X037780Y025206D02*
X037749Y025205D01*
X037718Y025201D01*
X037687Y025194D01*
X037658Y025185D01*
X037629Y025173D01*
X037602Y025158D01*
X037576Y025142D01*
X037551Y025123D01*
X037528Y025102D01*
X037507Y025079D01*
X037488Y025054D01*
X037472Y025028D01*
X037457Y025001D01*
X037445Y024972D01*
X037436Y024942D01*
X037429Y024912D01*
X037425Y024881D01*
X037424Y024850D01*
X037425Y024819D01*
X037429Y024789D01*
X037436Y024758D01*
X037445Y024729D01*
X037457Y024700D01*
X037472Y024673D01*
X037488Y024646D01*
X037507Y024622D01*
X037528Y024599D01*
X037551Y024578D01*
X037576Y024559D01*
X037602Y024542D01*
X037629Y024528D01*
X037658Y024516D01*
X037687Y024507D01*
X037718Y024500D01*
X037749Y024496D01*
X037780Y024495D01*
X037811Y024496D01*
X037841Y024500D01*
X037872Y024507D01*
X037901Y024516D01*
X037930Y024528D01*
X037957Y024542D01*
X037984Y024559D01*
X038008Y024578D01*
X038031Y024599D01*
X038052Y024622D01*
X038071Y024646D01*
X038087Y024673D01*
X038102Y024700D01*
X038114Y024729D01*
X038123Y024758D01*
X038130Y024789D01*
X038134Y024819D01*
X038135Y024850D01*
X038134Y024881D01*
X038130Y024912D01*
X038123Y024942D01*
X038114Y024972D01*
X038102Y025001D01*
X038087Y025028D01*
X038071Y025054D01*
X038052Y025079D01*
X038031Y025102D01*
X038008Y025123D01*
X037984Y025142D01*
X037957Y025158D01*
X037930Y025173D01*
X037901Y025185D01*
X037872Y025194D01*
X037841Y025201D01*
X037811Y025205D01*
X037780Y025206D01*
D02*
G37*
G36*
X020685Y028198D02*
X020654Y028197D01*
X020623Y028193D01*
X020593Y028186D01*
X020563Y028177D01*
X020535Y028165D01*
X020507Y028150D01*
X020481Y028134D01*
X020456Y028115D01*
X020434Y028094D01*
X020413Y028071D01*
X020394Y028046D01*
X020377Y028020D01*
X020363Y027993D01*
X020351Y027964D01*
X020342Y027935D01*
X020335Y027904D01*
X020331Y027874D01*
X020329Y027843D01*
X020331Y027812D01*
X020335Y027781D01*
X020342Y027750D01*
X020351Y027721D01*
X020363Y027692D01*
X020377Y027665D01*
X020394Y027639D01*
X020413Y027614D01*
X020434Y027591D01*
X020456Y027570D01*
X020481Y027551D01*
X020507Y027535D01*
X020535Y027520D01*
X020563Y027508D01*
X020593Y027499D01*
X020623Y027492D01*
X020654Y027488D01*
X020685Y027487D01*
X020716Y027488D01*
X020747Y027492D01*
X020777Y027499D01*
X020807Y027508D01*
X020835Y027520D01*
X020863Y027535D01*
X020889Y027551D01*
X020914Y027570D01*
X020937Y027591D01*
X020957Y027614D01*
X020976Y027639D01*
X020993Y027665D01*
X021007Y027692D01*
X021019Y027721D01*
X021029Y027750D01*
X021035Y027781D01*
X021039Y027812D01*
X021041Y027843D01*
X021039Y027874D01*
X021035Y027904D01*
X021029Y027935D01*
X021019Y027964D01*
X021007Y027993D01*
X020993Y028020D01*
X020976Y028046D01*
X020957Y028071D01*
X020937Y028094D01*
X020914Y028115D01*
X020889Y028134D01*
X020863Y028150D01*
X020835Y028165D01*
X020807Y028177D01*
X020777Y028186D01*
X020747Y028193D01*
X020716Y028197D01*
X020685Y028198D01*
D02*
G37*
G36*
X037681Y021752D02*
X037418D01*
X037428Y021722D01*
X037440Y021692D01*
X037455Y021663D01*
X037473Y021636D01*
X037493Y021610D01*
X037515Y021586D01*
X037539Y021564D01*
X037565Y021544D01*
X037592Y021526D01*
X037621Y021511D01*
X037651Y021499D01*
X037681Y021489D01*
Y021752D01*
D02*
G37*
G36*
X039154D02*
X038878D01*
Y021476D01*
X039154D01*
Y021752D01*
D02*
G37*
G36*
X038141D02*
X037878D01*
Y021489D01*
X037908Y021499D01*
X037938Y021511D01*
X037967Y021526D01*
X037994Y021544D01*
X038020Y021564D01*
X038044Y021586D01*
X038066Y021610D01*
X038086Y021636D01*
X038104Y021663D01*
X038119Y021692D01*
X038131Y021722D01*
X038141Y021752D01*
D02*
G37*
G36*
X037681Y022212D02*
X037651Y022202D01*
X037621Y022190D01*
X037592Y022175D01*
X037565Y022157D01*
X037539Y022137D01*
X037515Y022115D01*
X037493Y022091D01*
X037473Y022065D01*
X037455Y022038D01*
X037440Y022009D01*
X037428Y021978D01*
X037418Y021949D01*
X037681D01*
Y022212D01*
D02*
G37*
G36*
X038681Y022224D02*
X038406D01*
Y021949D01*
X038681D01*
Y022224D01*
D02*
G37*
G36*
X038780Y029206D02*
X038749Y029205D01*
X038718Y029201D01*
X038687Y029194D01*
X038658Y029185D01*
X038629Y029173D01*
X038602Y029158D01*
X038576Y029142D01*
X038551Y029123D01*
X038528Y029102D01*
X038507Y029079D01*
X038488Y029054D01*
X038472Y029028D01*
X038457Y029001D01*
X038445Y028972D01*
X038436Y028942D01*
X038429Y028912D01*
X038425Y028881D01*
X038424Y028850D01*
X038425Y028819D01*
X038429Y028789D01*
X038436Y028758D01*
X038445Y028729D01*
X038457Y028700D01*
X038472Y028673D01*
X038488Y028646D01*
X038507Y028622D01*
X038528Y028599D01*
X038551Y028578D01*
X038576Y028559D01*
X038602Y028542D01*
X038629Y028528D01*
X038658Y028516D01*
X038687Y028507D01*
X038718Y028500D01*
X038749Y028496D01*
X038780Y028495D01*
X038811Y028496D01*
X038841Y028500D01*
X038872Y028507D01*
X038901Y028516D01*
X038930Y028528D01*
X038957Y028542D01*
X038984Y028559D01*
X039008Y028578D01*
X039031Y028599D01*
X039052Y028622D01*
X039071Y028646D01*
X039088Y028673D01*
X039102Y028700D01*
X039114Y028729D01*
X039123Y028758D01*
X039130Y028789D01*
X039134Y028819D01*
X039135Y028850D01*
X039134Y028881D01*
X039130Y028912D01*
X039123Y028942D01*
X039114Y028972D01*
X039102Y029001D01*
X039088Y029028D01*
X039071Y029054D01*
X039052Y029079D01*
X039031Y029102D01*
X039008Y029123D01*
X038984Y029142D01*
X038957Y029158D01*
X038930Y029173D01*
X038901Y029185D01*
X038872Y029194D01*
X038841Y029201D01*
X038811Y029205D01*
X038780Y029206D01*
D02*
G37*
G36*
X019685Y030198D02*
X019654Y030197D01*
X019623Y030193D01*
X019593Y030186D01*
X019563Y030177D01*
X019535Y030165D01*
X019507Y030150D01*
X019481Y030134D01*
X019456Y030115D01*
X019434Y030094D01*
X019413Y030071D01*
X019394Y030046D01*
X019377Y030020D01*
X019363Y029993D01*
X019351Y029964D01*
X019342Y029935D01*
X019335Y029904D01*
X019331Y029874D01*
X019329Y029843D01*
X019331Y029812D01*
X019335Y029781D01*
X019342Y029750D01*
X019351Y029721D01*
X019363Y029692D01*
X019377Y029665D01*
X019394Y029639D01*
X019413Y029614D01*
X019434Y029591D01*
X019456Y029570D01*
X019481Y029551D01*
X019507Y029535D01*
X019535Y029520D01*
X019563Y029508D01*
X019593Y029499D01*
X019623Y029492D01*
X019654Y029488D01*
X019685Y029487D01*
X019716Y029488D01*
X019747Y029492D01*
X019777Y029499D01*
X019807Y029508D01*
X019835Y029520D01*
X019863Y029535D01*
X019889Y029551D01*
X019914Y029570D01*
X019936Y029591D01*
X019957Y029614D01*
X019976Y029639D01*
X019993Y029665D01*
X020007Y029692D01*
X020019Y029721D01*
X020029Y029750D01*
X020035Y029781D01*
X020039Y029812D01*
X020041Y029843D01*
X020039Y029874D01*
X020035Y029904D01*
X020029Y029935D01*
X020019Y029964D01*
X020007Y029993D01*
X019993Y030020D01*
X019976Y030046D01*
X019957Y030071D01*
X019936Y030094D01*
X019914Y030115D01*
X019889Y030134D01*
X019863Y030150D01*
X019835Y030165D01*
X019807Y030177D01*
X019777Y030186D01*
X019747Y030193D01*
X019716Y030197D01*
X019685Y030198D01*
D02*
G37*
G36*
X037780Y029206D02*
X037749Y029205D01*
X037718Y029201D01*
X037687Y029194D01*
X037658Y029185D01*
X037629Y029173D01*
X037602Y029158D01*
X037576Y029142D01*
X037551Y029123D01*
X037528Y029102D01*
X037507Y029079D01*
X037488Y029054D01*
X037472Y029028D01*
X037457Y029001D01*
X037445Y028972D01*
X037436Y028942D01*
X037429Y028912D01*
X037425Y028881D01*
X037424Y028850D01*
X037425Y028819D01*
X037429Y028789D01*
X037436Y028758D01*
X037445Y028729D01*
X037457Y028700D01*
X037472Y028673D01*
X037488Y028646D01*
X037507Y028622D01*
X037528Y028599D01*
X037551Y028578D01*
X037576Y028559D01*
X037602Y028542D01*
X037629Y028528D01*
X037658Y028516D01*
X037687Y028507D01*
X037718Y028500D01*
X037749Y028496D01*
X037780Y028495D01*
X037811Y028496D01*
X037841Y028500D01*
X037872Y028507D01*
X037901Y028516D01*
X037930Y028528D01*
X037957Y028542D01*
X037984Y028559D01*
X038008Y028578D01*
X038031Y028599D01*
X038052Y028622D01*
X038071Y028646D01*
X038087Y028673D01*
X038102Y028700D01*
X038114Y028729D01*
X038123Y028758D01*
X038130Y028789D01*
X038134Y028819D01*
X038135Y028850D01*
X038134Y028881D01*
X038130Y028912D01*
X038123Y028942D01*
X038114Y028972D01*
X038102Y029001D01*
X038087Y029028D01*
X038071Y029054D01*
X038052Y029079D01*
X038031Y029102D01*
X038008Y029123D01*
X037984Y029142D01*
X037957Y029158D01*
X037930Y029173D01*
X037901Y029185D01*
X037872Y029194D01*
X037841Y029201D01*
X037811Y029205D01*
X037780Y029206D01*
D02*
G37*
G36*
X019685Y029198D02*
X019654Y029197D01*
X019623Y029193D01*
X019593Y029186D01*
X019563Y029177D01*
X019535Y029165D01*
X019507Y029150D01*
X019481Y029134D01*
X019456Y029115D01*
X019434Y029094D01*
X019413Y029071D01*
X019394Y029046D01*
X019377Y029020D01*
X019363Y028993D01*
X019351Y028964D01*
X019342Y028935D01*
X019335Y028904D01*
X019331Y028874D01*
X019329Y028843D01*
X019331Y028812D01*
X019335Y028781D01*
X019342Y028750D01*
X019351Y028721D01*
X019363Y028692D01*
X019377Y028665D01*
X019394Y028639D01*
X019413Y028614D01*
X019434Y028591D01*
X019456Y028570D01*
X019481Y028551D01*
X019507Y028535D01*
X019535Y028520D01*
X019563Y028508D01*
X019593Y028499D01*
X019623Y028492D01*
X019654Y028488D01*
X019685Y028487D01*
X019716Y028488D01*
X019747Y028492D01*
X019777Y028499D01*
X019807Y028508D01*
X019835Y028520D01*
X019863Y028535D01*
X019889Y028551D01*
X019914Y028570D01*
X019936Y028591D01*
X019957Y028614D01*
X019976Y028639D01*
X019993Y028665D01*
X020007Y028692D01*
X020019Y028721D01*
X020029Y028750D01*
X020035Y028781D01*
X020039Y028812D01*
X020041Y028843D01*
X020039Y028874D01*
X020035Y028904D01*
X020029Y028935D01*
X020019Y028964D01*
X020007Y028993D01*
X019993Y029020D01*
X019976Y029046D01*
X019957Y029071D01*
X019936Y029094D01*
X019914Y029115D01*
X019889Y029134D01*
X019863Y029150D01*
X019835Y029165D01*
X019807Y029177D01*
X019777Y029186D01*
X019747Y029193D01*
X019716Y029197D01*
X019685Y029198D01*
D02*
G37*
G36*
X020685D02*
X020654Y029197D01*
X020623Y029193D01*
X020593Y029186D01*
X020563Y029177D01*
X020535Y029165D01*
X020507Y029150D01*
X020481Y029134D01*
X020456Y029115D01*
X020434Y029094D01*
X020413Y029071D01*
X020394Y029046D01*
X020377Y029020D01*
X020363Y028993D01*
X020351Y028964D01*
X020342Y028935D01*
X020335Y028904D01*
X020331Y028874D01*
X020329Y028843D01*
X020331Y028812D01*
X020335Y028781D01*
X020342Y028750D01*
X020351Y028721D01*
X020363Y028692D01*
X020377Y028665D01*
X020394Y028639D01*
X020413Y028614D01*
X020434Y028591D01*
X020456Y028570D01*
X020481Y028551D01*
X020507Y028535D01*
X020535Y028520D01*
X020563Y028508D01*
X020593Y028499D01*
X020623Y028492D01*
X020654Y028488D01*
X020685Y028487D01*
X020716Y028488D01*
X020747Y028492D01*
X020777Y028499D01*
X020807Y028508D01*
X020835Y028520D01*
X020863Y028535D01*
X020889Y028551D01*
X020914Y028570D01*
X020937Y028591D01*
X020957Y028614D01*
X020976Y028639D01*
X020993Y028665D01*
X021007Y028692D01*
X021019Y028721D01*
X021029Y028750D01*
X021035Y028781D01*
X021039Y028812D01*
X021041Y028843D01*
X021039Y028874D01*
X021035Y028904D01*
X021029Y028935D01*
X021019Y028964D01*
X021007Y028993D01*
X020993Y029020D01*
X020976Y029046D01*
X020957Y029071D01*
X020937Y029094D01*
X020914Y029115D01*
X020889Y029134D01*
X020863Y029150D01*
X020835Y029165D01*
X020807Y029177D01*
X020777Y029186D01*
X020747Y029193D01*
X020716Y029197D01*
X020685Y029198D01*
D02*
G37*
G36*
X037780Y023206D02*
X037749Y023205D01*
X037718Y023201D01*
X037687Y023194D01*
X037658Y023185D01*
X037629Y023173D01*
X037602Y023158D01*
X037576Y023142D01*
X037551Y023123D01*
X037528Y023102D01*
X037507Y023079D01*
X037488Y023054D01*
X037472Y023028D01*
X037457Y023001D01*
X037445Y022972D01*
X037436Y022942D01*
X037429Y022912D01*
X037425Y022881D01*
X037424Y022850D01*
X037425Y022819D01*
X037429Y022789D01*
X037436Y022758D01*
X037445Y022729D01*
X037457Y022700D01*
X037472Y022673D01*
X037488Y022646D01*
X037507Y022622D01*
X037528Y022599D01*
X037551Y022578D01*
X037576Y022559D01*
X037602Y022542D01*
X037629Y022528D01*
X037658Y022516D01*
X037687Y022507D01*
X037718Y022500D01*
X037749Y022496D01*
X037780Y022495D01*
X037811Y022496D01*
X037841Y022500D01*
X037872Y022507D01*
X037901Y022516D01*
X037930Y022528D01*
X037957Y022542D01*
X037984Y022559D01*
X038008Y022578D01*
X038031Y022599D01*
X038052Y022622D01*
X038071Y022646D01*
X038087Y022673D01*
X038102Y022700D01*
X038114Y022729D01*
X038123Y022758D01*
X038130Y022789D01*
X038134Y022819D01*
X038135Y022850D01*
X038134Y022881D01*
X038130Y022912D01*
X038123Y022942D01*
X038114Y022972D01*
X038102Y023001D01*
X038087Y023028D01*
X038071Y023054D01*
X038052Y023079D01*
X038031Y023102D01*
X038008Y023123D01*
X037984Y023142D01*
X037957Y023158D01*
X037930Y023173D01*
X037901Y023185D01*
X037872Y023194D01*
X037841Y023201D01*
X037811Y023205D01*
X037780Y023206D01*
D02*
G37*
G36*
X021046Y022744D02*
X020783D01*
Y022481D01*
X020813Y022491D01*
X020843Y022503D01*
X020872Y022518D01*
X020900Y022536D01*
X020926Y022556D01*
X020950Y022578D01*
X020972Y022602D01*
X020992Y022628D01*
X021009Y022655D01*
X021024Y022684D01*
X021037Y022714D01*
X021046Y022744D01*
D02*
G37*
G36*
X038780Y023206D02*
X038749Y023205D01*
X038718Y023201D01*
X038687Y023194D01*
X038658Y023185D01*
X038629Y023173D01*
X038602Y023158D01*
X038576Y023142D01*
X038551Y023123D01*
X038528Y023102D01*
X038507Y023079D01*
X038488Y023054D01*
X038472Y023028D01*
X038457Y023001D01*
X038445Y022972D01*
X038436Y022942D01*
X038429Y022912D01*
X038425Y022881D01*
X038424Y022850D01*
X038425Y022819D01*
X038429Y022789D01*
X038436Y022758D01*
X038445Y022729D01*
X038457Y022700D01*
X038472Y022673D01*
X038488Y022646D01*
X038507Y022622D01*
X038528Y022599D01*
X038551Y022578D01*
X038576Y022559D01*
X038602Y022542D01*
X038629Y022528D01*
X038658Y022516D01*
X038687Y022507D01*
X038718Y022500D01*
X038749Y022496D01*
X038780Y022495D01*
X038811Y022496D01*
X038841Y022500D01*
X038872Y022507D01*
X038901Y022516D01*
X038930Y022528D01*
X038957Y022542D01*
X038984Y022559D01*
X039008Y022578D01*
X039031Y022599D01*
X039052Y022622D01*
X039071Y022646D01*
X039088Y022673D01*
X039102Y022700D01*
X039114Y022729D01*
X039123Y022758D01*
X039130Y022789D01*
X039134Y022819D01*
X039135Y022850D01*
X039134Y022881D01*
X039130Y022912D01*
X039123Y022942D01*
X039114Y022972D01*
X039102Y023001D01*
X039088Y023028D01*
X039071Y023054D01*
X039052Y023079D01*
X039031Y023102D01*
X039008Y023123D01*
X038984Y023142D01*
X038957Y023158D01*
X038930Y023173D01*
X038901Y023185D01*
X038872Y023194D01*
X038841Y023201D01*
X038811Y023205D01*
X038780Y023206D01*
D02*
G37*
G36*
X037780Y028206D02*
X037749Y028205D01*
X037718Y028201D01*
X037687Y028194D01*
X037658Y028185D01*
X037629Y028173D01*
X037602Y028158D01*
X037576Y028142D01*
X037551Y028123D01*
X037528Y028102D01*
X037507Y028079D01*
X037488Y028054D01*
X037472Y028028D01*
X037457Y028001D01*
X037445Y027972D01*
X037436Y027942D01*
X037429Y027912D01*
X037425Y027881D01*
X037424Y027850D01*
X037425Y027819D01*
X037429Y027789D01*
X037436Y027758D01*
X037445Y027729D01*
X037457Y027700D01*
X037472Y027673D01*
X037488Y027646D01*
X037507Y027622D01*
X037528Y027599D01*
X037551Y027578D01*
X037576Y027559D01*
X037602Y027542D01*
X037629Y027528D01*
X037658Y027516D01*
X037687Y027507D01*
X037718Y027500D01*
X037749Y027496D01*
X037780Y027495D01*
X037811Y027496D01*
X037841Y027500D01*
X037872Y027507D01*
X037901Y027516D01*
X037930Y027528D01*
X037957Y027542D01*
X037984Y027559D01*
X038008Y027578D01*
X038031Y027599D01*
X038052Y027622D01*
X038071Y027646D01*
X038087Y027673D01*
X038102Y027700D01*
X038114Y027729D01*
X038123Y027758D01*
X038130Y027789D01*
X038134Y027819D01*
X038135Y027850D01*
X038134Y027881D01*
X038130Y027912D01*
X038123Y027942D01*
X038114Y027972D01*
X038102Y028001D01*
X038087Y028028D01*
X038071Y028054D01*
X038052Y028079D01*
X038031Y028102D01*
X038008Y028123D01*
X037984Y028142D01*
X037957Y028158D01*
X037930Y028173D01*
X037901Y028185D01*
X037872Y028194D01*
X037841Y028201D01*
X037811Y028205D01*
X037780Y028206D01*
D02*
G37*
G36*
X038780D02*
X038749Y028205D01*
X038718Y028201D01*
X038687Y028194D01*
X038658Y028185D01*
X038629Y028173D01*
X038602Y028158D01*
X038576Y028142D01*
X038551Y028123D01*
X038528Y028102D01*
X038507Y028079D01*
X038488Y028054D01*
X038472Y028028D01*
X038457Y028001D01*
X038445Y027972D01*
X038436Y027942D01*
X038429Y027912D01*
X038425Y027881D01*
X038424Y027850D01*
X038425Y027819D01*
X038429Y027789D01*
X038436Y027758D01*
X038445Y027729D01*
X038457Y027700D01*
X038472Y027673D01*
X038488Y027646D01*
X038507Y027622D01*
X038528Y027599D01*
X038551Y027578D01*
X038576Y027559D01*
X038602Y027542D01*
X038629Y027528D01*
X038658Y027516D01*
X038687Y027507D01*
X038718Y027500D01*
X038749Y027496D01*
X038780Y027495D01*
X038811Y027496D01*
X038841Y027500D01*
X038872Y027507D01*
X038901Y027516D01*
X038930Y027528D01*
X038957Y027542D01*
X038984Y027559D01*
X039008Y027578D01*
X039031Y027599D01*
X039052Y027622D01*
X039071Y027646D01*
X039088Y027673D01*
X039102Y027700D01*
X039114Y027729D01*
X039123Y027758D01*
X039130Y027789D01*
X039134Y027819D01*
X039135Y027850D01*
X039134Y027881D01*
X039130Y027912D01*
X039123Y027942D01*
X039114Y027972D01*
X039102Y028001D01*
X039088Y028028D01*
X039071Y028054D01*
X039052Y028079D01*
X039031Y028102D01*
X039008Y028123D01*
X038984Y028142D01*
X038957Y028158D01*
X038930Y028173D01*
X038901Y028185D01*
X038872Y028194D01*
X038841Y028201D01*
X038811Y028205D01*
X038780Y028206D01*
D02*
G37*
G36*
X037878Y022212D02*
Y021949D01*
X038141D01*
X038131Y021978D01*
X038119Y022009D01*
X038104Y022038D01*
X038086Y022065D01*
X038066Y022091D01*
X038044Y022115D01*
X038020Y022137D01*
X037994Y022157D01*
X037967Y022175D01*
X037938Y022190D01*
X037908Y022202D01*
X037878Y022212D01*
D02*
G37*
G36*
X039154Y022224D02*
X038878D01*
Y021949D01*
X039154D01*
Y022224D01*
D02*
G37*
G36*
X019587Y022744D02*
X019324D01*
X019333Y022714D01*
X019346Y022684D01*
X019361Y022655D01*
X019378Y022628D01*
X019398Y022602D01*
X019420Y022578D01*
X019444Y022556D01*
X019470Y022536D01*
X019498Y022518D01*
X019527Y022503D01*
X019557Y022491D01*
X019587Y022481D01*
Y022744D01*
D02*
G37*
G36*
X020587D02*
X020324D01*
X020333Y022714D01*
X020346Y022684D01*
X020361Y022655D01*
X020378Y022628D01*
X020398Y022602D01*
X020420Y022578D01*
X020444Y022556D01*
X020470Y022536D01*
X020498Y022518D01*
X020527Y022503D01*
X020557Y022491D01*
X020587Y022481D01*
Y022744D01*
D02*
G37*
G36*
X020046D02*
X019783D01*
Y022481D01*
X019813Y022491D01*
X019843Y022503D01*
X019872Y022518D01*
X019900Y022536D01*
X019926Y022556D01*
X019950Y022578D01*
X019972Y022602D01*
X019992Y022628D01*
X020009Y022655D01*
X020024Y022684D01*
X020037Y022714D01*
X020046Y022744D01*
D02*
G37*
G36*
X032835Y038249D02*
X032804Y038248D01*
X032773Y038244D01*
X032743Y038237D01*
X032713Y038228D01*
X032684Y038216D01*
X032657Y038202D01*
X032631Y038185D01*
X032606Y038166D01*
X032583Y038145D01*
X032562Y038122D01*
X032543Y038098D01*
X032527Y038072D01*
X032512Y038044D01*
X032500Y038015D01*
X032491Y037986D01*
X032484Y037955D01*
X032480Y037925D01*
X032479Y037894D01*
X032480Y037863D01*
X032484Y037832D01*
X032491Y037802D01*
X032500Y037772D01*
X032512Y037743D01*
X032527Y037716D01*
X032543Y037690D01*
X032562Y037665D01*
X032583Y037642D01*
X032606Y037621D01*
X032631Y037602D01*
X032657Y037586D01*
X032684Y037571D01*
X032713Y037560D01*
X032743Y037550D01*
X032773Y037543D01*
X032804Y037539D01*
X032835Y037538D01*
X032866Y037539D01*
X032896Y037543D01*
X032927Y037550D01*
X032956Y037560D01*
X032985Y037571D01*
X033012Y037586D01*
X033039Y037602D01*
X033063Y037621D01*
X033086Y037642D01*
X033107Y037665D01*
X033126Y037690D01*
X033143Y037716D01*
X033157Y037743D01*
X033169Y037772D01*
X033178Y037802D01*
X033185Y037832D01*
X033189Y037863D01*
X033190Y037894D01*
X033189Y037925D01*
X033185Y037955D01*
X033178Y037986D01*
X033169Y038015D01*
X033157Y038044D01*
X033143Y038072D01*
X033126Y038098D01*
X033107Y038122D01*
X033086Y038145D01*
X033063Y038166D01*
X033039Y038185D01*
X033012Y038202D01*
X032985Y038216D01*
X032956Y038228D01*
X032927Y038237D01*
X032896Y038244D01*
X032866Y038248D01*
X032835Y038249D01*
D02*
G37*
G36*
X031835D02*
X031804Y038248D01*
X031773Y038244D01*
X031743Y038237D01*
X031713Y038228D01*
X031684Y038216D01*
X031657Y038202D01*
X031631Y038185D01*
X031606Y038166D01*
X031583Y038145D01*
X031562Y038122D01*
X031543Y038098D01*
X031527Y038072D01*
X031512Y038044D01*
X031500Y038015D01*
X031491Y037986D01*
X031484Y037955D01*
X031480Y037925D01*
X031479Y037894D01*
X031480Y037863D01*
X031484Y037832D01*
X031491Y037802D01*
X031500Y037772D01*
X031512Y037743D01*
X031527Y037716D01*
X031543Y037690D01*
X031562Y037665D01*
X031583Y037642D01*
X031606Y037621D01*
X031631Y037602D01*
X031657Y037586D01*
X031684Y037571D01*
X031713Y037560D01*
X031743Y037550D01*
X031773Y037543D01*
X031804Y037539D01*
X031835Y037538D01*
X031866Y037539D01*
X031896Y037543D01*
X031927Y037550D01*
X031956Y037560D01*
X031985Y037571D01*
X032012Y037586D01*
X032039Y037602D01*
X032063Y037621D01*
X032086Y037642D01*
X032107Y037665D01*
X032126Y037690D01*
X032143Y037716D01*
X032157Y037743D01*
X032169Y037772D01*
X032178Y037802D01*
X032185Y037832D01*
X032189Y037863D01*
X032190Y037894D01*
X032189Y037925D01*
X032185Y037955D01*
X032178Y037986D01*
X032169Y038015D01*
X032157Y038044D01*
X032143Y038072D01*
X032126Y038098D01*
X032107Y038122D01*
X032086Y038145D01*
X032063Y038166D01*
X032039Y038185D01*
X032012Y038202D01*
X031985Y038216D01*
X031956Y038228D01*
X031927Y038237D01*
X031896Y038244D01*
X031866Y038248D01*
X031835Y038249D01*
D02*
G37*
G36*
X026835Y037249D02*
X026804Y037248D01*
X026773Y037244D01*
X026743Y037237D01*
X026713Y037228D01*
X026684Y037216D01*
X026657Y037202D01*
X026631Y037185D01*
X026606Y037166D01*
X026583Y037145D01*
X026562Y037122D01*
X026543Y037098D01*
X026527Y037072D01*
X026512Y037044D01*
X026500Y037015D01*
X026491Y036986D01*
X026484Y036955D01*
X026480Y036925D01*
X026479Y036894D01*
X026480Y036863D01*
X026484Y036832D01*
X026491Y036802D01*
X026500Y036772D01*
X026512Y036743D01*
X026527Y036716D01*
X026543Y036690D01*
X026562Y036665D01*
X026583Y036642D01*
X026606Y036621D01*
X026631Y036602D01*
X026657Y036586D01*
X026684Y036571D01*
X026713Y036560D01*
X026743Y036550D01*
X026773Y036543D01*
X026804Y036539D01*
X026835Y036538D01*
X026866Y036539D01*
X026896Y036543D01*
X026927Y036550D01*
X026956Y036560D01*
X026985Y036571D01*
X027012Y036586D01*
X027039Y036602D01*
X027063Y036621D01*
X027086Y036642D01*
X027107Y036665D01*
X027126Y036690D01*
X027143Y036716D01*
X027157Y036743D01*
X027169Y036772D01*
X027178Y036802D01*
X027185Y036832D01*
X027189Y036863D01*
X027190Y036894D01*
X027189Y036925D01*
X027185Y036955D01*
X027178Y036986D01*
X027169Y037015D01*
X027157Y037044D01*
X027143Y037072D01*
X027126Y037098D01*
X027107Y037122D01*
X027086Y037145D01*
X027063Y037166D01*
X027039Y037185D01*
X027012Y037202D01*
X026985Y037216D01*
X026956Y037228D01*
X026927Y037237D01*
X026896Y037244D01*
X026866Y037248D01*
X026835Y037249D01*
D02*
G37*
G36*
X027835D02*
X027804Y037248D01*
X027773Y037244D01*
X027743Y037237D01*
X027713Y037228D01*
X027684Y037216D01*
X027657Y037202D01*
X027631Y037185D01*
X027606Y037166D01*
X027583Y037145D01*
X027562Y037122D01*
X027543Y037098D01*
X027527Y037072D01*
X027512Y037044D01*
X027500Y037015D01*
X027491Y036986D01*
X027484Y036955D01*
X027480Y036925D01*
X027479Y036894D01*
X027480Y036863D01*
X027484Y036832D01*
X027491Y036802D01*
X027500Y036772D01*
X027512Y036743D01*
X027527Y036716D01*
X027543Y036690D01*
X027562Y036665D01*
X027583Y036642D01*
X027606Y036621D01*
X027631Y036602D01*
X027657Y036586D01*
X027684Y036571D01*
X027713Y036560D01*
X027743Y036550D01*
X027773Y036543D01*
X027804Y036539D01*
X027835Y036538D01*
X027866Y036539D01*
X027896Y036543D01*
X027927Y036550D01*
X027956Y036560D01*
X027985Y036571D01*
X028012Y036586D01*
X028039Y036602D01*
X028063Y036621D01*
X028086Y036642D01*
X028107Y036665D01*
X028126Y036690D01*
X028143Y036716D01*
X028157Y036743D01*
X028169Y036772D01*
X028178Y036802D01*
X028185Y036832D01*
X028189Y036863D01*
X028190Y036894D01*
X028189Y036925D01*
X028185Y036955D01*
X028178Y036986D01*
X028169Y037015D01*
X028157Y037044D01*
X028143Y037072D01*
X028126Y037098D01*
X028107Y037122D01*
X028086Y037145D01*
X028063Y037166D01*
X028039Y037185D01*
X028012Y037202D01*
X027985Y037216D01*
X027956Y037228D01*
X027927Y037237D01*
X027896Y037244D01*
X027866Y037248D01*
X027835Y037249D01*
D02*
G37*
G36*
X030835Y038249D02*
X030804Y038248D01*
X030773Y038244D01*
X030743Y038237D01*
X030713Y038228D01*
X030684Y038216D01*
X030657Y038202D01*
X030631Y038185D01*
X030606Y038166D01*
X030583Y038145D01*
X030562Y038122D01*
X030543Y038098D01*
X030527Y038072D01*
X030512Y038044D01*
X030500Y038015D01*
X030491Y037986D01*
X030484Y037955D01*
X030480Y037925D01*
X030479Y037894D01*
X030480Y037863D01*
X030484Y037832D01*
X030491Y037802D01*
X030500Y037772D01*
X030512Y037743D01*
X030527Y037716D01*
X030543Y037690D01*
X030562Y037665D01*
X030583Y037642D01*
X030606Y037621D01*
X030631Y037602D01*
X030657Y037586D01*
X030684Y037571D01*
X030713Y037560D01*
X030743Y037550D01*
X030773Y037543D01*
X030804Y037539D01*
X030835Y037538D01*
X030866Y037539D01*
X030896Y037543D01*
X030927Y037550D01*
X030956Y037560D01*
X030985Y037571D01*
X031012Y037586D01*
X031039Y037602D01*
X031063Y037621D01*
X031086Y037642D01*
X031107Y037665D01*
X031126Y037690D01*
X031143Y037716D01*
X031157Y037743D01*
X031169Y037772D01*
X031178Y037802D01*
X031185Y037832D01*
X031189Y037863D01*
X031190Y037894D01*
X031189Y037925D01*
X031185Y037955D01*
X031178Y037986D01*
X031169Y038015D01*
X031157Y038044D01*
X031143Y038072D01*
X031126Y038098D01*
X031107Y038122D01*
X031086Y038145D01*
X031063Y038166D01*
X031039Y038185D01*
X031012Y038202D01*
X030985Y038216D01*
X030956Y038228D01*
X030927Y038237D01*
X030896Y038244D01*
X030866Y038248D01*
X030835Y038249D01*
D02*
G37*
G36*
Y037249D02*
X030804Y037248D01*
X030773Y037244D01*
X030743Y037237D01*
X030713Y037228D01*
X030684Y037216D01*
X030657Y037202D01*
X030631Y037185D01*
X030606Y037166D01*
X030583Y037145D01*
X030562Y037122D01*
X030543Y037098D01*
X030527Y037072D01*
X030512Y037044D01*
X030500Y037015D01*
X030491Y036986D01*
X030484Y036955D01*
X030480Y036925D01*
X030479Y036894D01*
X030480Y036863D01*
X030484Y036832D01*
X030491Y036802D01*
X030500Y036772D01*
X030512Y036743D01*
X030527Y036716D01*
X030543Y036690D01*
X030562Y036665D01*
X030583Y036642D01*
X030606Y036621D01*
X030631Y036602D01*
X030657Y036586D01*
X030684Y036571D01*
X030713Y036560D01*
X030743Y036550D01*
X030773Y036543D01*
X030804Y036539D01*
X030835Y036538D01*
X030866Y036539D01*
X030896Y036543D01*
X030927Y036550D01*
X030956Y036560D01*
X030985Y036571D01*
X031012Y036586D01*
X031039Y036602D01*
X031063Y036621D01*
X031086Y036642D01*
X031107Y036665D01*
X031126Y036690D01*
X031143Y036716D01*
X031157Y036743D01*
X031169Y036772D01*
X031178Y036802D01*
X031185Y036832D01*
X031189Y036863D01*
X031190Y036894D01*
X031189Y036925D01*
X031185Y036955D01*
X031178Y036986D01*
X031169Y037015D01*
X031157Y037044D01*
X031143Y037072D01*
X031126Y037098D01*
X031107Y037122D01*
X031086Y037145D01*
X031063Y037166D01*
X031039Y037185D01*
X031012Y037202D01*
X030985Y037216D01*
X030956Y037228D01*
X030927Y037237D01*
X030896Y037244D01*
X030866Y037248D01*
X030835Y037249D01*
D02*
G37*
G36*
X031835D02*
X031804Y037248D01*
X031773Y037244D01*
X031743Y037237D01*
X031713Y037228D01*
X031684Y037216D01*
X031657Y037202D01*
X031631Y037185D01*
X031606Y037166D01*
X031583Y037145D01*
X031562Y037122D01*
X031543Y037098D01*
X031527Y037072D01*
X031512Y037044D01*
X031500Y037015D01*
X031491Y036986D01*
X031484Y036955D01*
X031480Y036925D01*
X031479Y036894D01*
X031480Y036863D01*
X031484Y036832D01*
X031491Y036802D01*
X031500Y036772D01*
X031512Y036743D01*
X031527Y036716D01*
X031543Y036690D01*
X031562Y036665D01*
X031583Y036642D01*
X031606Y036621D01*
X031631Y036602D01*
X031657Y036586D01*
X031684Y036571D01*
X031713Y036560D01*
X031743Y036550D01*
X031773Y036543D01*
X031804Y036539D01*
X031835Y036538D01*
X031866Y036539D01*
X031896Y036543D01*
X031927Y036550D01*
X031956Y036560D01*
X031985Y036571D01*
X032012Y036586D01*
X032039Y036602D01*
X032063Y036621D01*
X032086Y036642D01*
X032107Y036665D01*
X032126Y036690D01*
X032143Y036716D01*
X032157Y036743D01*
X032169Y036772D01*
X032178Y036802D01*
X032185Y036832D01*
X032189Y036863D01*
X032190Y036894D01*
X032189Y036925D01*
X032185Y036955D01*
X032178Y036986D01*
X032169Y037015D01*
X032157Y037044D01*
X032143Y037072D01*
X032126Y037098D01*
X032107Y037122D01*
X032086Y037145D01*
X032063Y037166D01*
X032039Y037185D01*
X032012Y037202D01*
X031985Y037216D01*
X031956Y037228D01*
X031927Y037237D01*
X031896Y037244D01*
X031866Y037248D01*
X031835Y037249D01*
D02*
G37*
G36*
X028835D02*
X028804Y037248D01*
X028773Y037244D01*
X028743Y037237D01*
X028713Y037228D01*
X028684Y037216D01*
X028657Y037202D01*
X028631Y037185D01*
X028606Y037166D01*
X028583Y037145D01*
X028562Y037122D01*
X028543Y037098D01*
X028527Y037072D01*
X028512Y037044D01*
X028500Y037015D01*
X028491Y036986D01*
X028484Y036955D01*
X028480Y036925D01*
X028479Y036894D01*
X028480Y036863D01*
X028484Y036832D01*
X028491Y036802D01*
X028500Y036772D01*
X028512Y036743D01*
X028527Y036716D01*
X028543Y036690D01*
X028562Y036665D01*
X028583Y036642D01*
X028606Y036621D01*
X028631Y036602D01*
X028657Y036586D01*
X028684Y036571D01*
X028713Y036560D01*
X028743Y036550D01*
X028773Y036543D01*
X028804Y036539D01*
X028835Y036538D01*
X028866Y036539D01*
X028896Y036543D01*
X028927Y036550D01*
X028956Y036560D01*
X028985Y036571D01*
X029012Y036586D01*
X029039Y036602D01*
X029063Y036621D01*
X029086Y036642D01*
X029107Y036665D01*
X029126Y036690D01*
X029143Y036716D01*
X029157Y036743D01*
X029169Y036772D01*
X029178Y036802D01*
X029185Y036832D01*
X029189Y036863D01*
X029190Y036894D01*
X029189Y036925D01*
X029185Y036955D01*
X029178Y036986D01*
X029169Y037015D01*
X029157Y037044D01*
X029143Y037072D01*
X029126Y037098D01*
X029107Y037122D01*
X029086Y037145D01*
X029063Y037166D01*
X029039Y037185D01*
X029012Y037202D01*
X028985Y037216D01*
X028956Y037228D01*
X028927Y037237D01*
X028896Y037244D01*
X028866Y037248D01*
X028835Y037249D01*
D02*
G37*
G36*
X029835D02*
X029804Y037248D01*
X029773Y037244D01*
X029743Y037237D01*
X029713Y037228D01*
X029684Y037216D01*
X029657Y037202D01*
X029631Y037185D01*
X029606Y037166D01*
X029583Y037145D01*
X029562Y037122D01*
X029543Y037098D01*
X029527Y037072D01*
X029512Y037044D01*
X029500Y037015D01*
X029491Y036986D01*
X029484Y036955D01*
X029480Y036925D01*
X029479Y036894D01*
X029480Y036863D01*
X029484Y036832D01*
X029491Y036802D01*
X029500Y036772D01*
X029512Y036743D01*
X029527Y036716D01*
X029543Y036690D01*
X029562Y036665D01*
X029583Y036642D01*
X029606Y036621D01*
X029631Y036602D01*
X029657Y036586D01*
X029684Y036571D01*
X029713Y036560D01*
X029743Y036550D01*
X029773Y036543D01*
X029804Y036539D01*
X029835Y036538D01*
X029866Y036539D01*
X029896Y036543D01*
X029927Y036550D01*
X029956Y036560D01*
X029985Y036571D01*
X030012Y036586D01*
X030039Y036602D01*
X030063Y036621D01*
X030086Y036642D01*
X030107Y036665D01*
X030126Y036690D01*
X030143Y036716D01*
X030157Y036743D01*
X030169Y036772D01*
X030178Y036802D01*
X030185Y036832D01*
X030189Y036863D01*
X030190Y036894D01*
X030189Y036925D01*
X030185Y036955D01*
X030178Y036986D01*
X030169Y037015D01*
X030157Y037044D01*
X030143Y037072D01*
X030126Y037098D01*
X030107Y037122D01*
X030086Y037145D01*
X030063Y037166D01*
X030039Y037185D01*
X030012Y037202D01*
X029985Y037216D01*
X029956Y037228D01*
X029927Y037237D01*
X029896Y037244D01*
X029866Y037248D01*
X029835Y037249D01*
D02*
G37*
G36*
X025835D02*
X025804Y037248D01*
X025773Y037244D01*
X025743Y037237D01*
X025713Y037228D01*
X025684Y037216D01*
X025657Y037202D01*
X025631Y037185D01*
X025606Y037166D01*
X025583Y037145D01*
X025562Y037122D01*
X025543Y037098D01*
X025527Y037072D01*
X025512Y037044D01*
X025500Y037015D01*
X025491Y036986D01*
X025484Y036955D01*
X025480Y036925D01*
X025479Y036894D01*
X025480Y036863D01*
X025484Y036832D01*
X025491Y036802D01*
X025500Y036772D01*
X025512Y036743D01*
X025527Y036716D01*
X025543Y036690D01*
X025562Y036665D01*
X025583Y036642D01*
X025606Y036621D01*
X025631Y036602D01*
X025657Y036586D01*
X025684Y036571D01*
X025713Y036560D01*
X025743Y036550D01*
X025773Y036543D01*
X025804Y036539D01*
X025835Y036538D01*
X025866Y036539D01*
X025896Y036543D01*
X025927Y036550D01*
X025956Y036560D01*
X025985Y036571D01*
X026012Y036586D01*
X026039Y036602D01*
X026063Y036621D01*
X026086Y036642D01*
X026107Y036665D01*
X026126Y036690D01*
X026143Y036716D01*
X026157Y036743D01*
X026169Y036772D01*
X026178Y036802D01*
X026185Y036832D01*
X026189Y036863D01*
X026190Y036894D01*
X026189Y036925D01*
X026185Y036955D01*
X026178Y036986D01*
X026169Y037015D01*
X026157Y037044D01*
X026143Y037072D01*
X026126Y037098D01*
X026107Y037122D01*
X026086Y037145D01*
X026063Y037166D01*
X026039Y037185D01*
X026012Y037202D01*
X025985Y037216D01*
X025956Y037228D01*
X025927Y037237D01*
X025896Y037244D01*
X025866Y037248D01*
X025835Y037249D01*
D02*
G37*
G36*
X022835D02*
X022804Y037248D01*
X022773Y037244D01*
X022743Y037237D01*
X022713Y037228D01*
X022684Y037216D01*
X022657Y037202D01*
X022631Y037185D01*
X022606Y037166D01*
X022583Y037145D01*
X022562Y037122D01*
X022543Y037098D01*
X022527Y037072D01*
X022512Y037044D01*
X022500Y037015D01*
X022491Y036986D01*
X022484Y036955D01*
X022480Y036925D01*
X022479Y036894D01*
X022480Y036863D01*
X022484Y036832D01*
X022491Y036802D01*
X022500Y036772D01*
X022512Y036743D01*
X022527Y036716D01*
X022543Y036690D01*
X022562Y036665D01*
X022569Y036658D01*
X022577Y036495D01*
Y035289D01*
X022461D01*
X022461Y035289D01*
X022461D01*
X022458Y035288D01*
X022449Y035287D01*
X022449Y035287D01*
X022449Y035287D01*
X022445Y035286D01*
X022438Y035284D01*
X022438Y035284D01*
X022438Y035284D01*
X022431Y035281D01*
X022427Y035278D01*
X022427Y035278D01*
X022427Y035278D01*
X022421Y035273D01*
X022418Y035271D01*
X022418Y035271D01*
X022418Y035271D01*
X022390Y035243D01*
X022383Y035234D01*
X022383Y035234D01*
X022383Y035234D01*
X022381Y035231D01*
X022377Y035224D01*
X022377Y035224D01*
X022377Y035224D01*
X022374Y035212D01*
X022373Y035203D01*
X022373Y035200D01*
Y035200D01*
X022373Y035200D01*
X022380Y022128D01*
X022352Y022100D01*
X021076D01*
X021049Y022100D01*
X020950Y022102D01*
X020926Y022104D01*
X020914Y022115D01*
X020889Y022134D01*
X020863Y022150D01*
X020835Y022165D01*
X020807Y022177D01*
X020777Y022186D01*
X020747Y022193D01*
X020716Y022197D01*
X020685Y022198D01*
X020654Y022197D01*
X020623Y022193D01*
X020593Y022186D01*
X020563Y022177D01*
X020535Y022165D01*
X020507Y022150D01*
X020481Y022134D01*
X020456Y022115D01*
X020449Y022108D01*
X020287Y022100D01*
X020076D01*
X020049Y022100D01*
X019950Y022102D01*
X019926Y022104D01*
X019914Y022115D01*
X019889Y022134D01*
X019863Y022150D01*
X019835Y022165D01*
X019807Y022177D01*
X019777Y022186D01*
X019747Y022193D01*
X019716Y022197D01*
X019685Y022198D01*
X019654Y022197D01*
X019623Y022193D01*
X019593Y022186D01*
X019563Y022177D01*
X019535Y022165D01*
X019507Y022150D01*
X019481Y022134D01*
X019456Y022115D01*
X019434Y022094D01*
X019413Y022071D01*
X019394Y022046D01*
X019377Y022020D01*
X019363Y021993D01*
X019351Y021964D01*
X019342Y021935D01*
X019335Y021904D01*
X019331Y021874D01*
X019329Y021843D01*
X019331Y021812D01*
X019335Y021781D01*
X019342Y021750D01*
X019351Y021721D01*
X019363Y021692D01*
X019377Y021665D01*
X019394Y021639D01*
X019413Y021614D01*
X019434Y021591D01*
X019456Y021570D01*
X019481Y021551D01*
X019507Y021535D01*
X019535Y021520D01*
X019563Y021508D01*
X019593Y021499D01*
X019623Y021492D01*
X019654Y021488D01*
X019685Y021487D01*
X019716Y021488D01*
X019747Y021492D01*
X019777Y021499D01*
X019807Y021508D01*
X019835Y021520D01*
X019863Y021535D01*
X019889Y021551D01*
X019914Y021570D01*
X019921Y021577D01*
X020084Y021585D01*
X020294D01*
X020321Y021585D01*
X020420Y021583D01*
X020445Y021581D01*
X020456Y021570D01*
X020481Y021551D01*
X020507Y021535D01*
X020535Y021520D01*
X020563Y021508D01*
X020593Y021499D01*
X020623Y021492D01*
X020654Y021488D01*
X020685Y021487D01*
X020716Y021488D01*
X020747Y021492D01*
X020777Y021499D01*
X020807Y021508D01*
X020835Y021520D01*
X020863Y021535D01*
X020889Y021551D01*
X020914Y021570D01*
X020921Y021577D01*
X021084Y021585D01*
X022381D01*
X022381Y021449D01*
X022381Y021443D01*
X022382Y021437D01*
X022382Y021437D01*
X022382Y021437D01*
X022384Y021431D01*
X022385Y021426D01*
X022385Y021426D01*
X022385Y021426D01*
X022388Y021420D01*
X022391Y021415D01*
X022391Y021415D01*
X022391Y021415D01*
X022395Y021410D01*
X022398Y021406D01*
X022398Y021406D01*
X022398Y021406D01*
X022403Y021403D01*
X022407Y021399D01*
X022407Y021399D01*
X022407Y021399D01*
X022412Y021396D01*
X022418Y021393D01*
X022418Y021393D01*
X022418Y021393D01*
X022424Y021391D01*
X022429Y021390D01*
X022429Y021390D01*
X022429Y021390D01*
X022435Y021389D01*
X022441Y021389D01*
X035577D01*
Y020190D01*
X035577Y020164D01*
X035575Y020065D01*
X035573Y020040D01*
X035562Y020028D01*
X035543Y020003D01*
X035527Y019977D01*
X035512Y019950D01*
X035500Y019921D01*
X035491Y019891D01*
X035484Y019861D01*
X035480Y019830D01*
X035479Y019799D01*
X035480Y019768D01*
X035484Y019737D01*
X035491Y019707D01*
X035500Y019678D01*
X035512Y019649D01*
X035527Y019621D01*
X035543Y019595D01*
X035562Y019571D01*
X035569Y019563D01*
X035577Y019401D01*
Y019190D01*
X035577Y019164D01*
X035575Y019065D01*
X035573Y019040D01*
X035562Y019028D01*
X035543Y019003D01*
X035527Y018977D01*
X035512Y018950D01*
X035500Y018921D01*
X035491Y018891D01*
X035484Y018861D01*
X035480Y018830D01*
X035479Y018799D01*
X035480Y018768D01*
X035484Y018737D01*
X035491Y018707D01*
X035500Y018678D01*
X035512Y018649D01*
X035527Y018621D01*
X035543Y018595D01*
X035562Y018571D01*
X035583Y018548D01*
X035606Y018527D01*
X035631Y018508D01*
X035657Y018491D01*
X035684Y018477D01*
X035713Y018465D01*
X035743Y018456D01*
X035773Y018449D01*
X035804Y018445D01*
X035835Y018444D01*
X035866Y018445D01*
X035896Y018449D01*
X035927Y018456D01*
X035956Y018465D01*
X035985Y018477D01*
X036012Y018491D01*
X036039Y018508D01*
X036063Y018527D01*
X036086Y018548D01*
X036107Y018571D01*
X036126Y018595D01*
X036143Y018621D01*
X036157Y018649D01*
X036169Y018678D01*
X036178Y018707D01*
X036185Y018737D01*
X036189Y018768D01*
X036190Y018799D01*
X036189Y018830D01*
X036185Y018861D01*
X036178Y018891D01*
X036169Y018921D01*
X036157Y018950D01*
X036143Y018977D01*
X036126Y019003D01*
X036107Y019028D01*
X036100Y019035D01*
X036092Y019198D01*
Y019409D01*
X036092Y019435D01*
X036094Y019534D01*
X036096Y019559D01*
X036107Y019571D01*
X036126Y019595D01*
X036143Y019621D01*
X036157Y019649D01*
X036169Y019678D01*
X036178Y019707D01*
X036185Y019737D01*
X036189Y019768D01*
X036190Y019799D01*
X036189Y019830D01*
X036185Y019861D01*
X036178Y019891D01*
X036169Y019921D01*
X036157Y019950D01*
X036143Y019977D01*
X036126Y020003D01*
X036107Y020028D01*
X036100Y020035D01*
X036092Y020198D01*
Y021389D01*
X036213D01*
X036219Y021389D01*
X036224Y021390D01*
X036224Y021390D01*
X036224Y021390D01*
X036231Y021392D01*
X036236Y021393D01*
X036236Y021393D01*
X036236Y021393D01*
X036241Y021396D01*
X036246Y021399D01*
X036246Y021399D01*
X036246Y021399D01*
X036251Y021403D01*
X036255Y021406D01*
X036255Y021406D01*
X036255Y021406D01*
X036259Y021411D01*
X036263Y021415D01*
X036263Y021415D01*
X036263Y021415D01*
X036265Y021420D01*
X036268Y021426D01*
X036268Y021426D01*
X036268Y021426D01*
X036270Y021431D01*
X036272Y021437D01*
X036272Y021437D01*
X036272Y021437D01*
X036272Y021443D01*
X036273Y021449D01*
X036280Y034593D01*
X037389D01*
X037415Y034593D01*
X037514Y034591D01*
X037539Y034589D01*
X037551Y034578D01*
X037576Y034559D01*
X037602Y034542D01*
X037629Y034528D01*
X037658Y034516D01*
X037687Y034507D01*
X037718Y034500D01*
X037749Y034496D01*
X037780Y034495D01*
X037811Y034496D01*
X037841Y034500D01*
X037872Y034507D01*
X037901Y034516D01*
X037930Y034528D01*
X037957Y034542D01*
X037984Y034559D01*
X038008Y034578D01*
X038031Y034599D01*
X038052Y034622D01*
X038071Y034646D01*
X038087Y034673D01*
X038102Y034700D01*
X038114Y034729D01*
X038123Y034758D01*
X038130Y034789D01*
X038134Y034819D01*
X038135Y034850D01*
X038134Y034881D01*
X038130Y034912D01*
X038123Y034942D01*
X038114Y034972D01*
X038102Y035001D01*
X038087Y035028D01*
X038071Y035054D01*
X038052Y035079D01*
X038031Y035102D01*
X038008Y035123D01*
X037984Y035142D01*
X037957Y035158D01*
X037930Y035173D01*
X037901Y035185D01*
X037872Y035194D01*
X037841Y035201D01*
X037811Y035205D01*
X037780Y035206D01*
X037749Y035205D01*
X037718Y035201D01*
X037687Y035194D01*
X037658Y035185D01*
X037629Y035173D01*
X037602Y035158D01*
X037576Y035142D01*
X037551Y035123D01*
X037544Y035116D01*
X037381Y035108D01*
X036309D01*
X036281Y035135D01*
X036281Y035200D01*
X036281Y035200D01*
Y035200D01*
X036281Y035202D01*
X036280Y035212D01*
X036276Y035224D01*
X036276Y035224D01*
X036276Y035224D01*
X036273Y035230D01*
X036271Y035234D01*
X036271Y035234D01*
X036271Y035234D01*
X036265Y035241D01*
X036263Y035243D01*
X036263Y035243D01*
X036263Y035243D01*
X036235Y035271D01*
X036235Y035271D01*
X036235Y035271D01*
X036233Y035273D01*
X036226Y035278D01*
X036226Y035278D01*
X036226Y035278D01*
X036222Y035281D01*
X036216Y035284D01*
X036216Y035284D01*
X036216Y035284D01*
X036208Y035286D01*
X036204Y035287D01*
X036204Y035287D01*
X036204Y035287D01*
X036195Y035288D01*
X036193Y035289D01*
X036193D01*
X036193Y035289D01*
X023092Y035289D01*
Y036503D01*
X023092Y036529D01*
X023094Y036628D01*
X023096Y036653D01*
X023107Y036665D01*
X023126Y036690D01*
X023143Y036716D01*
X023157Y036743D01*
X023169Y036772D01*
X023178Y036802D01*
X023185Y036832D01*
X023189Y036863D01*
X023190Y036894D01*
X023189Y036925D01*
X023185Y036955D01*
X023178Y036986D01*
X023169Y037015D01*
X023157Y037044D01*
X023143Y037072D01*
X023126Y037098D01*
X023107Y037122D01*
X023086Y037145D01*
X023063Y037166D01*
X023039Y037185D01*
X023012Y037202D01*
X022985Y037216D01*
X022956Y037228D01*
X022927Y037237D01*
X022896Y037244D01*
X022866Y037248D01*
X022835Y037249D01*
D02*
G37*
G36*
X033835Y038249D02*
X033804Y038248D01*
X033773Y038244D01*
X033743Y038237D01*
X033713Y038228D01*
X033684Y038216D01*
X033657Y038202D01*
X033631Y038185D01*
X033606Y038166D01*
X033583Y038145D01*
X033562Y038122D01*
X033543Y038098D01*
X033527Y038072D01*
X033512Y038044D01*
X033500Y038015D01*
X033491Y037986D01*
X033484Y037955D01*
X033480Y037925D01*
X033479Y037894D01*
X033480Y037863D01*
X033484Y037832D01*
X033491Y037802D01*
X033500Y037772D01*
X033512Y037743D01*
X033527Y037716D01*
X033543Y037690D01*
X033562Y037665D01*
X033583Y037642D01*
X033606Y037621D01*
X033631Y037602D01*
X033657Y037586D01*
X033684Y037571D01*
X033713Y037560D01*
X033743Y037550D01*
X033773Y037543D01*
X033804Y037539D01*
X033835Y037538D01*
X033866Y037539D01*
X033896Y037543D01*
X033927Y037550D01*
X033956Y037560D01*
X033985Y037571D01*
X034012Y037586D01*
X034039Y037602D01*
X034063Y037621D01*
X034086Y037642D01*
X034107Y037665D01*
X034126Y037690D01*
X034143Y037716D01*
X034157Y037743D01*
X034169Y037772D01*
X034178Y037802D01*
X034185Y037832D01*
X034189Y037863D01*
X034190Y037894D01*
X034189Y037925D01*
X034185Y037955D01*
X034178Y037986D01*
X034169Y038015D01*
X034157Y038044D01*
X034143Y038072D01*
X034126Y038098D01*
X034107Y038122D01*
X034086Y038145D01*
X034063Y038166D01*
X034039Y038185D01*
X034012Y038202D01*
X033985Y038216D01*
X033956Y038228D01*
X033927Y038237D01*
X033896Y038244D01*
X033866Y038248D01*
X033835Y038249D01*
D02*
G37*
G36*
X038681Y035212D02*
X038651Y035202D01*
X038621Y035190D01*
X038592Y035175D01*
X038565Y035157D01*
X038539Y035137D01*
X038515Y035115D01*
X038493Y035091D01*
X038473Y035065D01*
X038455Y035038D01*
X038440Y035009D01*
X038428Y034978D01*
X038418Y034949D01*
X038681D01*
Y035212D01*
D02*
G37*
G36*
X038878D02*
Y034949D01*
X039141D01*
X039131Y034978D01*
X039119Y035009D01*
X039104Y035038D01*
X039086Y035065D01*
X039066Y035091D01*
X039044Y035115D01*
X039020Y035137D01*
X038994Y035157D01*
X038967Y035175D01*
X038938Y035190D01*
X038908Y035202D01*
X038878Y035212D01*
D02*
G37*
G36*
X035736Y036795D02*
X035474D01*
X035483Y036766D01*
X035495Y036735D01*
X035510Y036707D01*
X035528Y036679D01*
X035548Y036653D01*
X035570Y036629D01*
X035594Y036607D01*
X035620Y036587D01*
X035647Y036569D01*
X035676Y036554D01*
X035707Y036542D01*
X035736Y036533D01*
Y036795D01*
D02*
G37*
G36*
X036196D02*
X035933D01*
Y036533D01*
X035963Y036542D01*
X035993Y036554D01*
X036022Y036569D01*
X036049Y036587D01*
X036075Y036607D01*
X036099Y036629D01*
X036121Y036653D01*
X036141Y036679D01*
X036159Y036707D01*
X036174Y036735D01*
X036186Y036766D01*
X036196Y036795D01*
D02*
G37*
G36*
X024835Y037249D02*
X024804Y037248D01*
X024773Y037244D01*
X024743Y037237D01*
X024713Y037228D01*
X024684Y037216D01*
X024657Y037202D01*
X024631Y037185D01*
X024606Y037166D01*
X024583Y037145D01*
X024562Y037122D01*
X024543Y037098D01*
X024527Y037072D01*
X024512Y037044D01*
X024500Y037015D01*
X024491Y036986D01*
X024484Y036955D01*
X024480Y036925D01*
X024479Y036894D01*
X024480Y036863D01*
X024484Y036832D01*
X024491Y036802D01*
X024500Y036772D01*
X024512Y036743D01*
X024527Y036716D01*
X024543Y036690D01*
X024562Y036665D01*
X024583Y036642D01*
X024606Y036621D01*
X024631Y036602D01*
X024657Y036586D01*
X024684Y036571D01*
X024713Y036560D01*
X024743Y036550D01*
X024773Y036543D01*
X024804Y036539D01*
X024835Y036538D01*
X024866Y036539D01*
X024896Y036543D01*
X024927Y036550D01*
X024956Y036560D01*
X024985Y036571D01*
X025012Y036586D01*
X025039Y036602D01*
X025063Y036621D01*
X025086Y036642D01*
X025107Y036665D01*
X025126Y036690D01*
X025143Y036716D01*
X025157Y036743D01*
X025169Y036772D01*
X025178Y036802D01*
X025185Y036832D01*
X025189Y036863D01*
X025190Y036894D01*
X025189Y036925D01*
X025185Y036955D01*
X025178Y036986D01*
X025169Y037015D01*
X025157Y037044D01*
X025143Y037072D01*
X025126Y037098D01*
X025107Y037122D01*
X025086Y037145D01*
X025063Y037166D01*
X025039Y037185D01*
X025012Y037202D01*
X024985Y037216D01*
X024956Y037228D01*
X024927Y037237D01*
X024896Y037244D01*
X024866Y037248D01*
X024835Y037249D01*
D02*
G37*
G36*
X023736Y036795D02*
X023474D01*
X023483Y036766D01*
X023495Y036735D01*
X023510Y036707D01*
X023528Y036679D01*
X023548Y036653D01*
X023570Y036629D01*
X023594Y036607D01*
X023620Y036587D01*
X023647Y036569D01*
X023676Y036554D01*
X023707Y036542D01*
X023736Y036533D01*
Y036795D01*
D02*
G37*
G36*
X024196D02*
X023933D01*
Y036533D01*
X023963Y036542D01*
X023993Y036554D01*
X024022Y036569D01*
X024049Y036587D01*
X024075Y036607D01*
X024099Y036629D01*
X024121Y036653D01*
X024141Y036679D01*
X024159Y036707D01*
X024174Y036735D01*
X024186Y036766D01*
X024196Y036795D01*
D02*
G37*
G36*
X032835Y037249D02*
X032804Y037248D01*
X032773Y037244D01*
X032743Y037237D01*
X032713Y037228D01*
X032684Y037216D01*
X032657Y037202D01*
X032631Y037185D01*
X032606Y037166D01*
X032583Y037145D01*
X032562Y037122D01*
X032543Y037098D01*
X032527Y037072D01*
X032512Y037044D01*
X032500Y037015D01*
X032491Y036986D01*
X032484Y036955D01*
X032480Y036925D01*
X032479Y036894D01*
X032480Y036863D01*
X032484Y036832D01*
X032491Y036802D01*
X032500Y036772D01*
X032512Y036743D01*
X032527Y036716D01*
X032543Y036690D01*
X032562Y036665D01*
X032583Y036642D01*
X032606Y036621D01*
X032631Y036602D01*
X032657Y036586D01*
X032684Y036571D01*
X032713Y036560D01*
X032743Y036550D01*
X032773Y036543D01*
X032804Y036539D01*
X032835Y036538D01*
X032866Y036539D01*
X032896Y036543D01*
X032927Y036550D01*
X032956Y036560D01*
X032985Y036571D01*
X033012Y036586D01*
X033039Y036602D01*
X033063Y036621D01*
X033086Y036642D01*
X033107Y036665D01*
X033126Y036690D01*
X033143Y036716D01*
X033157Y036743D01*
X033169Y036772D01*
X033178Y036802D01*
X033185Y036832D01*
X033189Y036863D01*
X033190Y036894D01*
X033189Y036925D01*
X033185Y036955D01*
X033178Y036986D01*
X033169Y037015D01*
X033157Y037044D01*
X033143Y037072D01*
X033126Y037098D01*
X033107Y037122D01*
X033086Y037145D01*
X033063Y037166D01*
X033039Y037185D01*
X033012Y037202D01*
X032985Y037216D01*
X032956Y037228D01*
X032927Y037237D01*
X032896Y037244D01*
X032866Y037248D01*
X032835Y037249D01*
D02*
G37*
G36*
X035736Y037795D02*
X035461D01*
Y037520D01*
X035736D01*
Y037795D01*
D02*
G37*
G36*
X036209D02*
X035933D01*
Y037520D01*
X036209D01*
Y037795D01*
D02*
G37*
G36*
X035933Y037255D02*
Y036992D01*
X036196D01*
X036186Y037022D01*
X036174Y037052D01*
X036159Y037081D01*
X036141Y037108D01*
X036121Y037134D01*
X036099Y037158D01*
X036075Y037180D01*
X036049Y037200D01*
X036022Y037218D01*
X035993Y037233D01*
X035963Y037246D01*
X035933Y037255D01*
D02*
G37*
G36*
X038484Y037697D02*
X037871D01*
X037878Y037655D01*
X037888Y037609D01*
X037902Y037564D01*
X037919Y037520D01*
X037938Y037477D01*
X037960Y037436D01*
X037985Y037396D01*
X038012Y037358D01*
X038042Y037321D01*
X038074Y037287D01*
X038109Y037255D01*
X038145Y037225D01*
X038183Y037198D01*
X038223Y037173D01*
X038265Y037151D01*
X038308Y037131D01*
X038352Y037115D01*
X038397Y037101D01*
X038442Y037090D01*
X038484Y037083D01*
Y037697D01*
D02*
G37*
G36*
X022736Y037795D02*
X022474D01*
X022483Y037766D01*
X022495Y037735D01*
X022510Y037707D01*
X022528Y037679D01*
X022548Y037653D01*
X022570Y037629D01*
X022594Y037607D01*
X022620Y037587D01*
X022647Y037569D01*
X022676Y037554D01*
X022707Y037542D01*
X022736Y037533D01*
Y037795D01*
D02*
G37*
G36*
X024835Y038249D02*
X024804Y038248D01*
X024773Y038244D01*
X024743Y038237D01*
X024713Y038228D01*
X024684Y038216D01*
X024657Y038202D01*
X024631Y038185D01*
X024606Y038166D01*
X024583Y038145D01*
X024562Y038122D01*
X024543Y038098D01*
X024527Y038072D01*
X024512Y038044D01*
X024500Y038015D01*
X024491Y037986D01*
X024484Y037955D01*
X024480Y037925D01*
X024479Y037894D01*
X024480Y037863D01*
X024484Y037832D01*
X024491Y037802D01*
X024500Y037772D01*
X024512Y037743D01*
X024527Y037716D01*
X024543Y037690D01*
X024562Y037665D01*
X024583Y037642D01*
X024606Y037621D01*
X024631Y037602D01*
X024657Y037586D01*
X024684Y037571D01*
X024713Y037560D01*
X024743Y037550D01*
X024773Y037543D01*
X024804Y037539D01*
X024835Y037538D01*
X024866Y037539D01*
X024896Y037543D01*
X024927Y037550D01*
X024956Y037560D01*
X024985Y037571D01*
X025012Y037586D01*
X025039Y037602D01*
X025063Y037621D01*
X025086Y037642D01*
X025107Y037665D01*
X025126Y037690D01*
X025143Y037716D01*
X025157Y037743D01*
X025169Y037772D01*
X025178Y037802D01*
X025185Y037832D01*
X025189Y037863D01*
X025190Y037894D01*
X025189Y037925D01*
X025185Y037955D01*
X025178Y037986D01*
X025169Y038015D01*
X025157Y038044D01*
X025143Y038072D01*
X025126Y038098D01*
X025107Y038122D01*
X025086Y038145D01*
X025063Y038166D01*
X025039Y038185D01*
X025012Y038202D01*
X024985Y038216D01*
X024956Y038228D01*
X024927Y038237D01*
X024896Y038244D01*
X024866Y038248D01*
X024835Y038249D01*
D02*
G37*
G36*
X025835D02*
X025804Y038248D01*
X025773Y038244D01*
X025743Y038237D01*
X025713Y038228D01*
X025684Y038216D01*
X025657Y038202D01*
X025631Y038185D01*
X025606Y038166D01*
X025583Y038145D01*
X025562Y038122D01*
X025543Y038098D01*
X025527Y038072D01*
X025512Y038044D01*
X025500Y038015D01*
X025491Y037986D01*
X025484Y037955D01*
X025480Y037925D01*
X025479Y037894D01*
X025480Y037863D01*
X025484Y037832D01*
X025491Y037802D01*
X025500Y037772D01*
X025512Y037743D01*
X025527Y037716D01*
X025543Y037690D01*
X025562Y037665D01*
X025583Y037642D01*
X025606Y037621D01*
X025631Y037602D01*
X025657Y037586D01*
X025684Y037571D01*
X025713Y037560D01*
X025743Y037550D01*
X025773Y037543D01*
X025804Y037539D01*
X025835Y037538D01*
X025866Y037539D01*
X025896Y037543D01*
X025927Y037550D01*
X025956Y037560D01*
X025985Y037571D01*
X026012Y037586D01*
X026039Y037602D01*
X026063Y037621D01*
X026086Y037642D01*
X026107Y037665D01*
X026126Y037690D01*
X026143Y037716D01*
X026157Y037743D01*
X026169Y037772D01*
X026178Y037802D01*
X026185Y037832D01*
X026189Y037863D01*
X026190Y037894D01*
X026189Y037925D01*
X026185Y037955D01*
X026178Y037986D01*
X026169Y038015D01*
X026157Y038044D01*
X026143Y038072D01*
X026126Y038098D01*
X026107Y038122D01*
X026086Y038145D01*
X026063Y038166D01*
X026039Y038185D01*
X026012Y038202D01*
X025985Y038216D01*
X025956Y038228D01*
X025927Y038237D01*
X025896Y038244D01*
X025866Y038248D01*
X025835Y038249D01*
D02*
G37*
G36*
X023196Y037795D02*
X022933D01*
Y037533D01*
X022963Y037542D01*
X022993Y037554D01*
X023022Y037569D01*
X023049Y037587D01*
X023075Y037607D01*
X023099Y037629D01*
X023121Y037653D01*
X023141Y037679D01*
X023159Y037707D01*
X023174Y037735D01*
X023186Y037766D01*
X023196Y037795D01*
D02*
G37*
G36*
X023835Y038249D02*
X023804Y038248D01*
X023773Y038244D01*
X023743Y038237D01*
X023713Y038228D01*
X023684Y038216D01*
X023657Y038202D01*
X023631Y038185D01*
X023606Y038166D01*
X023583Y038145D01*
X023562Y038122D01*
X023543Y038098D01*
X023527Y038072D01*
X023512Y038044D01*
X023500Y038015D01*
X023491Y037986D01*
X023484Y037955D01*
X023480Y037925D01*
X023479Y037894D01*
X023480Y037863D01*
X023484Y037832D01*
X023491Y037802D01*
X023500Y037772D01*
X023512Y037743D01*
X023527Y037716D01*
X023543Y037690D01*
X023562Y037665D01*
X023583Y037642D01*
X023606Y037621D01*
X023631Y037602D01*
X023657Y037586D01*
X023684Y037571D01*
X023713Y037560D01*
X023743Y037550D01*
X023773Y037543D01*
X023804Y037539D01*
X023835Y037538D01*
X023866Y037539D01*
X023896Y037543D01*
X023927Y037550D01*
X023956Y037560D01*
X023985Y037571D01*
X024012Y037586D01*
X024039Y037602D01*
X024063Y037621D01*
X024086Y037642D01*
X024107Y037665D01*
X024126Y037690D01*
X024143Y037716D01*
X024157Y037743D01*
X024169Y037772D01*
X024178Y037802D01*
X024185Y037832D01*
X024189Y037863D01*
X024190Y037894D01*
X024189Y037925D01*
X024185Y037955D01*
X024178Y037986D01*
X024169Y038015D01*
X024157Y038044D01*
X024143Y038072D01*
X024126Y038098D01*
X024107Y038122D01*
X024086Y038145D01*
X024063Y038166D01*
X024039Y038185D01*
X024012Y038202D01*
X023985Y038216D01*
X023956Y038228D01*
X023927Y038237D01*
X023896Y038244D01*
X023866Y038248D01*
X023835Y038249D01*
D02*
G37*
G36*
X035736Y037255D02*
X035707Y037246D01*
X035676Y037233D01*
X035647Y037218D01*
X035620Y037200D01*
X035594Y037180D01*
X035570Y037158D01*
X035548Y037134D01*
X035528Y037108D01*
X035510Y037081D01*
X035495Y037052D01*
X035483Y037022D01*
X035474Y036992D01*
X035736D01*
Y037255D01*
D02*
G37*
G36*
X021063Y038189D02*
X019685D01*
Y036811D01*
X021063D01*
Y038189D01*
D02*
G37*
G36*
X023736Y037255D02*
X023707Y037246D01*
X023676Y037233D01*
X023647Y037218D01*
X023620Y037200D01*
X023594Y037180D01*
X023570Y037158D01*
X023548Y037134D01*
X023528Y037108D01*
X023510Y037081D01*
X023495Y037052D01*
X023483Y037022D01*
X023474Y036992D01*
X023736D01*
Y037255D01*
D02*
G37*
G36*
X033835Y037249D02*
X033804Y037248D01*
X033773Y037244D01*
X033743Y037237D01*
X033713Y037228D01*
X033684Y037216D01*
X033657Y037202D01*
X033631Y037185D01*
X033606Y037166D01*
X033583Y037145D01*
X033562Y037122D01*
X033543Y037098D01*
X033527Y037072D01*
X033512Y037044D01*
X033500Y037015D01*
X033491Y036986D01*
X033484Y036955D01*
X033480Y036925D01*
X033479Y036894D01*
X033480Y036863D01*
X033484Y036832D01*
X033491Y036802D01*
X033500Y036772D01*
X033512Y036743D01*
X033527Y036716D01*
X033543Y036690D01*
X033562Y036665D01*
X033583Y036642D01*
X033606Y036621D01*
X033631Y036602D01*
X033657Y036586D01*
X033684Y036571D01*
X033713Y036560D01*
X033743Y036550D01*
X033773Y036543D01*
X033804Y036539D01*
X033835Y036538D01*
X033866Y036539D01*
X033896Y036543D01*
X033927Y036550D01*
X033956Y036560D01*
X033985Y036571D01*
X034012Y036586D01*
X034039Y036602D01*
X034063Y036621D01*
X034086Y036642D01*
X034107Y036665D01*
X034126Y036690D01*
X034143Y036716D01*
X034157Y036743D01*
X034169Y036772D01*
X034178Y036802D01*
X034185Y036832D01*
X034189Y036863D01*
X034190Y036894D01*
X034189Y036925D01*
X034185Y036955D01*
X034178Y036986D01*
X034169Y037015D01*
X034157Y037044D01*
X034143Y037072D01*
X034126Y037098D01*
X034107Y037122D01*
X034086Y037145D01*
X034063Y037166D01*
X034039Y037185D01*
X034012Y037202D01*
X033985Y037216D01*
X033956Y037228D01*
X033927Y037237D01*
X033896Y037244D01*
X033866Y037248D01*
X033835Y037249D01*
D02*
G37*
G36*
X034835D02*
X034804Y037248D01*
X034773Y037244D01*
X034743Y037237D01*
X034713Y037228D01*
X034684Y037216D01*
X034657Y037202D01*
X034631Y037185D01*
X034606Y037166D01*
X034583Y037145D01*
X034562Y037122D01*
X034543Y037098D01*
X034527Y037072D01*
X034512Y037044D01*
X034500Y037015D01*
X034491Y036986D01*
X034484Y036955D01*
X034480Y036925D01*
X034479Y036894D01*
X034480Y036863D01*
X034484Y036832D01*
X034491Y036802D01*
X034500Y036772D01*
X034512Y036743D01*
X034527Y036716D01*
X034543Y036690D01*
X034562Y036665D01*
X034583Y036642D01*
X034606Y036621D01*
X034631Y036602D01*
X034657Y036586D01*
X034684Y036571D01*
X034713Y036560D01*
X034743Y036550D01*
X034773Y036543D01*
X034804Y036539D01*
X034835Y036538D01*
X034866Y036539D01*
X034896Y036543D01*
X034927Y036550D01*
X034956Y036560D01*
X034985Y036571D01*
X035012Y036586D01*
X035039Y036602D01*
X035063Y036621D01*
X035086Y036642D01*
X035107Y036665D01*
X035126Y036690D01*
X035143Y036716D01*
X035157Y036743D01*
X035169Y036772D01*
X035178Y036802D01*
X035185Y036832D01*
X035189Y036863D01*
X035190Y036894D01*
X035189Y036925D01*
X035185Y036955D01*
X035178Y036986D01*
X035169Y037015D01*
X035157Y037044D01*
X035143Y037072D01*
X035126Y037098D01*
X035107Y037122D01*
X035086Y037145D01*
X035063Y037166D01*
X035039Y037185D01*
X035012Y037202D01*
X034985Y037216D01*
X034956Y037228D01*
X034927Y037237D01*
X034896Y037244D01*
X034866Y037248D01*
X034835Y037249D01*
D02*
G37*
G36*
X023933Y037255D02*
Y036992D01*
X024196D01*
X024186Y037022D01*
X024174Y037052D01*
X024159Y037081D01*
X024141Y037108D01*
X024121Y037134D01*
X024099Y037158D01*
X024075Y037180D01*
X024049Y037200D01*
X024022Y037218D01*
X023993Y037233D01*
X023963Y037246D01*
X023933Y037255D01*
D02*
G37*
G36*
X027835Y038249D02*
X027804Y038248D01*
X027773Y038244D01*
X027743Y038237D01*
X027713Y038228D01*
X027684Y038216D01*
X027657Y038202D01*
X027631Y038185D01*
X027606Y038166D01*
X027583Y038145D01*
X027562Y038122D01*
X027543Y038098D01*
X027527Y038072D01*
X027512Y038044D01*
X027500Y038015D01*
X027491Y037986D01*
X027484Y037955D01*
X027480Y037925D01*
X027479Y037894D01*
X027480Y037863D01*
X027484Y037832D01*
X027491Y037802D01*
X027500Y037772D01*
X027512Y037743D01*
X027527Y037716D01*
X027543Y037690D01*
X027562Y037665D01*
X027583Y037642D01*
X027606Y037621D01*
X027631Y037602D01*
X027657Y037586D01*
X027684Y037571D01*
X027713Y037560D01*
X027743Y037550D01*
X027773Y037543D01*
X027804Y037539D01*
X027835Y037538D01*
X027866Y037539D01*
X027896Y037543D01*
X027927Y037550D01*
X027956Y037560D01*
X027985Y037571D01*
X028012Y037586D01*
X028039Y037602D01*
X028063Y037621D01*
X028086Y037642D01*
X028107Y037665D01*
X028126Y037690D01*
X028143Y037716D01*
X028157Y037743D01*
X028169Y037772D01*
X028178Y037802D01*
X028185Y037832D01*
X028189Y037863D01*
X028190Y037894D01*
X028189Y037925D01*
X028185Y037955D01*
X028178Y037986D01*
X028169Y038015D01*
X028157Y038044D01*
X028143Y038072D01*
X028126Y038098D01*
X028107Y038122D01*
X028086Y038145D01*
X028063Y038166D01*
X028039Y038185D01*
X028012Y038202D01*
X027985Y038216D01*
X027956Y038228D01*
X027927Y038237D01*
X027896Y038244D01*
X027866Y038248D01*
X027835Y038249D01*
D02*
G37*
G36*
X026835D02*
X026804Y038248D01*
X026773Y038244D01*
X026743Y038237D01*
X026713Y038228D01*
X026684Y038216D01*
X026657Y038202D01*
X026631Y038185D01*
X026606Y038166D01*
X026583Y038145D01*
X026562Y038122D01*
X026543Y038098D01*
X026527Y038072D01*
X026512Y038044D01*
X026500Y038015D01*
X026491Y037986D01*
X026484Y037955D01*
X026480Y037925D01*
X026479Y037894D01*
X026480Y037863D01*
X026484Y037832D01*
X026491Y037802D01*
X026500Y037772D01*
X026512Y037743D01*
X026527Y037716D01*
X026543Y037690D01*
X026562Y037665D01*
X026583Y037642D01*
X026606Y037621D01*
X026631Y037602D01*
X026657Y037586D01*
X026684Y037571D01*
X026713Y037560D01*
X026743Y037550D01*
X026773Y037543D01*
X026804Y037539D01*
X026835Y037538D01*
X026866Y037539D01*
X026896Y037543D01*
X026927Y037550D01*
X026956Y037560D01*
X026985Y037571D01*
X027012Y037586D01*
X027039Y037602D01*
X027063Y037621D01*
X027086Y037642D01*
X027107Y037665D01*
X027126Y037690D01*
X027143Y037716D01*
X027157Y037743D01*
X027169Y037772D01*
X027178Y037802D01*
X027185Y037832D01*
X027189Y037863D01*
X027190Y037894D01*
X027189Y037925D01*
X027185Y037955D01*
X027178Y037986D01*
X027169Y038015D01*
X027157Y038044D01*
X027143Y038072D01*
X027126Y038098D01*
X027107Y038122D01*
X027086Y038145D01*
X027063Y038166D01*
X027039Y038185D01*
X027012Y038202D01*
X026985Y038216D01*
X026956Y038228D01*
X026927Y038237D01*
X026896Y038244D01*
X026866Y038248D01*
X026835Y038249D01*
D02*
G37*
G36*
X029835D02*
X029804Y038248D01*
X029773Y038244D01*
X029743Y038237D01*
X029713Y038228D01*
X029684Y038216D01*
X029657Y038202D01*
X029631Y038185D01*
X029606Y038166D01*
X029583Y038145D01*
X029562Y038122D01*
X029543Y038098D01*
X029527Y038072D01*
X029512Y038044D01*
X029500Y038015D01*
X029491Y037986D01*
X029484Y037955D01*
X029480Y037925D01*
X029479Y037894D01*
X029480Y037863D01*
X029484Y037832D01*
X029491Y037802D01*
X029500Y037772D01*
X029512Y037743D01*
X029527Y037716D01*
X029543Y037690D01*
X029562Y037665D01*
X029583Y037642D01*
X029606Y037621D01*
X029631Y037602D01*
X029657Y037586D01*
X029684Y037571D01*
X029713Y037560D01*
X029743Y037550D01*
X029773Y037543D01*
X029804Y037539D01*
X029835Y037538D01*
X029866Y037539D01*
X029896Y037543D01*
X029927Y037550D01*
X029956Y037560D01*
X029985Y037571D01*
X030012Y037586D01*
X030039Y037602D01*
X030063Y037621D01*
X030086Y037642D01*
X030107Y037665D01*
X030126Y037690D01*
X030143Y037716D01*
X030157Y037743D01*
X030169Y037772D01*
X030178Y037802D01*
X030185Y037832D01*
X030189Y037863D01*
X030190Y037894D01*
X030189Y037925D01*
X030185Y037955D01*
X030178Y037986D01*
X030169Y038015D01*
X030157Y038044D01*
X030143Y038072D01*
X030126Y038098D01*
X030107Y038122D01*
X030086Y038145D01*
X030063Y038166D01*
X030039Y038185D01*
X030012Y038202D01*
X029985Y038216D01*
X029956Y038228D01*
X029927Y038237D01*
X029896Y038244D01*
X029866Y038248D01*
X029835Y038249D01*
D02*
G37*
G36*
X028835D02*
X028804Y038248D01*
X028773Y038244D01*
X028743Y038237D01*
X028713Y038228D01*
X028684Y038216D01*
X028657Y038202D01*
X028631Y038185D01*
X028606Y038166D01*
X028583Y038145D01*
X028562Y038122D01*
X028543Y038098D01*
X028527Y038072D01*
X028512Y038044D01*
X028500Y038015D01*
X028491Y037986D01*
X028484Y037955D01*
X028480Y037925D01*
X028479Y037894D01*
X028480Y037863D01*
X028484Y037832D01*
X028491Y037802D01*
X028500Y037772D01*
X028512Y037743D01*
X028527Y037716D01*
X028543Y037690D01*
X028562Y037665D01*
X028583Y037642D01*
X028606Y037621D01*
X028631Y037602D01*
X028657Y037586D01*
X028684Y037571D01*
X028713Y037560D01*
X028743Y037550D01*
X028773Y037543D01*
X028804Y037539D01*
X028835Y037538D01*
X028866Y037539D01*
X028896Y037543D01*
X028927Y037550D01*
X028956Y037560D01*
X028985Y037571D01*
X029012Y037586D01*
X029039Y037602D01*
X029063Y037621D01*
X029086Y037642D01*
X029107Y037665D01*
X029126Y037690D01*
X029143Y037716D01*
X029157Y037743D01*
X029169Y037772D01*
X029178Y037802D01*
X029185Y037832D01*
X029189Y037863D01*
X029190Y037894D01*
X029189Y037925D01*
X029185Y037955D01*
X029178Y037986D01*
X029169Y038015D01*
X029157Y038044D01*
X029143Y038072D01*
X029126Y038098D01*
X029107Y038122D01*
X029086Y038145D01*
X029063Y038166D01*
X029039Y038185D01*
X029012Y038202D01*
X028985Y038216D01*
X028956Y038228D01*
X028927Y038237D01*
X028896Y038244D01*
X028866Y038248D01*
X028835Y038249D01*
D02*
G37*
G36*
X020783Y035204D02*
Y034941D01*
X021046D01*
X021037Y034971D01*
X021024Y035001D01*
X021009Y035030D01*
X020992Y035057D01*
X020972Y035083D01*
X020950Y035107D01*
X020926Y035129D01*
X020900Y035149D01*
X020872Y035167D01*
X020843Y035182D01*
X020813Y035194D01*
X020783Y035204D01*
D02*
G37*
G36*
X033835Y019155D02*
X033804Y019153D01*
X033773Y019149D01*
X033743Y019143D01*
X033713Y019133D01*
X033684Y019122D01*
X033657Y019107D01*
X033631Y019091D01*
X033606Y019072D01*
X033583Y019051D01*
X033562Y019028D01*
X033543Y019003D01*
X033527Y018977D01*
X033512Y018950D01*
X033500Y018921D01*
X033491Y018891D01*
X033484Y018861D01*
X033480Y018830D01*
X033479Y018799D01*
X033480Y018768D01*
X033484Y018737D01*
X033491Y018707D01*
X033500Y018678D01*
X033512Y018649D01*
X033527Y018621D01*
X033543Y018595D01*
X033562Y018571D01*
X033583Y018548D01*
X033606Y018527D01*
X033631Y018508D01*
X033657Y018491D01*
X033684Y018477D01*
X033713Y018465D01*
X033743Y018456D01*
X033773Y018449D01*
X033804Y018445D01*
X033835Y018444D01*
X033866Y018445D01*
X033896Y018449D01*
X033927Y018456D01*
X033956Y018465D01*
X033985Y018477D01*
X034012Y018491D01*
X034039Y018508D01*
X034063Y018527D01*
X034086Y018548D01*
X034107Y018571D01*
X034126Y018595D01*
X034143Y018621D01*
X034157Y018649D01*
X034169Y018678D01*
X034178Y018707D01*
X034185Y018737D01*
X034189Y018768D01*
X034190Y018799D01*
X034189Y018830D01*
X034185Y018861D01*
X034178Y018891D01*
X034169Y018921D01*
X034157Y018950D01*
X034143Y018977D01*
X034126Y019003D01*
X034107Y019028D01*
X034086Y019051D01*
X034063Y019072D01*
X034039Y019091D01*
X034012Y019107D01*
X033985Y019122D01*
X033956Y019133D01*
X033927Y019143D01*
X033896Y019149D01*
X033866Y019153D01*
X033835Y019155D01*
D02*
G37*
G36*
X032835D02*
X032804Y019153D01*
X032773Y019149D01*
X032743Y019143D01*
X032713Y019133D01*
X032684Y019122D01*
X032657Y019107D01*
X032631Y019091D01*
X032606Y019072D01*
X032583Y019051D01*
X032562Y019028D01*
X032543Y019003D01*
X032527Y018977D01*
X032512Y018950D01*
X032500Y018921D01*
X032491Y018891D01*
X032484Y018861D01*
X032480Y018830D01*
X032479Y018799D01*
X032480Y018768D01*
X032484Y018737D01*
X032491Y018707D01*
X032500Y018678D01*
X032512Y018649D01*
X032527Y018621D01*
X032543Y018595D01*
X032562Y018571D01*
X032583Y018548D01*
X032606Y018527D01*
X032631Y018508D01*
X032657Y018491D01*
X032684Y018477D01*
X032713Y018465D01*
X032743Y018456D01*
X032773Y018449D01*
X032804Y018445D01*
X032835Y018444D01*
X032866Y018445D01*
X032896Y018449D01*
X032927Y018456D01*
X032956Y018465D01*
X032985Y018477D01*
X033012Y018491D01*
X033039Y018508D01*
X033063Y018527D01*
X033086Y018548D01*
X033107Y018571D01*
X033126Y018595D01*
X033143Y018621D01*
X033157Y018649D01*
X033169Y018678D01*
X033178Y018707D01*
X033185Y018737D01*
X033189Y018768D01*
X033190Y018799D01*
X033189Y018830D01*
X033185Y018861D01*
X033178Y018891D01*
X033169Y018921D01*
X033157Y018950D01*
X033143Y018977D01*
X033126Y019003D01*
X033107Y019028D01*
X033086Y019051D01*
X033063Y019072D01*
X033039Y019091D01*
X033012Y019107D01*
X032985Y019122D01*
X032956Y019133D01*
X032927Y019143D01*
X032896Y019149D01*
X032866Y019153D01*
X032835Y019155D01*
D02*
G37*
G36*
X023190Y019154D02*
X022479D01*
Y018444D01*
X023190D01*
Y019154D01*
D02*
G37*
G36*
X035736Y038268D02*
X035461D01*
Y037992D01*
X035736D01*
Y038268D01*
D02*
G37*
G36*
X031835Y019155D02*
X031804Y019153D01*
X031773Y019149D01*
X031743Y019143D01*
X031713Y019133D01*
X031684Y019122D01*
X031657Y019107D01*
X031631Y019091D01*
X031606Y019072D01*
X031583Y019051D01*
X031562Y019028D01*
X031543Y019003D01*
X031527Y018977D01*
X031512Y018950D01*
X031500Y018921D01*
X031491Y018891D01*
X031484Y018861D01*
X031480Y018830D01*
X031479Y018799D01*
X031480Y018768D01*
X031484Y018737D01*
X031491Y018707D01*
X031500Y018678D01*
X031512Y018649D01*
X031527Y018621D01*
X031543Y018595D01*
X031562Y018571D01*
X031583Y018548D01*
X031606Y018527D01*
X031631Y018508D01*
X031657Y018491D01*
X031684Y018477D01*
X031713Y018465D01*
X031743Y018456D01*
X031773Y018449D01*
X031804Y018445D01*
X031835Y018444D01*
X031866Y018445D01*
X031896Y018449D01*
X031927Y018456D01*
X031956Y018465D01*
X031985Y018477D01*
X032012Y018491D01*
X032039Y018508D01*
X032063Y018527D01*
X032086Y018548D01*
X032107Y018571D01*
X032126Y018595D01*
X032143Y018621D01*
X032157Y018649D01*
X032169Y018678D01*
X032178Y018707D01*
X032185Y018737D01*
X032189Y018768D01*
X032190Y018799D01*
X032189Y018830D01*
X032185Y018861D01*
X032178Y018891D01*
X032169Y018921D01*
X032157Y018950D01*
X032143Y018977D01*
X032126Y019003D01*
X032107Y019028D01*
X032086Y019051D01*
X032063Y019072D01*
X032039Y019091D01*
X032012Y019107D01*
X031985Y019122D01*
X031956Y019133D01*
X031927Y019143D01*
X031896Y019149D01*
X031866Y019153D01*
X031835Y019155D01*
D02*
G37*
G36*
X030835D02*
X030804Y019153D01*
X030773Y019149D01*
X030743Y019143D01*
X030713Y019133D01*
X030684Y019122D01*
X030657Y019107D01*
X030631Y019091D01*
X030606Y019072D01*
X030583Y019051D01*
X030562Y019028D01*
X030543Y019003D01*
X030527Y018977D01*
X030512Y018950D01*
X030500Y018921D01*
X030491Y018891D01*
X030484Y018861D01*
X030480Y018830D01*
X030479Y018799D01*
X030480Y018768D01*
X030484Y018737D01*
X030491Y018707D01*
X030500Y018678D01*
X030512Y018649D01*
X030527Y018621D01*
X030543Y018595D01*
X030562Y018571D01*
X030583Y018548D01*
X030606Y018527D01*
X030631Y018508D01*
X030657Y018491D01*
X030684Y018477D01*
X030713Y018465D01*
X030743Y018456D01*
X030773Y018449D01*
X030804Y018445D01*
X030835Y018444D01*
X030866Y018445D01*
X030896Y018449D01*
X030927Y018456D01*
X030956Y018465D01*
X030985Y018477D01*
X031012Y018491D01*
X031039Y018508D01*
X031063Y018527D01*
X031086Y018548D01*
X031107Y018571D01*
X031126Y018595D01*
X031143Y018621D01*
X031157Y018649D01*
X031169Y018678D01*
X031178Y018707D01*
X031185Y018737D01*
X031189Y018768D01*
X031190Y018799D01*
X031189Y018830D01*
X031185Y018861D01*
X031178Y018891D01*
X031169Y018921D01*
X031157Y018950D01*
X031143Y018977D01*
X031126Y019003D01*
X031107Y019028D01*
X031086Y019051D01*
X031063Y019072D01*
X031039Y019091D01*
X031012Y019107D01*
X030985Y019122D01*
X030956Y019133D01*
X030927Y019143D01*
X030896Y019149D01*
X030866Y019153D01*
X030835Y019155D01*
D02*
G37*
G36*
X029835D02*
X029804Y019153D01*
X029773Y019149D01*
X029743Y019143D01*
X029713Y019133D01*
X029684Y019122D01*
X029657Y019107D01*
X029631Y019091D01*
X029606Y019072D01*
X029583Y019051D01*
X029562Y019028D01*
X029543Y019003D01*
X029527Y018977D01*
X029512Y018950D01*
X029500Y018921D01*
X029491Y018891D01*
X029484Y018861D01*
X029480Y018830D01*
X029479Y018799D01*
X029480Y018768D01*
X029484Y018737D01*
X029491Y018707D01*
X029500Y018678D01*
X029512Y018649D01*
X029527Y018621D01*
X029543Y018595D01*
X029562Y018571D01*
X029583Y018548D01*
X029606Y018527D01*
X029631Y018508D01*
X029657Y018491D01*
X029684Y018477D01*
X029713Y018465D01*
X029743Y018456D01*
X029773Y018449D01*
X029804Y018445D01*
X029835Y018444D01*
X029866Y018445D01*
X029896Y018449D01*
X029927Y018456D01*
X029956Y018465D01*
X029985Y018477D01*
X030012Y018491D01*
X030039Y018508D01*
X030063Y018527D01*
X030086Y018548D01*
X030107Y018571D01*
X030126Y018595D01*
X030143Y018621D01*
X030157Y018649D01*
X030169Y018678D01*
X030178Y018707D01*
X030185Y018737D01*
X030189Y018768D01*
X030190Y018799D01*
X030189Y018830D01*
X030185Y018861D01*
X030178Y018891D01*
X030169Y018921D01*
X030157Y018950D01*
X030143Y018977D01*
X030126Y019003D01*
X030107Y019028D01*
X030086Y019051D01*
X030063Y019072D01*
X030039Y019091D01*
X030012Y019107D01*
X029985Y019122D01*
X029956Y019133D01*
X029927Y019143D01*
X029896Y019149D01*
X029866Y019153D01*
X029835Y019155D01*
D02*
G37*
G36*
X037681Y034212D02*
X037651Y034202D01*
X037621Y034190D01*
X037592Y034175D01*
X037565Y034157D01*
X037539Y034137D01*
X037515Y034115D01*
X037493Y034091D01*
X037473Y034065D01*
X037455Y034038D01*
X037440Y034009D01*
X037428Y033978D01*
X037418Y033949D01*
X037681D01*
Y034212D01*
D02*
G37*
G36*
X037878D02*
Y033949D01*
X038141D01*
X038131Y033978D01*
X038119Y034009D01*
X038104Y034038D01*
X038086Y034065D01*
X038066Y034091D01*
X038044Y034115D01*
X038020Y034137D01*
X037994Y034157D01*
X037967Y034175D01*
X037938Y034190D01*
X037908Y034202D01*
X037878Y034212D01*
D02*
G37*
G36*
X021063Y019882D02*
X019685D01*
Y018504D01*
X021063D01*
Y019882D01*
D02*
G37*
G36*
X037681Y033752D02*
X037418D01*
X037428Y033722D01*
X037440Y033692D01*
X037455Y033663D01*
X037473Y033636D01*
X037493Y033610D01*
X037515Y033586D01*
X037539Y033564D01*
X037565Y033544D01*
X037592Y033526D01*
X037621Y033511D01*
X037651Y033499D01*
X037681Y033489D01*
Y033752D01*
D02*
G37*
G36*
X038141D02*
X037878D01*
Y033489D01*
X037908Y033499D01*
X037938Y033511D01*
X037967Y033526D01*
X037994Y033544D01*
X038020Y033564D01*
X038044Y033586D01*
X038066Y033610D01*
X038086Y033636D01*
X038104Y033663D01*
X038119Y033692D01*
X038131Y033722D01*
X038141Y033752D01*
D02*
G37*
G36*
X019685Y034198D02*
X019654Y034197D01*
X019623Y034193D01*
X019593Y034186D01*
X019563Y034177D01*
X019535Y034165D01*
X019507Y034150D01*
X019481Y034134D01*
X019456Y034115D01*
X019434Y034094D01*
X019413Y034071D01*
X019394Y034046D01*
X019377Y034020D01*
X019363Y033993D01*
X019351Y033964D01*
X019342Y033935D01*
X019335Y033904D01*
X019331Y033874D01*
X019329Y033843D01*
X019331Y033812D01*
X019335Y033781D01*
X019342Y033750D01*
X019351Y033721D01*
X019363Y033692D01*
X019377Y033665D01*
X019394Y033639D01*
X019413Y033614D01*
X019434Y033591D01*
X019456Y033570D01*
X019481Y033551D01*
X019507Y033535D01*
X019535Y033520D01*
X019563Y033508D01*
X019593Y033499D01*
X019623Y033492D01*
X019654Y033488D01*
X019685Y033487D01*
X019716Y033488D01*
X019747Y033492D01*
X019777Y033499D01*
X019807Y033508D01*
X019835Y033520D01*
X019863Y033535D01*
X019889Y033551D01*
X019914Y033570D01*
X019936Y033591D01*
X019957Y033614D01*
X019976Y033639D01*
X019993Y033665D01*
X020007Y033692D01*
X020019Y033721D01*
X020029Y033750D01*
X020035Y033781D01*
X020039Y033812D01*
X020041Y033843D01*
X020039Y033874D01*
X020035Y033904D01*
X020029Y033935D01*
X020019Y033964D01*
X020007Y033993D01*
X019993Y034020D01*
X019976Y034046D01*
X019957Y034071D01*
X019936Y034094D01*
X019914Y034115D01*
X019889Y034134D01*
X019863Y034150D01*
X019835Y034165D01*
X019807Y034177D01*
X019777Y034186D01*
X019747Y034193D01*
X019716Y034197D01*
X019685Y034198D01*
D02*
G37*
G36*
X020685D02*
X020654Y034197D01*
X020623Y034193D01*
X020593Y034186D01*
X020563Y034177D01*
X020535Y034165D01*
X020507Y034150D01*
X020481Y034134D01*
X020456Y034115D01*
X020434Y034094D01*
X020413Y034071D01*
X020394Y034046D01*
X020377Y034020D01*
X020363Y033993D01*
X020351Y033964D01*
X020342Y033935D01*
X020335Y033904D01*
X020331Y033874D01*
X020329Y033843D01*
X020331Y033812D01*
X020335Y033781D01*
X020342Y033750D01*
X020351Y033721D01*
X020363Y033692D01*
X020377Y033665D01*
X020394Y033639D01*
X020413Y033614D01*
X020434Y033591D01*
X020456Y033570D01*
X020481Y033551D01*
X020507Y033535D01*
X020535Y033520D01*
X020563Y033508D01*
X020593Y033499D01*
X020623Y033492D01*
X020654Y033488D01*
X020685Y033487D01*
X020716Y033488D01*
X020747Y033492D01*
X020777Y033499D01*
X020807Y033508D01*
X020835Y033520D01*
X020863Y033535D01*
X020889Y033551D01*
X020914Y033570D01*
X020937Y033591D01*
X020957Y033614D01*
X020976Y033639D01*
X020993Y033665D01*
X021007Y033692D01*
X021019Y033721D01*
X021029Y033750D01*
X021035Y033781D01*
X021039Y033812D01*
X021041Y033843D01*
X021039Y033874D01*
X021035Y033904D01*
X021029Y033935D01*
X021019Y033964D01*
X021007Y033993D01*
X020993Y034020D01*
X020976Y034046D01*
X020957Y034071D01*
X020937Y034094D01*
X020914Y034115D01*
X020889Y034134D01*
X020863Y034150D01*
X020835Y034165D01*
X020807Y034177D01*
X020777Y034186D01*
X020747Y034193D01*
X020716Y034197D01*
X020685Y034198D01*
D02*
G37*
G36*
X038780Y034206D02*
X038749Y034205D01*
X038718Y034201D01*
X038687Y034194D01*
X038658Y034185D01*
X038629Y034173D01*
X038602Y034158D01*
X038576Y034142D01*
X038551Y034123D01*
X038528Y034102D01*
X038507Y034079D01*
X038488Y034054D01*
X038472Y034028D01*
X038457Y034001D01*
X038445Y033972D01*
X038436Y033942D01*
X038429Y033912D01*
X038425Y033881D01*
X038424Y033850D01*
X038425Y033819D01*
X038429Y033789D01*
X038436Y033758D01*
X038445Y033729D01*
X038457Y033700D01*
X038472Y033673D01*
X038488Y033646D01*
X038507Y033622D01*
X038528Y033599D01*
X038551Y033578D01*
X038576Y033559D01*
X038602Y033542D01*
X038629Y033528D01*
X038658Y033516D01*
X038687Y033507D01*
X038718Y033500D01*
X038749Y033496D01*
X038780Y033495D01*
X038811Y033496D01*
X038841Y033500D01*
X038872Y033507D01*
X038901Y033516D01*
X038930Y033528D01*
X038957Y033542D01*
X038984Y033559D01*
X039008Y033578D01*
X039031Y033599D01*
X039052Y033622D01*
X039071Y033646D01*
X039088Y033673D01*
X039102Y033700D01*
X039114Y033729D01*
X039123Y033758D01*
X039130Y033789D01*
X039134Y033819D01*
X039135Y033850D01*
X039134Y033881D01*
X039130Y033912D01*
X039123Y033942D01*
X039114Y033972D01*
X039102Y034001D01*
X039088Y034028D01*
X039071Y034054D01*
X039052Y034079D01*
X039031Y034102D01*
X039008Y034123D01*
X038984Y034142D01*
X038957Y034158D01*
X038930Y034173D01*
X038901Y034185D01*
X038872Y034194D01*
X038841Y034201D01*
X038811Y034205D01*
X038780Y034206D01*
D02*
G37*
G36*
X034933Y019160D02*
Y018898D01*
X035196D01*
X035186Y018927D01*
X035174Y018957D01*
X035159Y018986D01*
X035141Y019014D01*
X035121Y019040D01*
X035099Y019064D01*
X035075Y019086D01*
X035049Y019106D01*
X035022Y019123D01*
X034993Y019139D01*
X034963Y019151D01*
X034933Y019160D01*
D02*
G37*
G36*
X034736Y019160D02*
X034707Y019151D01*
X034676Y019139D01*
X034647Y019123D01*
X034620Y019106D01*
X034594Y019086D01*
X034570Y019064D01*
X034548Y019040D01*
X034528Y019014D01*
X034510Y018986D01*
X034495Y018957D01*
X034483Y018927D01*
X034474Y018898D01*
X034736D01*
Y019160D01*
D02*
G37*
G36*
X036209Y038268D02*
X035933D01*
Y037992D01*
X036209D01*
Y038268D01*
D02*
G37*
G36*
X038484Y019610D02*
X038442Y019603D01*
X038397Y019592D01*
X038352Y019578D01*
X038308Y019562D01*
X038265Y019542D01*
X038223Y019520D01*
X038183Y019495D01*
X038145Y019468D01*
X038109Y019438D01*
X038074Y019406D01*
X038042Y019372D01*
X038012Y019335D01*
X037985Y019297D01*
X037960Y019257D01*
X037938Y019216D01*
X037919Y019173D01*
X037902Y019129D01*
X037888Y019084D01*
X037878Y019038D01*
X037871Y018996D01*
X038484D01*
Y019610D01*
D02*
G37*
G36*
X028835Y019155D02*
X028804Y019153D01*
X028773Y019149D01*
X028743Y019143D01*
X028713Y019133D01*
X028684Y019122D01*
X028657Y019107D01*
X028631Y019091D01*
X028606Y019072D01*
X028583Y019051D01*
X028562Y019028D01*
X028543Y019003D01*
X028527Y018977D01*
X028512Y018950D01*
X028500Y018921D01*
X028491Y018891D01*
X028484Y018861D01*
X028480Y018830D01*
X028479Y018799D01*
X028480Y018768D01*
X028484Y018737D01*
X028491Y018707D01*
X028500Y018678D01*
X028512Y018649D01*
X028527Y018621D01*
X028543Y018595D01*
X028562Y018571D01*
X028583Y018548D01*
X028606Y018527D01*
X028631Y018508D01*
X028657Y018491D01*
X028684Y018477D01*
X028713Y018465D01*
X028743Y018456D01*
X028773Y018449D01*
X028804Y018445D01*
X028835Y018444D01*
X028866Y018445D01*
X028896Y018449D01*
X028927Y018456D01*
X028956Y018465D01*
X028985Y018477D01*
X029012Y018491D01*
X029039Y018508D01*
X029063Y018527D01*
X029086Y018548D01*
X029107Y018571D01*
X029126Y018595D01*
X029143Y018621D01*
X029157Y018649D01*
X029169Y018678D01*
X029178Y018707D01*
X029185Y018737D01*
X029189Y018768D01*
X029190Y018799D01*
X029189Y018830D01*
X029185Y018861D01*
X029178Y018891D01*
X029169Y018921D01*
X029157Y018950D01*
X029143Y018977D01*
X029126Y019003D01*
X029107Y019028D01*
X029086Y019051D01*
X029063Y019072D01*
X029039Y019091D01*
X029012Y019107D01*
X028985Y019122D01*
X028956Y019133D01*
X028927Y019143D01*
X028896Y019149D01*
X028866Y019153D01*
X028835Y019155D01*
D02*
G37*
G36*
X022933Y038255D02*
Y037992D01*
X023196D01*
X023186Y038022D01*
X023174Y038052D01*
X023159Y038081D01*
X023141Y038108D01*
X023121Y038134D01*
X023099Y038158D01*
X023075Y038180D01*
X023049Y038200D01*
X023022Y038218D01*
X022993Y038233D01*
X022963Y038245D01*
X022933Y038255D01*
D02*
G37*
G36*
X022736Y038255D02*
X022707Y038245D01*
X022676Y038233D01*
X022647Y038218D01*
X022620Y038200D01*
X022594Y038180D01*
X022570Y038158D01*
X022548Y038134D01*
X022528Y038108D01*
X022510Y038081D01*
X022495Y038052D01*
X022483Y038022D01*
X022474Y037992D01*
X022736D01*
Y038255D01*
D02*
G37*
G36*
X021046Y034744D02*
X020783D01*
Y034481D01*
X020813Y034491D01*
X020843Y034503D01*
X020872Y034518D01*
X020900Y034536D01*
X020926Y034556D01*
X020950Y034578D01*
X020972Y034602D01*
X020992Y034628D01*
X021009Y034655D01*
X021024Y034684D01*
X021037Y034714D01*
X021046Y034744D01*
D02*
G37*
G36*
X038681Y034752D02*
X038418D01*
X038428Y034722D01*
X038440Y034692D01*
X038455Y034663D01*
X038473Y034636D01*
X038493Y034610D01*
X038515Y034586D01*
X038539Y034564D01*
X038565Y034544D01*
X038592Y034526D01*
X038621Y034511D01*
X038651Y034499D01*
X038681Y034489D01*
Y034752D01*
D02*
G37*
G36*
X039141D02*
X038878D01*
Y034489D01*
X038908Y034499D01*
X038938Y034511D01*
X038967Y034526D01*
X038994Y034544D01*
X039020Y034564D01*
X039044Y034586D01*
X039066Y034610D01*
X039086Y034636D01*
X039104Y034663D01*
X039119Y034692D01*
X039131Y034722D01*
X039141Y034752D01*
D02*
G37*
G36*
X020059Y035217D02*
X019783D01*
Y034941D01*
X020059D01*
Y035217D01*
D02*
G37*
G36*
X020587Y035204D02*
X020557Y035194D01*
X020527Y035182D01*
X020498Y035167D01*
X020470Y035149D01*
X020444Y035129D01*
X020420Y035107D01*
X020398Y035083D01*
X020378Y035057D01*
X020361Y035030D01*
X020346Y035001D01*
X020333Y034971D01*
X020324Y034941D01*
X020587D01*
Y035204D01*
D02*
G37*
G36*
X034835Y038249D02*
X034804Y038248D01*
X034773Y038244D01*
X034743Y038237D01*
X034713Y038228D01*
X034684Y038216D01*
X034657Y038202D01*
X034631Y038185D01*
X034606Y038166D01*
X034583Y038145D01*
X034562Y038122D01*
X034543Y038098D01*
X034527Y038072D01*
X034512Y038044D01*
X034500Y038015D01*
X034491Y037986D01*
X034484Y037955D01*
X034480Y037925D01*
X034479Y037894D01*
X034480Y037863D01*
X034484Y037832D01*
X034491Y037802D01*
X034500Y037772D01*
X034512Y037743D01*
X034527Y037716D01*
X034543Y037690D01*
X034562Y037665D01*
X034583Y037642D01*
X034606Y037621D01*
X034631Y037602D01*
X034657Y037586D01*
X034684Y037571D01*
X034713Y037560D01*
X034743Y037550D01*
X034773Y037543D01*
X034804Y037539D01*
X034835Y037538D01*
X034866Y037539D01*
X034896Y037543D01*
X034927Y037550D01*
X034956Y037560D01*
X034985Y037571D01*
X035012Y037586D01*
X035039Y037602D01*
X035063Y037621D01*
X035086Y037642D01*
X035107Y037665D01*
X035126Y037690D01*
X035143Y037716D01*
X035157Y037743D01*
X035169Y037772D01*
X035178Y037802D01*
X035185Y037832D01*
X035189Y037863D01*
X035190Y037894D01*
X035189Y037925D01*
X035185Y037955D01*
X035178Y037986D01*
X035169Y038015D01*
X035157Y038044D01*
X035143Y038072D01*
X035126Y038098D01*
X035107Y038122D01*
X035086Y038145D01*
X035063Y038166D01*
X035039Y038185D01*
X035012Y038202D01*
X034985Y038216D01*
X034956Y038228D01*
X034927Y038237D01*
X034896Y038244D01*
X034866Y038248D01*
X034835Y038249D01*
D02*
G37*
G36*
X019587Y035217D02*
X019311D01*
Y034941D01*
X019587D01*
Y035217D01*
D02*
G37*
G36*
X020587Y034744D02*
X020324D01*
X020333Y034714D01*
X020346Y034684D01*
X020361Y034655D01*
X020378Y034628D01*
X020398Y034602D01*
X020420Y034578D01*
X020444Y034556D01*
X020470Y034536D01*
X020498Y034518D01*
X020527Y034503D01*
X020557Y034491D01*
X020587Y034481D01*
Y034744D01*
D02*
G37*
G36*
X025835Y019155D02*
X025804Y019153D01*
X025773Y019149D01*
X025743Y019143D01*
X025713Y019133D01*
X025684Y019122D01*
X025657Y019107D01*
X025631Y019091D01*
X025606Y019072D01*
X025583Y019051D01*
X025562Y019028D01*
X025543Y019003D01*
X025527Y018977D01*
X025512Y018950D01*
X025500Y018921D01*
X025491Y018891D01*
X025484Y018861D01*
X025480Y018830D01*
X025479Y018799D01*
X025480Y018768D01*
X025484Y018737D01*
X025491Y018707D01*
X025500Y018678D01*
X025512Y018649D01*
X025527Y018621D01*
X025543Y018595D01*
X025562Y018571D01*
X025583Y018548D01*
X025606Y018527D01*
X025631Y018508D01*
X025657Y018491D01*
X025684Y018477D01*
X025713Y018465D01*
X025743Y018456D01*
X025773Y018449D01*
X025804Y018445D01*
X025835Y018444D01*
X025866Y018445D01*
X025896Y018449D01*
X025927Y018456D01*
X025956Y018465D01*
X025985Y018477D01*
X026012Y018491D01*
X026039Y018508D01*
X026063Y018527D01*
X026086Y018548D01*
X026107Y018571D01*
X026126Y018595D01*
X026143Y018621D01*
X026157Y018649D01*
X026169Y018678D01*
X026178Y018707D01*
X026185Y018737D01*
X026189Y018768D01*
X026190Y018799D01*
X026189Y018830D01*
X026185Y018861D01*
X026178Y018891D01*
X026169Y018921D01*
X026157Y018950D01*
X026143Y018977D01*
X026126Y019003D01*
X026107Y019028D01*
X026086Y019051D01*
X026063Y019072D01*
X026039Y019091D01*
X026012Y019107D01*
X025985Y019122D01*
X025956Y019133D01*
X025927Y019143D01*
X025896Y019149D01*
X025866Y019153D01*
X025835Y019155D01*
D02*
G37*
G36*
X024835D02*
X024804Y019153D01*
X024773Y019149D01*
X024743Y019143D01*
X024713Y019133D01*
X024684Y019122D01*
X024657Y019107D01*
X024631Y019091D01*
X024606Y019072D01*
X024583Y019051D01*
X024562Y019028D01*
X024543Y019003D01*
X024527Y018977D01*
X024512Y018950D01*
X024500Y018921D01*
X024491Y018891D01*
X024484Y018861D01*
X024480Y018830D01*
X024479Y018799D01*
X024480Y018768D01*
X024484Y018737D01*
X024491Y018707D01*
X024500Y018678D01*
X024512Y018649D01*
X024527Y018621D01*
X024543Y018595D01*
X024562Y018571D01*
X024583Y018548D01*
X024606Y018527D01*
X024631Y018508D01*
X024657Y018491D01*
X024684Y018477D01*
X024713Y018465D01*
X024743Y018456D01*
X024773Y018449D01*
X024804Y018445D01*
X024835Y018444D01*
X024866Y018445D01*
X024896Y018449D01*
X024927Y018456D01*
X024956Y018465D01*
X024985Y018477D01*
X025012Y018491D01*
X025039Y018508D01*
X025063Y018527D01*
X025086Y018548D01*
X025107Y018571D01*
X025126Y018595D01*
X025143Y018621D01*
X025157Y018649D01*
X025169Y018678D01*
X025178Y018707D01*
X025185Y018737D01*
X025189Y018768D01*
X025190Y018799D01*
X025189Y018830D01*
X025185Y018861D01*
X025178Y018891D01*
X025169Y018921D01*
X025157Y018950D01*
X025143Y018977D01*
X025126Y019003D01*
X025107Y019028D01*
X025086Y019051D01*
X025063Y019072D01*
X025039Y019091D01*
X025012Y019107D01*
X024985Y019122D01*
X024956Y019133D01*
X024927Y019143D01*
X024896Y019149D01*
X024866Y019153D01*
X024835Y019155D01*
D02*
G37*
G36*
X027835D02*
X027804Y019153D01*
X027773Y019149D01*
X027743Y019143D01*
X027713Y019133D01*
X027684Y019122D01*
X027657Y019107D01*
X027631Y019091D01*
X027606Y019072D01*
X027583Y019051D01*
X027562Y019028D01*
X027543Y019003D01*
X027527Y018977D01*
X027512Y018950D01*
X027500Y018921D01*
X027491Y018891D01*
X027484Y018861D01*
X027480Y018830D01*
X027479Y018799D01*
X027480Y018768D01*
X027484Y018737D01*
X027491Y018707D01*
X027500Y018678D01*
X027512Y018649D01*
X027527Y018621D01*
X027543Y018595D01*
X027562Y018571D01*
X027583Y018548D01*
X027606Y018527D01*
X027631Y018508D01*
X027657Y018491D01*
X027684Y018477D01*
X027713Y018465D01*
X027743Y018456D01*
X027773Y018449D01*
X027804Y018445D01*
X027835Y018444D01*
X027866Y018445D01*
X027896Y018449D01*
X027927Y018456D01*
X027956Y018465D01*
X027985Y018477D01*
X028012Y018491D01*
X028039Y018508D01*
X028063Y018527D01*
X028086Y018548D01*
X028107Y018571D01*
X028126Y018595D01*
X028143Y018621D01*
X028157Y018649D01*
X028169Y018678D01*
X028178Y018707D01*
X028185Y018737D01*
X028189Y018768D01*
X028190Y018799D01*
X028189Y018830D01*
X028185Y018861D01*
X028178Y018891D01*
X028169Y018921D01*
X028157Y018950D01*
X028143Y018977D01*
X028126Y019003D01*
X028107Y019028D01*
X028086Y019051D01*
X028063Y019072D01*
X028039Y019091D01*
X028012Y019107D01*
X027985Y019122D01*
X027956Y019133D01*
X027927Y019143D01*
X027896Y019149D01*
X027866Y019153D01*
X027835Y019155D01*
D02*
G37*
G36*
X026835D02*
X026804Y019153D01*
X026773Y019149D01*
X026743Y019143D01*
X026713Y019133D01*
X026684Y019122D01*
X026657Y019107D01*
X026631Y019091D01*
X026606Y019072D01*
X026583Y019051D01*
X026562Y019028D01*
X026543Y019003D01*
X026527Y018977D01*
X026512Y018950D01*
X026500Y018921D01*
X026491Y018891D01*
X026484Y018861D01*
X026480Y018830D01*
X026479Y018799D01*
X026480Y018768D01*
X026484Y018737D01*
X026491Y018707D01*
X026500Y018678D01*
X026512Y018649D01*
X026527Y018621D01*
X026543Y018595D01*
X026562Y018571D01*
X026583Y018548D01*
X026606Y018527D01*
X026631Y018508D01*
X026657Y018491D01*
X026684Y018477D01*
X026713Y018465D01*
X026743Y018456D01*
X026773Y018449D01*
X026804Y018445D01*
X026835Y018444D01*
X026866Y018445D01*
X026896Y018449D01*
X026927Y018456D01*
X026956Y018465D01*
X026985Y018477D01*
X027012Y018491D01*
X027039Y018508D01*
X027063Y018527D01*
X027086Y018548D01*
X027107Y018571D01*
X027126Y018595D01*
X027143Y018621D01*
X027157Y018649D01*
X027169Y018678D01*
X027178Y018707D01*
X027185Y018737D01*
X027189Y018768D01*
X027190Y018799D01*
X027189Y018830D01*
X027185Y018861D01*
X027178Y018891D01*
X027169Y018921D01*
X027157Y018950D01*
X027143Y018977D01*
X027126Y019003D01*
X027107Y019028D01*
X027086Y019051D01*
X027063Y019072D01*
X027039Y019091D01*
X027012Y019107D01*
X026985Y019122D01*
X026956Y019133D01*
X026927Y019143D01*
X026896Y019149D01*
X026866Y019153D01*
X026835Y019155D01*
D02*
G37*
G36*
X023835D02*
X023804Y019153D01*
X023773Y019149D01*
X023743Y019143D01*
X023713Y019133D01*
X023684Y019122D01*
X023657Y019107D01*
X023631Y019091D01*
X023606Y019072D01*
X023583Y019051D01*
X023562Y019028D01*
X023543Y019003D01*
X023527Y018977D01*
X023512Y018950D01*
X023500Y018921D01*
X023491Y018891D01*
X023484Y018861D01*
X023480Y018830D01*
X023479Y018799D01*
X023480Y018768D01*
X023484Y018737D01*
X023491Y018707D01*
X023500Y018678D01*
X023512Y018649D01*
X023527Y018621D01*
X023543Y018595D01*
X023562Y018571D01*
X023583Y018548D01*
X023606Y018527D01*
X023631Y018508D01*
X023657Y018491D01*
X023684Y018477D01*
X023713Y018465D01*
X023743Y018456D01*
X023773Y018449D01*
X023804Y018445D01*
X023835Y018444D01*
X023866Y018445D01*
X023896Y018449D01*
X023927Y018456D01*
X023956Y018465D01*
X023985Y018477D01*
X024012Y018491D01*
X024039Y018508D01*
X024063Y018527D01*
X024086Y018548D01*
X024107Y018571D01*
X024126Y018595D01*
X024143Y018621D01*
X024157Y018649D01*
X024169Y018678D01*
X024178Y018707D01*
X024185Y018737D01*
X024189Y018768D01*
X024190Y018799D01*
X024189Y018830D01*
X024185Y018861D01*
X024178Y018891D01*
X024169Y018921D01*
X024157Y018950D01*
X024143Y018977D01*
X024126Y019003D01*
X024107Y019028D01*
X024086Y019051D01*
X024063Y019072D01*
X024039Y019091D01*
X024012Y019107D01*
X023985Y019122D01*
X023956Y019133D01*
X023927Y019143D01*
X023896Y019149D01*
X023866Y019153D01*
X023835Y019155D01*
D02*
G37*
G36*
X019587Y034744D02*
X019311D01*
Y034469D01*
X019587D01*
Y034744D01*
D02*
G37*
G36*
X020059D02*
X019783D01*
Y034469D01*
X020059D01*
Y034744D01*
D02*
G37*
G36*
X035196Y018701D02*
X034933D01*
Y018438D01*
X034963Y018447D01*
X034993Y018460D01*
X035022Y018475D01*
X035049Y018493D01*
X035075Y018512D01*
X035099Y018534D01*
X035121Y018559D01*
X035141Y018584D01*
X035159Y018612D01*
X035174Y018641D01*
X035186Y018671D01*
X035196Y018701D01*
D02*
G37*
G36*
X034736D02*
X034474D01*
X034483Y018671D01*
X034495Y018641D01*
X034510Y018612D01*
X034528Y018584D01*
X034548Y018559D01*
X034570Y018534D01*
X034594Y018512D01*
X034620Y018493D01*
X034647Y018475D01*
X034676Y018460D01*
X034707Y018447D01*
X034736Y018438D01*
Y018701D01*
D02*
G37*
%LPD*%
G36*
X020474Y025636D02*
X020471Y025638D01*
X020464Y025639D01*
X020453Y025641D01*
X020423Y025643D01*
X020321Y025646D01*
X020288Y025646D01*
Y026039D01*
X020474Y026049D01*
Y025636D01*
D02*
G37*
G36*
X019900Y026047D02*
X019906Y026046D01*
X019917Y026044D01*
X019947Y026042D01*
X020049Y026039D01*
X020082Y026039D01*
Y025646D01*
X019896Y025636D01*
Y026049D01*
X019900Y026047D01*
D02*
G37*
G36*
Y022047D02*
X019906Y022046D01*
X019917Y022044D01*
X019947Y022042D01*
X020049Y022039D01*
X020082Y022039D01*
Y021646D01*
X019896Y021636D01*
Y022049D01*
X019900Y022047D01*
D02*
G37*
G36*
X023039Y036679D02*
X023038Y036672D01*
X023036Y036662D01*
X023034Y036631D01*
X023032Y036530D01*
X023031Y036496D01*
X022638D01*
X022628Y036683D01*
X023041D01*
X023039Y036679D01*
D02*
G37*
G36*
X020900Y022047D02*
X020906Y022046D01*
X020917Y022044D01*
X020947Y022042D01*
X021049Y022039D01*
X021082Y022039D01*
Y021646D01*
X020896Y021636D01*
Y022049D01*
X020900Y022047D01*
D02*
G37*
G36*
X020474Y021636D02*
X020471Y021638D01*
X020464Y021639D01*
X020453Y021641D01*
X020423Y021643D01*
X020321Y021646D01*
X020288Y021646D01*
Y022039D01*
X020474Y022049D01*
Y021636D01*
D02*
G37*
G36*
X037569Y034644D02*
X037565Y034646D01*
X037558Y034647D01*
X037548Y034649D01*
X037517Y034651D01*
X037416Y034653D01*
X037382Y034654D01*
Y035047D01*
X037569Y035057D01*
Y034644D01*
D02*
G37*
G36*
X036039Y019585D02*
X036038Y019578D01*
X036036Y019568D01*
X036034Y019537D01*
X036032Y019436D01*
X036031Y019402D01*
X035638D01*
X035628Y019588D01*
X036041D01*
X036039Y019585D01*
D02*
G37*
G36*
X036041Y019010D02*
X035628D01*
X035630Y019014D01*
X035631Y019021D01*
X035633Y019031D01*
X035635Y019061D01*
X035638Y019163D01*
X035638Y019196D01*
X036031D01*
X036041Y019010D01*
D02*
G37*
G36*
X036220Y035201D02*
X036213Y021449D01*
X022441D01*
X022433Y035201D01*
X022461Y035228D01*
X036193Y035228D01*
X036220Y035201D01*
D02*
G37*
G36*
X036041Y020010D02*
X035628D01*
X035630Y020014D01*
X035631Y020021D01*
X035633Y020031D01*
X035635Y020062D01*
X035638Y020163D01*
X035638Y020196D01*
X036031D01*
X036041Y020010D01*
D02*
G37*
%LPC*%
G36*
X034941Y023025D02*
Y022933D01*
X035033D01*
X035024Y022949D01*
X035011Y022969D01*
X034994Y022987D01*
X034977Y023003D01*
X034957Y023017D01*
X034941Y023025D01*
D02*
G37*
G36*
X034744D02*
X034728Y023017D01*
X034709Y023003D01*
X034691Y022987D01*
X034674Y022969D01*
X034661Y022949D01*
X034652Y022933D01*
X034744D01*
Y023025D01*
D02*
G37*
G36*
X026476Y022736D02*
X026384D01*
X026393Y022720D01*
X026407Y022701D01*
X026423Y022683D01*
X026441Y022667D01*
X026460Y022653D01*
X026476Y022644D01*
Y022736D01*
D02*
G37*
G36*
X023720D02*
X023628D01*
X023637Y022720D01*
X023651Y022701D01*
X023667Y022683D01*
X023685Y022667D01*
X023705Y022653D01*
X023720Y022644D01*
Y022736D01*
D02*
G37*
G36*
X024010D02*
X023917D01*
Y022644D01*
X023933Y022653D01*
X023953Y022667D01*
X023971Y022683D01*
X023987Y022701D01*
X024001Y022720D01*
X024010Y022736D01*
D02*
G37*
G36*
X032185Y023025D02*
Y022933D01*
X032277D01*
X032269Y022949D01*
X032255Y022969D01*
X032239Y022987D01*
X032221Y023003D01*
X032201Y023017D01*
X032185Y023025D01*
D02*
G37*
G36*
X023917D02*
Y022933D01*
X024010D01*
X024001Y022949D01*
X023987Y022969D01*
X023971Y022987D01*
X023953Y023003D01*
X023933Y023017D01*
X023917Y023025D01*
D02*
G37*
G36*
X026476D02*
X026460Y023017D01*
X026441Y023003D01*
X026423Y022987D01*
X026407Y022969D01*
X026393Y022949D01*
X026384Y022933D01*
X026476D01*
Y023025D01*
D02*
G37*
G36*
X026673D02*
Y022933D01*
X026766D01*
X026757Y022949D01*
X026743Y022969D01*
X026727Y022987D01*
X026709Y023003D01*
X026689Y023017D01*
X026673Y023025D01*
D02*
G37*
G36*
X023720D02*
X023705Y023017D01*
X023685Y023003D01*
X023667Y022987D01*
X023651Y022969D01*
X023637Y022949D01*
X023628Y022933D01*
X023720D01*
Y023025D01*
D02*
G37*
G36*
X032277Y022736D02*
X032185D01*
Y022644D01*
X032201Y022653D01*
X032221Y022667D01*
X032239Y022683D01*
X032255Y022701D01*
X032269Y022720D01*
X032277Y022736D01*
D02*
G37*
G36*
X034744D02*
X034652D01*
X034661Y022720D01*
X034674Y022701D01*
X034691Y022683D01*
X034709Y022667D01*
X034728Y022653D01*
X034744Y022644D01*
Y022736D01*
D02*
G37*
G36*
X035033D02*
X034941D01*
Y022644D01*
X034957Y022653D01*
X034977Y022667D01*
X034994Y022683D01*
X035011Y022701D01*
X035024Y022720D01*
X035033Y022736D01*
D02*
G37*
G36*
X029232Y023025D02*
X029216Y023017D01*
X029197Y023003D01*
X029179Y022987D01*
X029163Y022969D01*
X029149Y022949D01*
X029140Y022933D01*
X029232D01*
Y023025D01*
D02*
G37*
G36*
X029429D02*
Y022933D01*
X029521D01*
X029513Y022949D01*
X029499Y022969D01*
X029483Y022987D01*
X029465Y023003D01*
X029445Y023017D01*
X029429Y023025D01*
D02*
G37*
G36*
X031988D02*
X031972Y023017D01*
X031953Y023003D01*
X031935Y022987D01*
X031919Y022969D01*
X031905Y022949D01*
X031896Y022933D01*
X031988D01*
Y023025D01*
D02*
G37*
G36*
X026766Y022736D02*
X026673D01*
Y022644D01*
X026689Y022653D01*
X026709Y022667D01*
X026727Y022683D01*
X026743Y022701D01*
X026757Y022720D01*
X026766Y022736D01*
D02*
G37*
G36*
X031988D02*
X031896D01*
X031905Y022720D01*
X031919Y022701D01*
X031935Y022683D01*
X031953Y022667D01*
X031972Y022653D01*
X031988Y022644D01*
Y022736D01*
D02*
G37*
G36*
X029521D02*
X029429D01*
Y022644D01*
X029445Y022653D01*
X029465Y022667D01*
X029483Y022683D01*
X029499Y022701D01*
X029513Y022720D01*
X029521Y022736D01*
D02*
G37*
G36*
X029232D02*
X029140D01*
X029149Y022720D01*
X029163Y022701D01*
X029179Y022683D01*
X029197Y022667D01*
X029216Y022653D01*
X029232Y022644D01*
Y022736D01*
D02*
G37*
G36*
X026673Y031293D02*
Y031201D01*
X026766D01*
X026757Y031217D01*
X026743Y031236D01*
X026727Y031254D01*
X026709Y031270D01*
X026689Y031284D01*
X026673Y031293D01*
D02*
G37*
G36*
X029232D02*
X029216Y031284D01*
X029197Y031270D01*
X029179Y031254D01*
X029163Y031236D01*
X029149Y031217D01*
X029140Y031201D01*
X029232D01*
Y031293D01*
D02*
G37*
G36*
X026476D02*
X026460Y031284D01*
X026441Y031270D01*
X026423Y031254D01*
X026407Y031236D01*
X026393Y031217D01*
X026384Y031201D01*
X026476D01*
Y031293D01*
D02*
G37*
G36*
X023720D02*
X023705Y031284D01*
X023685Y031270D01*
X023667Y031254D01*
X023651Y031236D01*
X023637Y031217D01*
X023628Y031201D01*
X023720D01*
Y031293D01*
D02*
G37*
G36*
X023917D02*
Y031201D01*
X024010D01*
X024001Y031217D01*
X023987Y031236D01*
X023971Y031254D01*
X023953Y031270D01*
X023933Y031284D01*
X023917Y031293D01*
D02*
G37*
G36*
X034744D02*
X034728Y031284D01*
X034709Y031270D01*
X034691Y031254D01*
X034674Y031236D01*
X034661Y031217D01*
X034652Y031201D01*
X034744D01*
Y031293D01*
D02*
G37*
G36*
X034941D02*
Y031201D01*
X035033D01*
X035024Y031217D01*
X035011Y031236D01*
X034994Y031254D01*
X034977Y031270D01*
X034957Y031284D01*
X034941Y031293D01*
D02*
G37*
G36*
X032185D02*
Y031201D01*
X032277D01*
X032269Y031217D01*
X032255Y031236D01*
X032239Y031254D01*
X032221Y031270D01*
X032201Y031284D01*
X032185Y031293D01*
D02*
G37*
G36*
X029429D02*
Y031201D01*
X029521D01*
X029513Y031217D01*
X029499Y031236D01*
X029483Y031254D01*
X029465Y031270D01*
X029445Y031284D01*
X029429Y031293D01*
D02*
G37*
G36*
X031988D02*
X031972Y031284D01*
X031953Y031270D01*
X031935Y031254D01*
X031919Y031236D01*
X031905Y031217D01*
X031896Y031201D01*
X031988D01*
Y031293D01*
D02*
G37*
G36*
X026766Y031004D02*
X026673D01*
Y030912D01*
X026689Y030920D01*
X026709Y030934D01*
X026727Y030950D01*
X026743Y030968D01*
X026757Y030988D01*
X026766Y031004D01*
D02*
G37*
G36*
X029232D02*
X029140D01*
X029149Y030988D01*
X029163Y030968D01*
X029179Y030950D01*
X029197Y030934D01*
X029216Y030920D01*
X029232Y030912D01*
Y031004D01*
D02*
G37*
G36*
X026476D02*
X026384D01*
X026393Y030988D01*
X026407Y030968D01*
X026423Y030950D01*
X026441Y030934D01*
X026460Y030920D01*
X026476Y030912D01*
Y031004D01*
D02*
G37*
G36*
X023720D02*
X023628D01*
X023637Y030988D01*
X023651Y030968D01*
X023667Y030950D01*
X023685Y030934D01*
X023705Y030920D01*
X023720Y030912D01*
Y031004D01*
D02*
G37*
G36*
X024010D02*
X023917D01*
Y030912D01*
X023933Y030920D01*
X023953Y030934D01*
X023971Y030950D01*
X023987Y030968D01*
X024001Y030988D01*
X024010Y031004D01*
D02*
G37*
G36*
X034744D02*
X034652D01*
X034661Y030988D01*
X034674Y030968D01*
X034691Y030950D01*
X034709Y030934D01*
X034728Y030920D01*
X034744Y030912D01*
Y031004D01*
D02*
G37*
G36*
X035033D02*
X034941D01*
Y030912D01*
X034957Y030920D01*
X034977Y030934D01*
X034994Y030950D01*
X035011Y030968D01*
X035024Y030988D01*
X035033Y031004D01*
D02*
G37*
G36*
X032277D02*
X032185D01*
Y030912D01*
X032201Y030920D01*
X032221Y030934D01*
X032239Y030950D01*
X032255Y030968D01*
X032269Y030988D01*
X032277Y031004D01*
D02*
G37*
G36*
X029521D02*
X029429D01*
Y030912D01*
X029445Y030920D01*
X029465Y030934D01*
X029483Y030950D01*
X029499Y030968D01*
X029513Y030988D01*
X029521Y031004D01*
D02*
G37*
G36*
X031988D02*
X031896D01*
X031905Y030988D01*
X031919Y030968D01*
X031935Y030950D01*
X031953Y030934D01*
X031972Y030920D01*
X031988Y030912D01*
Y031004D01*
D02*
G37*
G36*
X026673Y034049D02*
Y033957D01*
X026766D01*
X026757Y033973D01*
X026743Y033992D01*
X026727Y034010D01*
X026709Y034026D01*
X026689Y034040D01*
X026673Y034049D01*
D02*
G37*
G36*
X029232D02*
X029216Y034040D01*
X029197Y034026D01*
X029179Y034010D01*
X029163Y033992D01*
X029149Y033973D01*
X029140Y033957D01*
X029232D01*
Y034049D01*
D02*
G37*
G36*
X026476D02*
X026460Y034040D01*
X026441Y034026D01*
X026423Y034010D01*
X026407Y033992D01*
X026393Y033973D01*
X026384Y033957D01*
X026476D01*
Y034049D01*
D02*
G37*
G36*
X023720D02*
X023705Y034040D01*
X023685Y034026D01*
X023667Y034010D01*
X023651Y033992D01*
X023637Y033973D01*
X023628Y033957D01*
X023720D01*
Y034049D01*
D02*
G37*
G36*
X023917D02*
Y033957D01*
X024010D01*
X024001Y033973D01*
X023987Y033992D01*
X023971Y034010D01*
X023953Y034026D01*
X023933Y034040D01*
X023917Y034049D01*
D02*
G37*
G36*
X034744D02*
X034728Y034040D01*
X034709Y034026D01*
X034691Y034010D01*
X034674Y033992D01*
X034661Y033973D01*
X034652Y033957D01*
X034744D01*
Y034049D01*
D02*
G37*
G36*
X034941D02*
Y033957D01*
X035033D01*
X035024Y033973D01*
X035011Y033992D01*
X034994Y034010D01*
X034977Y034026D01*
X034957Y034040D01*
X034941Y034049D01*
D02*
G37*
G36*
X032185D02*
Y033957D01*
X032277D01*
X032269Y033973D01*
X032255Y033992D01*
X032239Y034010D01*
X032221Y034026D01*
X032201Y034040D01*
X032185Y034049D01*
D02*
G37*
G36*
X029429D02*
Y033957D01*
X029521D01*
X029513Y033973D01*
X029499Y033992D01*
X029483Y034010D01*
X029465Y034026D01*
X029445Y034040D01*
X029429Y034049D01*
D02*
G37*
G36*
X031988D02*
X031972Y034040D01*
X031953Y034026D01*
X031935Y034010D01*
X031919Y033992D01*
X031905Y033973D01*
X031896Y033957D01*
X031988D01*
Y034049D01*
D02*
G37*
G36*
X026766Y033760D02*
X026673D01*
Y033668D01*
X026689Y033676D01*
X026709Y033690D01*
X026727Y033706D01*
X026743Y033724D01*
X026757Y033744D01*
X026766Y033760D01*
D02*
G37*
G36*
X029232D02*
X029140D01*
X029149Y033744D01*
X029163Y033724D01*
X029179Y033706D01*
X029197Y033690D01*
X029216Y033676D01*
X029232Y033668D01*
Y033760D01*
D02*
G37*
G36*
X026476D02*
X026384D01*
X026393Y033744D01*
X026407Y033724D01*
X026423Y033706D01*
X026441Y033690D01*
X026460Y033676D01*
X026476Y033668D01*
Y033760D01*
D02*
G37*
G36*
X023720D02*
X023628D01*
X023637Y033744D01*
X023651Y033724D01*
X023667Y033706D01*
X023685Y033690D01*
X023705Y033676D01*
X023720Y033668D01*
Y033760D01*
D02*
G37*
G36*
X024010D02*
X023917D01*
Y033668D01*
X023933Y033676D01*
X023953Y033690D01*
X023971Y033706D01*
X023987Y033724D01*
X024001Y033744D01*
X024010Y033760D01*
D02*
G37*
G36*
X034744D02*
X034652D01*
X034661Y033744D01*
X034674Y033724D01*
X034691Y033706D01*
X034709Y033690D01*
X034728Y033676D01*
X034744Y033668D01*
Y033760D01*
D02*
G37*
G36*
X035033D02*
X034941D01*
Y033668D01*
X034957Y033676D01*
X034977Y033690D01*
X034994Y033706D01*
X035011Y033724D01*
X035024Y033744D01*
X035033Y033760D01*
D02*
G37*
G36*
X032277D02*
X032185D01*
Y033668D01*
X032201Y033676D01*
X032221Y033690D01*
X032239Y033706D01*
X032255Y033724D01*
X032269Y033744D01*
X032277Y033760D01*
D02*
G37*
G36*
X029521D02*
X029429D01*
Y033668D01*
X029445Y033676D01*
X029465Y033690D01*
X029483Y033706D01*
X029499Y033724D01*
X029513Y033744D01*
X029521Y033760D01*
D02*
G37*
G36*
X031988D02*
X031896D01*
X031905Y033744D01*
X031919Y033724D01*
X031935Y033706D01*
X031953Y033690D01*
X031972Y033676D01*
X031988Y033668D01*
Y033760D01*
D02*
G37*
G36*
X029429Y025781D02*
Y025689D01*
X029521D01*
X029513Y025705D01*
X029499Y025725D01*
X029483Y025743D01*
X029465Y025759D01*
X029445Y025773D01*
X029429Y025781D01*
D02*
G37*
G36*
X031988D02*
X031972Y025773D01*
X031953Y025759D01*
X031935Y025743D01*
X031919Y025725D01*
X031905Y025705D01*
X031896Y025689D01*
X031988D01*
Y025781D01*
D02*
G37*
G36*
X029232D02*
X029216Y025773D01*
X029197Y025759D01*
X029179Y025743D01*
X029163Y025725D01*
X029149Y025705D01*
X029140Y025689D01*
X029232D01*
Y025781D01*
D02*
G37*
G36*
X026476D02*
X026460Y025773D01*
X026441Y025759D01*
X026423Y025743D01*
X026407Y025725D01*
X026393Y025705D01*
X026384Y025689D01*
X026476D01*
Y025781D01*
D02*
G37*
G36*
X026673D02*
Y025689D01*
X026766D01*
X026757Y025705D01*
X026743Y025725D01*
X026727Y025743D01*
X026709Y025759D01*
X026689Y025773D01*
X026673Y025781D01*
D02*
G37*
G36*
X034744Y025781D02*
X034728Y025773D01*
X034709Y025759D01*
X034691Y025743D01*
X034674Y025725D01*
X034661Y025705D01*
X034652Y025689D01*
X034744D01*
Y025781D01*
D02*
G37*
G36*
X034941D02*
Y025689D01*
X035033D01*
X035024Y025705D01*
X035011Y025725D01*
X034994Y025743D01*
X034977Y025759D01*
X034957Y025773D01*
X034941Y025781D01*
D02*
G37*
G36*
X023917D02*
Y025689D01*
X024010D01*
X024001Y025705D01*
X023987Y025725D01*
X023971Y025743D01*
X023953Y025759D01*
X023933Y025773D01*
X023917Y025781D01*
D02*
G37*
G36*
X032185Y025781D02*
Y025689D01*
X032277D01*
X032269Y025705D01*
X032255Y025725D01*
X032239Y025743D01*
X032221Y025759D01*
X032201Y025773D01*
X032185Y025781D01*
D02*
G37*
G36*
X023720Y025781D02*
X023705Y025773D01*
X023685Y025759D01*
X023667Y025743D01*
X023651Y025725D01*
X023637Y025705D01*
X023628Y025689D01*
X023720D01*
Y025781D01*
D02*
G37*
G36*
X029521Y025492D02*
X029429D01*
Y025400D01*
X029445Y025409D01*
X029465Y025423D01*
X029483Y025439D01*
X029499Y025457D01*
X029513Y025476D01*
X029521Y025492D01*
D02*
G37*
G36*
X031988D02*
X031896D01*
X031905Y025476D01*
X031919Y025457D01*
X031935Y025439D01*
X031953Y025423D01*
X031972Y025409D01*
X031988Y025400D01*
Y025492D01*
D02*
G37*
G36*
X029232D02*
X029140D01*
X029149Y025476D01*
X029163Y025457D01*
X029179Y025439D01*
X029197Y025423D01*
X029216Y025409D01*
X029232Y025400D01*
Y025492D01*
D02*
G37*
G36*
X026476D02*
X026384D01*
X026393Y025476D01*
X026407Y025457D01*
X026423Y025439D01*
X026441Y025423D01*
X026460Y025409D01*
X026476Y025400D01*
Y025492D01*
D02*
G37*
G36*
X026766D02*
X026673D01*
Y025400D01*
X026689Y025409D01*
X026709Y025423D01*
X026727Y025439D01*
X026743Y025457D01*
X026757Y025476D01*
X026766Y025492D01*
D02*
G37*
G36*
X034744Y025492D02*
X034652D01*
X034661Y025476D01*
X034674Y025457D01*
X034691Y025439D01*
X034709Y025423D01*
X034728Y025409D01*
X034744Y025400D01*
Y025492D01*
D02*
G37*
G36*
X035033D02*
X034941D01*
Y025400D01*
X034957Y025409D01*
X034977Y025423D01*
X034994Y025439D01*
X035011Y025457D01*
X035024Y025476D01*
X035033Y025492D01*
D02*
G37*
G36*
X024010D02*
X023917D01*
Y025400D01*
X023933Y025409D01*
X023953Y025423D01*
X023971Y025439D01*
X023987Y025457D01*
X024001Y025476D01*
X024010Y025492D01*
D02*
G37*
G36*
X032277Y025492D02*
X032185D01*
Y025400D01*
X032201Y025409D01*
X032221Y025423D01*
X032239Y025439D01*
X032255Y025457D01*
X032269Y025476D01*
X032277Y025492D01*
D02*
G37*
G36*
X023720Y025492D02*
X023628D01*
X023637Y025476D01*
X023651Y025457D01*
X023667Y025439D01*
X023685Y025423D01*
X023705Y025409D01*
X023720Y025400D01*
Y025492D01*
D02*
G37*
G36*
X026673Y028537D02*
Y028445D01*
X026766D01*
X026757Y028461D01*
X026743Y028480D01*
X026727Y028498D01*
X026709Y028514D01*
X026689Y028528D01*
X026673Y028537D01*
D02*
G37*
G36*
X029232D02*
X029216Y028528D01*
X029197Y028514D01*
X029179Y028498D01*
X029163Y028480D01*
X029149Y028461D01*
X029140Y028445D01*
X029232D01*
Y028537D01*
D02*
G37*
G36*
X026476D02*
X026460Y028528D01*
X026441Y028514D01*
X026423Y028498D01*
X026407Y028480D01*
X026393Y028461D01*
X026384Y028445D01*
X026476D01*
Y028537D01*
D02*
G37*
G36*
X023720D02*
X023705Y028528D01*
X023685Y028514D01*
X023667Y028498D01*
X023651Y028480D01*
X023637Y028461D01*
X023628Y028445D01*
X023720D01*
Y028537D01*
D02*
G37*
G36*
X023917D02*
Y028445D01*
X024010D01*
X024001Y028461D01*
X023987Y028480D01*
X023971Y028498D01*
X023953Y028514D01*
X023933Y028528D01*
X023917Y028537D01*
D02*
G37*
G36*
X034744D02*
X034728Y028528D01*
X034709Y028514D01*
X034691Y028498D01*
X034674Y028480D01*
X034661Y028461D01*
X034652Y028445D01*
X034744D01*
Y028537D01*
D02*
G37*
G36*
X034941D02*
Y028445D01*
X035033D01*
X035024Y028461D01*
X035011Y028480D01*
X034994Y028498D01*
X034977Y028514D01*
X034957Y028528D01*
X034941Y028537D01*
D02*
G37*
G36*
X032185D02*
Y028445D01*
X032277D01*
X032269Y028461D01*
X032255Y028480D01*
X032239Y028498D01*
X032221Y028514D01*
X032201Y028528D01*
X032185Y028537D01*
D02*
G37*
G36*
X029429D02*
Y028445D01*
X029521D01*
X029513Y028461D01*
X029499Y028480D01*
X029483Y028498D01*
X029465Y028514D01*
X029445Y028528D01*
X029429Y028537D01*
D02*
G37*
G36*
X031988D02*
X031972Y028528D01*
X031953Y028514D01*
X031935Y028498D01*
X031919Y028480D01*
X031905Y028461D01*
X031896Y028445D01*
X031988D01*
Y028537D01*
D02*
G37*
G36*
X026766Y028248D02*
X026673D01*
Y028156D01*
X026689Y028164D01*
X026709Y028178D01*
X026727Y028194D01*
X026743Y028212D01*
X026757Y028232D01*
X026766Y028248D01*
D02*
G37*
G36*
X029232D02*
X029140D01*
X029149Y028232D01*
X029163Y028212D01*
X029179Y028194D01*
X029197Y028178D01*
X029216Y028164D01*
X029232Y028156D01*
Y028248D01*
D02*
G37*
G36*
X026476D02*
X026384D01*
X026393Y028232D01*
X026407Y028212D01*
X026423Y028194D01*
X026441Y028178D01*
X026460Y028164D01*
X026476Y028156D01*
Y028248D01*
D02*
G37*
G36*
X023720D02*
X023628D01*
X023637Y028232D01*
X023651Y028212D01*
X023667Y028194D01*
X023685Y028178D01*
X023705Y028164D01*
X023720Y028156D01*
Y028248D01*
D02*
G37*
G36*
X024010D02*
X023917D01*
Y028156D01*
X023933Y028164D01*
X023953Y028178D01*
X023971Y028194D01*
X023987Y028212D01*
X024001Y028232D01*
X024010Y028248D01*
D02*
G37*
G36*
X034744D02*
X034652D01*
X034661Y028232D01*
X034674Y028212D01*
X034691Y028194D01*
X034709Y028178D01*
X034728Y028164D01*
X034744Y028156D01*
Y028248D01*
D02*
G37*
G36*
X035033D02*
X034941D01*
Y028156D01*
X034957Y028164D01*
X034977Y028178D01*
X034994Y028194D01*
X035011Y028212D01*
X035024Y028232D01*
X035033Y028248D01*
D02*
G37*
G36*
X032277D02*
X032185D01*
Y028156D01*
X032201Y028164D01*
X032221Y028178D01*
X032239Y028194D01*
X032255Y028212D01*
X032269Y028232D01*
X032277Y028248D01*
D02*
G37*
G36*
X029521D02*
X029429D01*
Y028156D01*
X029445Y028164D01*
X029465Y028178D01*
X029483Y028194D01*
X029499Y028212D01*
X029513Y028232D01*
X029521Y028248D01*
D02*
G37*
G36*
X031988D02*
X031896D01*
X031905Y028232D01*
X031919Y028212D01*
X031935Y028194D01*
X031953Y028178D01*
X031972Y028164D01*
X031988Y028156D01*
Y028248D01*
D02*
G37*
%LPD*%
D13*
X020374Y019193D02*
D03*
Y037500D02*
D03*
D14*
X022835Y022843D02*
Y036894D01*
X023819Y034850D02*
X037780D01*
X019685Y025843D02*
X020685D01*
X019685Y021843D02*
X020685D01*
X034843D01*
X035835Y018799D02*
Y019799D01*
Y033850D01*
D16*
X020685Y021843D02*
D03*
X019685D02*
D03*
X020685Y022843D02*
D03*
X019685D02*
D03*
X020685Y023843D02*
D03*
X019685D02*
D03*
X020685Y024843D02*
D03*
X019685D02*
D03*
X020685Y025843D02*
D03*
X019685D02*
D03*
X020685Y026843D02*
D03*
X019685D02*
D03*
X020685Y027843D02*
D03*
X019685D02*
D03*
X020685Y028843D02*
D03*
X019685D02*
D03*
X020685Y029843D02*
D03*
X019685D02*
D03*
X020685Y030843D02*
D03*
X019685D02*
D03*
X020685Y031843D02*
D03*
X019685D02*
D03*
X020685Y032843D02*
D03*
X019685D02*
D03*
X020685Y033843D02*
D03*
X019685D02*
D03*
X020685Y034843D02*
D03*
X035835Y019799D02*
D03*
Y018799D02*
D03*
X034835Y019799D02*
D03*
Y018799D02*
D03*
X033835Y019799D02*
D03*
Y018799D02*
D03*
X032835Y019799D02*
D03*
Y018799D02*
D03*
X031835Y019799D02*
D03*
Y018799D02*
D03*
X030835Y019799D02*
D03*
Y018799D02*
D03*
X029835Y019799D02*
D03*
Y018799D02*
D03*
X028835Y019799D02*
D03*
Y018799D02*
D03*
X027835Y019799D02*
D03*
Y018799D02*
D03*
X026835Y019799D02*
D03*
Y018799D02*
D03*
X025835Y019799D02*
D03*
Y018799D02*
D03*
X024835Y019799D02*
D03*
Y018799D02*
D03*
X023835Y019799D02*
D03*
Y018799D02*
D03*
X022835Y019799D02*
D03*
X037780Y034850D02*
D03*
X038780D02*
D03*
X037780Y033850D02*
D03*
X038780D02*
D03*
X037780Y032850D02*
D03*
X038780D02*
D03*
X037780Y031850D02*
D03*
X038780D02*
D03*
X037780Y030850D02*
D03*
X038780D02*
D03*
X037780Y029850D02*
D03*
X038780D02*
D03*
X037780Y028850D02*
D03*
X038780D02*
D03*
X037780Y027850D02*
D03*
X038780D02*
D03*
X037780Y026850D02*
D03*
X038780D02*
D03*
X037780Y025850D02*
D03*
X038780D02*
D03*
X037780Y024850D02*
D03*
X038780D02*
D03*
X037780Y023850D02*
D03*
X038780D02*
D03*
X037780Y022850D02*
D03*
X038780D02*
D03*
X037780Y021850D02*
D03*
X022835Y036894D02*
D03*
Y037894D02*
D03*
X023835Y036894D02*
D03*
Y037894D02*
D03*
X024835Y036894D02*
D03*
Y037894D02*
D03*
X025835Y036894D02*
D03*
Y037894D02*
D03*
X026835Y036894D02*
D03*
Y037894D02*
D03*
X027835Y036894D02*
D03*
Y037894D02*
D03*
X028835Y036894D02*
D03*
Y037894D02*
D03*
X029835Y036894D02*
D03*
Y037894D02*
D03*
X030835Y036894D02*
D03*
Y037894D02*
D03*
X031835Y036894D02*
D03*
Y037894D02*
D03*
X032835Y036894D02*
D03*
Y037894D02*
D03*
X033835Y036894D02*
D03*
Y037894D02*
D03*
X034835Y036894D02*
D03*
Y037894D02*
D03*
X035835Y036894D02*
D03*
D17*
X019685Y034843D02*
D03*
X038780Y021850D02*
D03*
D18*
X038583Y037795D02*
D03*
Y018898D02*
D03*
D19*
X022835Y018799D02*
D03*
X035835Y037894D02*
D03*
D20*
X023819Y022835D02*
D03*
X026575D02*
D03*
X029331D02*
D03*
X032087D02*
D03*
X034843D02*
D03*
X023819Y025591D02*
D03*
X026575Y025591D02*
D03*
X029331D02*
D03*
X032087D02*
D03*
X034843Y025591D02*
D03*
Y028346D02*
D03*
X032087D02*
D03*
X029331D02*
D03*
X026575D02*
D03*
X023819D02*
D03*
X034843Y031102D02*
D03*
X032087D02*
D03*
X029331D02*
D03*
X026575D02*
D03*
X023819D02*
D03*
Y033858D02*
D03*
X026575D02*
D03*
X029331D02*
D03*
X032087D02*
D03*
X034843D02*
D03*
M02*
