G04 Layer_Color=2752767*
%FSAX44Y44*%
%MOMM*%
G71*
G01*
G75*
%ADD34C,0.0508*%
%ADD35C,0.0677*%
D34*
X00497968Y00017968D02*
Y00022032D01*
X00502032D01*
Y00017968D01*
X00497968D01*
Y00497968D02*
Y00502032D01*
X00502032D01*
Y00497968D01*
X00497968D01*
X00125000Y00117968D02*
X00122968Y00122032D01*
X00127032D01*
X00125000Y00117968D01*
X00195000D02*
X00192968Y00122032D01*
X00197032D01*
X00195000Y00117968D01*
X00265000D02*
X00262968Y00122032D01*
X00267032D01*
X00265000Y00117968D01*
X00335000D02*
X00332968Y00122032D01*
X00337032D01*
X00335000Y00117968D01*
X00405000D02*
X00402968Y00122032D01*
X00407032D01*
X00405000Y00117968D01*
X00125000Y00187968D02*
X00122968Y00192032D01*
X00127032D01*
X00125000Y00187968D01*
X00195000Y00187968D02*
X00192968Y00192032D01*
X00197032D01*
X00195000Y00187968D01*
X00265000D02*
X00262968Y00192032D01*
X00267032D01*
X00265000Y00187968D01*
X00335000D02*
X00332968Y00192032D01*
X00337032D01*
X00335000Y00187968D01*
X00405000Y00187968D02*
X00402968Y00192032D01*
X00407032D01*
X00405000Y00187968D01*
Y00257968D02*
X00402968Y00262032D01*
X00407032D01*
X00405000Y00257968D01*
X00335000D02*
X00332968Y00262032D01*
X00337032D01*
X00335000Y00257968D01*
X00265000D02*
X00262968Y00262032D01*
X00267032D01*
X00265000Y00257968D01*
X00195000D02*
X00192968Y00262032D01*
X00197032D01*
X00195000Y00257968D01*
X00125000D02*
X00122968Y00262032D01*
X00127032D01*
X00125000Y00257968D01*
X00405000Y00327968D02*
X00402968Y00332032D01*
X00407032D01*
X00405000Y00327968D01*
X00335000D02*
X00332968Y00332032D01*
X00337032D01*
X00335000Y00327968D01*
X00265000D02*
X00262968Y00332032D01*
X00267032D01*
X00265000Y00327968D01*
X00195000D02*
X00192968Y00332032D01*
X00197032D01*
X00195000Y00327968D01*
X00125000D02*
X00122968Y00332032D01*
X00127032D01*
X00125000Y00327968D01*
Y00397968D02*
X00122968Y00402032D01*
X00127032D01*
X00125000Y00397968D01*
X00195000D02*
X00192968Y00402032D01*
X00197032D01*
X00195000Y00397968D01*
X00265000D02*
X00262968Y00402032D01*
X00267032D01*
X00265000Y00397968D01*
X00335000D02*
X00332968Y00402032D01*
X00337032D01*
X00335000Y00397968D01*
X00405000D02*
X00402968Y00402032D01*
X00407032D01*
X00405000Y00397968D01*
D35*
X00047432Y00094800D02*
G03*
X00047432Y00094800I-00002032J00000000D01*
G01*
X00022032D02*
G03*
X00022032Y00094800I-00002032J00000000D01*
G01*
X00047432Y00120200D02*
G03*
X00047432Y00120200I-00002032J00000000D01*
G01*
X00022032D02*
G03*
X00022032Y00120200I-00002032J00000000D01*
G01*
X00047432Y00145600D02*
G03*
X00047432Y00145600I-00002032J00000000D01*
G01*
X00022032D02*
G03*
X00022032Y00145600I-00002032J00000000D01*
G01*
X00047432Y00171000D02*
G03*
X00047432Y00171000I-00002032J00000000D01*
G01*
X00022032D02*
G03*
X00022032Y00171000I-00002032J00000000D01*
G01*
X00047432Y00196400D02*
G03*
X00047432Y00196400I-00002032J00000000D01*
G01*
X00022032D02*
G03*
X00022032Y00196400I-00002032J00000000D01*
G01*
X00047432Y00221800D02*
G03*
X00047432Y00221800I-00002032J00000000D01*
G01*
X00022032D02*
G03*
X00022032Y00221800I-00002032J00000000D01*
G01*
X00047432Y00247200D02*
G03*
X00047432Y00247200I-00002032J00000000D01*
G01*
X00022032D02*
G03*
X00022032Y00247200I-00002032J00000000D01*
G01*
X00047432Y00272600D02*
G03*
X00047432Y00272600I-00002032J00000000D01*
G01*
X00022032D02*
G03*
X00022032Y00272600I-00002032J00000000D01*
G01*
X00047432Y00298000D02*
G03*
X00047432Y00298000I-00002032J00000000D01*
G01*
X00022032D02*
G03*
X00022032Y00298000I-00002032J00000000D01*
G01*
X00047432Y00323400D02*
G03*
X00047432Y00323400I-00002032J00000000D01*
G01*
X00022032D02*
G03*
X00022032Y00323400I-00002032J00000000D01*
G01*
X00047432Y00348800D02*
G03*
X00047432Y00348800I-00002032J00000000D01*
G01*
X00022032D02*
G03*
X00022032Y00348800I-00002032J00000000D01*
G01*
X00047432Y00374200D02*
G03*
X00047432Y00374200I-00002032J00000000D01*
G01*
X00022032D02*
G03*
X00022032Y00374200I-00002032J00000000D01*
G01*
X00047432Y00399600D02*
G03*
X00047432Y00399600I-00002032J00000000D01*
G01*
X00022032D02*
G03*
X00022032Y00399600I-00002032J00000000D01*
G01*
X00047432Y00425000D02*
G03*
X00047432Y00425000I-00002032J00000000D01*
G01*
X00022032D02*
G03*
X00022032Y00425000I-00002032J00000000D01*
G01*
X00102032Y00477100D02*
G03*
X00102032Y00477100I-00002032J00000000D01*
G01*
Y00502500D02*
G03*
X00102032Y00502500I-00002032J00000000D01*
G01*
X00127432Y00477100D02*
G03*
X00127432Y00477100I-00002032J00000000D01*
G01*
Y00502500D02*
G03*
X00127432Y00502500I-00002032J00000000D01*
G01*
X00152832Y00477100D02*
G03*
X00152832Y00477100I-00002032J00000000D01*
G01*
Y00502500D02*
G03*
X00152832Y00502500I-00002032J00000000D01*
G01*
X00178232Y00477100D02*
G03*
X00178232Y00477100I-00002032J00000000D01*
G01*
Y00502500D02*
G03*
X00178232Y00502500I-00002032J00000000D01*
G01*
X00203632Y00477100D02*
G03*
X00203632Y00477100I-00002032J00000000D01*
G01*
Y00502500D02*
G03*
X00203632Y00502500I-00002032J00000000D01*
G01*
X00229032Y00477100D02*
G03*
X00229032Y00477100I-00002032J00000000D01*
G01*
Y00502500D02*
G03*
X00229032Y00502500I-00002032J00000000D01*
G01*
X00254432Y00477100D02*
G03*
X00254432Y00477100I-00002032J00000000D01*
G01*
Y00502500D02*
G03*
X00254432Y00502500I-00002032J00000000D01*
G01*
X00279832Y00477100D02*
G03*
X00279832Y00477100I-00002032J00000000D01*
G01*
Y00502500D02*
G03*
X00279832Y00502500I-00002032J00000000D01*
G01*
X00305232Y00477100D02*
G03*
X00305232Y00477100I-00002032J00000000D01*
G01*
Y00502500D02*
G03*
X00305232Y00502500I-00002032J00000000D01*
G01*
X00330632Y00477100D02*
G03*
X00330632Y00477100I-00002032J00000000D01*
G01*
Y00502500D02*
G03*
X00330632Y00502500I-00002032J00000000D01*
G01*
X00356032Y00477100D02*
G03*
X00356032Y00477100I-00002032J00000000D01*
G01*
Y00502500D02*
G03*
X00356032Y00502500I-00002032J00000000D01*
G01*
X00381432Y00477100D02*
G03*
X00381432Y00477100I-00002032J00000000D01*
G01*
Y00502500D02*
G03*
X00381432Y00502500I-00002032J00000000D01*
G01*
X00406832Y00477100D02*
G03*
X00406832Y00477100I-00002032J00000000D01*
G01*
Y00502500D02*
G03*
X00406832Y00502500I-00002032J00000000D01*
G01*
X00432232Y00477100D02*
G03*
X00432232Y00477100I-00002032J00000000D01*
G01*
Y00502500D02*
G03*
X00432232Y00502500I-00002032J00000000D01*
G01*
X00481632Y00425200D02*
G03*
X00481632Y00425200I-00002032J00000000D01*
G01*
X00507032D02*
G03*
X00507032Y00425200I-00002032J00000000D01*
G01*
X00481632Y00399800D02*
G03*
X00481632Y00399800I-00002032J00000000D01*
G01*
X00507032D02*
G03*
X00507032Y00399800I-00002032J00000000D01*
G01*
X00481632Y00374400D02*
G03*
X00481632Y00374400I-00002032J00000000D01*
G01*
X00507032D02*
G03*
X00507032Y00374400I-00002032J00000000D01*
G01*
X00481632Y00349000D02*
G03*
X00481632Y00349000I-00002032J00000000D01*
G01*
X00507032D02*
G03*
X00507032Y00349000I-00002032J00000000D01*
G01*
X00481632Y00323600D02*
G03*
X00481632Y00323600I-00002032J00000000D01*
G01*
X00507032D02*
G03*
X00507032Y00323600I-00002032J00000000D01*
G01*
X00481632Y00298200D02*
G03*
X00481632Y00298200I-00002032J00000000D01*
G01*
X00507032D02*
G03*
X00507032Y00298200I-00002032J00000000D01*
G01*
X00481632Y00272800D02*
G03*
X00481632Y00272800I-00002032J00000000D01*
G01*
X00507032D02*
G03*
X00507032Y00272800I-00002032J00000000D01*
G01*
X00481632Y00247400D02*
G03*
X00481632Y00247400I-00002032J00000000D01*
G01*
X00507032D02*
G03*
X00507032Y00247400I-00002032J00000000D01*
G01*
X00481632Y00222000D02*
G03*
X00481632Y00222000I-00002032J00000000D01*
G01*
X00507032D02*
G03*
X00507032Y00222000I-00002032J00000000D01*
G01*
X00481632Y00196600D02*
G03*
X00481632Y00196600I-00002032J00000000D01*
G01*
X00507032D02*
G03*
X00507032Y00196600I-00002032J00000000D01*
G01*
X00481632Y00171200D02*
G03*
X00481632Y00171200I-00002032J00000000D01*
G01*
X00507032D02*
G03*
X00507032Y00171200I-00002032J00000000D01*
G01*
X00481632Y00145800D02*
G03*
X00481632Y00145800I-00002032J00000000D01*
G01*
X00507032D02*
G03*
X00507032Y00145800I-00002032J00000000D01*
G01*
X00481632Y00120400D02*
G03*
X00481632Y00120400I-00002032J00000000D01*
G01*
X00507032D02*
G03*
X00507032Y00120400I-00002032J00000000D01*
G01*
X00481632Y00095000D02*
G03*
X00481632Y00095000I-00002032J00000000D01*
G01*
X00507032D02*
G03*
X00507032Y00095000I-00002032J00000000D01*
G01*
X00432232Y00042900D02*
G03*
X00432232Y00042900I-00002032J00000000D01*
G01*
Y00017500D02*
G03*
X00432232Y00017500I-00002032J00000000D01*
G01*
X00406832Y00042900D02*
G03*
X00406832Y00042900I-00002032J00000000D01*
G01*
Y00017500D02*
G03*
X00406832Y00017500I-00002032J00000000D01*
G01*
X00381432Y00042900D02*
G03*
X00381432Y00042900I-00002032J00000000D01*
G01*
Y00017500D02*
G03*
X00381432Y00017500I-00002032J00000000D01*
G01*
X00356032Y00042900D02*
G03*
X00356032Y00042900I-00002032J00000000D01*
G01*
Y00017500D02*
G03*
X00356032Y00017500I-00002032J00000000D01*
G01*
X00330632Y00042900D02*
G03*
X00330632Y00042900I-00002032J00000000D01*
G01*
Y00017500D02*
G03*
X00330632Y00017500I-00002032J00000000D01*
G01*
X00305232Y00042900D02*
G03*
X00305232Y00042900I-00002032J00000000D01*
G01*
Y00017500D02*
G03*
X00305232Y00017500I-00002032J00000000D01*
G01*
X00279832Y00042900D02*
G03*
X00279832Y00042900I-00002032J00000000D01*
G01*
Y00017500D02*
G03*
X00279832Y00017500I-00002032J00000000D01*
G01*
X00254432Y00042900D02*
G03*
X00254432Y00042900I-00002032J00000000D01*
G01*
Y00017500D02*
G03*
X00254432Y00017500I-00002032J00000000D01*
G01*
X00229032Y00042900D02*
G03*
X00229032Y00042900I-00002032J00000000D01*
G01*
Y00017500D02*
G03*
X00229032Y00017500I-00002032J00000000D01*
G01*
X00203632Y00042900D02*
G03*
X00203632Y00042900I-00002032J00000000D01*
G01*
Y00017500D02*
G03*
X00203632Y00017500I-00002032J00000000D01*
G01*
X00178232Y00042900D02*
G03*
X00178232Y00042900I-00002032J00000000D01*
G01*
Y00017500D02*
G03*
X00178232Y00017500I-00002032J00000000D01*
G01*
X00152832Y00042900D02*
G03*
X00152832Y00042900I-00002032J00000000D01*
G01*
Y00017500D02*
G03*
X00152832Y00017500I-00002032J00000000D01*
G01*
X00127432Y00042900D02*
G03*
X00127432Y00042900I-00002032J00000000D01*
G01*
Y00017500D02*
G03*
X00127432Y00017500I-00002032J00000000D01*
G01*
X00102032Y00042900D02*
G03*
X00102032Y00042900I-00002032J00000000D01*
G01*
Y00017500D02*
G03*
X00102032Y00017500I-00002032J00000000D01*
G01*
M02*
