G04 Layer_Color=16711935*
%FSAX24Y24*%
%MOIN*%
G70*
G01*
G75*
%ADD26C,0.1200*%
%ADD27C,0.1438*%
%ADD28C,0.0491*%
%ADD29R,0.0491X0.0491*%
%ADD30R,0.0491X0.0491*%
%ADD31C,0.0010*%
G36*
X022291Y036167D02*
X022303Y036166D01*
X022314Y036165D01*
X022324Y036163D01*
X022334Y036160D01*
X022343Y036158D01*
X022352Y036154D01*
X022359Y036151D01*
X022367Y036149D01*
X022373Y036145D01*
X022378Y036143D01*
X022382Y036140D01*
X022386Y036138D01*
X022388Y036137D01*
X022390Y036136D01*
X022390Y036135D01*
X022399Y036128D01*
X022407Y036121D01*
X022414Y036113D01*
X022420Y036104D01*
X022424Y036096D01*
X022429Y036088D01*
X022432Y036080D01*
X022435Y036072D01*
X022437Y036064D01*
X022438Y036058D01*
X022439Y036052D01*
X022440Y036046D01*
Y036042D01*
X022441Y036038D01*
Y036036D01*
Y036035D01*
X022440Y036028D01*
X022439Y036020D01*
X022438Y036013D01*
X022435Y036007D01*
X022430Y035995D01*
X022424Y035986D01*
X022418Y035978D01*
X022412Y035973D01*
X022410Y035971D01*
X022409Y035969D01*
X022408Y035969D01*
X022407Y035968D01*
X022395Y035961D01*
X022382Y035956D01*
X022369Y035952D01*
X022356Y035949D01*
X022345Y035948D01*
X022340Y035947D01*
X022337D01*
X022333Y035947D01*
X022329D01*
X022318Y035947D01*
X022308Y035949D01*
X022299Y035951D01*
X022292Y035954D01*
X022287Y035956D01*
X022282Y035958D01*
X022279Y035960D01*
X022278Y035961D01*
X022274Y035964D01*
X022271Y035967D01*
X022264Y035974D01*
X022260Y035982D01*
X022257Y035989D01*
X022256Y035995D01*
X022255Y036000D01*
X022254Y036004D01*
Y036005D01*
Y036005D01*
X022256Y036015D01*
X022258Y036023D01*
X022261Y036030D01*
X022264Y036037D01*
X022268Y036042D01*
X022271Y036045D01*
X022273Y036048D01*
X022274Y036048D01*
X022282Y036053D01*
X022289Y036057D01*
X022296Y036060D01*
X022303Y036062D01*
X022309Y036063D01*
X022314Y036064D01*
X022318D01*
X022327Y036063D01*
X022334Y036062D01*
X022342Y036059D01*
X022348Y036057D01*
X022353Y036055D01*
X022356Y036053D01*
X022359Y036051D01*
X022359Y036050D01*
X022366Y036045D01*
X022371Y036039D01*
X022375Y036033D01*
X022378Y036028D01*
X022380Y036023D01*
X022382Y036019D01*
X022383Y036016D01*
Y036015D01*
X022388Y036017D01*
X022391Y036020D01*
X022394Y036024D01*
X022395Y036028D01*
X022397Y036032D01*
X022397Y036035D01*
Y036037D01*
Y036038D01*
X022397Y036044D01*
X022396Y036049D01*
X022393Y036059D01*
X022389Y036067D01*
X022384Y036074D01*
X022379Y036080D01*
X022374Y036085D01*
X022372Y036087D01*
X022371Y036088D01*
X022370D01*
X022361Y036094D01*
X022351Y036099D01*
X022342Y036102D01*
X022333Y036104D01*
X022325Y036105D01*
X022319Y036106D01*
X022175D01*
X022247Y035900D01*
X022252Y035887D01*
X022256Y035875D01*
X022261Y035866D01*
X022264Y035858D01*
X022267Y035852D01*
X022269Y035847D01*
X022270Y035845D01*
X022271Y035844D01*
X022277Y035833D01*
X022284Y035825D01*
X022291Y035817D01*
X022298Y035812D01*
X022303Y035808D01*
X022308Y035806D01*
X022311Y035804D01*
X022312Y035803D01*
X022311Y035807D01*
X022311Y035810D01*
Y035812D01*
Y035813D01*
X022311Y035822D01*
X022313Y035830D01*
X022317Y035836D01*
X022320Y035842D01*
X022323Y035847D01*
X022327Y035851D01*
X022329Y035853D01*
X022329Y035853D01*
X022337Y035859D01*
X022344Y035863D01*
X022352Y035866D01*
X022359Y035868D01*
X022366Y035870D01*
X022371Y035871D01*
X022375D01*
X022385Y035870D01*
X022394Y035868D01*
X022402Y035865D01*
X022408Y035862D01*
X022414Y035859D01*
X022418Y035856D01*
X022420Y035854D01*
X022421Y035853D01*
X022427Y035847D01*
X022432Y035840D01*
X022435Y035833D01*
X022437Y035827D01*
X022438Y035821D01*
X022439Y035817D01*
X022439Y035814D01*
Y035813D01*
Y035813D01*
X022438Y035803D01*
X022435Y035795D01*
X022432Y035787D01*
X022428Y035781D01*
X022423Y035776D01*
X022420Y035772D01*
X022417Y035770D01*
X022416Y035769D01*
X022407Y035763D01*
X022397Y035760D01*
X022387Y035756D01*
X022378Y035755D01*
X022369Y035754D01*
X022365Y035753D01*
X022363D01*
X022360Y035752D01*
X022357D01*
X022345Y035753D01*
X022335Y035754D01*
X022324Y035756D01*
X022314Y035759D01*
X022296Y035765D01*
X022287Y035769D01*
X022278Y035773D01*
X022271Y035776D01*
X022264Y035780D01*
X022258Y035783D01*
X022253Y035787D01*
X022249Y035789D01*
X022246Y035791D01*
X022244Y035792D01*
X022244Y035793D01*
X022232Y035802D01*
X022222Y035812D01*
X022211Y035823D01*
X022202Y035834D01*
X022193Y035846D01*
X022186Y035857D01*
X022179Y035868D01*
X022172Y035878D01*
X022167Y035889D01*
X022162Y035898D01*
X022158Y035907D01*
X022155Y035914D01*
X022152Y035920D01*
X022151Y035924D01*
X022150Y035927D01*
X022149Y035928D01*
X022065Y036168D01*
X022279D01*
X022291Y036167D01*
D02*
G37*
G36*
X021935D02*
X021947Y036166D01*
X021958Y036165D01*
X021969Y036163D01*
X021979Y036160D01*
X021988Y036158D01*
X021996Y036154D01*
X022004Y036151D01*
X022011Y036149D01*
X022017Y036145D01*
X022022Y036143D01*
X022026Y036140D01*
X022030Y036138D01*
X022032Y036137D01*
X022034Y036136D01*
X022035Y036135D01*
X022044Y036128D01*
X022051Y036121D01*
X022058Y036113D01*
X022064Y036104D01*
X022069Y036096D01*
X022073Y036088D01*
X022076Y036080D01*
X022079Y036072D01*
X022081Y036064D01*
X022082Y036058D01*
X022084Y036052D01*
X022085Y036046D01*
Y036042D01*
X022085Y036038D01*
Y036036D01*
Y036035D01*
X022085Y036028D01*
X022084Y036020D01*
X022082Y036013D01*
X022080Y036007D01*
X022075Y035995D01*
X022068Y035986D01*
X022062Y035978D01*
X022056Y035973D01*
X022055Y035971D01*
X022053Y035969D01*
X022052Y035969D01*
X022051Y035968D01*
X022039Y035961D01*
X022026Y035956D01*
X022013Y035952D01*
X022000Y035949D01*
X021990Y035948D01*
X021985Y035947D01*
X021981D01*
X021978Y035947D01*
X021973D01*
X021963Y035947D01*
X021953Y035949D01*
X021944Y035951D01*
X021936Y035954D01*
X021931Y035956D01*
X021926Y035958D01*
X021924Y035960D01*
X021923Y035961D01*
X021918Y035964D01*
X021915Y035967D01*
X021909Y035974D01*
X021904Y035982D01*
X021901Y035989D01*
X021900Y035995D01*
X021899Y036000D01*
X021899Y036004D01*
Y036005D01*
Y036005D01*
X021900Y036015D01*
X021902Y036023D01*
X021905Y036030D01*
X021909Y036037D01*
X021913Y036042D01*
X021915Y036045D01*
X021918Y036048D01*
X021919Y036048D01*
X021926Y036053D01*
X021933Y036057D01*
X021940Y036060D01*
X021948Y036062D01*
X021954Y036063D01*
X021958Y036064D01*
X021963D01*
X021971Y036063D01*
X021979Y036062D01*
X021986Y036059D01*
X021992Y036057D01*
X021997Y036055D01*
X022000Y036053D01*
X022003Y036051D01*
X022004Y036050D01*
X022010Y036045D01*
X022015Y036039D01*
X022019Y036033D01*
X022022Y036028D01*
X022025Y036023D01*
X022026Y036019D01*
X022027Y036016D01*
Y036015D01*
X022032Y036017D01*
X022035Y036020D01*
X022038Y036024D01*
X022040Y036028D01*
X022041Y036032D01*
X022041Y036035D01*
Y036037D01*
Y036038D01*
X022041Y036044D01*
X022040Y036049D01*
X022037Y036059D01*
X022033Y036067D01*
X022028Y036074D01*
X022023Y036080D01*
X022019Y036085D01*
X022016Y036087D01*
X022015Y036088D01*
X022015D01*
X022005Y036094D01*
X021995Y036099D01*
X021986Y036102D01*
X021977Y036104D01*
X021969Y036105D01*
X021964Y036106D01*
X021819D01*
X021891Y035900D01*
X021896Y035887D01*
X021900Y035875D01*
X021905Y035866D01*
X021908Y035858D01*
X021911Y035852D01*
X021913Y035847D01*
X021914Y035845D01*
X021915Y035844D01*
X021921Y035833D01*
X021929Y035825D01*
X021935Y035817D01*
X021942Y035812D01*
X021948Y035808D01*
X021952Y035806D01*
X021955Y035804D01*
X021956Y035803D01*
X021955Y035807D01*
X021955Y035810D01*
Y035812D01*
Y035813D01*
X021955Y035822D01*
X021958Y035830D01*
X021961Y035836D01*
X021964Y035842D01*
X021968Y035847D01*
X021971Y035851D01*
X021973Y035853D01*
X021974Y035853D01*
X021981Y035859D01*
X021989Y035863D01*
X021996Y035866D01*
X022004Y035868D01*
X022010Y035870D01*
X022015Y035871D01*
X022020D01*
X022029Y035870D01*
X022038Y035868D01*
X022046Y035865D01*
X022052Y035862D01*
X022058Y035859D01*
X022062Y035856D01*
X022064Y035854D01*
X022065Y035853D01*
X022071Y035847D01*
X022076Y035840D01*
X022079Y035833D01*
X022081Y035827D01*
X022082Y035821D01*
X022083Y035817D01*
X022084Y035814D01*
Y035813D01*
Y035813D01*
X022082Y035803D01*
X022080Y035795D01*
X022076Y035787D01*
X022072Y035781D01*
X022067Y035776D01*
X022064Y035772D01*
X022061Y035770D01*
X022060Y035769D01*
X022051Y035763D01*
X022041Y035760D01*
X022031Y035756D01*
X022022Y035755D01*
X022014Y035754D01*
X022010Y035753D01*
X022007D01*
X022004Y035752D01*
X022001D01*
X021990Y035753D01*
X021979Y035754D01*
X021969Y035756D01*
X021959Y035759D01*
X021940Y035765D01*
X021931Y035769D01*
X021923Y035773D01*
X021915Y035776D01*
X021909Y035780D01*
X021903Y035783D01*
X021898Y035787D01*
X021894Y035789D01*
X021890Y035791D01*
X021889Y035792D01*
X021888Y035793D01*
X021877Y035802D01*
X021866Y035812D01*
X021855Y035823D01*
X021847Y035834D01*
X021838Y035846D01*
X021830Y035857D01*
X021823Y035868D01*
X021817Y035878D01*
X021811Y035889D01*
X021807Y035898D01*
X021802Y035907D01*
X021799Y035914D01*
X021797Y035920D01*
X021795Y035924D01*
X021794Y035927D01*
X021793Y035928D01*
X021709Y036168D01*
X021923D01*
X021935Y036167D01*
D02*
G37*
G36*
X021704Y036106D02*
X021446D01*
X021438Y036105D01*
X021430Y036105D01*
X021424Y036104D01*
X021420Y036103D01*
X021417Y036102D01*
X021415Y036101D01*
X021415D01*
X021409Y036097D01*
X021404Y036092D01*
X021400Y036086D01*
X021398Y036080D01*
X021397Y036074D01*
X021396Y036070D01*
Y036067D01*
Y036066D01*
Y036065D01*
X021398Y036058D01*
X021399Y036050D01*
X021403Y036043D01*
X021406Y036036D01*
X021410Y036030D01*
X021415Y036024D01*
X021425Y036013D01*
X021430Y036008D01*
X021435Y036004D01*
X021440Y036000D01*
X021444Y035997D01*
X021447Y035995D01*
X021450Y035993D01*
X021451Y035992D01*
X021452Y035992D01*
X021466Y035984D01*
X021481Y035977D01*
X021496Y035971D01*
X021510Y035967D01*
X021516Y035965D01*
X021521Y035963D01*
X021526Y035962D01*
X021531Y035961D01*
X021534Y035959D01*
X021537Y035959D01*
X021539Y035958D01*
X021539D01*
X021502Y036075D01*
X021589D01*
X021666Y035827D01*
X021579D01*
X021553Y035911D01*
X021536Y035914D01*
X021520Y035918D01*
X021504Y035922D01*
X021489Y035927D01*
X021475Y035931D01*
X021462Y035936D01*
X021450Y035939D01*
X021438Y035944D01*
X021428Y035948D01*
X021419Y035952D01*
X021411Y035955D01*
X021405Y035958D01*
X021400Y035960D01*
X021396Y035962D01*
X021394Y035963D01*
X021393Y035963D01*
X021384Y035968D01*
X021375Y035973D01*
X021367Y035978D01*
X021360Y035983D01*
X021346Y035994D01*
X021335Y036004D01*
X021325Y036015D01*
X021317Y036025D01*
X021310Y036035D01*
X021305Y036044D01*
X021300Y036053D01*
X021298Y036061D01*
X021295Y036068D01*
X021294Y036074D01*
X021293Y036080D01*
X021292Y036083D01*
Y036086D01*
Y036087D01*
X021293Y036095D01*
X021294Y036103D01*
X021296Y036111D01*
X021299Y036118D01*
X021302Y036124D01*
X021305Y036129D01*
X021309Y036134D01*
X021313Y036138D01*
X021317Y036142D01*
X021320Y036145D01*
X021327Y036150D01*
X021329Y036151D01*
X021332Y036153D01*
X021333Y036154D01*
X021333D01*
X021339Y036156D01*
X021345Y036158D01*
X021358Y036161D01*
X021373Y036164D01*
X021386Y036166D01*
X021392Y036166D01*
X021398Y036167D01*
X021403D01*
X021408Y036168D01*
X021666D01*
X021704Y036106D01*
D02*
G37*
G36*
X022146Y018898D02*
X021896Y018648D01*
Y019148D01*
X022146Y018898D01*
D02*
G37*
G36*
X036766Y037545D02*
X036516Y037795D01*
X036766Y038045D01*
Y037545D01*
D02*
G37*
G36*
X019783Y035531D02*
X019533Y035782D01*
X020033D01*
X019783Y035531D01*
D02*
G37*
G36*
X038931Y020911D02*
X038431D01*
X038681Y021161D01*
X038931Y020911D01*
D02*
G37*
D26*
X020276Y019390D02*
D03*
Y037303D02*
D03*
D27*
X038287Y019291D02*
D03*
Y037402D02*
D03*
D28*
X020685Y021843D02*
D03*
X019685D02*
D03*
X020685Y022843D02*
D03*
X019685D02*
D03*
X020685Y023843D02*
D03*
X019685D02*
D03*
X020685Y024843D02*
D03*
X019685D02*
D03*
X020685Y025843D02*
D03*
X019685D02*
D03*
X020685Y026843D02*
D03*
X019685D02*
D03*
X020685Y027843D02*
D03*
X019685D02*
D03*
X020685Y028843D02*
D03*
X019685D02*
D03*
X020685Y029843D02*
D03*
X019685D02*
D03*
X020685Y030843D02*
D03*
X019685D02*
D03*
X020685Y031843D02*
D03*
X019685D02*
D03*
X020685Y032843D02*
D03*
X019685D02*
D03*
X020685Y033843D02*
D03*
X019685D02*
D03*
X020685Y034843D02*
D03*
X035835Y019799D02*
D03*
Y018799D02*
D03*
X034835Y019799D02*
D03*
Y018799D02*
D03*
X033835Y019799D02*
D03*
Y018799D02*
D03*
X032835Y019799D02*
D03*
Y018799D02*
D03*
X031835Y019799D02*
D03*
Y018799D02*
D03*
X030835Y019799D02*
D03*
Y018799D02*
D03*
X029835Y019799D02*
D03*
Y018799D02*
D03*
X028835Y019799D02*
D03*
Y018799D02*
D03*
X027835Y019799D02*
D03*
Y018799D02*
D03*
X026835Y019799D02*
D03*
Y018799D02*
D03*
X025835Y019799D02*
D03*
Y018799D02*
D03*
X024835Y019799D02*
D03*
Y018799D02*
D03*
X023835Y019799D02*
D03*
Y018799D02*
D03*
X022835Y019799D02*
D03*
X037780Y034850D02*
D03*
X038780D02*
D03*
X037780Y033850D02*
D03*
X038780D02*
D03*
X037780Y032850D02*
D03*
X038780D02*
D03*
X037780Y031850D02*
D03*
X038780D02*
D03*
X037780Y030850D02*
D03*
X038780D02*
D03*
X037780Y029850D02*
D03*
X038780D02*
D03*
X037780Y028850D02*
D03*
X038780D02*
D03*
X037780Y027850D02*
D03*
X038780D02*
D03*
X037780Y026850D02*
D03*
X038780D02*
D03*
X037780Y025850D02*
D03*
X038780D02*
D03*
X037780Y024850D02*
D03*
X038780D02*
D03*
X037780Y023850D02*
D03*
X038780D02*
D03*
X037780Y022850D02*
D03*
X038780D02*
D03*
X037780Y021850D02*
D03*
X022835Y036894D02*
D03*
Y037894D02*
D03*
X023835Y036894D02*
D03*
Y037894D02*
D03*
X024835Y036894D02*
D03*
Y037894D02*
D03*
X025835Y036894D02*
D03*
Y037894D02*
D03*
X026835Y036894D02*
D03*
Y037894D02*
D03*
X027835Y036894D02*
D03*
Y037894D02*
D03*
X028835Y036894D02*
D03*
Y037894D02*
D03*
X029835Y036894D02*
D03*
Y037894D02*
D03*
X030835Y036894D02*
D03*
Y037894D02*
D03*
X031835Y036894D02*
D03*
Y037894D02*
D03*
X032835Y036894D02*
D03*
Y037894D02*
D03*
X033835Y036894D02*
D03*
Y037894D02*
D03*
X034835Y036894D02*
D03*
Y037894D02*
D03*
X035835Y036894D02*
D03*
D29*
X019685Y034843D02*
D03*
X038780Y021850D02*
D03*
D30*
X022835Y018799D02*
D03*
X035835Y037894D02*
D03*
D31*
X031827Y030356D02*
X032347D01*
X031817Y030346D02*
X032357D01*
X031807Y030336D02*
X032357D01*
X031807Y030326D02*
X032357D01*
X031807Y030316D02*
X032367D01*
X031807Y030306D02*
X032367D01*
X031807Y030296D02*
X032367D01*
X031797Y030286D02*
X032367D01*
X031797Y030276D02*
X032367D01*
X031797Y030266D02*
X032367D01*
X031797Y030256D02*
X032377D01*
X031797Y030246D02*
X032377D01*
X031787Y030236D02*
X032377D01*
X031787Y030226D02*
X032377D01*
X031787Y030216D02*
X032377D01*
X031787Y030206D02*
X032387D01*
X031787Y030196D02*
X032387D01*
X031787Y030186D02*
X032387D01*
X031777Y030176D02*
X032387D01*
X031777Y030166D02*
X032387D01*
X031777Y030156D02*
X032397D01*
X031777Y030146D02*
X032397D01*
X031777Y030136D02*
X032397D01*
X031767Y030126D02*
X032397D01*
X031767Y030116D02*
X032397D01*
X031767Y030106D02*
X032397D01*
X031767Y030096D02*
X032407D01*
X031767Y030086D02*
X032407D01*
X031757Y030076D02*
X032407D01*
X031757Y030066D02*
X032407D01*
X031757Y030056D02*
X032407D01*
X031757Y030046D02*
X032417D01*
X031757Y030036D02*
X032417D01*
X031757Y030026D02*
X032417D01*
X031747Y030016D02*
X032417D01*
X031747Y030006D02*
X032417D01*
X031747Y029996D02*
X032417D01*
X031747Y029986D02*
X032427D01*
X031747Y029976D02*
X032427D01*
X033247Y029966D02*
X033287D01*
X031737D02*
X032427D01*
X030887D02*
X030917D01*
X033237Y029956D02*
X033297D01*
X031737D02*
X032427D01*
X030877D02*
X030937D01*
X033217Y029946D02*
X033307D01*
X031737D02*
X032427D01*
X030867D02*
X030947D01*
X033207Y029936D02*
X033317D01*
X031737D02*
X032437D01*
X030857D02*
X030967D01*
X033187Y029926D02*
X033327D01*
X031737D02*
X032437D01*
X030847D02*
X030977D01*
X033177Y029916D02*
X033337D01*
X031737D02*
X032437D01*
X030837D02*
X030997D01*
X033157Y029906D02*
X033347D01*
X031727D02*
X032437D01*
X030827D02*
X031007D01*
X033147Y029896D02*
X033357D01*
X031727D02*
X032437D01*
X030817D02*
X031027D01*
X033137Y029886D02*
X033367D01*
X031727D02*
X032447D01*
X030807D02*
X031037D01*
X033117Y029876D02*
X033377D01*
X031727D02*
X032447D01*
X030797D02*
X031047D01*
X033107Y029866D02*
X033387D01*
X031727D02*
X032447D01*
X030787D02*
X031067D01*
X033087Y029856D02*
X033397D01*
X031717D02*
X032447D01*
X030777D02*
X031077D01*
X033077Y029846D02*
X033407D01*
X031717D02*
X032447D01*
X030767D02*
X031097D01*
X033057Y029836D02*
X033417D01*
X031717D02*
X032457D01*
X030757D02*
X031107D01*
X033047Y029826D02*
X033427D01*
X031707D02*
X032457D01*
X030747D02*
X031127D01*
X033027Y029816D02*
X033437D01*
X031697D02*
X032477D01*
X030737D02*
X031137D01*
X033017Y029806D02*
X033447D01*
X031667D02*
X032497D01*
X030727D02*
X031157D01*
X032997Y029796D02*
X033457D01*
X031647D02*
X032527D01*
X030717D02*
X031167D01*
X032987Y029786D02*
X033467D01*
X031617D02*
X032547D01*
X030707D02*
X031187D01*
X032967Y029776D02*
X033477D01*
X031597D02*
X032577D01*
X030697D02*
X031197D01*
X032957Y029766D02*
X033487D01*
X031567D02*
X032597D01*
X030687D02*
X031207D01*
X032947Y029756D02*
X033497D01*
X031547D02*
X032617D01*
X030677D02*
X031227D01*
X032927Y029746D02*
X033507D01*
X031527D02*
X032647D01*
X030667D02*
X031237D01*
X032917Y029736D02*
X033517D01*
X031497D02*
X032667D01*
X030657D02*
X031257D01*
X032897Y029726D02*
X033527D01*
X031477D02*
X032697D01*
X030647D02*
X031267D01*
X032887Y029716D02*
X033537D01*
X031447D02*
X032717D01*
X030637D02*
X031287D01*
X032867Y029706D02*
X033547D01*
X031427D02*
X032747D01*
X030627D02*
X031297D01*
X032857Y029696D02*
X033557D01*
X031397D02*
X032767D01*
X030617D02*
X031317D01*
X032837Y029686D02*
X033567D01*
X031377D02*
X032797D01*
X030607D02*
X031327D01*
X030597Y029676D02*
X033577D01*
X030587Y029666D02*
X033587D01*
X030577Y029656D02*
X033597D01*
X030567Y029646D02*
X033607D01*
X030557Y029636D02*
X033617D01*
X030547Y029626D02*
X033627D01*
X030537Y029616D02*
X033637D01*
X030527Y029606D02*
X033637D01*
X030527Y029596D02*
X033647D01*
X030527Y029586D02*
X033637D01*
X030527Y029576D02*
X033637D01*
X030537Y029566D02*
X033627D01*
X030547Y029556D02*
X033627D01*
X030547Y029546D02*
X033617D01*
X030557Y029536D02*
X033607D01*
X030567Y029526D02*
X033607D01*
X030577Y029516D02*
X033597D01*
X030577Y029506D02*
X033587D01*
X030587Y029496D02*
X033587D01*
X030597Y029486D02*
X033577D01*
X030597Y029476D02*
X033567D01*
X030607Y029466D02*
X033567D01*
X030617Y029456D02*
X033557D01*
X030617Y029446D02*
X033547D01*
X030627Y029436D02*
X033537D01*
X030637Y029426D02*
X033537D01*
X030637Y029416D02*
X033527D01*
X030647Y029406D02*
X033517D01*
X030657Y029396D02*
X033517D01*
X030657Y029386D02*
X033507D01*
X030667Y029376D02*
X033497D01*
X030677Y029366D02*
X033497D01*
X030687Y029356D02*
X033487D01*
X030687Y029346D02*
X033477D01*
X030697Y029336D02*
X033477D01*
X030707Y029326D02*
X033467D01*
X030707Y029316D02*
X033457D01*
X030717Y029306D02*
X033457D01*
X030727Y029296D02*
X033447D01*
X030727Y029286D02*
X033437D01*
X030737Y029276D02*
X033427D01*
X030747Y029266D02*
X033427D01*
X030747Y029256D02*
X033417D01*
X030757Y029246D02*
X033407D01*
X030767Y029236D02*
X033407D01*
X030767Y029226D02*
X033397D01*
X030777Y029216D02*
X033387D01*
X030787Y029206D02*
X033387D01*
X030797Y029196D02*
X033377D01*
X030797Y029186D02*
X033367D01*
X030807Y029176D02*
X033367D01*
X030807Y029166D02*
X033357D01*
X030817Y029156D02*
X033357D01*
X030817Y029146D02*
X033357D01*
X030807Y029136D02*
X033357D01*
X030807Y029126D02*
X033367D01*
X030797Y029116D02*
X033367D01*
X030797Y029106D02*
X033377D01*
X030787Y029096D02*
X033377D01*
X030787Y029086D02*
X033377D01*
X030787Y029076D02*
X033387D01*
X030777Y029066D02*
X033387D01*
X030777Y029056D02*
X033397D01*
X030767Y029046D02*
X033397D01*
X030767Y029036D02*
X033407D01*
X030757Y029026D02*
X033407D01*
X030757Y029016D02*
X033407D01*
X030757Y029006D02*
X033417D01*
X030747Y028996D02*
X033417D01*
X030747Y028986D02*
X033427D01*
X030737Y028976D02*
X033427D01*
X030737Y028966D02*
X033437D01*
X030727Y028956D02*
X033437D01*
X032157Y028946D02*
X033437D01*
X030727D02*
X032017D01*
X032207Y028936D02*
X033447D01*
X030727D02*
X031957D01*
X032247Y028926D02*
X033447D01*
X030717D02*
X031927D01*
X032277Y028916D02*
X033457D01*
X030717D02*
X031897D01*
X032297Y028906D02*
X033457D01*
X030707D02*
X031877D01*
X032317Y028896D02*
X033467D01*
X030707D02*
X031847D01*
X032337Y028886D02*
X033467D01*
X030697D02*
X031827D01*
X032357Y028876D02*
X033477D01*
X030697D02*
X031817D01*
X032377Y028866D02*
X033477D01*
X030697D02*
X031797D01*
X032387Y028856D02*
X033477D01*
X030687D02*
X031777D01*
X032407Y028846D02*
X033487D01*
X030687D02*
X031767D01*
X032417Y028836D02*
X033487D01*
X030677D02*
X031757D01*
X032427Y028826D02*
X033497D01*
X030677D02*
X031737D01*
X032437Y028816D02*
X033497D01*
X030667D02*
X031727D01*
X032447Y028806D02*
X033507D01*
X030667D02*
X031717D01*
X032457Y028796D02*
X033507D01*
X030667D02*
X031707D01*
X032467Y028786D02*
X033517D01*
X030657D02*
X031697D01*
X032477Y028776D02*
X033537D01*
X030637D02*
X031687D01*
X032487Y028766D02*
X033587D01*
X030577D02*
X031677D01*
X032497Y028756D02*
X033647D01*
X030527D02*
X031667D01*
X032507Y028746D02*
X033697D01*
X030477D02*
X031667D01*
X032517Y028736D02*
X033747D01*
X030417D02*
X031657D01*
X032517Y028726D02*
X033807D01*
X030367D02*
X031647D01*
X032527Y028716D02*
X033857D01*
X030307D02*
X031637D01*
X032537Y028706D02*
X033907D01*
X030257D02*
X031637D01*
X032537Y028696D02*
X033967D01*
X030207D02*
X031627D01*
X032547Y028686D02*
X034017D01*
X030157D02*
X031617D01*
X032557Y028676D02*
X034027D01*
X030147D02*
X031617D01*
X032557Y028666D02*
X034027D01*
X030137D02*
X031607D01*
X032567Y028656D02*
X034027D01*
X030137D02*
X031607D01*
X032567Y028646D02*
X034027D01*
X030137D02*
X031597D01*
X032577Y028636D02*
X034027D01*
X030137D02*
X031597D01*
X032577Y028626D02*
X034027D01*
X030137D02*
X031587D01*
X032587Y028616D02*
X034027D01*
X030137D02*
X031587D01*
X032587Y028606D02*
X034027D01*
X030137D02*
X031577D01*
X032587Y028596D02*
X034027D01*
X030137D02*
X031577D01*
X032597Y028586D02*
X034027D01*
X030137D02*
X031577D01*
X032597Y028576D02*
X034027D01*
X030137D02*
X031567D01*
X032597Y028566D02*
X034027D01*
X030137D02*
X031567D01*
X032607Y028556D02*
X034027D01*
X030137D02*
X031567D01*
X032607Y028546D02*
X034027D01*
X030137D02*
X031567D01*
X032607Y028536D02*
X034027D01*
X030137D02*
X031557D01*
X032607Y028526D02*
X034027D01*
X030137D02*
X031557D01*
X032617Y028516D02*
X034027D01*
X030137D02*
X031557D01*
X032617Y028506D02*
X034027D01*
X030137D02*
X031557D01*
X032617Y028496D02*
X034027D01*
X030137D02*
X031547D01*
X032617Y028486D02*
X034027D01*
X030137D02*
X031547D01*
X032617Y028476D02*
X034027D01*
X030137D02*
X031547D01*
X032617Y028466D02*
X034027D01*
X030137D02*
X031547D01*
X032627Y028456D02*
X034027D01*
X030137D02*
X031547D01*
X032627Y028446D02*
X034027D01*
X030137D02*
X031547D01*
X032627Y028436D02*
X034027D01*
X030137D02*
X031547D01*
X032627Y028426D02*
X034027D01*
X030137D02*
X031547D01*
X032627Y028416D02*
X034027D01*
X030137D02*
X031547D01*
X032627Y028406D02*
X034027D01*
X030137D02*
X031547D01*
X032627Y028396D02*
X034027D01*
X030137D02*
X031547D01*
X032627Y028386D02*
X034027D01*
X030137D02*
X031547D01*
X032627Y028376D02*
X034027D01*
X030137D02*
X031547D01*
X032627Y028366D02*
X034027D01*
X030137D02*
X031547D01*
X032617Y028356D02*
X034027D01*
X030137D02*
X031547D01*
X032617Y028346D02*
X034027D01*
X030137D02*
X031547D01*
X032617Y028336D02*
X034027D01*
X030137D02*
X031547D01*
X032617Y028326D02*
X034027D01*
X030137D02*
X031547D01*
X032617Y028316D02*
X034027D01*
X030137D02*
X031557D01*
X032617Y028306D02*
X034027D01*
X030137D02*
X031557D01*
X032607Y028296D02*
X034027D01*
X030137D02*
X031557D01*
X032607Y028286D02*
X034027D01*
X030137D02*
X031557D01*
X032607Y028276D02*
X034027D01*
X030137D02*
X031567D01*
X032607Y028266D02*
X034027D01*
X030137D02*
X031567D01*
X032597Y028256D02*
X034027D01*
X030137D02*
X031567D01*
X032597Y028246D02*
X034027D01*
X030137D02*
X031567D01*
X032597Y028236D02*
X034027D01*
X030137D02*
X031577D01*
X032587Y028226D02*
X034027D01*
X030137D02*
X031577D01*
X032587Y028216D02*
X034027D01*
X030137D02*
X031577D01*
X032587Y028206D02*
X034027D01*
X030137D02*
X031587D01*
X032577Y028196D02*
X034027D01*
X030137D02*
X031587D01*
X032577Y028186D02*
X034027D01*
X030137D02*
X031597D01*
X032567Y028176D02*
X034027D01*
X030137D02*
X031597D01*
X032567Y028166D02*
X034027D01*
X030137D02*
X031607D01*
X032557Y028156D02*
X034027D01*
X030137D02*
X031607D01*
X032557Y028146D02*
X034017D01*
X030147D02*
X031617D01*
X032547Y028136D02*
X033987D01*
X030187D02*
X031617D01*
X032537Y028126D02*
X033927D01*
X030237D02*
X031627D01*
X032537Y028116D02*
X033877D01*
X030287D02*
X031637D01*
X032527Y028106D02*
X033827D01*
X030347D02*
X031637D01*
X032517Y028096D02*
X033767D01*
X030397D02*
X031647D01*
X032517Y028086D02*
X033717D01*
X030447D02*
X031657D01*
X032507Y028076D02*
X033667D01*
X030507D02*
X031667D01*
X032497Y028066D02*
X033607D01*
X030557D02*
X031667D01*
X032487Y028056D02*
X033557D01*
X030617D02*
X031677D01*
X032477Y028046D02*
X033527D01*
X030637D02*
X031687D01*
X032467Y028036D02*
X033517D01*
X030647D02*
X031697D01*
X032457Y028026D02*
X033517D01*
X030657D02*
X031707D01*
X032447Y028016D02*
X033507D01*
X030657D02*
X031717D01*
X032437Y028006D02*
X033507D01*
X030657D02*
X031727D01*
X032427Y027996D02*
X033507D01*
X030667D02*
X031747D01*
X032417Y027986D02*
X033497D01*
X030667D02*
X031757D01*
X032397Y027976D02*
X033497D01*
X030677D02*
X031767D01*
X032387Y027966D02*
X033487D01*
X030677D02*
X031777D01*
X032377Y027956D02*
X033487D01*
X030677D02*
X031797D01*
X032357Y027946D02*
X033487D01*
X030687D02*
X031807D01*
X032347Y027936D02*
X033477D01*
X030687D02*
X031827D01*
X032327Y027926D02*
X033477D01*
X030697D02*
X031837D01*
X032317Y027916D02*
X033467D01*
X030697D02*
X031857D01*
X032297Y027906D02*
X033467D01*
X030697D02*
X031867D01*
X032297Y027896D02*
X033467D01*
X030707D02*
X031877D01*
X032297Y027886D02*
X033457D01*
X030707D02*
X031877D01*
X032297Y027876D02*
X033457D01*
X030717D02*
X031877D01*
X032297Y027866D02*
X033447D01*
X030717D02*
X031867D01*
X032307Y027856D02*
X033447D01*
X030717D02*
X031867D01*
X032307Y027846D02*
X033447D01*
X030727D02*
X031857D01*
X032307Y027836D02*
X033437D01*
X030727D02*
X031857D01*
X032317Y027826D02*
X033437D01*
X030737D02*
X031857D01*
X032317Y027816D02*
X033427D01*
X030737D02*
X031847D01*
X032327Y027806D02*
X033427D01*
X030737D02*
X031847D01*
X032327Y027796D02*
X033427D01*
X030747D02*
X031837D01*
X032337Y027786D02*
X033417D01*
X030747D02*
X031837D01*
X032337Y027776D02*
X033417D01*
X030757D02*
X031837D01*
X032337Y027766D02*
X033407D01*
X030757D02*
X031827D01*
X032347Y027756D02*
X033407D01*
X030757D02*
X031827D01*
X032347Y027746D02*
X033407D01*
X030767D02*
X031817D01*
X032357Y027736D02*
X033397D01*
X030767D02*
X031817D01*
X032357Y027726D02*
X033397D01*
X030777D02*
X031807D01*
X032367Y027716D02*
X033387D01*
X030777D02*
X031807D01*
X032367Y027706D02*
X033387D01*
X030787D02*
X031807D01*
X032367Y027696D02*
X033377D01*
X030787D02*
X031797D01*
X032377Y027686D02*
X033377D01*
X030787D02*
X031797D01*
X032377Y027676D02*
X033377D01*
X030797D02*
X031787D01*
X032387Y027666D02*
X033367D01*
X030797D02*
X031787D01*
X032387Y027656D02*
X033367D01*
X030797D02*
X031777D01*
X032387Y027646D02*
X033367D01*
X030797D02*
X031777D01*
X032397Y027636D02*
X033377D01*
X030797D02*
X031777D01*
X032397Y027626D02*
X033387D01*
X030787D02*
X031767D01*
X032407Y027616D02*
X033387D01*
X030777D02*
X031767D01*
X032407Y027606D02*
X033397D01*
X030777D02*
X031757D01*
X032417Y027596D02*
X033407D01*
X030767D02*
X031757D01*
X032417Y027586D02*
X033407D01*
X030757D02*
X031757D01*
X032417Y027576D02*
X033417D01*
X030757D02*
X031747D01*
X032427Y027566D02*
X033427D01*
X030747D02*
X031747D01*
X032427Y027556D02*
X033427D01*
X030737D02*
X031737D01*
X032437Y027546D02*
X033437D01*
X030727D02*
X031737D01*
X032437Y027536D02*
X033447D01*
X030727D02*
X031737D01*
X032437Y027526D02*
X033447D01*
X030717D02*
X031727D01*
X032447Y027516D02*
X033457D01*
X030707D02*
X031727D01*
X032447Y027506D02*
X033467D01*
X030707D02*
X031717D01*
X032457Y027496D02*
X033467D01*
X030697D02*
X031717D01*
X032457Y027486D02*
X033477D01*
X030687D02*
X031707D01*
X032457Y027476D02*
X033487D01*
X030687D02*
X031707D01*
X032467Y027466D02*
X033497D01*
X030677D02*
X031707D01*
X032467Y027456D02*
X033497D01*
X030667D02*
X031697D01*
X032477Y027446D02*
X033507D01*
X030667D02*
X031697D01*
X032477Y027436D02*
X033517D01*
X030657D02*
X031687D01*
X032487Y027426D02*
X033517D01*
X030647D02*
X031687D01*
X032487Y027416D02*
X033527D01*
X030647D02*
X031687D01*
X032487Y027406D02*
X033537D01*
X030637D02*
X031677D01*
X032497Y027396D02*
X033537D01*
X030627D02*
X031677D01*
X032497Y027386D02*
X033547D01*
X030617D02*
X031667D01*
X032507Y027376D02*
X033557D01*
X030617D02*
X031667D01*
X032507Y027366D02*
X033557D01*
X030607D02*
X031657D01*
X032507Y027356D02*
X033567D01*
X030597D02*
X031657D01*
X032517Y027346D02*
X033577D01*
X030597D02*
X031657D01*
X032517Y027336D02*
X033577D01*
X030587D02*
X031647D01*
X032527Y027326D02*
X033587D01*
X030577D02*
X031647D01*
X032527Y027316D02*
X033597D01*
X030577D02*
X031637D01*
X032537Y027306D02*
X033607D01*
X030567D02*
X031637D01*
X032537Y027296D02*
X033607D01*
X030557D02*
X031637D01*
X032537Y027286D02*
X033617D01*
X030557D02*
X031627D01*
X032547Y027276D02*
X033627D01*
X030547D02*
X031627D01*
X032547Y027266D02*
X033627D01*
X030537D02*
X031617D01*
X032557Y027256D02*
X033637D01*
X030537D02*
X031617D01*
X032557Y027246D02*
X033637D01*
X030527D02*
X031607D01*
X032557Y027236D02*
X033647D01*
X030527D02*
X031607D01*
X032567Y027226D02*
X033637D01*
X030527D02*
X031607D01*
X032567Y027216D02*
X033637D01*
X030537D02*
X031597D01*
X032577Y027206D02*
X033627D01*
X030547D02*
X031597D01*
X032577Y027196D02*
X033617D01*
X030557D02*
X031587D01*
X032577Y027186D02*
X033607D01*
X030567D02*
X031587D01*
X032587Y027176D02*
X033597D01*
X030577D02*
X031587D01*
X032587Y027166D02*
X033587D01*
X030587D02*
X031577D01*
X032597Y027156D02*
X033577D01*
X030597D02*
X031577D01*
X032597Y027146D02*
X033567D01*
X030607D02*
X031567D01*
X032607Y027136D02*
X033557D01*
X030617D02*
X031567D01*
X032867Y027126D02*
X033547D01*
X032607D02*
X032847D01*
X031327D02*
X031567D01*
X030617D02*
X031307D01*
X032877Y027116D02*
X033537D01*
X032607D02*
X032827D01*
X031347D02*
X031557D01*
X030637D02*
X031287D01*
X032897Y027106D02*
X033527D01*
X032617D02*
X032807D01*
X031367D02*
X031557D01*
X030647D02*
X031277D01*
X032907Y027096D02*
X033517D01*
X032617D02*
X032787D01*
X031387D02*
X031547D01*
X030657D02*
X031257D01*
X032927Y027086D02*
X033507D01*
X032627D02*
X032767D01*
X031407D02*
X031547D01*
X030667D02*
X031247D01*
X032937Y027076D02*
X033497D01*
X032627D02*
X032747D01*
X031417D02*
X031537D01*
X030677D02*
X031227D01*
X032957Y027066D02*
X033487D01*
X032627D02*
X032727D01*
X031437D02*
X031537D01*
X030687D02*
X031217D01*
X032967Y027056D02*
X033477D01*
X032637D02*
X032707D01*
X031457D02*
X031537D01*
X030697D02*
X031197D01*
X032987Y027046D02*
X033467D01*
X032637D02*
X032687D01*
X031477D02*
X031527D01*
X030707D02*
X031187D01*
X032997Y027036D02*
X033457D01*
X032647D02*
X032677D01*
X031497D02*
X031517D01*
X030717D02*
X031167D01*
X033017Y027026D02*
X033447D01*
X030727D02*
X031157D01*
X033027Y027016D02*
X033437D01*
X030737D02*
X031137D01*
X033047Y027006D02*
X033427D01*
X030747D02*
X031127D01*
X033057Y026996D02*
X033417D01*
X030757D02*
X031117D01*
X033067Y026986D02*
X033407D01*
X030767D02*
X031097D01*
X033087Y026976D02*
X033397D01*
X030777D02*
X031087D01*
X033097Y026966D02*
X033387D01*
X030787D02*
X031067D01*
X033117Y026956D02*
X033377D01*
X030797D02*
X031057D01*
X033127Y026946D02*
X033367D01*
X030807D02*
X031037D01*
X033147Y026936D02*
X033357D01*
X030817D02*
X031027D01*
X033157Y026926D02*
X033347D01*
X030827D02*
X031007D01*
X033177Y026916D02*
X033337D01*
X030837D02*
X030997D01*
X033187Y026906D02*
X033327D01*
X030847D02*
X030977D01*
X033207Y026896D02*
X033317D01*
X030857D02*
X030967D01*
X033217Y026886D02*
X033307D01*
X030867D02*
X030947D01*
X033237Y026876D02*
X033297D01*
X030877D02*
X030937D01*
X033247Y026866D02*
X033287D01*
X030887D02*
X030927D01*
X034337Y026466D02*
X034407D01*
X033797D02*
X033857D01*
X033327D02*
X033397D01*
X032787D02*
X032847D01*
X032087D02*
X032167D01*
X031607D02*
X031677D01*
X030537D02*
X030587D01*
X030197D02*
X030267D01*
X029767D02*
X029827D01*
X034287Y026456D02*
X034447D01*
X033957D02*
X034067D01*
X033757D02*
X033897D01*
X033287D02*
X033437D01*
X032947D02*
X033057D01*
X032747D02*
X032887D01*
X032037D02*
X032217D01*
X031557D02*
X031717D01*
X031227D02*
X031337D01*
X030917D02*
X031027D01*
X030697D02*
X030807D01*
X030497D02*
X030637D01*
X030147D02*
X030307D01*
X029727D02*
X029877D01*
X034267Y026446D02*
X034477D01*
X033957D02*
X034067D01*
X033737D02*
X033917D01*
X033267D02*
X033467D01*
X032947D02*
X033057D01*
X032727D02*
X032907D01*
X032007D02*
X032237D01*
X031537D02*
X031747D01*
X031227D02*
X031337D01*
X030917D02*
X031027D01*
X030697D02*
X030807D01*
X030477D02*
X030657D01*
X030127D02*
X030337D01*
X029697D02*
X029897D01*
X034247Y026436D02*
X034487D01*
X033957D02*
X034067D01*
X033717D02*
X033927D01*
X033247D02*
X033477D01*
X032947D02*
X033057D01*
X032717D02*
X032927D01*
X031977D02*
X032257D01*
X031517D02*
X031757D01*
X031227D02*
X031337D01*
X030917D02*
X031027D01*
X030697D02*
X030807D01*
X030457D02*
X030667D01*
X030107D02*
X030357D01*
X029677D02*
X029917D01*
X034237Y026426D02*
X034507D01*
X033957D02*
X034067D01*
X033707D02*
X033947D01*
X033227D02*
X033497D01*
X032947D02*
X033057D01*
X032697D02*
X032937D01*
X031967D02*
X032277D01*
X031507D02*
X031777D01*
X031227D02*
X031337D01*
X030917D02*
X031027D01*
X030697D02*
X030807D01*
X030447D02*
X030677D01*
X030087D02*
X030367D01*
X029667D02*
X029927D01*
X034227Y026416D02*
X034517D01*
X033697D02*
X034067D01*
X033217D02*
X033507D01*
X032687D02*
X033057D01*
X031947D02*
X032287D01*
X031497D02*
X031787D01*
X031227D02*
X031337D01*
X030917D02*
X031027D01*
X030697D02*
X030807D01*
X030457D02*
X030687D01*
X030077D02*
X030387D01*
X029657D02*
X029937D01*
X034217Y026406D02*
X034527D01*
X033687D02*
X034067D01*
X033207D02*
X033517D01*
X032677D02*
X033057D01*
X031937D02*
X032297D01*
X031487D02*
X031797D01*
X031227D02*
X031337D01*
X030917D02*
X031027D01*
X030467D02*
X030807D01*
X030067D02*
X030397D01*
X029647D02*
X029947D01*
X034207Y026396D02*
X034537D01*
X033677D02*
X034067D01*
X033197D02*
X033527D01*
X032677D02*
X033057D01*
X031927D02*
X032307D01*
X031477D02*
X031807D01*
X031227D02*
X031337D01*
X030917D02*
X031027D01*
X030467D02*
X030807D01*
X030057D02*
X030407D01*
X029637D02*
X029957D01*
X034197Y026386D02*
X034547D01*
X033677D02*
X034067D01*
X033187D02*
X033527D01*
X032667D02*
X033057D01*
X031927D02*
X032307D01*
X031467D02*
X031817D01*
X031227D02*
X031337D01*
X030917D02*
X031027D01*
X030477D02*
X030807D01*
X030047D02*
X030417D01*
X029627D02*
X029967D01*
X034187Y026376D02*
X034547D01*
X033667D02*
X034067D01*
X033187D02*
X033537D01*
X032657D02*
X033057D01*
X031937D02*
X032317D01*
X031457D02*
X031817D01*
X031227D02*
X031337D01*
X030917D02*
X031027D01*
X030487D02*
X030807D01*
X030037D02*
X030417D01*
X029617D02*
X029977D01*
X034177Y026366D02*
X034557D01*
X033667D02*
X034067D01*
X033177D02*
X033547D01*
X032657D02*
X033057D01*
X031947D02*
X032317D01*
X031447D02*
X031827D01*
X031227D02*
X031337D01*
X030917D02*
X031027D01*
X030497D02*
X030807D01*
X030047D02*
X030427D01*
X029617D02*
X029977D01*
X034387Y026356D02*
X034567D01*
X034177D02*
X034357D01*
X033877D02*
X034067D01*
X033657D02*
X033837D01*
X033397D02*
X033547D01*
X033167D02*
X033327D01*
X032867D02*
X033057D01*
X032647D02*
X032837D01*
X032177D02*
X032317D01*
X031957D02*
X032077D01*
X031657D02*
X031837D01*
X031447D02*
X031627D01*
X031227D02*
X031337D01*
X030917D02*
X031027D01*
X030607D02*
X030807D01*
X030507D02*
X030587D01*
X030247D02*
X030437D01*
X030057D02*
X030207D01*
X029837D02*
X029987D01*
X029607D02*
X029757D01*
X034417Y026346D02*
X034567D01*
X034167D02*
X034327D01*
X033907D02*
X034067D01*
X033657D02*
X033807D01*
X033417D02*
X033557D01*
X033167D02*
X033307D01*
X032897D02*
X033057D01*
X032647D02*
X032807D01*
X032197D02*
X032327D01*
X031957D02*
X032047D01*
X031687D02*
X031837D01*
X031437D02*
X031597D01*
X031227D02*
X031337D01*
X030917D02*
X031027D01*
X030647D02*
X030807D01*
X030517D02*
X030557D01*
X030287D02*
X030437D01*
X030067D02*
X030177D01*
X029857D02*
X029987D01*
X029597D02*
X029737D01*
X034437Y026336D02*
X034567D01*
X034167D02*
X034307D01*
X033917D02*
X034067D01*
X033657D02*
X033797D01*
X033437D02*
X033557D01*
X033157D02*
X033297D01*
X032917D02*
X033057D01*
X032647D02*
X032787D01*
X032207D02*
X032327D01*
X031967D02*
X032027D01*
X031707D02*
X031837D01*
X031437D02*
X031577D01*
X031227D02*
X031337D01*
X030917D02*
X031027D01*
X030657D02*
X030807D01*
X030517D02*
X030537D01*
X030297D02*
X030447D01*
X030077D02*
X030157D01*
X029867D02*
X029997D01*
X029597D02*
X029727D01*
X034447Y026326D02*
X034577D01*
X034167D02*
X034297D01*
X033927D02*
X034067D01*
X033657D02*
X033787D01*
X033447D02*
X033567D01*
X033157D02*
X033287D01*
X032927D02*
X033057D01*
X032647D02*
X032777D01*
X032217D02*
X032327D01*
X031977D02*
X032007D01*
X031717D02*
X031847D01*
X031437D02*
X031567D01*
X031227D02*
X031337D01*
X030917D02*
X031027D01*
X030667D02*
X030807D01*
X030317D02*
X030447D01*
X030087D02*
X030147D01*
X029877D02*
X029997D01*
X029597D02*
X029717D01*
X034457Y026316D02*
X034577D01*
X034167D02*
X034287D01*
X033937D02*
X034067D01*
X033647D02*
X033777D01*
X033447D02*
X033567D01*
X033157D02*
X033277D01*
X032927D02*
X033057D01*
X032637D02*
X032767D01*
X032217D02*
X032327D01*
X031727D02*
X031847D01*
X031427D02*
X031557D01*
X031227D02*
X031337D01*
X030917D02*
X031027D01*
X030677D02*
X030807D01*
X030327D02*
X030447D01*
X030097D02*
X030137D01*
X029887D02*
X029997D01*
X029587D02*
X029717D01*
X034457Y026306D02*
X034577D01*
X034157D02*
X034277D01*
X033937D02*
X034067D01*
X033647D02*
X033767D01*
X033457D02*
X033567D01*
X033157D02*
X033267D01*
X032937D02*
X033057D01*
X032637D02*
X032767D01*
X032217D02*
X032327D01*
X031727D02*
X031847D01*
X031427D02*
X031547D01*
X031227D02*
X031337D01*
X030917D02*
X031027D01*
X030687D02*
X030807D01*
X030327D02*
X030457D01*
X030107D02*
X030127D01*
X029887D02*
X030007D01*
X029587D02*
X029707D01*
X034467Y026296D02*
X034577D01*
X034157D02*
X034277D01*
X033947D02*
X034067D01*
X033647D02*
X033767D01*
X033457D02*
X033567D01*
X033147D02*
X033267D01*
X032937D02*
X033057D01*
X032637D02*
X032757D01*
X032217D02*
X032327D01*
X031737D02*
X031847D01*
X031427D02*
X031547D01*
X031227D02*
X031337D01*
X030917D02*
X031027D01*
X030687D02*
X030807D01*
X030337D02*
X030457D01*
X029897D02*
X030007D01*
X029587D02*
X029707D01*
X034467Y026286D02*
X034587D01*
X034157D02*
X034267D01*
X033947D02*
X034067D01*
X033647D02*
X033767D01*
X033467D02*
X033577D01*
X033147D02*
X033267D01*
X032947D02*
X033057D01*
X032637D02*
X032757D01*
X032207D02*
X032327D01*
X031737D02*
X031857D01*
X031427D02*
X031537D01*
X031227D02*
X031337D01*
X030917D02*
X031027D01*
X030687D02*
X030807D01*
X030337D02*
X030457D01*
X029897D02*
X030007D01*
X029587D02*
X029697D01*
X034467Y026276D02*
X034587D01*
X034157D02*
X034267D01*
X033947D02*
X034067D01*
X033647D02*
X033767D01*
X033467D02*
X033577D01*
X033147D02*
X033257D01*
X032947D02*
X033057D01*
X032637D02*
X032757D01*
X032207D02*
X032327D01*
X031737D02*
X031857D01*
X031427D02*
X031537D01*
X031227D02*
X031337D01*
X030917D02*
X031027D01*
X030697D02*
X030807D01*
X030347D02*
X030457D01*
X029907D02*
X030007D01*
X029587D02*
X029697D01*
X034477Y026266D02*
X034587D01*
X034157D02*
X034267D01*
X033957D02*
X034067D01*
X033647D02*
X033757D01*
X033467D02*
X033577D01*
X033147D02*
X033257D01*
X032947D02*
X033057D01*
X032637D02*
X032747D01*
X032187D02*
X032327D01*
X031747D02*
X031857D01*
X031427D02*
X031537D01*
X031227D02*
X031337D01*
X030917D02*
X031027D01*
X030697D02*
X030807D01*
X030347D02*
X030467D01*
X029907D02*
X030017D01*
X029587D02*
X029697D01*
X034477Y026256D02*
X034587D01*
X034157D02*
X034267D01*
X033957D02*
X034067D01*
X033647D02*
X033757D01*
X033467D02*
X033577D01*
X033147D02*
X033257D01*
X032947D02*
X033057D01*
X032637D02*
X032747D01*
X032127D02*
X032317D01*
X031747D02*
X031857D01*
X031427D02*
X031537D01*
X031227D02*
X031337D01*
X030917D02*
X031027D01*
X030697D02*
X030807D01*
X030347D02*
X030467D01*
X029907D02*
X030017D01*
X029587D02*
X029697D01*
X034477Y026246D02*
X034587D01*
X034157D02*
X034267D01*
X033957D02*
X034067D01*
X033647D02*
X033757D01*
X033147D02*
X033577D01*
X032947D02*
X033057D01*
X032637D02*
X032747D01*
X032027D02*
X032317D01*
X031747D02*
X031857D01*
X031427D02*
X031537D01*
X031227D02*
X031337D01*
X030917D02*
X031027D01*
X030697D02*
X030807D01*
X030357D02*
X030467D01*
X029587D02*
X030017D01*
X034477Y026236D02*
X034587D01*
X034157D02*
X034267D01*
X033957D02*
X034067D01*
X033647D02*
X033757D01*
X033147D02*
X033577D01*
X032947D02*
X033057D01*
X032637D02*
X032747D01*
X031997D02*
X032317D01*
X031747D02*
X031857D01*
X031427D02*
X031537D01*
X031227D02*
X031337D01*
X030917D02*
X031027D01*
X030697D02*
X030807D01*
X030357D02*
X030467D01*
X029587D02*
X030017D01*
X034477Y026226D02*
X034587D01*
X034157D02*
X034267D01*
X033957D02*
X034067D01*
X033647D02*
X033757D01*
X033147D02*
X033577D01*
X032947D02*
X033057D01*
X032637D02*
X032747D01*
X031977D02*
X032307D01*
X031747D02*
X031857D01*
X031417D02*
X031537D01*
X031227D02*
X031337D01*
X030917D02*
X031027D01*
X030697D02*
X030807D01*
X030357D02*
X030467D01*
X029587D02*
X030017D01*
X034477Y026216D02*
X034587D01*
X034157D02*
X034267D01*
X033957D02*
X034067D01*
X033647D02*
X033757D01*
X033147D02*
X033577D01*
X032947D02*
X033057D01*
X032637D02*
X032747D01*
X031957D02*
X032307D01*
X031747D02*
X031857D01*
X031417D02*
X031537D01*
X031227D02*
X031337D01*
X030917D02*
X031027D01*
X030697D02*
X030807D01*
X030357D02*
X030467D01*
X029587D02*
X030017D01*
X034477Y026206D02*
X034587D01*
X034147D02*
X034267D01*
X033957D02*
X034067D01*
X033647D02*
X033757D01*
X033147D02*
X033577D01*
X032947D02*
X033057D01*
X032637D02*
X032747D01*
X031947D02*
X032297D01*
X031747D02*
X031857D01*
X031417D02*
X031537D01*
X031227D02*
X031337D01*
X030917D02*
X031027D01*
X030697D02*
X030807D01*
X030357D02*
X030467D01*
X029587D02*
X030017D01*
X034477Y026196D02*
X034587D01*
X034147D02*
X034267D01*
X033957D02*
X034067D01*
X033647D02*
X033757D01*
X033147D02*
X033577D01*
X032947D02*
X033057D01*
X032637D02*
X032747D01*
X031937D02*
X032287D01*
X031747D02*
X031857D01*
X031417D02*
X031537D01*
X031227D02*
X031337D01*
X030917D02*
X031027D01*
X030697D02*
X030807D01*
X030357D02*
X030467D01*
X029587D02*
X030017D01*
X034477Y026186D02*
X034587D01*
X034157D02*
X034267D01*
X033957D02*
X034067D01*
X033647D02*
X033757D01*
X033147D02*
X033577D01*
X032947D02*
X033057D01*
X032637D02*
X032747D01*
X031937D02*
X032277D01*
X031747D02*
X031857D01*
X031417D02*
X031537D01*
X031227D02*
X031337D01*
X030917D02*
X031027D01*
X030697D02*
X030807D01*
X030357D02*
X030467D01*
X029587D02*
X030017D01*
X034477Y026176D02*
X034587D01*
X034157D02*
X034267D01*
X033957D02*
X034067D01*
X033647D02*
X033757D01*
X033147D02*
X033577D01*
X032947D02*
X033057D01*
X032637D02*
X032747D01*
X031927D02*
X032257D01*
X031747D02*
X031857D01*
X031417D02*
X031537D01*
X031227D02*
X031337D01*
X030917D02*
X031027D01*
X030697D02*
X030807D01*
X030357D02*
X030467D01*
X029587D02*
X030017D01*
X034477Y026166D02*
X034587D01*
X034157D02*
X034267D01*
X033957D02*
X034067D01*
X033647D02*
X033757D01*
X033147D02*
X033577D01*
X032947D02*
X033057D01*
X032637D02*
X032747D01*
X031927D02*
X032237D01*
X031747D02*
X031857D01*
X031427D02*
X031537D01*
X031227D02*
X031337D01*
X030917D02*
X031027D01*
X030697D02*
X030807D01*
X030357D02*
X030467D01*
X029587D02*
X030017D01*
X034477Y026156D02*
X034587D01*
X034157D02*
X034267D01*
X033957D02*
X034067D01*
X033647D02*
X033757D01*
X033467D02*
X033577D01*
X032947D02*
X033057D01*
X032637D02*
X032747D01*
X031917D02*
X032197D01*
X031747D02*
X031857D01*
X031427D02*
X031537D01*
X031227D02*
X031337D01*
X030917D02*
X031027D01*
X030697D02*
X030807D01*
X030357D02*
X030467D01*
X029907D02*
X030017D01*
X034477Y026146D02*
X034587D01*
X034157D02*
X034267D01*
X033957D02*
X034067D01*
X033647D02*
X033757D01*
X033467D02*
X033577D01*
X032947D02*
X033057D01*
X032637D02*
X032747D01*
X031917D02*
X032087D01*
X031747D02*
X031857D01*
X031427D02*
X031537D01*
X031227D02*
X031337D01*
X030917D02*
X031027D01*
X030697D02*
X030807D01*
X030347D02*
X030467D01*
X029907D02*
X030017D01*
X034477Y026136D02*
X034587D01*
X034157D02*
X034267D01*
X033957D02*
X034067D01*
X033647D02*
X033757D01*
X033467D02*
X033577D01*
X032947D02*
X033057D01*
X032637D02*
X032747D01*
X031917D02*
X032047D01*
X031747D02*
X031857D01*
X031427D02*
X031537D01*
X031227D02*
X031337D01*
X030917D02*
X031027D01*
X030697D02*
X030807D01*
X030347D02*
X030467D01*
X029907D02*
X030017D01*
X034467Y026126D02*
X034587D01*
X034157D02*
X034267D01*
X033957D02*
X034067D01*
X033647D02*
X033757D01*
X033467D02*
X033577D01*
X032947D02*
X033057D01*
X032637D02*
X032747D01*
X031917D02*
X032037D01*
X031737D02*
X031857D01*
X031427D02*
X031537D01*
X031227D02*
X031337D01*
X030917D02*
X031027D01*
X030697D02*
X030807D01*
X030347D02*
X030457D01*
X029907D02*
X030017D01*
X034467Y026116D02*
X034587D01*
X034157D02*
X034267D01*
X033947D02*
X034067D01*
X033647D02*
X033767D01*
X033467D02*
X033577D01*
X032947D02*
X033057D01*
X032637D02*
X032747D01*
X031917D02*
X032027D01*
X031737D02*
X031857D01*
X031427D02*
X031537D01*
X031227D02*
X031337D01*
X030917D02*
X031027D01*
X030697D02*
X030807D01*
X030347D02*
X030457D01*
X029897D02*
X030007D01*
X034467Y026106D02*
X034587D01*
X034157D02*
X034277D01*
X033947D02*
X034067D01*
X033647D02*
X033767D01*
X033457D02*
X033577D01*
X032947D02*
X033057D01*
X032637D02*
X032747D01*
X031907D02*
X032027D01*
X031737D02*
X031847D01*
X031427D02*
X031547D01*
X031217D02*
X031337D01*
X030917D02*
X031037D01*
X030697D02*
X030807D01*
X030337D02*
X030457D01*
X029897D02*
X030007D01*
X034457Y026096D02*
X034577D01*
X034157D02*
X034277D01*
X033947D02*
X034067D01*
X033647D02*
X033767D01*
X033457D02*
X033567D01*
X032947D02*
X033057D01*
X032637D02*
X032747D01*
X032277D02*
X032297D01*
X031907D02*
X032017D01*
X031727D02*
X031847D01*
X031427D02*
X031547D01*
X031217D02*
X031337D01*
X030917D02*
X031037D01*
X030697D02*
X030807D01*
X030337D02*
X030457D01*
X029897D02*
X030007D01*
X034457Y026086D02*
X034577D01*
X034157D02*
X034287D01*
X033937D02*
X034067D01*
X033647D02*
X033777D01*
X033447D02*
X033567D01*
X032947D02*
X033057D01*
X032637D02*
X032747D01*
X032267D02*
X032307D01*
X031907D02*
X032027D01*
X031727D02*
X031847D01*
X031427D02*
X031557D01*
X031207D02*
X031337D01*
X030917D02*
X031047D01*
X030697D02*
X030807D01*
X030327D02*
X030447D01*
X030107D02*
X030127D01*
X029887D02*
X030007D01*
X034447Y026076D02*
X034577D01*
X034167D02*
X034287D01*
X033937D02*
X034067D01*
X033647D02*
X033777D01*
X033447D02*
X033567D01*
X033227D02*
X033247D01*
X032947D02*
X033057D01*
X032637D02*
X032747D01*
X032257D02*
X032317D01*
X031907D02*
X032027D01*
X031717D02*
X031847D01*
X031437D02*
X031557D01*
X031207D02*
X031337D01*
X030917D02*
X031047D01*
X030697D02*
X030807D01*
X030317D02*
X030447D01*
X030097D02*
X030137D01*
X029877D02*
X029997D01*
X029657D02*
X029687D01*
X034437Y026066D02*
X034577D01*
X034167D02*
X034297D01*
X033927D02*
X034067D01*
X033657D02*
X033787D01*
X033437D02*
X033557D01*
X033207D02*
X033257D01*
X032947D02*
X033057D01*
X032637D02*
X032747D01*
X032237D02*
X032327D01*
X031917D02*
X032037D01*
X031707D02*
X031847D01*
X031437D02*
X031567D01*
X031197D02*
X031337D01*
X030917D02*
X031057D01*
X030697D02*
X030807D01*
X030307D02*
X030447D01*
X030087D02*
X030147D01*
X029867D02*
X029997D01*
X029647D02*
X029697D01*
X034427Y026056D02*
X034567D01*
X034167D02*
X034317D01*
X033917D02*
X034067D01*
X033657D02*
X033797D01*
X033427D02*
X033557D01*
X033197D02*
X033277D01*
X032947D02*
X033057D01*
X032637D02*
X032747D01*
X032227D02*
X032337D01*
X031917D02*
X032047D01*
X031697D02*
X031837D01*
X031437D02*
X031587D01*
X031177D02*
X031327D01*
X030917D02*
X031077D01*
X030697D02*
X030807D01*
X030297D02*
X030437D01*
X030077D02*
X030167D01*
X029857D02*
X029997D01*
X029637D02*
X029707D01*
X034407Y026046D02*
X034567D01*
X034177D02*
X034337D01*
X033897D02*
X034067D01*
X033657D02*
X033817D01*
X033407D02*
X033557D01*
X033187D02*
X033297D01*
X032947D02*
X033057D01*
X032637D02*
X032747D01*
X032197D02*
X032347D01*
X031917D02*
X032057D01*
X031677D02*
X031837D01*
X031447D02*
X031607D01*
X031157D02*
X031327D01*
X030917D02*
X031097D01*
X030697D02*
X030807D01*
X030267D02*
X030437D01*
X030057D02*
X030187D01*
X029837D02*
X029987D01*
X029627D02*
X029727D01*
X034177Y026036D02*
X034557D01*
X033657D02*
X034067D01*
X033377D02*
X033547D01*
X033177D02*
X033327D01*
X032947D02*
X033057D01*
X032637D02*
X032747D01*
X032157D02*
X032357D01*
X031917D02*
X032097D01*
X031447D02*
X031827D01*
X030917D02*
X031327D01*
X030697D02*
X030807D01*
X030047D02*
X030427D01*
X029807D02*
X029987D01*
X029607D02*
X029767D01*
X034187Y026026D02*
X034557D01*
X033667D02*
X034067D01*
X033167D02*
X033547D01*
X032947D02*
X033057D01*
X032637D02*
X032747D01*
X031927D02*
X032357D01*
X031457D02*
X031827D01*
X030917D02*
X031317D01*
X030697D02*
X030807D01*
X030037D02*
X030427D01*
X029597D02*
X029977D01*
X034187Y026016D02*
X034547D01*
X033667D02*
X034067D01*
X033157D02*
X033537D01*
X032947D02*
X033057D01*
X032637D02*
X032747D01*
X031927D02*
X032357D01*
X031457D02*
X031817D01*
X030917D02*
X031317D01*
X030697D02*
X030807D01*
X030037D02*
X030417D01*
X029597D02*
X029977D01*
X034197Y026006D02*
X034537D01*
X033677D02*
X034067D01*
X033167D02*
X033527D01*
X032947D02*
X033057D01*
X032637D02*
X032747D01*
X031937D02*
X032347D01*
X031467D02*
X031807D01*
X030917D02*
X031307D01*
X030697D02*
X030807D01*
X030047D02*
X030407D01*
X029597D02*
X029967D01*
X034207Y025996D02*
X034527D01*
X033687D02*
X034067D01*
X033167D02*
X033517D01*
X032947D02*
X033057D01*
X032637D02*
X032747D01*
X031947D02*
X032327D01*
X031477D02*
X031797D01*
X030917D02*
X031297D01*
X030697D02*
X030807D01*
X030057D02*
X030397D01*
X029607D02*
X029957D01*
X034217Y025986D02*
X034517D01*
X033687D02*
X034067D01*
X033187D02*
X033507D01*
X032947D02*
X033057D01*
X032637D02*
X032747D01*
X031957D02*
X032317D01*
X031487D02*
X031787D01*
X030917D02*
X031297D01*
X030697D02*
X030807D01*
X030067D02*
X030387D01*
X029617D02*
X029947D01*
X034227Y025976D02*
X034507D01*
X033957D02*
X034067D01*
X033697D02*
X033947D01*
X033197D02*
X033497D01*
X032947D02*
X033057D01*
X032637D02*
X032747D01*
X031967D02*
X032297D01*
X031497D02*
X031777D01*
X031037D02*
X031287D01*
X030917D02*
X031027D01*
X030697D02*
X030807D01*
X030087D02*
X030377D01*
X029627D02*
X029937D01*
X034237Y025966D02*
X034497D01*
X033957D02*
X034067D01*
X033717D02*
X033937D01*
X033207D02*
X033487D01*
X032947D02*
X033057D01*
X032637D02*
X032747D01*
X031977D02*
X032287D01*
X031507D02*
X031767D01*
X031047D02*
X031267D01*
X030917D02*
X031027D01*
X030697D02*
X030807D01*
X030097D02*
X030367D01*
X029647D02*
X029927D01*
X034257Y025956D02*
X034477D01*
X033957D02*
X034067D01*
X033727D02*
X033917D01*
X033227D02*
X033467D01*
X032947D02*
X033057D01*
X032637D02*
X032747D01*
X031997D02*
X032267D01*
X031527D02*
X031747D01*
X031057D02*
X031257D01*
X030917D02*
X031027D01*
X030697D02*
X030807D01*
X030117D02*
X030347D01*
X029667D02*
X029907D01*
X034277Y025946D02*
X034457D01*
X033957D02*
X034067D01*
X033747D02*
X033897D01*
X033247D02*
X033447D01*
X032947D02*
X033057D01*
X032637D02*
X032747D01*
X032027D02*
X032237D01*
X031547D02*
X031727D01*
X031077D02*
X031237D01*
X030917D02*
X031027D01*
X030697D02*
X030807D01*
X030137D02*
X030327D01*
X029687D02*
X029887D01*
X034307Y025936D02*
X034427D01*
X033957D02*
X034067D01*
X033767D02*
X033877D01*
X033287D02*
X033417D01*
X032947D02*
X033057D01*
X032637D02*
X032747D01*
X032057D02*
X032197D01*
X031577D02*
X031697D01*
X031107D02*
X031207D01*
X030917D02*
X031027D01*
X030697D02*
X030807D01*
X030167D02*
X030297D01*
X029717D02*
X029847D01*
X033957Y025926D02*
X034067D01*
X033957Y025916D02*
X034067D01*
X033957Y025906D02*
X034067D01*
X033957Y025896D02*
X034067D01*
X033957Y025886D02*
X034067D01*
X033957Y025876D02*
X034067D01*
X033957Y025866D02*
X034067D01*
X033957Y025856D02*
X034067D01*
X033957Y025846D02*
X034067D01*
X032267D02*
X032377D01*
X033957Y025836D02*
X034067D01*
X032267D02*
X032377D01*
X033957Y025826D02*
X034067D01*
X032267D02*
X032377D01*
X033957Y025816D02*
X034067D01*
X032267D02*
X032377D01*
X033957Y025806D02*
X034067D01*
X032267D02*
X032377D01*
X033957Y025796D02*
X034067D01*
X032267D02*
X032377D01*
X033957Y025786D02*
X034067D01*
X032267D02*
X032377D01*
X033957Y025776D02*
X034067D01*
X032267D02*
X032377D01*
X033957Y025766D02*
X034067D01*
X032267D02*
X032377D01*
X033957Y025756D02*
X034067D01*
X032267D02*
X032377D01*
X033957Y025746D02*
X034067D01*
X032267D02*
X032377D01*
X033957Y025736D02*
X034067D01*
X032267D02*
X032377D01*
X033957Y025726D02*
X034067D01*
X032267D02*
X032377D01*
X033957Y025716D02*
X034067D01*
X032267D02*
X032377D01*
X033957Y025706D02*
X034067D01*
X032267D02*
X032377D01*
X033957Y025696D02*
X034067D01*
X032267D02*
X032377D01*
X033957Y025686D02*
X034067D01*
X032267D02*
X032377D01*
X033957Y025676D02*
X034067D01*
X032267D02*
X032377D01*
X033957Y025666D02*
X034067D01*
X032267D02*
X032377D01*
X033957Y025656D02*
X034067D01*
X032267D02*
X032377D01*
X033957Y025646D02*
X034067D01*
X032267D02*
X032377D01*
X033957Y025636D02*
X034067D01*
X033767D02*
X033887D01*
X033277D02*
X033457D01*
X032937D02*
X033047D01*
X032737D02*
X032867D01*
X032447D02*
X032577D01*
X032267D02*
X032377D01*
X032097D02*
X032217D01*
X031807D02*
X031887D01*
X031477D02*
X031587D01*
X031167D02*
X031347D01*
X030827D02*
X030937D01*
X030637D02*
X030757D01*
X030297D02*
X030437D01*
X033957Y025626D02*
X034067D01*
X033737D02*
X033907D01*
X033247D02*
X033487D01*
X032937D02*
X033047D01*
X032717D02*
X032887D01*
X032427D02*
X032597D01*
X032267D02*
X032377D01*
X032097D02*
X032217D01*
X031797D02*
X031887D01*
X031477D02*
X031597D01*
X031137D02*
X031377D01*
X030827D02*
X030937D01*
X030607D02*
X030777D01*
X030267D02*
X030457D01*
X033957Y025616D02*
X034067D01*
X033727D02*
X033927D01*
X033227D02*
X033507D01*
X032937D02*
X033047D01*
X032697D02*
X032907D01*
X032417D02*
X032617D01*
X032267D02*
X032377D01*
X032097D02*
X032207D01*
X031797D02*
X031897D01*
X031477D02*
X031597D01*
X031117D02*
X031397D01*
X030827D02*
X030937D01*
X030597D02*
X030797D01*
X030247D02*
X030477D01*
X033957Y025606D02*
X034067D01*
X033707D02*
X033937D01*
X033207D02*
X033517D01*
X032937D02*
X033047D01*
X032687D02*
X032917D01*
X032397D02*
X032627D01*
X032267D02*
X032377D01*
X032087D02*
X032207D01*
X031797D02*
X031897D01*
X031487D02*
X031597D01*
X031107D02*
X031407D01*
X030827D02*
X030937D01*
X030577D02*
X030807D01*
X030237D02*
X030497D01*
X033697Y025596D02*
X034067D01*
X033197D02*
X033527D01*
X032937D02*
X033047D01*
X032687D02*
X032927D01*
X032387D02*
X032637D01*
X032267D02*
X032377D01*
X032087D02*
X032207D01*
X031787D02*
X031897D01*
X031487D02*
X031607D01*
X031087D02*
X031417D01*
X030827D02*
X030937D01*
X030577D02*
X030817D01*
X030227D02*
X030507D01*
X033687Y025586D02*
X034067D01*
X033187D02*
X033537D01*
X032697D02*
X033047D01*
X032267D02*
X032647D01*
X032087D02*
X032207D01*
X031787D02*
X031907D01*
X031487D02*
X031607D01*
X031077D02*
X031427D01*
X030587D02*
X030937D01*
X030207D02*
X030517D01*
X033677Y025576D02*
X034067D01*
X033177D02*
X033547D01*
X032707D02*
X033047D01*
X032267D02*
X032657D01*
X032087D02*
X032197D01*
X031787D02*
X031907D01*
X031487D02*
X031607D01*
X031077D02*
X031437D01*
X030597D02*
X030937D01*
X030197D02*
X030527D01*
X033677Y025566D02*
X034067D01*
X033177D02*
X033547D01*
X032717D02*
X033047D01*
X032267D02*
X032657D01*
X032077D02*
X032197D01*
X031777D02*
X031907D01*
X031497D02*
X031607D01*
X031067D02*
X031447D01*
X030607D02*
X030937D01*
X030197D02*
X030527D01*
X033667Y025556D02*
X034067D01*
X033167D02*
X033537D01*
X032727D02*
X033047D01*
X032267D02*
X032667D01*
X032077D02*
X032197D01*
X031777D02*
X031917D01*
X031497D02*
X031617D01*
X031057D02*
X031437D01*
X030617D02*
X030937D01*
X030187D02*
X030537D01*
X033667Y025546D02*
X034067D01*
X033167D02*
X033527D01*
X032727D02*
X033047D01*
X032267D02*
X032677D01*
X032077D02*
X032187D01*
X031777D02*
X031917D01*
X031497D02*
X031617D01*
X031057D02*
X031417D01*
X030627D02*
X030937D01*
X030177D02*
X030547D01*
X033657Y025536D02*
X034067D01*
X033417D02*
X033517D01*
X033157D02*
X033317D01*
X032737D02*
X033047D01*
X032267D02*
X032677D01*
X032077D02*
X032187D01*
X031767D02*
X031917D01*
X031507D02*
X031617D01*
X031307D02*
X031407D01*
X031057D02*
X031207D01*
X030637D02*
X030937D01*
X030397D02*
X030547D01*
X030177D02*
X030337D01*
X033897Y025526D02*
X034067D01*
X033657D02*
X033817D01*
X033437D02*
X033507D01*
X033157D02*
X033287D01*
X032877D02*
X033047D01*
X032747D02*
X032797D01*
X032527D02*
X032677D01*
X032267D02*
X032437D01*
X032067D02*
X032187D01*
X031767D02*
X031927D01*
X031507D02*
X031617D01*
X031337D02*
X031397D01*
X031047D02*
X031177D01*
X030767D02*
X030937D01*
X030637D02*
X030687D01*
X030417D02*
X030557D01*
X030167D02*
X030307D01*
X033917Y025516D02*
X034067D01*
X033657D02*
X033797D01*
X033447D02*
X033487D01*
X033157D02*
X033277D01*
X032897D02*
X033047D01*
X032757D02*
X032777D01*
X032537D02*
X032677D01*
X032267D02*
X032417D01*
X032067D02*
X032177D01*
X031767D02*
X031927D01*
X031507D02*
X031627D01*
X031347D02*
X031387D01*
X031047D02*
X031167D01*
X030787D02*
X030937D01*
X030647D02*
X030667D01*
X030437D02*
X030557D01*
X030167D02*
X030297D01*
X033927Y025506D02*
X034067D01*
X033647D02*
X033787D01*
X033457D02*
X033477D01*
X033157D02*
X033267D01*
X032907D02*
X033047D01*
X032547D02*
X032687D01*
X032267D02*
X032407D01*
X032067D02*
X032177D01*
X031757D02*
X031927D01*
X031517D02*
X031627D01*
X031357D02*
X031367D01*
X031047D02*
X031167D01*
X030797D02*
X030937D01*
X030447D02*
X030567D01*
X030157D02*
X030287D01*
X033937Y025496D02*
X034067D01*
X033647D02*
X033777D01*
X033157D02*
X033267D01*
X032917D02*
X033047D01*
X032557D02*
X032687D01*
X032267D02*
X032397D01*
X032057D02*
X032177D01*
X031757D02*
X031937D01*
X031517D02*
X031627D01*
X031047D02*
X031157D01*
X030807D02*
X030937D01*
X030447D02*
X030567D01*
X030157D02*
X030277D01*
X033947Y025486D02*
X034067D01*
X033647D02*
X033777D01*
X033157D02*
X033267D01*
X032917D02*
X033047D01*
X032567D02*
X032687D01*
X032267D02*
X032397D01*
X032057D02*
X032167D01*
X031757D02*
X031937D01*
X031517D02*
X031637D01*
X031047D02*
X031157D01*
X030807D02*
X030937D01*
X030457D02*
X030567D01*
X030157D02*
X030277D01*
X033947Y025476D02*
X034067D01*
X033647D02*
X033767D01*
X033157D02*
X033267D01*
X032927D02*
X033047D01*
X032567D02*
X032687D01*
X032267D02*
X032387D01*
X032057D02*
X032167D01*
X031747D02*
X031937D01*
X031527D02*
X031637D01*
X031047D02*
X031157D01*
X030817D02*
X030937D01*
X030457D02*
X030577D01*
X030157D02*
X030267D01*
X033947Y025466D02*
X034067D01*
X033647D02*
X033767D01*
X033157D02*
X033267D01*
X032927D02*
X033047D01*
X032567D02*
X032687D01*
X032267D02*
X032387D01*
X032057D02*
X032167D01*
X031747D02*
X031947D01*
X031527D02*
X031637D01*
X031047D02*
X031157D01*
X030817D02*
X030937D01*
X030467D02*
X030577D01*
X030147D02*
X030267D01*
X033957Y025456D02*
X034067D01*
X033647D02*
X033757D01*
X033157D02*
X033267D01*
X032927D02*
X033047D01*
X032577D02*
X032687D01*
X032267D02*
X032387D01*
X032047D02*
X032157D01*
X031847D02*
X031947D01*
X031747D02*
X031837D01*
X031527D02*
X031637D01*
X031047D02*
X031157D01*
X030827D02*
X030937D01*
X030467D02*
X030577D01*
X030147D02*
X030267D01*
X033957Y025446D02*
X034067D01*
X033647D02*
X033757D01*
X033157D02*
X033267D01*
X032927D02*
X033047D01*
X032577D02*
X032687D01*
X032267D02*
X032387D01*
X032047D02*
X032157D01*
X031857D02*
X031947D01*
X031737D02*
X031837D01*
X031537D02*
X031647D01*
X031047D02*
X031157D01*
X030827D02*
X030937D01*
X030467D02*
X030577D01*
X030147D02*
X030257D01*
X033957Y025436D02*
X034067D01*
X033647D02*
X033757D01*
X033157D02*
X033267D01*
X032937D02*
X033047D01*
X032577D02*
X032687D01*
X032267D02*
X032377D01*
X032047D02*
X032157D01*
X031857D02*
X031957D01*
X031737D02*
X031837D01*
X031537D02*
X031647D01*
X031047D02*
X031157D01*
X030827D02*
X030937D01*
X030467D02*
X030577D01*
X030147D02*
X030257D01*
X033957Y025426D02*
X034067D01*
X033647D02*
X033757D01*
X033157D02*
X033267D01*
X032937D02*
X033047D01*
X032577D02*
X032687D01*
X032267D02*
X032377D01*
X032047D02*
X032147D01*
X031857D02*
X031957D01*
X031737D02*
X031837D01*
X031537D02*
X031647D01*
X031047D02*
X031157D01*
X030827D02*
X030937D01*
X030467D02*
X030577D01*
X030147D02*
X030257D01*
X033957Y025416D02*
X034067D01*
X033647D02*
X033757D01*
X033157D02*
X033477D01*
X032937D02*
X033047D01*
X032577D02*
X032687D01*
X032267D02*
X032377D01*
X032037D02*
X032147D01*
X031857D02*
X031957D01*
X031727D02*
X031827D01*
X031547D02*
X031647D01*
X031047D02*
X031367D01*
X030827D02*
X030937D01*
X030147D02*
X030577D01*
X033957Y025406D02*
X034067D01*
X033647D02*
X033757D01*
X033157D02*
X033497D01*
X032937D02*
X033047D01*
X032577D02*
X032687D01*
X032267D02*
X032377D01*
X032037D02*
X032147D01*
X031867D02*
X031967D01*
X031727D02*
X031827D01*
X031547D02*
X031657D01*
X031047D02*
X031397D01*
X030827D02*
X030937D01*
X030147D02*
X030577D01*
X033957Y025396D02*
X034067D01*
X033647D02*
X033757D01*
X033157D02*
X033517D01*
X032937D02*
X033047D01*
X032577D02*
X032687D01*
X032267D02*
X032377D01*
X032037D02*
X032137D01*
X031867D02*
X031967D01*
X031727D02*
X031827D01*
X031547D02*
X031657D01*
X031047D02*
X031407D01*
X030827D02*
X030937D01*
X030147D02*
X030587D01*
X033957Y025386D02*
X034067D01*
X033647D02*
X033757D01*
X033157D02*
X033527D01*
X032937D02*
X033047D01*
X032577D02*
X032687D01*
X032267D02*
X032377D01*
X032027D02*
X032137D01*
X031867D02*
X031967D01*
X031727D02*
X031817D01*
X031557D02*
X031657D01*
X031047D02*
X031427D01*
X030827D02*
X030937D01*
X030147D02*
X030587D01*
X033957Y025376D02*
X034067D01*
X033647D02*
X033757D01*
X033157D02*
X033537D01*
X032937D02*
X033047D01*
X032577D02*
X032687D01*
X032267D02*
X032377D01*
X032027D02*
X032137D01*
X031877D02*
X031977D01*
X031717D02*
X031817D01*
X031557D02*
X031667D01*
X031047D02*
X031437D01*
X030827D02*
X030937D01*
X030147D02*
X030587D01*
X033957Y025366D02*
X034067D01*
X033647D02*
X033757D01*
X033157D02*
X033547D01*
X032937D02*
X033047D01*
X032577D02*
X032687D01*
X032267D02*
X032377D01*
X032027D02*
X032127D01*
X031877D02*
X031977D01*
X031717D02*
X031817D01*
X031557D02*
X031667D01*
X031047D02*
X031437D01*
X030827D02*
X030937D01*
X030147D02*
X030587D01*
X033957Y025356D02*
X034067D01*
X033647D02*
X033757D01*
X033157D02*
X033557D01*
X032937D02*
X033047D01*
X032577D02*
X032687D01*
X032267D02*
X032377D01*
X032027D02*
X032127D01*
X031877D02*
X031977D01*
X031717D02*
X031807D01*
X031567D02*
X031667D01*
X031047D02*
X031447D01*
X030827D02*
X030937D01*
X030147D02*
X030587D01*
X033957Y025346D02*
X034067D01*
X033647D02*
X033757D01*
X033157D02*
X033557D01*
X032937D02*
X033047D01*
X032577D02*
X032687D01*
X032267D02*
X032377D01*
X032017D02*
X032127D01*
X031887D02*
X031977D01*
X031707D02*
X031807D01*
X031567D02*
X031667D01*
X031047D02*
X031457D01*
X030827D02*
X030937D01*
X030147D02*
X030587D01*
X033957Y025336D02*
X034067D01*
X033647D02*
X033757D01*
X033157D02*
X033567D01*
X032937D02*
X033047D01*
X032577D02*
X032687D01*
X032267D02*
X032377D01*
X032017D02*
X032127D01*
X031887D02*
X031987D01*
X031707D02*
X031807D01*
X031567D02*
X031677D01*
X031047D02*
X031457D01*
X030827D02*
X030937D01*
X030147D02*
X030577D01*
X033957Y025326D02*
X034067D01*
X033647D02*
X033757D01*
X033437D02*
X033567D01*
X033157D02*
X033267D01*
X032937D02*
X033047D01*
X032577D02*
X032687D01*
X032267D02*
X032377D01*
X032017D02*
X032117D01*
X031887D02*
X031987D01*
X031707D02*
X031807D01*
X031567D02*
X031677D01*
X031327D02*
X031467D01*
X031047D02*
X031157D01*
X030827D02*
X030937D01*
X030467D02*
X030577D01*
X033957Y025316D02*
X034067D01*
X033647D02*
X033757D01*
X033457D02*
X033577D01*
X033157D02*
X033267D01*
X032937D02*
X033047D01*
X032577D02*
X032687D01*
X032267D02*
X032377D01*
X032007D02*
X032117D01*
X031887D02*
X031987D01*
X031697D02*
X031797D01*
X031577D02*
X031677D01*
X031347D02*
X031467D01*
X031047D02*
X031157D01*
X030827D02*
X030937D01*
X030467D02*
X030577D01*
X033957Y025306D02*
X034067D01*
X033647D02*
X033757D01*
X033467D02*
X033577D01*
X033157D02*
X033267D01*
X032937D02*
X033047D01*
X032577D02*
X032687D01*
X032267D02*
X032387D01*
X032007D02*
X032117D01*
X031897D02*
X031997D01*
X031697D02*
X031797D01*
X031577D02*
X031677D01*
X031357D02*
X031467D01*
X031047D02*
X031157D01*
X030827D02*
X030937D01*
X030467D02*
X030577D01*
X033957Y025296D02*
X034067D01*
X033647D02*
X033757D01*
X033467D02*
X033577D01*
X033157D02*
X033267D01*
X032937D02*
X033047D01*
X032577D02*
X032687D01*
X032267D02*
X032387D01*
X032007D02*
X032107D01*
X031897D02*
X031997D01*
X031697D02*
X031797D01*
X031577D02*
X031687D01*
X031357D02*
X031467D01*
X031047D02*
X031157D01*
X030827D02*
X030937D01*
X030467D02*
X030577D01*
X033957Y025286D02*
X034067D01*
X033647D02*
X033757D01*
X033477D02*
X033577D01*
X033157D02*
X033267D01*
X032937D02*
X033047D01*
X032567D02*
X032687D01*
X032267D02*
X032387D01*
X032007D02*
X032107D01*
X031897D02*
X031997D01*
X031587D02*
X031787D01*
X031367D02*
X031467D01*
X031047D02*
X031157D01*
X030827D02*
X030937D01*
X030467D02*
X030577D01*
X033957Y025276D02*
X034067D01*
X033647D02*
X033757D01*
X033477D02*
X033577D01*
X033157D02*
X033267D01*
X032937D02*
X033047D01*
X032567D02*
X032687D01*
X032267D02*
X032387D01*
X031907D02*
X032107D01*
X031587D02*
X031787D01*
X031367D02*
X031467D01*
X031047D02*
X031157D01*
X030827D02*
X030937D01*
X030457D02*
X030577D01*
X033957Y025266D02*
X034067D01*
X033647D02*
X033757D01*
X033477D02*
X033577D01*
X033157D02*
X033267D01*
X032937D02*
X033047D01*
X032567D02*
X032687D01*
X032267D02*
X032397D01*
X031907D02*
X032097D01*
X031587D02*
X031787D01*
X031367D02*
X031467D01*
X031047D02*
X031157D01*
X030827D02*
X030937D01*
X030457D02*
X030567D01*
X033957Y025256D02*
X034067D01*
X033647D02*
X033757D01*
X033467D02*
X033577D01*
X033157D02*
X033267D01*
X032937D02*
X033047D01*
X032557D02*
X032687D01*
X032267D02*
X032397D01*
X031907D02*
X032097D01*
X031597D02*
X031777D01*
X031367D02*
X031467D01*
X031047D02*
X031157D01*
X030827D02*
X030937D01*
X030447D02*
X030567D01*
X030227D02*
X030247D01*
X033957Y025246D02*
X034067D01*
X033647D02*
X033757D01*
X033467D02*
X033577D01*
X033157D02*
X033277D01*
X032937D02*
X033047D01*
X032547D02*
X032687D01*
X032267D02*
X032407D01*
X031917D02*
X032097D01*
X031597D02*
X031777D01*
X031357D02*
X031467D01*
X031047D02*
X031167D01*
X030827D02*
X030937D01*
X030437D02*
X030567D01*
X030217D02*
X030257D01*
X033957Y025236D02*
X034067D01*
X033647D02*
X033757D01*
X033457D02*
X033577D01*
X033157D02*
X033277D01*
X032937D02*
X033047D01*
X032537D02*
X032677D01*
X032267D02*
X032417D01*
X031917D02*
X032087D01*
X031597D02*
X031777D01*
X031347D02*
X031467D01*
X031047D02*
X031177D01*
X030827D02*
X030937D01*
X030427D02*
X030557D01*
X030207D02*
X030267D01*
X033957Y025226D02*
X034067D01*
X033647D02*
X033757D01*
X033447D02*
X033577D01*
X033157D02*
X033287D01*
X032937D02*
X033047D01*
X032527D02*
X032677D01*
X032267D02*
X032437D01*
X031917D02*
X032087D01*
X031607D02*
X031777D01*
X031337D02*
X031467D01*
X031047D02*
X031187D01*
X030827D02*
X030937D01*
X030417D02*
X030557D01*
X030187D02*
X030287D01*
X033957Y025216D02*
X034067D01*
X033647D02*
X033757D01*
X033417D02*
X033567D01*
X033157D02*
X033317D01*
X032937D02*
X033047D01*
X032267D02*
X032677D01*
X031917D02*
X032087D01*
X031607D02*
X031767D01*
X031307D02*
X031467D01*
X031047D02*
X031207D01*
X030827D02*
X030937D01*
X030387D02*
X030547D01*
X030177D02*
X030317D01*
X033957Y025206D02*
X034067D01*
X033647D02*
X033757D01*
X033157D02*
X033567D01*
X032937D02*
X033047D01*
X032267D02*
X032677D01*
X031927D02*
X032077D01*
X031607D02*
X031767D01*
X031047D02*
X031457D01*
X030827D02*
X030937D01*
X030167D02*
X030547D01*
X033957Y025196D02*
X034067D01*
X033647D02*
X033757D01*
X033157D02*
X033567D01*
X032937D02*
X033047D01*
X032267D02*
X032667D01*
X031927D02*
X032077D01*
X031617D02*
X031767D01*
X031047D02*
X031457D01*
X030827D02*
X030937D01*
X030157D02*
X030537D01*
X033957Y025186D02*
X034067D01*
X033647D02*
X033757D01*
X033157D02*
X033557D01*
X032937D02*
X033047D01*
X032267D02*
X032657D01*
X031927D02*
X032077D01*
X031617D02*
X031757D01*
X031047D02*
X031447D01*
X030827D02*
X030937D01*
X030157D02*
X030537D01*
X033957Y025176D02*
X034067D01*
X033647D02*
X033757D01*
X033157D02*
X033547D01*
X032937D02*
X033047D01*
X032267D02*
X032657D01*
X031937D02*
X032067D01*
X031617D02*
X031757D01*
X031047D02*
X031447D01*
X030827D02*
X030937D01*
X030167D02*
X030527D01*
X033957Y025166D02*
X034067D01*
X033647D02*
X033757D01*
X033157D02*
X033547D01*
X032937D02*
X033047D01*
X032267D02*
X032647D01*
X031937D02*
X032067D01*
X031627D02*
X031757D01*
X031047D02*
X031437D01*
X030827D02*
X030937D01*
X030187D02*
X030517D01*
X033957Y025156D02*
X034067D01*
X033647D02*
X033757D01*
X033157D02*
X033537D01*
X032937D02*
X033047D01*
X032387D02*
X032637D01*
X032267D02*
X032377D01*
X031937D02*
X032067D01*
X031627D02*
X031747D01*
X031047D02*
X031427D01*
X030827D02*
X030937D01*
X030197D02*
X030507D01*
X033957Y025146D02*
X034067D01*
X033647D02*
X033757D01*
X033157D02*
X033527D01*
X032937D02*
X033047D01*
X032397D02*
X032627D01*
X032267D02*
X032377D01*
X031947D02*
X032057D01*
X031627D02*
X031747D01*
X031047D02*
X031417D01*
X030827D02*
X030937D01*
X030207D02*
X030487D01*
X033957Y025136D02*
X034067D01*
X033647D02*
X033757D01*
X033277D02*
X033507D01*
X033157D02*
X033267D01*
X032937D02*
X033047D01*
X032407D02*
X032617D01*
X032267D02*
X032377D01*
X031947D02*
X032057D01*
X031637D02*
X031747D01*
X031167D02*
X031397D01*
X031047D02*
X031157D01*
X030827D02*
X030937D01*
X030227D02*
X030477D01*
X033957Y025126D02*
X034067D01*
X033647D02*
X033757D01*
X033297D02*
X033487D01*
X033157D02*
X033267D01*
X032937D02*
X033047D01*
X032427D02*
X032597D01*
X032267D02*
X032377D01*
X031947D02*
X032057D01*
X031637D02*
X031747D01*
X031187D02*
X031387D01*
X031047D02*
X031157D01*
X030827D02*
X030937D01*
X030247D02*
X030457D01*
X033957Y025116D02*
X034067D01*
X033647D02*
X033757D01*
X033317D02*
X033467D01*
X033157D02*
X033267D01*
X032937D02*
X033047D01*
X032447D02*
X032577D01*
X032267D02*
X032377D01*
X031947D02*
X032047D01*
X031637D02*
X031737D01*
X031207D02*
X031357D01*
X031047D02*
X031157D01*
X030827D02*
X030937D01*
X030277D02*
X030427D01*
X026075Y026023D02*
X026255D01*
X026045Y026033D02*
X026255D01*
X026875D02*
X026915D01*
X025985Y026043D02*
X026265D01*
X026875D02*
X027035D01*
X025955Y026053D02*
X026265D01*
X026865D02*
X027085D01*
X025945Y026063D02*
X026265D01*
X026865D02*
X027115D01*
X025915Y026073D02*
X026275D01*
X026865D02*
X027145D01*
X025895Y026083D02*
X026275D01*
X026855D02*
X027165D01*
X025865Y026093D02*
X026285D01*
X026845D02*
X027195D01*
X025865Y026103D02*
X026285D01*
X026845D02*
X027215D01*
X025865Y026113D02*
X026295D01*
X026845D02*
X027235D01*
X025865Y026123D02*
X026305D01*
X026835D02*
X027255D01*
X025865Y026133D02*
X026305D01*
X026825D02*
X027265D01*
X025865Y026143D02*
X026305D01*
X026825D02*
X027265D01*
X025865Y026153D02*
X026315D01*
X026815D02*
X027265D01*
X025865Y026163D02*
X026315D01*
X026815D02*
X027265D01*
X025865Y026173D02*
X026315D01*
X026815D02*
X027265D01*
X025865Y026183D02*
X026325D01*
X026805D02*
X027265D01*
X025865Y026193D02*
X026325D01*
X026795D02*
X027265D01*
X025865Y026203D02*
X026335D01*
X026795D02*
X027265D01*
X025865Y026213D02*
X026335D01*
X026795D02*
X027265D01*
X025865Y026223D02*
X026345D01*
X026785D02*
X027265D01*
X025865Y026233D02*
X026345D01*
X026775D02*
X027255D01*
X025865Y026243D02*
X026355D01*
X026775D02*
X027255D01*
X025865Y026253D02*
X026355D01*
X026765D02*
X027255D01*
X025865Y026263D02*
X026355D01*
X026765D02*
X027255D01*
X025865Y026273D02*
X026365D01*
X026765D02*
X027255D01*
X025865Y026283D02*
X026365D01*
X026755D02*
X027255D01*
X025865Y026293D02*
X026715D01*
X026745D02*
X027255D01*
X025865Y026303D02*
X027255D01*
X025865Y026313D02*
X027255D01*
X025865Y026323D02*
X027255D01*
X025865Y026333D02*
X027255D01*
X025865Y026343D02*
X027255D01*
X025865Y026353D02*
X027255D01*
X025275Y026363D02*
X025295D01*
X025865D02*
X027255D01*
X025245Y026373D02*
X025315D01*
X025865D02*
X027255D01*
X025235Y026383D02*
X025325D01*
X025865D02*
X027255D01*
X025215Y026393D02*
X025335D01*
X025855D02*
X027255D01*
X025185Y026403D02*
X025345D01*
X025825D02*
X027255D01*
X025175Y026413D02*
X025355D01*
X025805D02*
X027255D01*
X025155Y026423D02*
X025375D01*
X025775D02*
X027255D01*
X027805D02*
X027845D01*
X025145Y026433D02*
X025375D01*
X025755D02*
X027265D01*
X027805D02*
X027855D01*
X025135Y026443D02*
X025385D01*
X025735D02*
X027295D01*
X027795D02*
X027885D01*
X025115Y026453D02*
X025405D01*
X025695D02*
X027325D01*
X027775D02*
X027895D01*
X025105Y026463D02*
X025415D01*
X025685D02*
X027345D01*
X027765D02*
X027915D01*
X025095Y026473D02*
X025425D01*
X025665D02*
X027365D01*
X027745D02*
X027935D01*
X025085Y026483D02*
X025435D01*
X025645D02*
X027385D01*
X027745D02*
X027945D01*
X025065Y026493D02*
X025455D01*
X025615D02*
X027405D01*
X027725D02*
X027965D01*
X025055Y026503D02*
X025465D01*
X025595D02*
X027435D01*
X027705D02*
X027975D01*
X025045Y026513D02*
X025475D01*
X025585D02*
X027445D01*
X027695D02*
X027985D01*
X025035Y026523D02*
X025485D01*
X025565D02*
X027465D01*
X027685D02*
X027995D01*
X025035Y026533D02*
X025495D01*
X025545D02*
X027485D01*
X027675D02*
X028005D01*
X025015Y026543D02*
X025505D01*
X025525D02*
X027495D01*
X027655D02*
X028015D01*
X025015Y026553D02*
X027525D01*
X027645D02*
X028035D01*
X025005Y026563D02*
X027535D01*
X027635D02*
X028045D01*
X024995Y026573D02*
X027555D01*
X027615D02*
X028055D01*
X024985Y026583D02*
X027565D01*
X027605D02*
X028055D01*
X024985Y026593D02*
X028065D01*
X024985Y026603D02*
X026405D01*
X026695D02*
X028075D01*
X024985Y026613D02*
X026255D01*
X026755D02*
X028075D01*
X024985Y026623D02*
X026225D01*
X026785D02*
X028095D01*
X024995Y026633D02*
X026165D01*
X026845D02*
X028095D01*
X024995Y026643D02*
X026115D01*
X026915D02*
X028105D01*
X025005Y026653D02*
X026095D01*
X026945D02*
X028115D01*
X025015Y026663D02*
X026045D01*
X027005D02*
X028125D01*
X025015Y026673D02*
X026015D01*
X027025D02*
X028125D01*
X025015Y026683D02*
X025975D01*
X027055D02*
X028115D01*
X025025Y026693D02*
X025925D01*
X027085D02*
X028115D01*
X025025Y026703D02*
X025915D01*
X027105D02*
X028105D01*
X025035Y026713D02*
X025885D01*
X026615D02*
X026685D01*
X027125D02*
X028095D01*
X025035Y026723D02*
X025865D01*
X026525D02*
X026755D01*
X027155D02*
X028095D01*
X025045Y026733D02*
X025855D01*
X026485D02*
X026785D01*
X027175D02*
X028095D01*
X025045Y026743D02*
X025825D01*
X026465D02*
X026795D01*
X027205D02*
X028085D01*
X025045Y026753D02*
X025805D01*
X026445D02*
X026815D01*
X027215D02*
X028075D01*
X025055Y026763D02*
X025785D01*
X026425D02*
X026825D01*
X027245D02*
X028075D01*
X025065Y026773D02*
X025755D01*
X026395D02*
X026835D01*
X027275D02*
X028065D01*
X025065Y026783D02*
X025745D01*
X026375D02*
X026855D01*
X027285D02*
X028065D01*
X025065Y026793D02*
X025725D01*
X026365D02*
X026855D01*
X027315D02*
X028065D01*
X025075Y026803D02*
X025705D01*
X026345D02*
X026865D01*
X027325D02*
X028055D01*
X025085Y026813D02*
X025685D01*
X026335D02*
X026865D01*
X027355D02*
X028045D01*
X025085Y026823D02*
X025655D01*
X026315D02*
X026875D01*
X027375D02*
X028045D01*
X025085Y026833D02*
X025645D01*
X026295D02*
X026875D01*
X027385D02*
X028035D01*
X025095Y026843D02*
X025625D01*
X026295D02*
X026615D01*
X026725D02*
X026885D01*
X027405D02*
X028025D01*
X025095Y026853D02*
X025605D01*
X026275D02*
X026605D01*
X026735D02*
X026885D01*
X027405D02*
X028025D01*
X025105Y026863D02*
X025585D01*
X026275D02*
X026585D01*
X026745D02*
X026885D01*
X027425D02*
X028025D01*
X025115Y026873D02*
X025575D01*
X026255D02*
X026575D01*
X026765D02*
X026885D01*
X027445D02*
X028015D01*
X025125Y026883D02*
X025565D01*
X026245D02*
X026565D01*
X026765D02*
X026895D01*
X027455D02*
X028015D01*
X025135Y026893D02*
X025555D01*
X026235D02*
X026555D01*
X026765D02*
X026895D01*
X027475D02*
X028005D01*
X025145Y026903D02*
X025545D01*
X026225D02*
X026555D01*
X026765D02*
X026895D01*
X027475D02*
X028005D01*
X025155Y026913D02*
X025525D01*
X026215D02*
X026545D01*
X026765D02*
X026895D01*
X027495D02*
X027995D01*
X025165Y026923D02*
X025515D01*
X026205D02*
X026535D01*
X026765D02*
X026905D01*
X027515D02*
X027995D01*
X025175Y026933D02*
X025505D01*
X026195D02*
X026535D01*
X026765D02*
X026905D01*
X027525D02*
X027995D01*
X025185Y026943D02*
X025485D01*
X026195D02*
X026525D01*
X026765D02*
X026905D01*
X027545D02*
X027995D01*
X025195Y026953D02*
X025485D01*
X026175D02*
X026515D01*
X026765D02*
X026905D01*
X027545D02*
X028015D01*
X024715Y026963D02*
X024725D01*
X025205D02*
X025465D01*
X026175D02*
X026515D01*
X026765D02*
X026905D01*
X027565D02*
X028015D01*
X024705Y026973D02*
X024745D01*
X025215D02*
X025445D01*
X026165D02*
X026505D01*
X026765D02*
X026905D01*
X027585D02*
X028025D01*
X024705Y026983D02*
X024755D01*
X025225D02*
X025435D01*
X026155D02*
X026505D01*
X026765D02*
X026905D01*
X027595D02*
X028035D01*
X024695Y026993D02*
X024765D01*
X025235D02*
X025425D01*
X026145D02*
X026505D01*
X026765D02*
X026905D01*
X027605D02*
X028045D01*
X024685Y027003D02*
X024785D01*
X025245D02*
X025415D01*
X026145D02*
X026495D01*
X026765D02*
X026895D01*
X027615D02*
X028055D01*
X024685Y027013D02*
X024795D01*
X025255D02*
X025405D01*
X026135D02*
X026485D01*
X026765D02*
X026895D01*
X027635D02*
X028065D01*
X024665Y027023D02*
X024805D01*
X025265D02*
X025385D01*
X026125D02*
X026485D01*
X026755D02*
X026885D01*
X027655D02*
X028065D01*
X024665Y027033D02*
X024825D01*
X025275D02*
X025375D01*
X026115D02*
X026485D01*
X026755D02*
X026885D01*
X027655D02*
X028075D01*
X024655Y027043D02*
X024835D01*
X025285D02*
X025365D01*
X026115D02*
X026475D01*
X026745D02*
X026885D01*
X027665D02*
X028085D01*
X024645Y027053D02*
X024725D01*
X024735D02*
X024855D01*
X025285D02*
X025355D01*
X026105D02*
X026475D01*
X026745D02*
X026885D01*
X027675D02*
X028095D01*
X024645Y027063D02*
X024715D01*
X024755D02*
X024855D01*
X025295D02*
X025335D01*
X026105D02*
X026475D01*
X026745D02*
X026875D01*
X027685D02*
X028095D01*
X024635Y027073D02*
X024705D01*
X024765D02*
X024875D01*
X025315D02*
X025325D01*
X026095D02*
X026465D01*
X026735D02*
X026875D01*
X027695D02*
X028115D01*
X024625Y027083D02*
X024695D01*
X024785D02*
X024895D01*
X026085D02*
X026465D01*
X026725D02*
X026865D01*
X027705D02*
X028115D01*
X024615Y027093D02*
X024695D01*
X024795D02*
X024905D01*
X026085D02*
X026465D01*
X026725D02*
X026865D01*
X027715D02*
X028125D01*
X024605Y027103D02*
X024685D01*
X024805D02*
X024925D01*
X026075D02*
X026465D01*
X026715D02*
X026865D01*
X027715D02*
X028125D01*
X024605Y027113D02*
X024675D01*
X024815D02*
X024925D01*
X026075D02*
X026455D01*
X026715D02*
X026855D01*
X027725D02*
X028135D01*
X024595Y027123D02*
X024665D01*
X024835D02*
X024945D01*
X026065D02*
X026455D01*
X026705D02*
X026855D01*
X027745D02*
X028145D01*
X024585Y027133D02*
X024655D01*
X024845D02*
X024955D01*
X026065D02*
X026455D01*
X026695D02*
X026845D01*
X027745D02*
X028155D01*
X024585Y027143D02*
X024655D01*
X024865D02*
X024975D01*
X026065D02*
X026455D01*
X026695D02*
X026835D01*
X027755D02*
X028165D01*
X024575Y027153D02*
X024645D01*
X024865D02*
X024985D01*
X026055D02*
X026455D01*
X026675D02*
X026835D01*
X027765D02*
X028165D01*
X024565Y027163D02*
X024645D01*
X024885D02*
X024995D01*
X026045D02*
X026455D01*
X026675D02*
X026825D01*
X027775D02*
X028175D01*
X024555Y027173D02*
X024625D01*
X024905D02*
X025005D01*
X026045D02*
X026445D01*
X026665D02*
X026815D01*
X027785D02*
X028175D01*
X028485D02*
X028515D01*
X024555Y027183D02*
X024625D01*
X024915D02*
X025025D01*
X026045D02*
X026445D01*
X026655D02*
X026815D01*
X027795D02*
X028185D01*
X028425D02*
X028525D01*
X024545Y027193D02*
X024615D01*
X024935D02*
X025035D01*
X026035D02*
X026445D01*
X026645D02*
X026805D01*
X027805D02*
X028195D01*
X028395D02*
X028525D01*
X024535Y027203D02*
X024605D01*
X024935D02*
X025055D01*
X026025D02*
X026445D01*
X026635D02*
X026805D01*
X027805D02*
X028195D01*
X028335D02*
X028535D01*
X024535Y027213D02*
X024605D01*
X024955D02*
X025055D01*
X026025D02*
X026435D01*
X026625D02*
X026785D01*
X027825D02*
X028205D01*
X028305D02*
X028545D01*
X024535Y027223D02*
X024595D01*
X024965D02*
X025075D01*
X026025D02*
X026435D01*
X026625D02*
X026785D01*
X027825D02*
X028215D01*
X028245D02*
X028545D01*
X024535Y027233D02*
X024585D01*
X024985D02*
X025095D01*
X026015D02*
X026435D01*
X026615D02*
X026775D01*
X027835D02*
X028555D01*
X024555Y027243D02*
X024575D01*
X024995D02*
X025105D01*
X026015D02*
X026435D01*
X026605D02*
X026765D01*
X027845D02*
X028565D01*
X024565Y027253D02*
X024575D01*
X025005D02*
X025125D01*
X026015D02*
X026435D01*
X026595D02*
X026765D01*
X027855D02*
X028575D01*
X025015Y027263D02*
X025125D01*
X026015D02*
X026435D01*
X026575D02*
X026755D01*
X027865D02*
X028575D01*
X025035Y027273D02*
X025145D01*
X026015D02*
X026435D01*
X026565D02*
X026735D01*
X027875D02*
X028585D01*
X025045Y027283D02*
X025135D01*
X026005D02*
X026435D01*
X026545D02*
X026735D01*
X027875D02*
X028595D01*
X025065Y027293D02*
X025125D01*
X026005D02*
X026425D01*
X026545D02*
X026715D01*
X027895D02*
X028595D01*
X025075Y027303D02*
X025125D01*
X025995D02*
X026425D01*
X026525D02*
X026715D01*
X027895D02*
X028595D01*
X025085Y027313D02*
X025115D01*
X025995D02*
X026425D01*
X026515D02*
X026705D01*
X027905D02*
X028605D01*
X025995Y027323D02*
X026415D01*
X026515D02*
X026685D01*
X027905D02*
X028605D01*
X025985Y027333D02*
X026415D01*
X026515D02*
X026685D01*
X027915D02*
X028615D01*
X025985Y027343D02*
X026415D01*
X026515D02*
X026665D01*
X027925D02*
X028615D01*
X025985Y027353D02*
X026415D01*
X026505D02*
X026655D01*
X027925D02*
X028625D01*
X025985Y027363D02*
X026415D01*
X026505D02*
X026645D01*
X027935D02*
X028625D01*
X025985Y027373D02*
X026415D01*
X026505D02*
X026635D01*
X027945D02*
X028625D01*
X025975Y027383D02*
X026415D01*
X026505D02*
X026625D01*
X027945D02*
X028635D01*
X025975Y027393D02*
X026415D01*
X026505D02*
X026615D01*
X027945D02*
X028635D01*
X025975Y027403D02*
X026415D01*
X026495D02*
X026605D01*
X027955D02*
X028645D01*
X025975Y027413D02*
X026415D01*
X026495D02*
X026585D01*
X027955D02*
X028645D01*
X024435Y027423D02*
X024445D01*
X025965D02*
X026415D01*
X026495D02*
X026575D01*
X027965D02*
X028645D01*
X024435Y027433D02*
X024465D01*
X025965D02*
X026415D01*
X026495D02*
X026565D01*
X027975D02*
X028645D01*
X024435Y027443D02*
X024475D01*
X025965D02*
X026415D01*
X026495D02*
X026555D01*
X027975D02*
X028645D01*
X024435Y027453D02*
X024495D01*
X025965D02*
X026415D01*
X026495D02*
X026545D01*
X027975D02*
X028655D01*
X024435Y027463D02*
X024495D01*
X025965D02*
X026415D01*
X026495D02*
X026525D01*
X027995D02*
X028655D01*
X024425Y027473D02*
X024515D01*
X025965D02*
X026405D01*
X026495D02*
X026515D01*
X027995D02*
X028665D01*
X024415Y027483D02*
X024525D01*
X025955D02*
X026405D01*
X026495D02*
X026505D01*
X027995D02*
X028665D01*
X024435Y027493D02*
X024545D01*
X025955D02*
X026405D01*
X028005D02*
X028665D01*
X024445Y027503D02*
X024555D01*
X025955D02*
X026405D01*
X026915D02*
X027095D01*
X028005D02*
X028665D01*
X024455Y027513D02*
X024565D01*
X025955D02*
X026405D01*
X026875D02*
X027115D01*
X028015D02*
X028665D01*
X024475Y027523D02*
X024575D01*
X025955D02*
X026405D01*
X026825D02*
X027165D01*
X028025D02*
X028665D01*
X024485Y027533D02*
X024595D01*
X025955D02*
X026405D01*
X026795D02*
X027195D01*
X028025D02*
X028665D01*
X024505Y027543D02*
X024605D01*
X025955D02*
X026405D01*
X026775D02*
X027205D01*
X028035D02*
X028645D01*
X024515Y027553D02*
X024625D01*
X025955D02*
X026405D01*
X026755D02*
X027235D01*
X028035D02*
X028635D01*
X024535Y027563D02*
X024625D01*
X025955D02*
X026405D01*
X026745D02*
X027245D01*
X028045D02*
X028625D01*
X024545Y027573D02*
X024645D01*
X025955D02*
X026395D01*
X026715D02*
X027265D01*
X028055D02*
X028605D01*
X024555Y027583D02*
X024665D01*
X025945D02*
X026395D01*
X026695D02*
X027285D01*
X028055D02*
X028595D01*
X024565Y027593D02*
X024675D01*
X025945D02*
X026395D01*
X026685D02*
X027295D01*
X028055D02*
X028575D01*
X024555Y027603D02*
X024695D01*
X025945D02*
X026395D01*
X026665D02*
X027315D01*
X028065D02*
X028575D01*
X024555Y027613D02*
X024695D01*
X025945D02*
X026385D01*
X026655D02*
X027325D01*
X028075D02*
X028555D01*
X024555Y027623D02*
X024605D01*
X024615D02*
X024715D01*
X025945D02*
X026385D01*
X026635D02*
X027335D01*
X028075D02*
X028535D01*
X024555Y027633D02*
X024605D01*
X024625D02*
X024725D01*
X025945D02*
X026385D01*
X026615D02*
X027355D01*
X028075D02*
X028525D01*
X024545Y027643D02*
X024605D01*
X024645D02*
X024745D01*
X025945D02*
X026385D01*
X026615D02*
X027365D01*
X028085D02*
X028515D01*
X024545Y027653D02*
X024595D01*
X024655D02*
X024755D01*
X025945D02*
X026385D01*
X026595D02*
X027375D01*
X028085D02*
X028505D01*
X024545Y027663D02*
X024595D01*
X024665D02*
X024765D01*
X025945D02*
X026385D01*
X026585D02*
X027385D01*
X028085D02*
X028485D01*
X024535Y027673D02*
X024595D01*
X024685D02*
X024785D01*
X025945D02*
X026385D01*
X026565D02*
X027395D01*
X028085D02*
X028475D01*
X024535Y027683D02*
X024595D01*
X024695D02*
X024795D01*
X025945D02*
X026375D01*
X026555D02*
X027405D01*
X028095D02*
X028465D01*
X024535Y027693D02*
X024595D01*
X024715D02*
X024805D01*
X025945D02*
X026375D01*
X026545D02*
X027415D01*
X028095D02*
X028445D01*
X024535Y027703D02*
X024585D01*
X024725D02*
X024825D01*
X025935D02*
X026375D01*
X026525D02*
X027425D01*
X028105D02*
X028435D01*
X024525Y027713D02*
X024585D01*
X024735D02*
X024845D01*
X025905D02*
X026375D01*
X026515D02*
X027435D01*
X028105D02*
X028435D01*
X024525Y027723D02*
X024575D01*
X024755D02*
X024845D01*
X025895D02*
X026365D01*
X026515D02*
X027445D01*
X028105D02*
X028435D01*
X024515Y027733D02*
X024575D01*
X024765D02*
X024865D01*
X025885D02*
X026365D01*
X026495D02*
X027445D01*
X028105D02*
X028445D01*
X024515Y027743D02*
X024575D01*
X024785D02*
X024875D01*
X025865D02*
X026365D01*
X026495D02*
X027455D01*
X028115D02*
X028445D01*
X024515Y027753D02*
X024575D01*
X024805D02*
X024895D01*
X025855D02*
X026365D01*
X026475D02*
X027465D01*
X028115D02*
X028445D01*
X024515Y027763D02*
X024565D01*
X024815D02*
X024895D01*
X025835D02*
X026365D01*
X026465D02*
X027475D01*
X028125D02*
X028445D01*
X024515Y027773D02*
X024565D01*
X024835D02*
X024895D01*
X025835D02*
X026365D01*
X026465D02*
X027485D01*
X028125D02*
X028445D01*
X024505Y027783D02*
X024565D01*
X024735D02*
X024895D01*
X025815D02*
X026365D01*
X026445D02*
X027485D01*
X028125D02*
X028455D01*
X024505Y027793D02*
X024555D01*
X024665D02*
X024895D01*
X025805D02*
X026355D01*
X026445D02*
X027495D01*
X028125D02*
X028455D01*
X024505Y027803D02*
X024885D01*
X025785D02*
X026355D01*
X026435D02*
X027495D01*
X028135D02*
X028465D01*
X024385Y027813D02*
X024885D01*
X025775D02*
X026355D01*
X026425D02*
X027505D01*
X028135D02*
X028465D01*
X024325Y027823D02*
X024875D01*
X025765D02*
X026355D01*
X026415D02*
X026745D01*
X026835D02*
X027515D01*
X028135D02*
X028465D01*
X024325Y027833D02*
X024865D01*
X025755D02*
X026355D01*
X026415D02*
X026705D01*
X026865D02*
X027515D01*
X028135D02*
X028465D01*
X024315Y027843D02*
X024755D01*
X025745D02*
X026355D01*
X026405D02*
X026655D01*
X026895D02*
X027515D01*
X028145D02*
X028465D01*
X024315Y027853D02*
X024645D01*
X025735D02*
X026355D01*
X026395D02*
X026615D01*
X026925D02*
X027535D01*
X028145D02*
X028475D01*
X024315Y027863D02*
X024595D01*
X025715D02*
X025905D01*
X025925D02*
X026345D01*
X026385D02*
X026605D01*
X026935D02*
X027535D01*
X028155D02*
X028475D01*
X024315Y027873D02*
X024485D01*
X025715D02*
X025895D01*
X025925D02*
X026345D01*
X026375D02*
X026575D01*
X026965D02*
X027535D01*
X028155D02*
X028475D01*
X024305Y027883D02*
X024425D01*
X025695D02*
X025885D01*
X025915D02*
X026345D01*
X026375D02*
X026565D01*
X026965D02*
X027545D01*
X028155D02*
X028475D01*
X024305Y027893D02*
X024325D01*
X025685D02*
X025875D01*
X025915D02*
X026345D01*
X026365D02*
X026545D01*
X026975D02*
X027545D01*
X028155D02*
X028475D01*
X025675Y027903D02*
X025855D01*
X025915D02*
X026345D01*
X026365D02*
X026525D01*
X026995D02*
X027555D01*
X028165D02*
X028475D01*
X025665Y027913D02*
X025855D01*
X025915D02*
X026515D01*
X027005D02*
X027565D01*
X028165D02*
X028485D01*
X025655Y027923D02*
X025835D01*
X025915D02*
X026505D01*
X027015D02*
X027565D01*
X028175D02*
X028485D01*
X025645Y027933D02*
X025825D01*
X025915D02*
X026495D01*
X027025D02*
X027565D01*
X028175D02*
X028485D01*
X025635Y027943D02*
X025815D01*
X025915D02*
X026475D01*
X027035D02*
X027565D01*
X028175D02*
X028495D01*
X025625Y027953D02*
X025805D01*
X025915D02*
X026455D01*
X027045D02*
X027575D01*
X028175D02*
X028495D01*
X025615Y027963D02*
X025795D01*
X025915D02*
X026455D01*
X027055D02*
X027585D01*
X028175D02*
X028495D01*
X025605Y027973D02*
X025775D01*
X025915D02*
X026435D01*
X027065D02*
X027585D01*
X028185D02*
X028495D01*
X025595Y027983D02*
X025775D01*
X025905D02*
X026435D01*
X027065D02*
X027585D01*
X028185D02*
X028495D01*
X025585Y027993D02*
X025755D01*
X025905D02*
X026415D01*
X027075D02*
X027585D01*
X028185D02*
X028495D01*
X025585Y028003D02*
X025745D01*
X025905D02*
X026405D01*
X027085D02*
X027595D01*
X028185D02*
X028495D01*
X025565Y028013D02*
X025735D01*
X025905D02*
X026395D01*
X027095D02*
X027595D01*
X028185D02*
X028495D01*
X025565Y028023D02*
X025725D01*
X025905D02*
X026385D01*
X027095D02*
X027595D01*
X028185D02*
X028495D01*
X025565Y028033D02*
X025725D01*
X025895D02*
X026385D01*
X027105D02*
X027595D01*
X028185D02*
X028505D01*
X025565Y028043D02*
X025705D01*
X025895D02*
X026365D01*
X027105D02*
X027605D01*
X028185D02*
X028505D01*
X025565Y028053D02*
X025695D01*
X025895D02*
X026355D01*
X027115D02*
X027605D01*
X028185D02*
X028505D01*
X025565Y028063D02*
X025695D01*
X025895D02*
X026355D01*
X027115D02*
X027615D01*
X028185D02*
X028505D01*
X025575Y028073D02*
X025685D01*
X025895D02*
X026345D01*
X027125D02*
X027615D01*
X028185D02*
X028515D01*
X025575Y028083D02*
X025675D01*
X025895D02*
X026335D01*
X027125D02*
X027615D01*
X028185D02*
X028555D01*
X025575Y028093D02*
X025675D01*
X025895D02*
X026335D01*
X027135D02*
X027615D01*
X028185D02*
X028575D01*
X025575Y028103D02*
X025655D01*
X025895D02*
X026315D01*
X027145D02*
X027615D01*
X028195D02*
X028625D01*
X025575Y028113D02*
X025655D01*
X025895D02*
X026315D01*
X027145D02*
X027625D01*
X028195D02*
X028675D01*
X025585Y028123D02*
X025645D01*
X025895D02*
X026305D01*
X027145D02*
X027625D01*
X028195D02*
X028705D01*
X025585Y028133D02*
X025635D01*
X025895D02*
X026305D01*
X027145D02*
X027625D01*
X028195D02*
X028755D01*
X025585Y028143D02*
X025625D01*
X025885D02*
X026305D01*
X027155D02*
X027635D01*
X028195D02*
X028775D01*
X025585Y028153D02*
X025625D01*
X025885D02*
X026285D01*
X027155D02*
X027635D01*
X028195D02*
X028795D01*
X025585Y028163D02*
X025615D01*
X025885D02*
X026285D01*
X027155D02*
X027635D01*
X028195D02*
X028805D01*
X025585Y028173D02*
X025605D01*
X025885D02*
X026275D01*
X027165D02*
X027635D01*
X028195D02*
X028805D01*
X025585Y028183D02*
X025605D01*
X025885D02*
X026275D01*
X027165D02*
X027635D01*
X028205D02*
X028805D01*
X025585Y028193D02*
X025595D01*
X025885D02*
X026265D01*
X027175D02*
X027635D01*
X028205D02*
X028805D01*
X024395Y028203D02*
X024805D01*
X025885D02*
X026255D01*
X027175D02*
X027635D01*
X028205D02*
X028815D01*
X024275Y028213D02*
X024805D01*
X025875D02*
X026255D01*
X027175D02*
X027645D01*
X028205D02*
X028815D01*
X024275Y028223D02*
X024805D01*
X025875D02*
X026255D01*
X027175D02*
X027645D01*
X028205D02*
X028815D01*
X024275Y028233D02*
X024805D01*
X025875D02*
X026245D01*
X027175D02*
X027645D01*
X028205D02*
X028815D01*
X024275Y028243D02*
X024805D01*
X025865D02*
X026235D01*
X027175D02*
X027645D01*
X028205D02*
X028815D01*
X024275Y028253D02*
X024805D01*
X025865D02*
X026235D01*
X027185D02*
X027645D01*
X028205D02*
X028815D01*
X024275Y028263D02*
X024805D01*
X025865D02*
X026225D01*
X027185D02*
X027645D01*
X028205D02*
X028815D01*
X024285Y028273D02*
X024345D01*
X024525D02*
X024585D01*
X024755D02*
X024805D01*
X025865D02*
X026215D01*
X027195D02*
X027645D01*
X028205D02*
X028815D01*
X024285Y028283D02*
X024345D01*
X024525D02*
X024585D01*
X024755D02*
X024805D01*
X025865D02*
X026215D01*
X027195D02*
X027645D01*
X028205D02*
X028825D01*
X024285Y028293D02*
X024345D01*
X024525D02*
X024585D01*
X024755D02*
X024805D01*
X025865D02*
X026215D01*
X027195D02*
X027645D01*
X028205D02*
X028825D01*
X024285Y028303D02*
X024345D01*
X024525D02*
X024585D01*
X024755D02*
X024805D01*
X025855D02*
X026205D01*
X027195D02*
X027645D01*
X028205D02*
X028815D01*
X024285Y028313D02*
X024345D01*
X024525D02*
X024585D01*
X024755D02*
X024805D01*
X025855D02*
X026205D01*
X027195D02*
X027645D01*
X028205D02*
X028815D01*
X024285Y028323D02*
X024345D01*
X024525D02*
X024585D01*
X024755D02*
X024805D01*
X025855D02*
X026195D01*
X027195D02*
X027645D01*
X028205D02*
X028815D01*
X024285Y028333D02*
X024345D01*
X024525D02*
X024585D01*
X024755D02*
X024815D01*
X025845D02*
X026195D01*
X027195D02*
X027645D01*
X028205D02*
X028815D01*
X024285Y028343D02*
X024345D01*
X024525D02*
X024585D01*
X024755D02*
X024815D01*
X025845D02*
X026175D01*
X027195D02*
X027645D01*
X028205D02*
X028815D01*
X024285Y028353D02*
X024345D01*
X024525D02*
X024585D01*
X024755D02*
X024815D01*
X025845D02*
X026125D01*
X027205D02*
X027645D01*
X028205D02*
X028815D01*
X024285Y028363D02*
X024345D01*
X024525D02*
X024595D01*
X024755D02*
X024815D01*
X025845D02*
X026105D01*
X027205D02*
X027655D01*
X028205D02*
X028815D01*
X024285Y028373D02*
X024345D01*
X024525D02*
X024595D01*
X024755D02*
X024815D01*
X025845D02*
X026055D01*
X027205D02*
X027655D01*
X028205D02*
X028815D01*
X024285Y028383D02*
X024345D01*
X024525D02*
X024595D01*
X024755D02*
X024815D01*
X025845D02*
X026025D01*
X027205D02*
X027655D01*
X028205D02*
X028815D01*
X024285Y028393D02*
X024345D01*
X024525D02*
X024595D01*
X024755D02*
X024815D01*
X025845D02*
X025975D01*
X027205D02*
X027655D01*
X028205D02*
X028815D01*
X024285Y028403D02*
X024345D01*
X024525D02*
X024595D01*
X024755D02*
X024815D01*
X025845D02*
X025935D01*
X027205D02*
X027655D01*
X028205D02*
X028815D01*
X024285Y028413D02*
X024345D01*
X024525D02*
X024595D01*
X024755D02*
X024815D01*
X025845D02*
X025905D01*
X027205D02*
X027655D01*
X028205D02*
X028815D01*
X024285Y028423D02*
X024345D01*
X024525D02*
X024595D01*
X024755D02*
X024815D01*
X027205D02*
X027655D01*
X028205D02*
X028815D01*
X024285Y028433D02*
X024345D01*
X024525D02*
X024595D01*
X024755D02*
X024815D01*
X027205D02*
X027655D01*
X028195D02*
X028815D01*
X024285Y028443D02*
X024345D01*
X024525D02*
X024595D01*
X024755D02*
X024805D01*
X027205D02*
X027655D01*
X028195D02*
X028815D01*
X024285Y028453D02*
X024345D01*
X024525D02*
X024595D01*
X024755D02*
X024805D01*
X027205D02*
X027655D01*
X028195D02*
X028805D01*
X024285Y028463D02*
X024345D01*
X024525D02*
X024605D01*
X024745D02*
X024805D01*
X027205D02*
X027655D01*
X028195D02*
X028805D01*
X024285Y028473D02*
X024345D01*
X024515D02*
X024605D01*
X024735D02*
X024805D01*
X027205D02*
X027655D01*
X028195D02*
X028805D01*
X024285Y028483D02*
X024355D01*
X024515D02*
X024605D01*
X024735D02*
X024805D01*
X027205D02*
X027655D01*
X028185D02*
X028795D01*
X024295Y028493D02*
X024355D01*
X024515D02*
X024625D01*
X024725D02*
X024795D01*
X027205D02*
X027645D01*
X028185D02*
X028795D01*
X024295Y028503D02*
X024365D01*
X024505D02*
X024645D01*
X024705D02*
X024795D01*
X027205D02*
X027645D01*
X028185D02*
X028795D01*
X024305Y028513D02*
X024375D01*
X024495D02*
X024555D01*
X024575D02*
X024795D01*
X027205D02*
X027645D01*
X028185D02*
X028795D01*
X024305Y028523D02*
X024385D01*
X024485D02*
X024555D01*
X024585D02*
X024775D01*
X027205D02*
X027645D01*
X028185D02*
X028795D01*
X024305Y028533D02*
X024555D01*
X024585D02*
X024775D01*
X027205D02*
X027645D01*
X028185D02*
X028795D01*
X024315Y028543D02*
X024545D01*
X024605D02*
X024755D01*
X027205D02*
X027645D01*
X028185D02*
X028765D01*
X024325Y028553D02*
X024535D01*
X024615D02*
X024745D01*
X027205D02*
X027645D01*
X028185D02*
X028695D01*
X024335Y028563D02*
X024535D01*
X024635D02*
X024725D01*
X027205D02*
X027645D01*
X028175D02*
X028665D01*
X024345Y028573D02*
X024525D01*
X027205D02*
X027645D01*
X028175D02*
X028595D01*
X024355Y028583D02*
X024505D01*
X027205D02*
X027645D01*
X028175D02*
X028565D01*
X024385Y028593D02*
X024485D01*
X027205D02*
X027645D01*
X028175D02*
X028505D01*
X027205Y028603D02*
X027645D01*
X028175D02*
X028495D01*
X026335Y028613D02*
X026475D01*
X027205D02*
X027635D01*
X028175D02*
X028495D01*
X026315Y028623D02*
X026505D01*
X027205D02*
X027635D01*
X028175D02*
X028495D01*
X026265Y028633D02*
X026555D01*
X027205D02*
X027635D01*
X028175D02*
X028495D01*
X026245Y028643D02*
X026565D01*
X027205D02*
X027635D01*
X028175D02*
X028485D01*
X026205Y028653D02*
X026585D01*
X027205D02*
X027635D01*
X028175D02*
X028485D01*
X026175Y028663D02*
X026615D01*
X027205D02*
X027635D01*
X028165D02*
X028485D01*
X026165Y028673D02*
X026615D01*
X027205D02*
X027635D01*
X028165D02*
X028475D01*
X026135Y028683D02*
X026645D01*
X027195D02*
X027625D01*
X028165D02*
X028475D01*
X026125Y028693D02*
X026655D01*
X027195D02*
X027625D01*
X028165D02*
X028475D01*
X026105Y028703D02*
X026655D01*
X027195D02*
X027615D01*
X028155D02*
X028475D01*
X026095Y028713D02*
X026665D01*
X027195D02*
X027615D01*
X028155D02*
X028475D01*
X026075Y028723D02*
X026675D01*
X027195D02*
X027615D01*
X028155D02*
X028475D01*
X026065Y028733D02*
X026685D01*
X027195D02*
X027615D01*
X028155D02*
X028465D01*
X026055Y028743D02*
X026685D01*
X027195D02*
X027615D01*
X028145D02*
X028465D01*
X026045Y028753D02*
X026695D01*
X027195D02*
X027605D01*
X028145D02*
X028465D01*
X026025Y028763D02*
X026705D01*
X027195D02*
X027605D01*
X028135D02*
X028465D01*
X026025Y028773D02*
X026705D01*
X027185D02*
X027605D01*
X028135D02*
X028465D01*
X024885Y028783D02*
X024895D01*
X026015D02*
X026705D01*
X027185D02*
X027595D01*
X028135D02*
X028455D01*
X024855Y028793D02*
X024895D01*
X026005D02*
X026705D01*
X027185D02*
X027595D01*
X028125D02*
X028455D01*
X024825Y028803D02*
X024895D01*
X025995D02*
X026715D01*
X027185D02*
X027595D01*
X028125D02*
X028445D01*
X024785Y028813D02*
X024905D01*
X025985D02*
X026715D01*
X027175D02*
X027595D01*
X028125D02*
X028445D01*
X024765Y028823D02*
X024905D01*
X025985D02*
X026715D01*
X027175D02*
X027585D01*
X028115D02*
X028445D01*
X024725Y028833D02*
X024905D01*
X025965D02*
X026715D01*
X027175D02*
X027585D01*
X028115D02*
X028445D01*
X024685Y028843D02*
X024915D01*
X025965D02*
X026715D01*
X027175D02*
X027585D01*
X028105D02*
X028445D01*
X024665Y028853D02*
X024915D01*
X025955D02*
X026715D01*
X027175D02*
X027585D01*
X028105D02*
X028435D01*
X024615Y028863D02*
X024925D01*
X025945D02*
X026425D01*
X026475D02*
X026715D01*
X027175D02*
X027575D01*
X028105D02*
X028435D01*
X024605Y028873D02*
X024925D01*
X025945D02*
X026365D01*
X026515D02*
X026715D01*
X027175D02*
X027565D01*
X028095D02*
X028425D01*
X024585Y028883D02*
X024925D01*
X025935D02*
X026345D01*
X026525D02*
X026715D01*
X027165D02*
X027565D01*
X028095D02*
X028425D01*
X024565Y028893D02*
X024935D01*
X025925D02*
X026335D01*
X026535D02*
X026715D01*
X027165D02*
X027565D01*
X028085D02*
X028425D01*
X024555Y028903D02*
X024945D01*
X025915D02*
X026315D01*
X026545D02*
X026705D01*
X027165D02*
X027565D01*
X028085D02*
X028425D01*
X024535Y028913D02*
X024945D01*
X025915D02*
X026315D01*
X026545D02*
X026705D01*
X027155D02*
X027555D01*
X028085D02*
X028415D01*
X024535Y028923D02*
X024945D01*
X025905D02*
X026295D01*
X026545D02*
X026705D01*
X027155D02*
X027545D01*
X028085D02*
X028415D01*
X024515Y028933D02*
X024955D01*
X025895D02*
X026285D01*
X026545D02*
X026695D01*
X027155D02*
X027545D01*
X028075D02*
X028415D01*
X024495Y028943D02*
X024955D01*
X025895D02*
X026285D01*
X026555D02*
X026685D01*
X027155D02*
X027545D01*
X028075D02*
X028415D01*
X024485Y028953D02*
X024955D01*
X025885D02*
X026265D01*
X026555D02*
X026675D01*
X027155D02*
X027535D01*
X028075D02*
X028405D01*
X024465Y028963D02*
X024965D01*
X025885D02*
X026265D01*
X026565D02*
X026675D01*
X027145D02*
X027535D01*
X028065D02*
X028415D01*
X024465Y028973D02*
X024965D01*
X025875D02*
X026255D01*
X026565D02*
X026655D01*
X027145D02*
X027535D01*
X028065D02*
X028415D01*
X024445Y028983D02*
X024975D01*
X025865D02*
X026245D01*
X026575D02*
X026635D01*
X027145D02*
X027525D01*
X028055D02*
X028425D01*
X024435Y028993D02*
X024975D01*
X025865D02*
X026245D01*
X026595D02*
X026615D01*
X027135D02*
X027525D01*
X028055D02*
X028445D01*
X024415Y029003D02*
X024985D01*
X025865D02*
X026235D01*
X027135D02*
X027515D01*
X028055D02*
X028455D01*
X024405Y029013D02*
X024985D01*
X025855D02*
X026235D01*
X027125D02*
X027515D01*
X028045D02*
X028465D01*
X024395Y029023D02*
X024985D01*
X025855D02*
X026225D01*
X027125D02*
X027505D01*
X028045D02*
X028475D01*
X024385Y029033D02*
X024995D01*
X025845D02*
X026215D01*
X027125D02*
X027495D01*
X028035D02*
X028495D01*
X024365Y029043D02*
X025005D01*
X025845D02*
X026215D01*
X027115D02*
X027495D01*
X028035D02*
X028505D01*
X024355Y029053D02*
X025005D01*
X025835D02*
X026215D01*
X027115D02*
X027495D01*
X028035D02*
X028515D01*
X024355Y029063D02*
X025005D01*
X025835D02*
X026205D01*
X027105D02*
X027485D01*
X028025D02*
X028525D01*
X024365Y029073D02*
X025005D01*
X025835D02*
X026205D01*
X027105D02*
X027485D01*
X028025D02*
X028535D01*
X024365Y029083D02*
X025015D01*
X025835D02*
X026195D01*
X027105D02*
X027475D01*
X028005D02*
X028555D01*
X024365Y029093D02*
X025025D01*
X025825D02*
X026195D01*
X027095D02*
X027475D01*
X028005D02*
X028565D01*
X024365Y029103D02*
X025025D01*
X025825D02*
X026185D01*
X027095D02*
X027465D01*
X027995D02*
X028575D01*
X024365Y029113D02*
X025025D01*
X025825D02*
X026185D01*
X027095D02*
X027465D01*
X027995D02*
X028595D01*
X024375Y029123D02*
X025035D01*
X025815D02*
X026185D01*
X027095D02*
X027455D01*
X027995D02*
X028595D01*
X024375Y029133D02*
X025035D01*
X025815D02*
X026175D01*
X027085D02*
X027445D01*
X027975D02*
X028615D01*
X024375Y029143D02*
X025055D01*
X025815D02*
X026165D01*
X027075D02*
X027445D01*
X027975D02*
X028625D01*
X024385Y029153D02*
X025055D01*
X025815D02*
X026165D01*
X027075D02*
X027435D01*
X027965D02*
X028625D01*
X024385Y029163D02*
X025065D01*
X025815D02*
X026165D01*
X027075D02*
X027435D01*
X027955D02*
X028625D01*
X024385Y029173D02*
X025065D01*
X025815D02*
X026165D01*
X027075D02*
X027425D01*
X027955D02*
X028625D01*
X024385Y029183D02*
X025075D01*
X025815D02*
X026155D01*
X027065D02*
X027415D01*
X027945D02*
X028625D01*
X024395Y029193D02*
X025085D01*
X025805D02*
X026155D01*
X027055D02*
X027415D01*
X027945D02*
X028625D01*
X024395Y029203D02*
X025085D01*
X025805D02*
X026155D01*
X027055D02*
X027405D01*
X027935D02*
X028615D01*
X024405Y029213D02*
X025095D01*
X025805D02*
X026155D01*
X027055D02*
X027395D01*
X027925D02*
X028615D01*
X024405Y029223D02*
X025105D01*
X025805D02*
X026155D01*
X027045D02*
X027395D01*
X027925D02*
X028615D01*
X024415Y029233D02*
X025105D01*
X025805D02*
X026145D01*
X027045D02*
X027385D01*
X027915D02*
X028615D01*
X024415Y029243D02*
X025125D01*
X025795D02*
X026145D01*
X027035D02*
X027385D01*
X027905D02*
X028605D01*
X024415Y029253D02*
X025125D01*
X025795D02*
X026145D01*
X027035D02*
X027365D01*
X027905D02*
X028605D01*
X024425Y029263D02*
X025135D01*
X025795D02*
X026135D01*
X027025D02*
X027365D01*
X027895D02*
X028605D01*
X024425Y029273D02*
X025135D01*
X025795D02*
X026135D01*
X027025D02*
X027355D01*
X027895D02*
X028595D01*
X024435Y029283D02*
X025145D01*
X025795D02*
X026135D01*
X027015D02*
X027345D01*
X027885D02*
X028595D01*
X024435Y029293D02*
X025155D01*
X025795D02*
X026135D01*
X027005D02*
X027345D01*
X027875D02*
X028595D01*
X024445Y029303D02*
X025155D01*
X025795D02*
X026135D01*
X027005D02*
X027335D01*
X027875D02*
X028585D01*
X024455Y029313D02*
X025175D01*
X025795D02*
X026135D01*
X027005D02*
X027335D01*
X027865D02*
X028575D01*
X024455Y029323D02*
X025175D01*
X025805D02*
X026135D01*
X026995D02*
X027315D01*
X027855D02*
X028575D01*
X024465Y029333D02*
X025185D01*
X025805D02*
X026135D01*
X026995D02*
X027305D01*
X027855D02*
X028565D01*
X024465Y029343D02*
X025185D01*
X025805D02*
X026135D01*
X026985D02*
X027305D01*
X027845D02*
X028565D01*
X024485Y029353D02*
X024775D01*
X024815D02*
X025195D01*
X025805D02*
X026135D01*
X026975D02*
X027295D01*
X027845D02*
X028555D01*
X024485Y029363D02*
X024745D01*
X024815D02*
X025205D01*
X025805D02*
X026135D01*
X026975D02*
X027285D01*
X027825D02*
X028555D01*
X024495Y029373D02*
X024685D01*
X024825D02*
X025205D01*
X025805D02*
X026135D01*
X026965D02*
X027275D01*
X027825D02*
X028545D01*
X024505Y029383D02*
X024625D01*
X024835D02*
X025225D01*
X025805D02*
X026135D01*
X026965D02*
X027265D01*
X027805D02*
X028545D01*
X024505Y029393D02*
X024595D01*
X024835D02*
X025225D01*
X025805D02*
X026135D01*
X026955D02*
X027265D01*
X027795D02*
X028535D01*
X024515Y029403D02*
X024545D01*
X024855D02*
X025235D01*
X025815D02*
X026135D01*
X026945D02*
X027245D01*
X027795D02*
X028525D01*
X024855Y029413D02*
X025235D01*
X025815D02*
X026135D01*
X026945D02*
X027245D01*
X027775D02*
X028525D01*
X024865Y029423D02*
X025245D01*
X025815D02*
X026135D01*
X026935D02*
X027235D01*
X027775D02*
X028515D01*
X024865Y029433D02*
X025255D01*
X025815D02*
X026135D01*
X026925D02*
X027225D01*
X027755D02*
X028165D01*
X028205D02*
X028505D01*
X024875Y029443D02*
X025275D01*
X025815D02*
X026135D01*
X026925D02*
X027215D01*
X027745D02*
X028155D01*
X028235D02*
X028495D01*
X024885Y029453D02*
X025285D01*
X025825D02*
X026145D01*
X026915D02*
X027205D01*
X027745D02*
X028145D01*
X028285D02*
X028495D01*
X024885Y029463D02*
X025295D01*
X025825D02*
X026145D01*
X026905D02*
X027195D01*
X027725D02*
X028145D01*
X028305D02*
X028485D01*
X024895Y029473D02*
X025305D01*
X025835D02*
X026145D01*
X026895D02*
X027185D01*
X027725D02*
X028125D01*
X028355D02*
X028475D01*
X024905Y029483D02*
X025315D01*
X025835D02*
X026145D01*
X026885D02*
X027175D01*
X027705D02*
X028125D01*
X028405D02*
X028465D01*
X024905Y029493D02*
X025325D01*
X025835D02*
X026155D01*
X026875D02*
X027165D01*
X027695D02*
X028115D01*
X028425D02*
X028465D01*
X024915Y029503D02*
X025335D01*
X025845D02*
X026155D01*
X026875D02*
X027155D01*
X027695D02*
X028115D01*
X024925Y029513D02*
X025355D01*
X025845D02*
X026155D01*
X026865D02*
X027145D01*
X027675D02*
X028105D01*
X024935Y029523D02*
X025355D01*
X025845D02*
X026155D01*
X026855D02*
X027135D01*
X027675D02*
X028095D01*
X024945Y029533D02*
X025375D01*
X025855D02*
X026155D01*
X026845D02*
X027135D01*
X027655D02*
X028085D01*
X024955Y029543D02*
X025385D01*
X025855D02*
X026165D01*
X026825D02*
X027125D01*
X027645D02*
X028075D01*
X024955Y029553D02*
X025385D01*
X025865D02*
X026165D01*
X026825D02*
X027115D01*
X027645D02*
X028065D01*
X024965Y029563D02*
X025405D01*
X025865D02*
X026175D01*
X026815D02*
X027105D01*
X027625D02*
X028065D01*
X024975Y029573D02*
X025415D01*
X025865D02*
X026175D01*
X026805D02*
X027085D01*
X027625D02*
X028055D01*
X024985Y029583D02*
X025425D01*
X025875D02*
X026185D01*
X026795D02*
X027075D01*
X027605D02*
X028045D01*
X024985Y029593D02*
X025435D01*
X025885D02*
X026195D01*
X026775D02*
X027065D01*
X027595D02*
X028035D01*
X024995Y029603D02*
X025445D01*
X025895D02*
X026205D01*
X026775D02*
X027055D01*
X027595D02*
X028025D01*
X025005Y029613D02*
X025455D01*
X025895D02*
X026205D01*
X026765D02*
X027045D01*
X027575D02*
X028025D01*
X025015Y029623D02*
X025465D01*
X025905D02*
X026215D01*
X026755D02*
X027035D01*
X027565D02*
X028015D01*
X025025Y029633D02*
X025485D01*
X025915D02*
X026225D01*
X026735D02*
X027015D01*
X027545D02*
X027995D01*
X025035Y029643D02*
X025495D01*
X025915D02*
X026235D01*
X026715D02*
X027015D01*
X027525D02*
X027995D01*
X025035Y029653D02*
X025505D01*
X025935D02*
X026245D01*
X026705D02*
X026995D01*
X027525D02*
X027985D01*
X025035Y029663D02*
X025515D01*
X025935D02*
X026255D01*
X026685D02*
X026985D01*
X027495D02*
X027975D01*
X025025Y029673D02*
X025525D01*
X025945D02*
X026265D01*
X026675D02*
X026965D01*
X027495D02*
X027965D01*
X025015Y029683D02*
X025545D01*
X025965D02*
X026285D01*
X026655D02*
X026955D01*
X027475D02*
X027955D01*
X025015Y029693D02*
X025575D01*
X025965D02*
X026305D01*
X026615D02*
X026935D01*
X027455D02*
X027945D01*
X025015Y029703D02*
X025585D01*
X025985D02*
X026315D01*
X026595D02*
X026915D01*
X027445D02*
X027935D01*
X025005Y029713D02*
X025605D01*
X025995D02*
X026355D01*
X026565D02*
X026905D01*
X027425D02*
X027935D01*
X024995Y029723D02*
X025625D01*
X025995D02*
X026415D01*
X026475D02*
X026885D01*
X027405D02*
X027935D01*
X024995Y029733D02*
X025635D01*
X026015D02*
X026865D01*
X027395D02*
X027935D01*
X024985Y029743D02*
X025655D01*
X026025D02*
X026855D01*
X027375D02*
X027935D01*
X024985Y029753D02*
X025675D01*
X026045D02*
X026825D01*
X027355D02*
X027945D01*
X024975Y029763D02*
X025685D01*
X026065D02*
X026795D01*
X027345D02*
X027945D01*
X024965Y029773D02*
X025715D01*
X026075D02*
X026785D01*
X027325D02*
X027955D01*
X024965Y029783D02*
X025725D01*
X026095D02*
X026755D01*
X027305D02*
X027955D01*
X024965Y029793D02*
X025745D01*
X026105D02*
X026735D01*
X027295D02*
X027965D01*
X024955Y029803D02*
X025755D01*
X026135D02*
X026705D01*
X027285D02*
X027965D01*
X024955Y029813D02*
X025775D01*
X026165D02*
X026655D01*
X027255D02*
X027965D01*
X024945Y029823D02*
X025805D01*
X026185D02*
X026635D01*
X027225D02*
X027975D01*
X024945Y029833D02*
X025805D01*
X026225D02*
X026595D01*
X027205D02*
X027985D01*
X024935Y029843D02*
X025835D01*
X026255D02*
X026545D01*
X027175D02*
X027985D01*
X024935Y029853D02*
X025855D01*
X027155D02*
X027985D01*
X024925Y029863D02*
X025885D01*
X027125D02*
X027995D01*
X024915Y029873D02*
X025935D01*
X027095D02*
X027995D01*
X024915Y029883D02*
X025955D01*
X027075D02*
X028005D01*
X024915Y029893D02*
X025985D01*
X027045D02*
X028005D01*
X024905Y029903D02*
X026005D01*
X027025D02*
X028015D01*
X024905Y029913D02*
X026055D01*
X026985D02*
X028015D01*
X024915Y029923D02*
X026085D01*
X026955D02*
X028025D01*
X024915Y029933D02*
X026105D01*
X026935D02*
X028025D01*
X024925Y029943D02*
X026155D01*
X026875D02*
X028025D01*
X024935Y029953D02*
X026165D01*
X026825D02*
X028035D01*
X024945Y029963D02*
X026275D01*
X026725D02*
X028045D01*
X024955Y029973D02*
X026425D01*
X026635D02*
X028045D01*
X024965Y029983D02*
X025435D01*
X025445D02*
X026495D01*
X026595D02*
X028045D01*
X024965Y029993D02*
X025425D01*
X025455D02*
X028045D01*
X024975Y030003D02*
X025405D01*
X025475D02*
X028025D01*
X024985Y030013D02*
X025385D01*
X025495D02*
X028025D01*
X024995Y030023D02*
X025385D01*
X025505D02*
X028015D01*
X025005Y030033D02*
X025375D01*
X025525D02*
X027495D01*
X027515D02*
X028005D01*
X025015Y030043D02*
X025355D01*
X025535D02*
X027485D01*
X027525D02*
X027995D01*
X025035Y030053D02*
X025345D01*
X025565D02*
X027465D01*
X027545D02*
X027985D01*
X025045Y030063D02*
X025325D01*
X025585D02*
X027445D01*
X027555D02*
X027985D01*
X025045Y030073D02*
X025325D01*
X025595D02*
X027435D01*
X027555D02*
X027975D01*
X025065Y030083D02*
X025305D01*
X025625D02*
X027405D01*
X027575D02*
X027965D01*
X025075Y030093D02*
X025295D01*
X025635D02*
X027395D01*
X027585D02*
X027945D01*
X025095Y030103D02*
X025275D01*
X025655D02*
X027365D01*
X027595D02*
X027935D01*
X025115Y030113D02*
X025265D01*
X025685D02*
X027335D01*
X027615D02*
X027915D01*
X025125Y030123D02*
X025255D01*
X025695D02*
X027325D01*
X027625D02*
X027915D01*
X025145Y030133D02*
X025235D01*
X025735D02*
X027295D01*
X027635D02*
X027895D01*
X025165Y030143D02*
X025225D01*
X025745D02*
X027285D01*
X027645D02*
X027885D01*
X025185Y030153D02*
X025215D01*
X025775D02*
X027245D01*
X027655D02*
X027865D01*
X025775Y030163D02*
X027215D01*
X027675D02*
X027845D01*
X025775Y030173D02*
X027195D01*
X027675D02*
X027835D01*
X025775Y030183D02*
X027165D01*
X027695D02*
X027815D01*
X025775Y030193D02*
X027165D01*
X027705D02*
X027795D01*
X025775Y030203D02*
X027165D01*
X027715D02*
X027775D01*
X025775Y030213D02*
X027165D01*
X027725D02*
X027745D01*
X025775Y030223D02*
X027165D01*
X025775Y030233D02*
X027165D01*
X025765Y030243D02*
X027165D01*
X025765Y030253D02*
X027165D01*
X025765Y030263D02*
X027165D01*
X025765Y030273D02*
X027165D01*
X025765Y030283D02*
X026275D01*
X026315D02*
X027165D01*
X025765Y030293D02*
X026275D01*
X026385D02*
X026645D01*
X026655D02*
X027165D01*
X025765Y030303D02*
X026265D01*
X026665D02*
X027165D01*
X025765Y030313D02*
X026265D01*
X026665D02*
X027165D01*
X025765Y030323D02*
X026255D01*
X026675D02*
X027165D01*
X025765Y030333D02*
X026255D01*
X026675D02*
X027165D01*
X025765Y030343D02*
X026255D01*
X026675D02*
X027165D01*
X025765Y030353D02*
X026245D01*
X026685D02*
X027165D01*
X025765Y030363D02*
X026235D01*
X026695D02*
X027165D01*
X025765Y030373D02*
X026235D01*
X026695D02*
X027165D01*
X025765Y030383D02*
X026225D01*
X026695D02*
X027165D01*
X025765Y030393D02*
X026225D01*
X026705D02*
X027165D01*
X025765Y030403D02*
X026215D01*
X026705D02*
X027165D01*
X025765Y030413D02*
X026215D01*
X026715D02*
X027165D01*
X025765Y030423D02*
X026205D01*
X026715D02*
X027165D01*
X025765Y030433D02*
X026205D01*
X026725D02*
X027165D01*
X025765Y030443D02*
X026205D01*
X026725D02*
X027165D01*
X025765Y030453D02*
X026195D01*
X026725D02*
X027165D01*
X025795Y030463D02*
X026185D01*
X026735D02*
X027165D01*
X025815Y030473D02*
X026185D01*
X026735D02*
X027165D01*
X025835Y030483D02*
X026175D01*
X026745D02*
X027155D01*
X025845Y030493D02*
X026175D01*
X026745D02*
X027145D01*
X025875Y030503D02*
X026165D01*
X026755D02*
X027115D01*
X025915Y030513D02*
X026165D01*
X026755D02*
X027085D01*
X025945Y030523D02*
X026155D01*
X026765D02*
X027065D01*
X025985Y030533D02*
X026155D01*
X026765D02*
X027035D01*
X026015Y030543D02*
X026155D01*
X026765D02*
X027015D01*
X026775Y030553D02*
X026955D01*
M02*
