M48
;Layer_Color=9474304
;FILE_FORMAT=2:4
INCH
;TYPE=PLATED
T1F00S00C0.0157
T2F00S00C0.0315
T3F00S00C0.1181
%
T01
X032087Y022835
X032087Y025591
Y028346
X034843
Y025591
Y022835
Y031102
X032087
X029331
X026575
X023819
Y028346
X026575
X029331
Y025591
Y022835
X026575
Y025591
X023819Y025591
Y022835
Y033858
X026575
X029331
X032087
X034843
T02
X031835Y018799
Y019799
X032835
Y018799
X033835
Y019799
X034835
Y018799
X035835
Y019799
X037780Y021850
X038780
Y022850
X037780
Y023850
X038780
Y024850
X037780
Y025850
X038780
Y026850
X037780
Y027850
X038780
Y028850
X037780
Y029850
X038780
Y030850
X037780
X020685Y030843
X019685
Y029843
X020685
Y028843
X019685
Y027843
X020685
Y026843
X019685
Y025843
X020685
Y024843
X019685
Y023843
X020685
Y022843
X019685
Y021843
X020685
X022835Y019799
Y018799
X023835
Y019799
X024835
Y018799
X025835
Y019799
X026835
Y018799
X027835
Y019799
X028835
Y018799
X029835
Y019799
X030835
Y018799
Y036894
Y037894
X029835
Y036894
X028835
Y037894
X027835
Y036894
X026835
Y037894
X025835
Y036894
X024835
Y037894
X023835
Y036894
X022835
Y037894
X020685Y034843
X019685
Y033843
X020685
Y032843
X019685
Y031843
X020685
X031835Y036894
X032835
X033835
X034835
X035835
Y037894
X034835
X033835
X032835
X031835
X037780Y034850
Y033850
Y032850
Y031850
X038780
Y032850
Y033850
Y034850
T03
X038484Y018996
Y037697
M30
