G04 Layer_Color=16711935*
%FSAX24Y24*%
%MOIN*%
G70*
G01*
G75*
%ADD22C,0.0060*%
%ADD32C,0.0030*%
%ADD33C,0.0039*%
%ADD34C,0.0100*%
D22*
X017281Y026287D02*
Y025887D01*
X017581D01*
X017481Y026087D01*
Y026187D01*
X017581Y026287D01*
X017781D01*
X017881Y026187D01*
Y025987D01*
X017781Y025887D01*
X017381Y026487D02*
X017281Y026587D01*
Y026787D01*
X017381Y026887D01*
X017781D01*
X017881Y026787D01*
Y026587D01*
X017781Y026487D01*
X017381D01*
X017981Y027187D02*
X017881Y027287D01*
X017781D01*
Y027187D01*
X017881D01*
Y027287D01*
X017981Y027187D01*
X018081Y027087D01*
X017381Y027687D02*
X017281Y027787D01*
Y027987D01*
X017381Y028086D01*
X017781D01*
X017881Y027987D01*
Y027787D01*
X017781Y027687D01*
X017381D01*
Y028286D02*
X017281Y028386D01*
Y028586D01*
X017381Y028686D01*
X017781D01*
X017881Y028586D01*
Y028386D01*
X017781Y028286D01*
X017381D01*
X017881Y029486D02*
X017481D01*
Y029586D01*
X017581Y029686D01*
X017881D01*
X017581D01*
X017481Y029786D01*
X017581Y029886D01*
X017881D01*
Y030086D02*
X017481D01*
Y030186D01*
X017581Y030286D01*
X017881D01*
X017581D01*
X017481Y030386D01*
X017581Y030486D01*
X017881D01*
X027173Y016675D02*
X026773D01*
Y016375D01*
X026973Y016475D01*
X027073D01*
X027173Y016375D01*
Y016176D01*
X027073Y016076D01*
X026873D01*
X026773Y016176D01*
X027373Y016575D02*
X027473Y016675D01*
X027673D01*
X027773Y016575D01*
Y016176D01*
X027673Y016076D01*
X027473D01*
X027373Y016176D01*
Y016575D01*
X028073Y015976D02*
X028173Y016076D01*
Y016176D01*
X028073D01*
Y016076D01*
X028173D01*
X028073Y015976D01*
X027973Y015876D01*
X028572Y016575D02*
X028672Y016675D01*
X028872D01*
X028972Y016575D01*
Y016176D01*
X028872Y016076D01*
X028672D01*
X028572Y016176D01*
Y016575D01*
X029172D02*
X029272Y016675D01*
X029472D01*
X029572Y016575D01*
Y016176D01*
X029472Y016076D01*
X029272D01*
X029172Y016176D01*
Y016575D01*
X030372Y016076D02*
Y016475D01*
X030472D01*
X030572Y016375D01*
Y016076D01*
Y016375D01*
X030672Y016475D01*
X030772Y016375D01*
Y016076D01*
X030972D02*
Y016475D01*
X031072D01*
X031172Y016375D01*
Y016076D01*
Y016375D01*
X031272Y016475D01*
X031372Y016375D01*
Y016076D01*
D32*
X019390Y019291D02*
G03*
X020177Y018504I000787J000000D01*
G01*
Y038189D02*
G03*
X019390Y037402I000000J-000787D01*
G01*
X039075D02*
G03*
X038287Y038189I-000787J000000D01*
G01*
Y018504D02*
G03*
X039075Y019291I000000J000787D01*
G01*
X019390Y019291D02*
Y037402D01*
X020177Y018504D02*
X038287D01*
X020177Y038189D02*
X038287D01*
X039075Y019291D02*
Y037402D01*
D33*
X017321Y038189D02*
X020062D01*
X017321Y018504D02*
X020062D01*
X039075Y016435D02*
Y019176D01*
X019390Y016435D02*
Y019176D01*
D34*
X017421Y030646D02*
Y038189D01*
Y018504D02*
Y025727D01*
X017221Y037589D02*
X017421Y038189D01*
X017621Y037589D01*
X017421Y018504D02*
X017621Y019104D01*
X017221D02*
X017421Y018504D01*
X031532Y016535D02*
X039075D01*
X019390D02*
X026613D01*
X038475Y016735D02*
X039075Y016535D01*
X038475Y016335D02*
X039075Y016535D01*
X019390D02*
X019990Y016335D01*
X019390Y016535D02*
X019990Y016735D01*
M02*
