G04 Layer_Physical_Order=2*
G04 Layer_Color=16711680*
%FSAX24Y24*%
%MOIN*%
G70*
G01*
G75*
%ADD13C,0.0400*%
%ADD15C,0.0394*%
%ADD16C,0.1378*%
%ADD17C,0.0431*%
%ADD18R,0.0431X0.0431*%
%ADD19R,0.0431X0.0431*%
%ADD20C,0.0272*%
G36*
X036220Y035201D02*
X036213Y021449D01*
X022441D01*
X022433Y035201D01*
X022461Y035228D01*
X036193Y035228D01*
X036220Y035201D01*
D02*
G37*
G36*
X019510Y021629D02*
X019532Y021613D01*
X019555Y021599D01*
X019579Y021588D01*
X019605Y021579D01*
X019631Y021572D01*
X019658Y021568D01*
X019685Y021567D01*
X019712Y021568D01*
X019739Y021572D01*
X019765Y021579D01*
X019784Y021585D01*
X020586D01*
X020605Y021579D01*
X020631Y021572D01*
X020658Y021568D01*
X020685Y021567D01*
X020712Y021568D01*
X020739Y021572D01*
X020765Y021579D01*
X020784Y021585D01*
X022381D01*
X022381Y021449D01*
X022381Y021443D01*
X022382Y021437D01*
X022382Y021437D01*
X022382Y021437D01*
X022384Y021431D01*
X022385Y021426D01*
X022385Y021426D01*
X022385Y021426D01*
X022388Y021420D01*
X022391Y021415D01*
X022391Y021415D01*
X022391Y021415D01*
X022395Y021410D01*
X022398Y021406D01*
X022398Y021406D01*
X022398Y021406D01*
X022403Y021403D01*
X022407Y021399D01*
X022407Y021399D01*
X022407Y021399D01*
X022412Y021396D01*
X022418Y021393D01*
X022418Y021393D01*
X022418Y021393D01*
X022424Y021391D01*
X022429Y021390D01*
X022429Y021390D01*
X022429Y021390D01*
X022435Y021389D01*
X022441Y021389D01*
X035577D01*
Y019898D01*
X035571Y019879D01*
X035564Y019853D01*
X035560Y019826D01*
X035559Y019799D01*
X035560Y019772D01*
X035564Y019745D01*
X035571Y019719D01*
X035577Y019700D01*
Y018898D01*
X035571Y018879D01*
X035564Y018853D01*
X035560Y018826D01*
X035559Y018799D01*
X035560Y018772D01*
X035564Y018745D01*
X035571Y018719D01*
X035580Y018694D01*
X035591Y018669D01*
X035605Y018646D01*
X035621Y018624D01*
X035622Y018623D01*
X035605Y018584D01*
X035090D01*
X035083Y018591D01*
X035071Y018623D01*
X035080Y018636D01*
X035094Y018660D01*
X035107Y018686D01*
X035112Y018701D01*
X034835D01*
X034557D01*
X034562Y018686D01*
X034575Y018660D01*
X034590Y018636D01*
X034599Y018623D01*
X034586Y018591D01*
X034579Y018584D01*
X034065D01*
X034047Y018623D01*
X034048Y018624D01*
X034064Y018646D01*
X034078Y018669D01*
X034090Y018694D01*
X034099Y018719D01*
X034105Y018745D01*
X034109Y018772D01*
X034111Y018799D01*
X034109Y018826D01*
X034105Y018853D01*
X034099Y018879D01*
X034090Y018905D01*
X034078Y018929D01*
X034064Y018952D01*
X034048Y018974D01*
X034030Y018994D01*
X034010Y019012D01*
X033988Y019029D01*
X033965Y019043D01*
X033940Y019054D01*
X033915Y019063D01*
X033888Y019070D01*
X033862Y019074D01*
X033835Y019075D01*
X033808Y019074D01*
X033781Y019070D01*
X033755Y019063D01*
X033729Y019054D01*
X033705Y019043D01*
X033681Y019029D01*
X033660Y019012D01*
X033640Y018994D01*
X033621Y018974D01*
X033605Y018952D01*
X033591Y018929D01*
X033580Y018905D01*
X033571Y018879D01*
X033564Y018853D01*
X033560Y018826D01*
X033559Y018799D01*
X033560Y018772D01*
X033564Y018745D01*
X033571Y018719D01*
X033580Y018694D01*
X033591Y018669D01*
X033605Y018646D01*
X033621Y018624D01*
X033622Y018623D01*
X033605Y018584D01*
X033065D01*
X033047Y018623D01*
X033048Y018624D01*
X033064Y018646D01*
X033078Y018669D01*
X033090Y018694D01*
X033099Y018719D01*
X033105Y018745D01*
X033109Y018772D01*
X033111Y018799D01*
X033109Y018826D01*
X033105Y018853D01*
X033099Y018879D01*
X033090Y018905D01*
X033078Y018929D01*
X033064Y018952D01*
X033048Y018974D01*
X033030Y018994D01*
X033010Y019012D01*
X032988Y019029D01*
X032965Y019043D01*
X032940Y019054D01*
X032915Y019063D01*
X032888Y019070D01*
X032862Y019074D01*
X032835Y019075D01*
X032808Y019074D01*
X032781Y019070D01*
X032755Y019063D01*
X032729Y019054D01*
X032705Y019043D01*
X032681Y019029D01*
X032660Y019012D01*
X032640Y018994D01*
X032621Y018974D01*
X032605Y018952D01*
X032591Y018929D01*
X032580Y018905D01*
X032571Y018879D01*
X032564Y018853D01*
X032560Y018826D01*
X032559Y018799D01*
X032560Y018772D01*
X032564Y018745D01*
X032571Y018719D01*
X032580Y018694D01*
X032591Y018669D01*
X032605Y018646D01*
X032621Y018624D01*
X032622Y018623D01*
X032605Y018584D01*
X032065D01*
X032047Y018623D01*
X032048Y018624D01*
X032064Y018646D01*
X032078Y018669D01*
X032090Y018694D01*
X032099Y018719D01*
X032105Y018745D01*
X032109Y018772D01*
X032111Y018799D01*
X032109Y018826D01*
X032105Y018853D01*
X032099Y018879D01*
X032090Y018905D01*
X032078Y018929D01*
X032064Y018952D01*
X032048Y018974D01*
X032030Y018994D01*
X032010Y019012D01*
X031988Y019029D01*
X031965Y019043D01*
X031940Y019054D01*
X031915Y019063D01*
X031888Y019070D01*
X031862Y019074D01*
X031835Y019075D01*
X031808Y019074D01*
X031781Y019070D01*
X031755Y019063D01*
X031729Y019054D01*
X031705Y019043D01*
X031681Y019029D01*
X031660Y019012D01*
X031640Y018994D01*
X031621Y018974D01*
X031605Y018952D01*
X031591Y018929D01*
X031580Y018905D01*
X031571Y018879D01*
X031564Y018853D01*
X031560Y018826D01*
X031559Y018799D01*
X031560Y018772D01*
X031564Y018745D01*
X031571Y018719D01*
X031580Y018694D01*
X031591Y018669D01*
X031605Y018646D01*
X031621Y018624D01*
X031622Y018623D01*
X031605Y018584D01*
X031065D01*
X031047Y018623D01*
X031048Y018624D01*
X031064Y018646D01*
X031078Y018669D01*
X031090Y018694D01*
X031099Y018719D01*
X031105Y018745D01*
X031109Y018772D01*
X031111Y018799D01*
X031109Y018826D01*
X031105Y018853D01*
X031099Y018879D01*
X031090Y018905D01*
X031078Y018929D01*
X031064Y018952D01*
X031048Y018974D01*
X031030Y018994D01*
X031010Y019012D01*
X030988Y019029D01*
X030965Y019043D01*
X030940Y019054D01*
X030915Y019063D01*
X030888Y019070D01*
X030862Y019074D01*
X030835Y019075D01*
X030808Y019074D01*
X030781Y019070D01*
X030755Y019063D01*
X030729Y019054D01*
X030705Y019043D01*
X030681Y019029D01*
X030660Y019012D01*
X030640Y018994D01*
X030621Y018974D01*
X030605Y018952D01*
X030591Y018929D01*
X030580Y018905D01*
X030571Y018879D01*
X030564Y018853D01*
X030560Y018826D01*
X030559Y018799D01*
X030560Y018772D01*
X030564Y018745D01*
X030571Y018719D01*
X030580Y018694D01*
X030591Y018669D01*
X030605Y018646D01*
X030621Y018624D01*
X030622Y018623D01*
X030605Y018584D01*
X030065D01*
X030047Y018623D01*
X030048Y018624D01*
X030064Y018646D01*
X030078Y018669D01*
X030090Y018694D01*
X030099Y018719D01*
X030105Y018745D01*
X030109Y018772D01*
X030111Y018799D01*
X030109Y018826D01*
X030105Y018853D01*
X030099Y018879D01*
X030090Y018905D01*
X030078Y018929D01*
X030064Y018952D01*
X030048Y018974D01*
X030030Y018994D01*
X030010Y019012D01*
X029988Y019029D01*
X029965Y019043D01*
X029940Y019054D01*
X029915Y019063D01*
X029888Y019070D01*
X029862Y019074D01*
X029835Y019075D01*
X029808Y019074D01*
X029781Y019070D01*
X029755Y019063D01*
X029729Y019054D01*
X029705Y019043D01*
X029681Y019029D01*
X029660Y019012D01*
X029640Y018994D01*
X029621Y018974D01*
X029605Y018952D01*
X029591Y018929D01*
X029580Y018905D01*
X029571Y018879D01*
X029564Y018853D01*
X029560Y018826D01*
X029559Y018799D01*
X029560Y018772D01*
X029564Y018745D01*
X029571Y018719D01*
X029580Y018694D01*
X029591Y018669D01*
X029605Y018646D01*
X029621Y018624D01*
X029622Y018623D01*
X029605Y018584D01*
X029065D01*
X029047Y018623D01*
X029048Y018624D01*
X029064Y018646D01*
X029078Y018669D01*
X029090Y018694D01*
X029099Y018719D01*
X029105Y018745D01*
X029109Y018772D01*
X029111Y018799D01*
X029109Y018826D01*
X029105Y018853D01*
X029099Y018879D01*
X029090Y018905D01*
X029078Y018929D01*
X029064Y018952D01*
X029048Y018974D01*
X029030Y018994D01*
X029010Y019012D01*
X028988Y019029D01*
X028965Y019043D01*
X028940Y019054D01*
X028915Y019063D01*
X028888Y019070D01*
X028862Y019074D01*
X028835Y019075D01*
X028808Y019074D01*
X028781Y019070D01*
X028755Y019063D01*
X028729Y019054D01*
X028705Y019043D01*
X028681Y019029D01*
X028660Y019012D01*
X028640Y018994D01*
X028621Y018974D01*
X028605Y018952D01*
X028591Y018929D01*
X028580Y018905D01*
X028571Y018879D01*
X028564Y018853D01*
X028560Y018826D01*
X028559Y018799D01*
X028560Y018772D01*
X028564Y018745D01*
X028571Y018719D01*
X028580Y018694D01*
X028591Y018669D01*
X028605Y018646D01*
X028621Y018624D01*
X028622Y018623D01*
X028605Y018584D01*
X028065D01*
X028047Y018623D01*
X028048Y018624D01*
X028064Y018646D01*
X028078Y018669D01*
X028090Y018694D01*
X028099Y018719D01*
X028105Y018745D01*
X028109Y018772D01*
X028111Y018799D01*
X028109Y018826D01*
X028105Y018853D01*
X028099Y018879D01*
X028090Y018905D01*
X028078Y018929D01*
X028064Y018952D01*
X028048Y018974D01*
X028030Y018994D01*
X028010Y019012D01*
X027988Y019029D01*
X027965Y019043D01*
X027940Y019054D01*
X027915Y019063D01*
X027888Y019070D01*
X027862Y019074D01*
X027835Y019075D01*
X027808Y019074D01*
X027781Y019070D01*
X027755Y019063D01*
X027729Y019054D01*
X027705Y019043D01*
X027681Y019029D01*
X027660Y019012D01*
X027640Y018994D01*
X027621Y018974D01*
X027605Y018952D01*
X027591Y018929D01*
X027580Y018905D01*
X027571Y018879D01*
X027564Y018853D01*
X027560Y018826D01*
X027559Y018799D01*
X027560Y018772D01*
X027564Y018745D01*
X027571Y018719D01*
X027580Y018694D01*
X027591Y018669D01*
X027605Y018646D01*
X027621Y018624D01*
X027622Y018623D01*
X027605Y018584D01*
X027065D01*
X027047Y018623D01*
X027048Y018624D01*
X027064Y018646D01*
X027078Y018669D01*
X027090Y018694D01*
X027099Y018719D01*
X027105Y018745D01*
X027109Y018772D01*
X027111Y018799D01*
X027109Y018826D01*
X027105Y018853D01*
X027099Y018879D01*
X027090Y018905D01*
X027078Y018929D01*
X027064Y018952D01*
X027048Y018974D01*
X027030Y018994D01*
X027010Y019012D01*
X026988Y019029D01*
X026965Y019043D01*
X026940Y019054D01*
X026915Y019063D01*
X026888Y019070D01*
X026862Y019074D01*
X026835Y019075D01*
X026808Y019074D01*
X026781Y019070D01*
X026755Y019063D01*
X026729Y019054D01*
X026705Y019043D01*
X026681Y019029D01*
X026660Y019012D01*
X026640Y018994D01*
X026621Y018974D01*
X026605Y018952D01*
X026591Y018929D01*
X026580Y018905D01*
X026571Y018879D01*
X026564Y018853D01*
X026560Y018826D01*
X026559Y018799D01*
X026560Y018772D01*
X026564Y018745D01*
X026571Y018719D01*
X026580Y018694D01*
X026591Y018669D01*
X026605Y018646D01*
X026621Y018624D01*
X026622Y018623D01*
X026605Y018584D01*
X026065D01*
X026047Y018623D01*
X026048Y018624D01*
X026064Y018646D01*
X026078Y018669D01*
X026090Y018694D01*
X026099Y018719D01*
X026105Y018745D01*
X026109Y018772D01*
X026111Y018799D01*
X026109Y018826D01*
X026105Y018853D01*
X026099Y018879D01*
X026090Y018905D01*
X026078Y018929D01*
X026064Y018952D01*
X026048Y018974D01*
X026030Y018994D01*
X026010Y019012D01*
X025988Y019029D01*
X025965Y019043D01*
X025940Y019054D01*
X025915Y019063D01*
X025888Y019070D01*
X025862Y019074D01*
X025835Y019075D01*
X025808Y019074D01*
X025781Y019070D01*
X025755Y019063D01*
X025729Y019054D01*
X025705Y019043D01*
X025681Y019029D01*
X025660Y019012D01*
X025640Y018994D01*
X025621Y018974D01*
X025605Y018952D01*
X025591Y018929D01*
X025580Y018905D01*
X025571Y018879D01*
X025564Y018853D01*
X025560Y018826D01*
X025559Y018799D01*
X025560Y018772D01*
X025564Y018745D01*
X025571Y018719D01*
X025580Y018694D01*
X025591Y018669D01*
X025605Y018646D01*
X025621Y018624D01*
X025622Y018623D01*
X025605Y018584D01*
X025065D01*
X025047Y018623D01*
X025048Y018624D01*
X025064Y018646D01*
X025078Y018669D01*
X025090Y018694D01*
X025099Y018719D01*
X025105Y018745D01*
X025109Y018772D01*
X025111Y018799D01*
X025109Y018826D01*
X025105Y018853D01*
X025099Y018879D01*
X025090Y018905D01*
X025078Y018929D01*
X025064Y018952D01*
X025048Y018974D01*
X025030Y018994D01*
X025010Y019012D01*
X024988Y019029D01*
X024965Y019043D01*
X024940Y019054D01*
X024915Y019063D01*
X024888Y019070D01*
X024862Y019074D01*
X024835Y019075D01*
X024808Y019074D01*
X024781Y019070D01*
X024755Y019063D01*
X024729Y019054D01*
X024705Y019043D01*
X024681Y019029D01*
X024660Y019012D01*
X024640Y018994D01*
X024621Y018974D01*
X024605Y018952D01*
X024591Y018929D01*
X024580Y018905D01*
X024571Y018879D01*
X024564Y018853D01*
X024560Y018826D01*
X024559Y018799D01*
X024560Y018772D01*
X024564Y018745D01*
X024571Y018719D01*
X024580Y018694D01*
X024591Y018669D01*
X024605Y018646D01*
X024621Y018624D01*
X024622Y018623D01*
X024605Y018584D01*
X024065D01*
X024047Y018623D01*
X024048Y018624D01*
X024064Y018646D01*
X024078Y018669D01*
X024090Y018694D01*
X024099Y018719D01*
X024105Y018745D01*
X024109Y018772D01*
X024111Y018799D01*
X024109Y018826D01*
X024105Y018853D01*
X024099Y018879D01*
X024090Y018905D01*
X024078Y018929D01*
X024064Y018952D01*
X024048Y018974D01*
X024030Y018994D01*
X024010Y019012D01*
X023988Y019029D01*
X023965Y019043D01*
X023940Y019054D01*
X023915Y019063D01*
X023888Y019070D01*
X023862Y019074D01*
X023835Y019075D01*
X023808Y019074D01*
X023781Y019070D01*
X023755Y019063D01*
X023729Y019054D01*
X023705Y019043D01*
X023681Y019029D01*
X023660Y019012D01*
X023640Y018994D01*
X023621Y018974D01*
X023605Y018952D01*
X023591Y018929D01*
X023580Y018905D01*
X023571Y018879D01*
X023564Y018853D01*
X023560Y018826D01*
X023559Y018799D01*
X023560Y018772D01*
X023564Y018745D01*
X023571Y018719D01*
X023580Y018694D01*
X023591Y018669D01*
X023605Y018646D01*
X023621Y018624D01*
X023622Y018623D01*
X023605Y018584D01*
X023110D01*
Y019075D01*
X022559D01*
Y018584D01*
X019470D01*
Y021613D01*
X019509Y021630D01*
X019510Y021629D01*
D02*
G37*
G36*
X037909Y038070D02*
X037890Y038059D01*
X037851Y038034D01*
X037814Y038006D01*
X037778Y037976D01*
X037744Y037945D01*
X037713Y037911D01*
X037683Y037875D01*
X037655Y037838D01*
X037630Y037799D01*
X037607Y037759D01*
X037587Y037717D01*
X037569Y037674D01*
X037554Y037630D01*
X037542Y037585D01*
X037532Y037540D01*
X037526Y037500D01*
X038287D01*
Y037402D01*
X038386D01*
Y036640D01*
X038426Y036646D01*
X038471Y036656D01*
X038516Y036668D01*
X038560Y036683D01*
X038603Y036701D01*
X038644Y036721D01*
X038685Y036744D01*
X038724Y036769D01*
X038761Y036797D01*
X038797Y036827D01*
X038831Y036858D01*
X038862Y036892D01*
X038892Y036928D01*
X038920Y036965D01*
X038945Y037004D01*
X038955Y037023D01*
X038995Y037013D01*
Y035106D01*
X038988Y035099D01*
X038955Y035086D01*
X038943Y035095D01*
X038918Y035110D01*
X038892Y035123D01*
X038878Y035128D01*
Y034850D01*
Y034573D01*
X038892Y034578D01*
X038918Y034591D01*
X038943Y034605D01*
X038955Y034614D01*
X038988Y034602D01*
X038995Y034595D01*
Y034080D01*
X038955Y034063D01*
X038955Y034064D01*
X038933Y034080D01*
X038910Y034094D01*
X038885Y034105D01*
X038860Y034114D01*
X038833Y034121D01*
X038807Y034125D01*
X038780Y034126D01*
X038752Y034125D01*
X038726Y034121D01*
X038699Y034114D01*
X038674Y034105D01*
X038649Y034094D01*
X038626Y034080D01*
X038605Y034064D01*
X038584Y034045D01*
X038566Y034025D01*
X038550Y034004D01*
X038536Y033980D01*
X038525Y033956D01*
X038516Y033930D01*
X038509Y033904D01*
X038505Y033877D01*
X038504Y033850D01*
X038505Y033823D01*
X038509Y033797D01*
X038516Y033770D01*
X038525Y033745D01*
X038536Y033720D01*
X038550Y033697D01*
X038566Y033675D01*
X038584Y033655D01*
X038605Y033637D01*
X038626Y033621D01*
X038649Y033607D01*
X038674Y033596D01*
X038699Y033586D01*
X038726Y033580D01*
X038752Y033576D01*
X038780Y033575D01*
X038807Y033576D01*
X038833Y033580D01*
X038860Y033586D01*
X038885Y033596D01*
X038910Y033607D01*
X038933Y033621D01*
X038955Y033637D01*
X038955Y033638D01*
X038995Y033620D01*
Y033080D01*
X038955Y033063D01*
X038955Y033064D01*
X038933Y033080D01*
X038910Y033094D01*
X038885Y033105D01*
X038860Y033114D01*
X038833Y033121D01*
X038807Y033125D01*
X038780Y033126D01*
X038752Y033125D01*
X038726Y033121D01*
X038699Y033114D01*
X038674Y033105D01*
X038649Y033094D01*
X038626Y033080D01*
X038605Y033064D01*
X038584Y033045D01*
X038566Y033025D01*
X038550Y033004D01*
X038536Y032980D01*
X038525Y032956D01*
X038516Y032930D01*
X038509Y032904D01*
X038505Y032877D01*
X038504Y032850D01*
X038505Y032823D01*
X038509Y032797D01*
X038516Y032770D01*
X038525Y032745D01*
X038536Y032720D01*
X038550Y032697D01*
X038566Y032675D01*
X038584Y032655D01*
X038605Y032637D01*
X038626Y032621D01*
X038649Y032607D01*
X038674Y032596D01*
X038699Y032586D01*
X038726Y032580D01*
X038752Y032576D01*
X038780Y032575D01*
X038807Y032576D01*
X038833Y032580D01*
X038860Y032586D01*
X038885Y032596D01*
X038910Y032607D01*
X038933Y032621D01*
X038955Y032637D01*
X038955Y032638D01*
X038995Y032620D01*
Y032080D01*
X038955Y032063D01*
X038955Y032064D01*
X038933Y032080D01*
X038910Y032094D01*
X038885Y032105D01*
X038860Y032114D01*
X038833Y032121D01*
X038807Y032125D01*
X038780Y032126D01*
X038752Y032125D01*
X038726Y032121D01*
X038699Y032114D01*
X038674Y032105D01*
X038649Y032094D01*
X038626Y032080D01*
X038605Y032064D01*
X038584Y032045D01*
X038566Y032025D01*
X038550Y032004D01*
X038536Y031980D01*
X038525Y031956D01*
X038516Y031930D01*
X038509Y031904D01*
X038505Y031877D01*
X038504Y031850D01*
X038505Y031823D01*
X038509Y031797D01*
X038516Y031770D01*
X038525Y031745D01*
X038536Y031720D01*
X038550Y031697D01*
X038566Y031675D01*
X038584Y031655D01*
X038605Y031637D01*
X038626Y031621D01*
X038649Y031607D01*
X038674Y031596D01*
X038699Y031586D01*
X038726Y031580D01*
X038752Y031576D01*
X038780Y031575D01*
X038807Y031576D01*
X038833Y031580D01*
X038860Y031586D01*
X038885Y031596D01*
X038910Y031607D01*
X038933Y031621D01*
X038955Y031637D01*
X038955Y031638D01*
X038995Y031620D01*
Y031080D01*
X038955Y031063D01*
X038955Y031064D01*
X038933Y031080D01*
X038910Y031094D01*
X038885Y031105D01*
X038860Y031114D01*
X038833Y031121D01*
X038807Y031125D01*
X038780Y031126D01*
X038752Y031125D01*
X038726Y031121D01*
X038699Y031114D01*
X038674Y031105D01*
X038649Y031094D01*
X038626Y031080D01*
X038605Y031064D01*
X038584Y031045D01*
X038566Y031025D01*
X038550Y031004D01*
X038536Y030980D01*
X038525Y030956D01*
X038516Y030930D01*
X038509Y030904D01*
X038505Y030877D01*
X038504Y030850D01*
X038505Y030823D01*
X038509Y030797D01*
X038516Y030770D01*
X038525Y030745D01*
X038536Y030720D01*
X038550Y030697D01*
X038566Y030675D01*
X038584Y030655D01*
X038605Y030637D01*
X038626Y030621D01*
X038649Y030607D01*
X038674Y030596D01*
X038699Y030586D01*
X038726Y030580D01*
X038752Y030576D01*
X038780Y030575D01*
X038807Y030576D01*
X038833Y030580D01*
X038860Y030586D01*
X038885Y030596D01*
X038910Y030607D01*
X038933Y030621D01*
X038955Y030637D01*
X038955Y030638D01*
X038995Y030620D01*
Y030080D01*
X038955Y030063D01*
X038955Y030064D01*
X038933Y030080D01*
X038910Y030094D01*
X038885Y030105D01*
X038860Y030114D01*
X038833Y030121D01*
X038807Y030125D01*
X038780Y030126D01*
X038752Y030125D01*
X038726Y030121D01*
X038699Y030114D01*
X038674Y030105D01*
X038649Y030094D01*
X038626Y030080D01*
X038605Y030064D01*
X038584Y030045D01*
X038566Y030025D01*
X038550Y030004D01*
X038536Y029980D01*
X038525Y029956D01*
X038516Y029930D01*
X038509Y029904D01*
X038505Y029877D01*
X038504Y029850D01*
X038505Y029823D01*
X038509Y029797D01*
X038516Y029770D01*
X038525Y029745D01*
X038536Y029720D01*
X038550Y029697D01*
X038566Y029675D01*
X038584Y029655D01*
X038605Y029637D01*
X038626Y029621D01*
X038649Y029607D01*
X038674Y029596D01*
X038699Y029586D01*
X038726Y029580D01*
X038752Y029576D01*
X038780Y029575D01*
X038807Y029576D01*
X038833Y029580D01*
X038860Y029586D01*
X038885Y029596D01*
X038910Y029607D01*
X038933Y029621D01*
X038955Y029637D01*
X038955Y029638D01*
X038995Y029620D01*
Y029080D01*
X038955Y029063D01*
X038955Y029064D01*
X038933Y029080D01*
X038910Y029094D01*
X038885Y029105D01*
X038860Y029114D01*
X038833Y029121D01*
X038807Y029125D01*
X038780Y029126D01*
X038752Y029125D01*
X038726Y029121D01*
X038699Y029114D01*
X038674Y029105D01*
X038649Y029094D01*
X038626Y029080D01*
X038605Y029064D01*
X038584Y029045D01*
X038566Y029025D01*
X038550Y029004D01*
X038536Y028980D01*
X038525Y028956D01*
X038516Y028930D01*
X038509Y028904D01*
X038505Y028877D01*
X038504Y028850D01*
X038505Y028823D01*
X038509Y028797D01*
X038516Y028770D01*
X038525Y028745D01*
X038536Y028720D01*
X038550Y028697D01*
X038566Y028675D01*
X038584Y028655D01*
X038605Y028637D01*
X038626Y028621D01*
X038649Y028607D01*
X038674Y028596D01*
X038699Y028586D01*
X038726Y028580D01*
X038752Y028576D01*
X038780Y028575D01*
X038807Y028576D01*
X038833Y028580D01*
X038860Y028586D01*
X038885Y028596D01*
X038910Y028607D01*
X038933Y028621D01*
X038955Y028637D01*
X038955Y028638D01*
X038995Y028620D01*
Y028080D01*
X038955Y028063D01*
X038955Y028064D01*
X038933Y028080D01*
X038910Y028094D01*
X038885Y028105D01*
X038860Y028114D01*
X038833Y028121D01*
X038807Y028125D01*
X038780Y028126D01*
X038752Y028125D01*
X038726Y028121D01*
X038699Y028114D01*
X038674Y028105D01*
X038649Y028094D01*
X038626Y028080D01*
X038605Y028064D01*
X038584Y028045D01*
X038566Y028025D01*
X038550Y028004D01*
X038536Y027980D01*
X038525Y027956D01*
X038516Y027930D01*
X038509Y027904D01*
X038505Y027877D01*
X038504Y027850D01*
X038505Y027823D01*
X038509Y027797D01*
X038516Y027770D01*
X038525Y027745D01*
X038536Y027720D01*
X038550Y027697D01*
X038566Y027675D01*
X038584Y027655D01*
X038605Y027637D01*
X038626Y027621D01*
X038649Y027607D01*
X038674Y027596D01*
X038699Y027586D01*
X038726Y027580D01*
X038752Y027576D01*
X038780Y027575D01*
X038807Y027576D01*
X038833Y027580D01*
X038860Y027586D01*
X038885Y027596D01*
X038910Y027607D01*
X038933Y027621D01*
X038955Y027637D01*
X038955Y027638D01*
X038995Y027620D01*
Y027080D01*
X038955Y027063D01*
X038955Y027064D01*
X038933Y027080D01*
X038910Y027094D01*
X038885Y027105D01*
X038860Y027114D01*
X038833Y027121D01*
X038807Y027125D01*
X038780Y027126D01*
X038752Y027125D01*
X038726Y027121D01*
X038699Y027114D01*
X038674Y027105D01*
X038649Y027094D01*
X038626Y027080D01*
X038605Y027064D01*
X038584Y027045D01*
X038566Y027025D01*
X038550Y027004D01*
X038536Y026980D01*
X038525Y026956D01*
X038516Y026930D01*
X038509Y026904D01*
X038505Y026877D01*
X038504Y026850D01*
X038505Y026823D01*
X038509Y026797D01*
X038516Y026770D01*
X038525Y026745D01*
X038536Y026720D01*
X038550Y026697D01*
X038566Y026675D01*
X038584Y026655D01*
X038605Y026637D01*
X038626Y026621D01*
X038649Y026607D01*
X038674Y026596D01*
X038699Y026586D01*
X038726Y026580D01*
X038752Y026576D01*
X038780Y026575D01*
X038807Y026576D01*
X038833Y026580D01*
X038860Y026586D01*
X038885Y026596D01*
X038910Y026607D01*
X038933Y026621D01*
X038955Y026637D01*
X038955Y026638D01*
X038995Y026620D01*
Y026080D01*
X038955Y026063D01*
X038955Y026064D01*
X038933Y026080D01*
X038910Y026094D01*
X038885Y026105D01*
X038860Y026114D01*
X038833Y026121D01*
X038807Y026125D01*
X038780Y026126D01*
X038752Y026125D01*
X038726Y026121D01*
X038699Y026114D01*
X038674Y026105D01*
X038649Y026094D01*
X038626Y026080D01*
X038605Y026064D01*
X038584Y026045D01*
X038566Y026025D01*
X038550Y026004D01*
X038536Y025980D01*
X038525Y025956D01*
X038516Y025930D01*
X038509Y025904D01*
X038505Y025877D01*
X038504Y025850D01*
X038505Y025823D01*
X038509Y025797D01*
X038516Y025770D01*
X038525Y025745D01*
X038536Y025720D01*
X038550Y025697D01*
X038566Y025675D01*
X038584Y025655D01*
X038605Y025637D01*
X038626Y025621D01*
X038649Y025607D01*
X038674Y025596D01*
X038699Y025586D01*
X038726Y025580D01*
X038752Y025576D01*
X038780Y025575D01*
X038807Y025576D01*
X038833Y025580D01*
X038860Y025586D01*
X038885Y025596D01*
X038910Y025607D01*
X038933Y025621D01*
X038955Y025637D01*
X038955Y025638D01*
X038995Y025620D01*
Y025080D01*
X038955Y025063D01*
X038955Y025064D01*
X038933Y025080D01*
X038910Y025094D01*
X038885Y025105D01*
X038860Y025114D01*
X038833Y025121D01*
X038807Y025125D01*
X038780Y025126D01*
X038752Y025125D01*
X038726Y025121D01*
X038699Y025114D01*
X038674Y025105D01*
X038649Y025094D01*
X038626Y025080D01*
X038605Y025064D01*
X038584Y025045D01*
X038566Y025025D01*
X038550Y025004D01*
X038536Y024980D01*
X038525Y024956D01*
X038516Y024930D01*
X038509Y024904D01*
X038505Y024877D01*
X038504Y024850D01*
X038505Y024823D01*
X038509Y024797D01*
X038516Y024770D01*
X038525Y024745D01*
X038536Y024720D01*
X038550Y024697D01*
X038566Y024675D01*
X038584Y024655D01*
X038605Y024637D01*
X038626Y024621D01*
X038649Y024607D01*
X038674Y024596D01*
X038699Y024586D01*
X038726Y024580D01*
X038752Y024576D01*
X038780Y024575D01*
X038807Y024576D01*
X038833Y024580D01*
X038860Y024586D01*
X038885Y024596D01*
X038910Y024607D01*
X038933Y024621D01*
X038955Y024637D01*
X038955Y024638D01*
X038995Y024620D01*
Y024080D01*
X038955Y024063D01*
X038955Y024064D01*
X038933Y024080D01*
X038910Y024094D01*
X038885Y024105D01*
X038860Y024114D01*
X038833Y024121D01*
X038807Y024125D01*
X038780Y024126D01*
X038752Y024125D01*
X038726Y024121D01*
X038699Y024114D01*
X038674Y024105D01*
X038649Y024094D01*
X038626Y024080D01*
X038605Y024064D01*
X038584Y024045D01*
X038566Y024025D01*
X038550Y024004D01*
X038536Y023980D01*
X038525Y023956D01*
X038516Y023930D01*
X038509Y023904D01*
X038505Y023877D01*
X038504Y023850D01*
X038505Y023823D01*
X038509Y023797D01*
X038516Y023770D01*
X038525Y023745D01*
X038536Y023720D01*
X038550Y023697D01*
X038566Y023675D01*
X038584Y023655D01*
X038605Y023637D01*
X038626Y023621D01*
X038649Y023607D01*
X038674Y023596D01*
X038699Y023586D01*
X038726Y023580D01*
X038752Y023576D01*
X038780Y023575D01*
X038807Y023576D01*
X038833Y023580D01*
X038860Y023586D01*
X038885Y023596D01*
X038910Y023607D01*
X038933Y023621D01*
X038955Y023637D01*
X038955Y023638D01*
X038995Y023620D01*
Y023080D01*
X038955Y023063D01*
X038955Y023064D01*
X038933Y023080D01*
X038910Y023094D01*
X038885Y023105D01*
X038860Y023114D01*
X038833Y023121D01*
X038807Y023125D01*
X038780Y023126D01*
X038752Y023125D01*
X038726Y023121D01*
X038699Y023114D01*
X038674Y023105D01*
X038649Y023094D01*
X038626Y023080D01*
X038605Y023064D01*
X038584Y023045D01*
X038566Y023025D01*
X038550Y023004D01*
X038536Y022980D01*
X038525Y022956D01*
X038516Y022930D01*
X038509Y022904D01*
X038505Y022877D01*
X038504Y022850D01*
X038505Y022823D01*
X038509Y022797D01*
X038516Y022770D01*
X038525Y022745D01*
X038536Y022720D01*
X038550Y022697D01*
X038566Y022675D01*
X038584Y022655D01*
X038605Y022637D01*
X038626Y022621D01*
X038649Y022607D01*
X038674Y022596D01*
X038699Y022586D01*
X038726Y022580D01*
X038752Y022576D01*
X038780Y022575D01*
X038807Y022576D01*
X038833Y022580D01*
X038860Y022586D01*
X038885Y022596D01*
X038910Y022607D01*
X038933Y022621D01*
X038955Y022637D01*
X038955Y022638D01*
X038995Y022620D01*
Y022145D01*
X038878D01*
Y021850D01*
Y021556D01*
X038995D01*
Y019680D01*
X038955Y019670D01*
X038945Y019689D01*
X038920Y019728D01*
X038892Y019765D01*
X038862Y019801D01*
X038831Y019834D01*
X038797Y019866D01*
X038761Y019896D01*
X038724Y019923D01*
X038685Y019949D01*
X038644Y019971D01*
X038603Y019992D01*
X038560Y020009D01*
X038516Y020025D01*
X038471Y020037D01*
X038426Y020047D01*
X038386Y020053D01*
Y019291D01*
X038287D01*
Y019193D01*
X037526D01*
X037532Y019153D01*
X037542Y019108D01*
X037554Y019063D01*
X037569Y019019D01*
X037587Y018976D01*
X037607Y018934D01*
X037630Y018894D01*
X037655Y018855D01*
X037683Y018818D01*
X037713Y018782D01*
X037744Y018748D01*
X037778Y018716D01*
X037814Y018687D01*
X037851Y018659D01*
X037890Y018634D01*
X037909Y018623D01*
X037899Y018584D01*
X036065D01*
X036047Y018623D01*
X036048Y018624D01*
X036064Y018646D01*
X036078Y018669D01*
X036090Y018694D01*
X036099Y018719D01*
X036105Y018745D01*
X036109Y018772D01*
X036111Y018799D01*
X036109Y018826D01*
X036105Y018853D01*
X036099Y018879D01*
X036092Y018898D01*
Y019700D01*
X036099Y019719D01*
X036105Y019745D01*
X036109Y019772D01*
X036111Y019799D01*
X036109Y019826D01*
X036105Y019853D01*
X036099Y019879D01*
X036092Y019898D01*
Y021389D01*
X036213D01*
X036219Y021389D01*
X036224Y021390D01*
X036224Y021390D01*
X036224Y021390D01*
X036231Y021392D01*
X036236Y021393D01*
X036236Y021393D01*
X036236Y021393D01*
X036241Y021396D01*
X036246Y021399D01*
X036246Y021399D01*
X036246Y021399D01*
X036251Y021403D01*
X036255Y021406D01*
X036255Y021406D01*
X036255Y021406D01*
X036259Y021411D01*
X036263Y021415D01*
X036263Y021415D01*
X036263Y021415D01*
X036265Y021420D01*
X036268Y021426D01*
X036268Y021426D01*
X036268Y021426D01*
X036270Y021431D01*
X036272Y021437D01*
X036272Y021437D01*
X036272Y021437D01*
X036272Y021443D01*
X036273Y021449D01*
X036280Y034593D01*
X037680D01*
X037699Y034586D01*
X037726Y034580D01*
X037752Y034576D01*
X037780Y034575D01*
X037807Y034576D01*
X037833Y034580D01*
X037860Y034586D01*
X037885Y034596D01*
X037910Y034607D01*
X037933Y034621D01*
X037955Y034637D01*
X037975Y034655D01*
X037993Y034675D01*
X038009Y034697D01*
X038023Y034720D01*
X038034Y034745D01*
X038044Y034770D01*
X038050Y034797D01*
X038054Y034823D01*
X038055Y034850D01*
X038054Y034877D01*
X038050Y034904D01*
X038044Y034930D01*
X038034Y034956D01*
X038023Y034980D01*
X038009Y035004D01*
X037993Y035025D01*
X037975Y035045D01*
X037955Y035064D01*
X037933Y035080D01*
X037910Y035094D01*
X037885Y035105D01*
X037860Y035114D01*
X037833Y035121D01*
X037807Y035125D01*
X037780Y035126D01*
X037752Y035125D01*
X037726Y035121D01*
X037699Y035114D01*
X037680Y035108D01*
X036309D01*
X036281Y035135D01*
X036281Y035200D01*
X036281Y035200D01*
Y035200D01*
X036281Y035202D01*
X036280Y035212D01*
X036276Y035224D01*
X036276Y035224D01*
X036276Y035224D01*
X036273Y035230D01*
X036271Y035234D01*
X036271Y035234D01*
X036271Y035234D01*
X036265Y035241D01*
X036263Y035243D01*
X036263Y035243D01*
X036263Y035243D01*
X036235Y035271D01*
X036235Y035271D01*
X036235Y035271D01*
X036233Y035273D01*
X036226Y035278D01*
X036226Y035278D01*
X036226Y035278D01*
X036222Y035281D01*
X036216Y035284D01*
X036216Y035284D01*
X036216Y035284D01*
X036208Y035286D01*
X036204Y035287D01*
X036204Y035287D01*
X036204Y035287D01*
X036195Y035288D01*
X036193Y035289D01*
X036193D01*
X036193Y035289D01*
X023092Y035289D01*
Y036794D01*
X023099Y036814D01*
X023105Y036840D01*
X023109Y036867D01*
X023111Y036894D01*
X023109Y036921D01*
X023105Y036948D01*
X023099Y036974D01*
X023090Y036999D01*
X023078Y037024D01*
X023064Y037047D01*
X023048Y037069D01*
X023030Y037089D01*
X023010Y037107D01*
X022988Y037123D01*
X022965Y037137D01*
X022940Y037149D01*
X022915Y037158D01*
X022888Y037164D01*
X022862Y037168D01*
X022835Y037170D01*
X022808Y037168D01*
X022781Y037164D01*
X022755Y037158D01*
X022729Y037149D01*
X022705Y037137D01*
X022681Y037123D01*
X022660Y037107D01*
X022640Y037089D01*
X022621Y037069D01*
X022605Y037047D01*
X022591Y037024D01*
X022580Y036999D01*
X022571Y036974D01*
X022564Y036948D01*
X022560Y036921D01*
X022559Y036894D01*
X022560Y036867D01*
X022564Y036840D01*
X022571Y036814D01*
X022577Y036794D01*
Y035289D01*
X022461D01*
X022461Y035289D01*
X022461D01*
X022458Y035288D01*
X022449Y035287D01*
X022449Y035287D01*
X022449Y035287D01*
X022445Y035286D01*
X022438Y035284D01*
X022438Y035284D01*
X022438Y035284D01*
X022431Y035281D01*
X022427Y035278D01*
X022427Y035278D01*
X022427Y035278D01*
X022421Y035273D01*
X022418Y035271D01*
X022418Y035271D01*
X022418Y035271D01*
X022390Y035243D01*
X022383Y035234D01*
X022383Y035234D01*
X022383Y035234D01*
X022381Y035231D01*
X022377Y035224D01*
X022377Y035224D01*
X022377Y035224D01*
X022374Y035212D01*
X022373Y035203D01*
X022373Y035200D01*
Y035200D01*
X022373Y035200D01*
X022380Y022128D01*
X022352Y022100D01*
X020784D01*
X020765Y022107D01*
X020739Y022113D01*
X020712Y022117D01*
X020685Y022118D01*
X020658Y022117D01*
X020631Y022113D01*
X020605Y022107D01*
X020586Y022100D01*
X019784D01*
X019765Y022107D01*
X019739Y022113D01*
X019712Y022117D01*
X019685Y022118D01*
X019658Y022117D01*
X019631Y022113D01*
X019605Y022107D01*
X019579Y022097D01*
X019555Y022086D01*
X019532Y022072D01*
X019510Y022056D01*
X019509Y022055D01*
X019470Y022072D01*
Y022587D01*
X019477Y022594D01*
X019509Y022607D01*
X019521Y022598D01*
X019546Y022583D01*
X019572Y022570D01*
X019587Y022565D01*
Y022843D01*
Y023120D01*
X019572Y023115D01*
X019546Y023102D01*
X019521Y023088D01*
X019509Y023079D01*
X019477Y023091D01*
X019470Y023098D01*
Y023613D01*
X019509Y023630D01*
X019510Y023629D01*
X019532Y023613D01*
X019555Y023599D01*
X019579Y023588D01*
X019605Y023579D01*
X019631Y023572D01*
X019658Y023568D01*
X019685Y023567D01*
X019712Y023568D01*
X019739Y023572D01*
X019765Y023579D01*
X019791Y023588D01*
X019815Y023599D01*
X019838Y023613D01*
X019860Y023629D01*
X019880Y023647D01*
X019898Y023668D01*
X019914Y023689D01*
X019928Y023712D01*
X019940Y023737D01*
X019949Y023762D01*
X019956Y023789D01*
X019960Y023815D01*
X019961Y023843D01*
X019960Y023870D01*
X019956Y023896D01*
X019949Y023923D01*
X019940Y023948D01*
X019928Y023973D01*
X019914Y023996D01*
X019898Y024018D01*
X019880Y024038D01*
X019860Y024056D01*
X019838Y024072D01*
X019815Y024086D01*
X019791Y024097D01*
X019765Y024107D01*
X019739Y024113D01*
X019712Y024117D01*
X019685Y024118D01*
X019658Y024117D01*
X019631Y024113D01*
X019605Y024107D01*
X019579Y024097D01*
X019555Y024086D01*
X019532Y024072D01*
X019510Y024056D01*
X019509Y024055D01*
X019470Y024072D01*
Y024613D01*
X019509Y024630D01*
X019510Y024629D01*
X019532Y024613D01*
X019555Y024599D01*
X019579Y024588D01*
X019605Y024579D01*
X019631Y024572D01*
X019658Y024568D01*
X019685Y024567D01*
X019712Y024568D01*
X019739Y024572D01*
X019765Y024579D01*
X019791Y024588D01*
X019815Y024599D01*
X019838Y024613D01*
X019860Y024629D01*
X019880Y024647D01*
X019898Y024667D01*
X019914Y024689D01*
X019928Y024712D01*
X019940Y024737D01*
X019949Y024762D01*
X019956Y024789D01*
X019960Y024815D01*
X019961Y024843D01*
X019960Y024870D01*
X019956Y024896D01*
X019949Y024923D01*
X019940Y024948D01*
X019928Y024973D01*
X019914Y024996D01*
X019898Y025018D01*
X019880Y025038D01*
X019860Y025056D01*
X019838Y025072D01*
X019815Y025086D01*
X019791Y025097D01*
X019765Y025107D01*
X019739Y025113D01*
X019712Y025117D01*
X019685Y025118D01*
X019658Y025117D01*
X019631Y025113D01*
X019605Y025107D01*
X019579Y025097D01*
X019555Y025086D01*
X019532Y025072D01*
X019510Y025056D01*
X019509Y025055D01*
X019470Y025072D01*
Y025613D01*
X019509Y025630D01*
X019510Y025629D01*
X019532Y025613D01*
X019555Y025599D01*
X019579Y025588D01*
X019605Y025579D01*
X019631Y025572D01*
X019658Y025568D01*
X019685Y025567D01*
X019712Y025568D01*
X019739Y025572D01*
X019765Y025579D01*
X019784Y025585D01*
X020586D01*
X020605Y025579D01*
X020631Y025572D01*
X020658Y025568D01*
X020685Y025567D01*
X020712Y025568D01*
X020739Y025572D01*
X020765Y025579D01*
X020791Y025588D01*
X020815Y025599D01*
X020838Y025613D01*
X020860Y025629D01*
X020880Y025647D01*
X020898Y025668D01*
X020914Y025689D01*
X020928Y025712D01*
X020940Y025737D01*
X020949Y025762D01*
X020956Y025789D01*
X020960Y025815D01*
X020961Y025843D01*
X020960Y025870D01*
X020956Y025896D01*
X020949Y025923D01*
X020940Y025948D01*
X020928Y025973D01*
X020914Y025996D01*
X020898Y026018D01*
X020880Y026038D01*
X020860Y026056D01*
X020838Y026072D01*
X020815Y026086D01*
X020791Y026097D01*
X020765Y026107D01*
X020739Y026113D01*
X020712Y026117D01*
X020685Y026118D01*
X020658Y026117D01*
X020631Y026113D01*
X020605Y026107D01*
X020586Y026100D01*
X019784D01*
X019765Y026107D01*
X019739Y026113D01*
X019712Y026117D01*
X019685Y026118D01*
X019658Y026117D01*
X019631Y026113D01*
X019605Y026107D01*
X019579Y026097D01*
X019555Y026086D01*
X019532Y026072D01*
X019510Y026056D01*
X019509Y026055D01*
X019470Y026072D01*
Y026613D01*
X019509Y026630D01*
X019510Y026629D01*
X019532Y026613D01*
X019555Y026599D01*
X019579Y026588D01*
X019605Y026579D01*
X019631Y026572D01*
X019658Y026568D01*
X019685Y026567D01*
X019712Y026568D01*
X019739Y026572D01*
X019765Y026579D01*
X019791Y026588D01*
X019815Y026599D01*
X019838Y026613D01*
X019860Y026629D01*
X019880Y026647D01*
X019898Y026667D01*
X019914Y026689D01*
X019928Y026712D01*
X019940Y026737D01*
X019949Y026762D01*
X019956Y026789D01*
X019960Y026815D01*
X019961Y026843D01*
X019960Y026870D01*
X019956Y026896D01*
X019949Y026923D01*
X019940Y026948D01*
X019928Y026973D01*
X019914Y026996D01*
X019898Y027018D01*
X019880Y027038D01*
X019860Y027056D01*
X019838Y027072D01*
X019815Y027086D01*
X019791Y027097D01*
X019765Y027107D01*
X019739Y027113D01*
X019712Y027117D01*
X019685Y027118D01*
X019658Y027117D01*
X019631Y027113D01*
X019605Y027107D01*
X019579Y027097D01*
X019555Y027086D01*
X019532Y027072D01*
X019510Y027056D01*
X019509Y027055D01*
X019470Y027072D01*
Y027613D01*
X019509Y027630D01*
X019510Y027629D01*
X019532Y027613D01*
X019555Y027599D01*
X019579Y027588D01*
X019605Y027579D01*
X019631Y027572D01*
X019658Y027568D01*
X019685Y027567D01*
X019712Y027568D01*
X019739Y027572D01*
X019765Y027579D01*
X019791Y027588D01*
X019815Y027599D01*
X019838Y027613D01*
X019860Y027629D01*
X019880Y027647D01*
X019898Y027668D01*
X019914Y027689D01*
X019928Y027712D01*
X019940Y027737D01*
X019949Y027762D01*
X019956Y027789D01*
X019960Y027815D01*
X019961Y027843D01*
X019960Y027870D01*
X019956Y027896D01*
X019949Y027923D01*
X019940Y027948D01*
X019928Y027973D01*
X019914Y027996D01*
X019898Y028018D01*
X019880Y028038D01*
X019860Y028056D01*
X019838Y028072D01*
X019815Y028086D01*
X019791Y028097D01*
X019765Y028107D01*
X019739Y028113D01*
X019712Y028117D01*
X019685Y028118D01*
X019658Y028117D01*
X019631Y028113D01*
X019605Y028107D01*
X019579Y028097D01*
X019555Y028086D01*
X019532Y028072D01*
X019510Y028056D01*
X019509Y028055D01*
X019470Y028072D01*
Y028613D01*
X019509Y028630D01*
X019510Y028629D01*
X019532Y028613D01*
X019555Y028599D01*
X019579Y028588D01*
X019605Y028579D01*
X019631Y028572D01*
X019658Y028568D01*
X019685Y028567D01*
X019712Y028568D01*
X019739Y028572D01*
X019765Y028579D01*
X019791Y028588D01*
X019815Y028599D01*
X019838Y028613D01*
X019860Y028629D01*
X019880Y028647D01*
X019898Y028668D01*
X019914Y028689D01*
X019928Y028712D01*
X019940Y028737D01*
X019949Y028762D01*
X019956Y028789D01*
X019960Y028815D01*
X019961Y028843D01*
X019960Y028870D01*
X019956Y028896D01*
X019949Y028923D01*
X019940Y028948D01*
X019928Y028973D01*
X019914Y028996D01*
X019898Y029018D01*
X019880Y029038D01*
X019860Y029056D01*
X019838Y029072D01*
X019815Y029086D01*
X019791Y029097D01*
X019765Y029107D01*
X019739Y029113D01*
X019712Y029117D01*
X019685Y029118D01*
X019658Y029117D01*
X019631Y029113D01*
X019605Y029107D01*
X019579Y029097D01*
X019555Y029086D01*
X019532Y029072D01*
X019510Y029056D01*
X019509Y029055D01*
X019470Y029072D01*
Y029613D01*
X019509Y029630D01*
X019510Y029629D01*
X019532Y029613D01*
X019555Y029599D01*
X019579Y029588D01*
X019605Y029579D01*
X019631Y029572D01*
X019658Y029568D01*
X019685Y029567D01*
X019712Y029568D01*
X019739Y029572D01*
X019765Y029579D01*
X019791Y029588D01*
X019815Y029599D01*
X019838Y029613D01*
X019860Y029629D01*
X019880Y029647D01*
X019898Y029667D01*
X019914Y029689D01*
X019928Y029712D01*
X019940Y029737D01*
X019949Y029762D01*
X019956Y029789D01*
X019960Y029815D01*
X019961Y029843D01*
X019960Y029870D01*
X019956Y029896D01*
X019949Y029923D01*
X019940Y029948D01*
X019928Y029973D01*
X019914Y029996D01*
X019898Y030018D01*
X019880Y030038D01*
X019860Y030056D01*
X019838Y030072D01*
X019815Y030086D01*
X019791Y030097D01*
X019765Y030107D01*
X019739Y030113D01*
X019712Y030117D01*
X019685Y030118D01*
X019658Y030117D01*
X019631Y030113D01*
X019605Y030107D01*
X019579Y030097D01*
X019555Y030086D01*
X019532Y030072D01*
X019510Y030056D01*
X019509Y030055D01*
X019470Y030072D01*
Y030587D01*
X019477Y030594D01*
X019509Y030607D01*
X019521Y030598D01*
X019546Y030583D01*
X019572Y030570D01*
X019587Y030565D01*
Y030843D01*
Y031120D01*
X019572Y031115D01*
X019546Y031102D01*
X019521Y031088D01*
X019509Y031079D01*
X019477Y031091D01*
X019470Y031098D01*
Y031613D01*
X019509Y031630D01*
X019510Y031629D01*
X019532Y031613D01*
X019555Y031599D01*
X019579Y031588D01*
X019605Y031579D01*
X019631Y031572D01*
X019658Y031568D01*
X019685Y031567D01*
X019712Y031568D01*
X019739Y031572D01*
X019765Y031579D01*
X019791Y031588D01*
X019815Y031599D01*
X019838Y031613D01*
X019860Y031629D01*
X019880Y031647D01*
X019898Y031667D01*
X019914Y031689D01*
X019928Y031712D01*
X019940Y031737D01*
X019949Y031762D01*
X019956Y031789D01*
X019960Y031815D01*
X019961Y031843D01*
X019960Y031870D01*
X019956Y031896D01*
X019949Y031923D01*
X019940Y031948D01*
X019928Y031973D01*
X019914Y031996D01*
X019898Y032018D01*
X019880Y032038D01*
X019860Y032056D01*
X019838Y032072D01*
X019815Y032086D01*
X019791Y032097D01*
X019765Y032107D01*
X019739Y032113D01*
X019712Y032117D01*
X019685Y032118D01*
X019658Y032117D01*
X019631Y032113D01*
X019605Y032107D01*
X019579Y032097D01*
X019555Y032086D01*
X019532Y032072D01*
X019510Y032056D01*
X019509Y032055D01*
X019470Y032072D01*
Y032613D01*
X019509Y032630D01*
X019510Y032629D01*
X019532Y032613D01*
X019555Y032599D01*
X019579Y032588D01*
X019605Y032579D01*
X019631Y032572D01*
X019658Y032568D01*
X019685Y032567D01*
X019712Y032568D01*
X019739Y032572D01*
X019765Y032579D01*
X019791Y032588D01*
X019815Y032599D01*
X019838Y032613D01*
X019860Y032629D01*
X019880Y032647D01*
X019898Y032668D01*
X019914Y032689D01*
X019928Y032712D01*
X019940Y032737D01*
X019949Y032762D01*
X019956Y032789D01*
X019960Y032815D01*
X019961Y032843D01*
X019960Y032870D01*
X019956Y032896D01*
X019949Y032923D01*
X019940Y032948D01*
X019928Y032973D01*
X019914Y032996D01*
X019898Y033018D01*
X019880Y033038D01*
X019860Y033056D01*
X019838Y033072D01*
X019815Y033086D01*
X019791Y033097D01*
X019765Y033107D01*
X019739Y033113D01*
X019712Y033117D01*
X019685Y033118D01*
X019658Y033117D01*
X019631Y033113D01*
X019605Y033107D01*
X019579Y033097D01*
X019555Y033086D01*
X019532Y033072D01*
X019510Y033056D01*
X019509Y033055D01*
X019470Y033072D01*
Y033613D01*
X019509Y033630D01*
X019510Y033629D01*
X019532Y033613D01*
X019555Y033599D01*
X019579Y033588D01*
X019605Y033579D01*
X019631Y033572D01*
X019658Y033568D01*
X019685Y033567D01*
X019712Y033568D01*
X019739Y033572D01*
X019765Y033579D01*
X019791Y033588D01*
X019815Y033599D01*
X019838Y033613D01*
X019860Y033629D01*
X019880Y033647D01*
X019898Y033668D01*
X019914Y033689D01*
X019928Y033712D01*
X019940Y033737D01*
X019949Y033762D01*
X019956Y033789D01*
X019960Y033815D01*
X019961Y033843D01*
X019960Y033870D01*
X019956Y033896D01*
X019949Y033923D01*
X019940Y033948D01*
X019928Y033973D01*
X019914Y033996D01*
X019898Y034018D01*
X019880Y034038D01*
X019860Y034056D01*
X019838Y034072D01*
X019815Y034086D01*
X019791Y034097D01*
X019765Y034107D01*
X019739Y034113D01*
X019712Y034117D01*
X019685Y034118D01*
X019658Y034117D01*
X019631Y034113D01*
X019605Y034107D01*
X019579Y034097D01*
X019555Y034086D01*
X019532Y034072D01*
X019510Y034056D01*
X019509Y034055D01*
X019470Y034072D01*
Y034548D01*
X019587D01*
Y034843D01*
Y035137D01*
X019470D01*
Y038109D01*
X022579D01*
X022586Y038102D01*
X022599Y038070D01*
X022590Y038057D01*
X022575Y038033D01*
X022562Y038006D01*
X022557Y037992D01*
X022835D01*
X023112D01*
X023107Y038006D01*
X023094Y038033D01*
X023080Y038057D01*
X023071Y038070D01*
X023083Y038102D01*
X023090Y038109D01*
X023605D01*
X023622Y038070D01*
X023621Y038069D01*
X023605Y038047D01*
X023591Y038024D01*
X023580Y037999D01*
X023571Y037974D01*
X023564Y037948D01*
X023560Y037921D01*
X023559Y037894D01*
X023560Y037867D01*
X023564Y037840D01*
X023571Y037814D01*
X023580Y037788D01*
X023591Y037764D01*
X023605Y037740D01*
X023621Y037719D01*
X023640Y037699D01*
X023660Y037680D01*
X023681Y037664D01*
X023705Y037650D01*
X023729Y037639D01*
X023755Y037630D01*
X023781Y037623D01*
X023808Y037619D01*
X023835Y037618D01*
X023862Y037619D01*
X023888Y037623D01*
X023915Y037630D01*
X023940Y037639D01*
X023965Y037650D01*
X023988Y037664D01*
X024010Y037680D01*
X024030Y037699D01*
X024048Y037719D01*
X024064Y037740D01*
X024078Y037764D01*
X024090Y037788D01*
X024099Y037814D01*
X024105Y037840D01*
X024109Y037867D01*
X024111Y037894D01*
X024109Y037921D01*
X024105Y037948D01*
X024099Y037974D01*
X024090Y037999D01*
X024078Y038024D01*
X024064Y038047D01*
X024048Y038069D01*
X024047Y038070D01*
X024065Y038109D01*
X024605D01*
X024622Y038070D01*
X024621Y038069D01*
X024605Y038047D01*
X024591Y038024D01*
X024580Y037999D01*
X024571Y037974D01*
X024564Y037948D01*
X024560Y037921D01*
X024559Y037894D01*
X024560Y037867D01*
X024564Y037840D01*
X024571Y037814D01*
X024580Y037788D01*
X024591Y037764D01*
X024605Y037740D01*
X024621Y037719D01*
X024640Y037699D01*
X024660Y037680D01*
X024681Y037664D01*
X024705Y037650D01*
X024729Y037639D01*
X024755Y037630D01*
X024781Y037623D01*
X024808Y037619D01*
X024835Y037618D01*
X024862Y037619D01*
X024888Y037623D01*
X024915Y037630D01*
X024940Y037639D01*
X024965Y037650D01*
X024988Y037664D01*
X025010Y037680D01*
X025030Y037699D01*
X025048Y037719D01*
X025064Y037740D01*
X025078Y037764D01*
X025090Y037788D01*
X025099Y037814D01*
X025105Y037840D01*
X025109Y037867D01*
X025111Y037894D01*
X025109Y037921D01*
X025105Y037948D01*
X025099Y037974D01*
X025090Y037999D01*
X025078Y038024D01*
X025064Y038047D01*
X025048Y038069D01*
X025047Y038070D01*
X025065Y038109D01*
X025605D01*
X025622Y038070D01*
X025621Y038069D01*
X025605Y038047D01*
X025591Y038024D01*
X025580Y037999D01*
X025571Y037974D01*
X025564Y037948D01*
X025560Y037921D01*
X025559Y037894D01*
X025560Y037867D01*
X025564Y037840D01*
X025571Y037814D01*
X025580Y037788D01*
X025591Y037764D01*
X025605Y037740D01*
X025621Y037719D01*
X025640Y037699D01*
X025660Y037680D01*
X025681Y037664D01*
X025705Y037650D01*
X025729Y037639D01*
X025755Y037630D01*
X025781Y037623D01*
X025808Y037619D01*
X025835Y037618D01*
X025862Y037619D01*
X025888Y037623D01*
X025915Y037630D01*
X025940Y037639D01*
X025965Y037650D01*
X025988Y037664D01*
X026010Y037680D01*
X026030Y037699D01*
X026048Y037719D01*
X026064Y037740D01*
X026078Y037764D01*
X026090Y037788D01*
X026099Y037814D01*
X026105Y037840D01*
X026109Y037867D01*
X026111Y037894D01*
X026109Y037921D01*
X026105Y037948D01*
X026099Y037974D01*
X026090Y037999D01*
X026078Y038024D01*
X026064Y038047D01*
X026048Y038069D01*
X026047Y038070D01*
X026065Y038109D01*
X026605D01*
X026622Y038070D01*
X026621Y038069D01*
X026605Y038047D01*
X026591Y038024D01*
X026580Y037999D01*
X026571Y037974D01*
X026564Y037948D01*
X026560Y037921D01*
X026559Y037894D01*
X026560Y037867D01*
X026564Y037840D01*
X026571Y037814D01*
X026580Y037788D01*
X026591Y037764D01*
X026605Y037740D01*
X026621Y037719D01*
X026640Y037699D01*
X026660Y037680D01*
X026681Y037664D01*
X026705Y037650D01*
X026729Y037639D01*
X026755Y037630D01*
X026781Y037623D01*
X026808Y037619D01*
X026835Y037618D01*
X026862Y037619D01*
X026888Y037623D01*
X026915Y037630D01*
X026940Y037639D01*
X026965Y037650D01*
X026988Y037664D01*
X027010Y037680D01*
X027030Y037699D01*
X027048Y037719D01*
X027064Y037740D01*
X027078Y037764D01*
X027090Y037788D01*
X027099Y037814D01*
X027105Y037840D01*
X027109Y037867D01*
X027111Y037894D01*
X027109Y037921D01*
X027105Y037948D01*
X027099Y037974D01*
X027090Y037999D01*
X027078Y038024D01*
X027064Y038047D01*
X027048Y038069D01*
X027047Y038070D01*
X027065Y038109D01*
X027605D01*
X027622Y038070D01*
X027621Y038069D01*
X027605Y038047D01*
X027591Y038024D01*
X027580Y037999D01*
X027571Y037974D01*
X027564Y037948D01*
X027560Y037921D01*
X027559Y037894D01*
X027560Y037867D01*
X027564Y037840D01*
X027571Y037814D01*
X027580Y037788D01*
X027591Y037764D01*
X027605Y037740D01*
X027621Y037719D01*
X027640Y037699D01*
X027660Y037680D01*
X027681Y037664D01*
X027705Y037650D01*
X027729Y037639D01*
X027755Y037630D01*
X027781Y037623D01*
X027808Y037619D01*
X027835Y037618D01*
X027862Y037619D01*
X027888Y037623D01*
X027915Y037630D01*
X027940Y037639D01*
X027965Y037650D01*
X027988Y037664D01*
X028010Y037680D01*
X028030Y037699D01*
X028048Y037719D01*
X028064Y037740D01*
X028078Y037764D01*
X028090Y037788D01*
X028099Y037814D01*
X028105Y037840D01*
X028109Y037867D01*
X028111Y037894D01*
X028109Y037921D01*
X028105Y037948D01*
X028099Y037974D01*
X028090Y037999D01*
X028078Y038024D01*
X028064Y038047D01*
X028048Y038069D01*
X028047Y038070D01*
X028065Y038109D01*
X028605D01*
X028622Y038070D01*
X028621Y038069D01*
X028605Y038047D01*
X028591Y038024D01*
X028580Y037999D01*
X028571Y037974D01*
X028564Y037948D01*
X028560Y037921D01*
X028559Y037894D01*
X028560Y037867D01*
X028564Y037840D01*
X028571Y037814D01*
X028580Y037788D01*
X028591Y037764D01*
X028605Y037740D01*
X028621Y037719D01*
X028640Y037699D01*
X028660Y037680D01*
X028681Y037664D01*
X028705Y037650D01*
X028729Y037639D01*
X028755Y037630D01*
X028781Y037623D01*
X028808Y037619D01*
X028835Y037618D01*
X028862Y037619D01*
X028888Y037623D01*
X028915Y037630D01*
X028940Y037639D01*
X028965Y037650D01*
X028988Y037664D01*
X029010Y037680D01*
X029030Y037699D01*
X029048Y037719D01*
X029064Y037740D01*
X029078Y037764D01*
X029090Y037788D01*
X029099Y037814D01*
X029105Y037840D01*
X029109Y037867D01*
X029111Y037894D01*
X029109Y037921D01*
X029105Y037948D01*
X029099Y037974D01*
X029090Y037999D01*
X029078Y038024D01*
X029064Y038047D01*
X029048Y038069D01*
X029047Y038070D01*
X029065Y038109D01*
X029605D01*
X029622Y038070D01*
X029621Y038069D01*
X029605Y038047D01*
X029591Y038024D01*
X029580Y037999D01*
X029571Y037974D01*
X029564Y037948D01*
X029560Y037921D01*
X029559Y037894D01*
X029560Y037867D01*
X029564Y037840D01*
X029571Y037814D01*
X029580Y037788D01*
X029591Y037764D01*
X029605Y037740D01*
X029621Y037719D01*
X029640Y037699D01*
X029660Y037680D01*
X029681Y037664D01*
X029705Y037650D01*
X029729Y037639D01*
X029755Y037630D01*
X029781Y037623D01*
X029808Y037619D01*
X029835Y037618D01*
X029862Y037619D01*
X029888Y037623D01*
X029915Y037630D01*
X029940Y037639D01*
X029965Y037650D01*
X029988Y037664D01*
X030010Y037680D01*
X030030Y037699D01*
X030048Y037719D01*
X030064Y037740D01*
X030078Y037764D01*
X030090Y037788D01*
X030099Y037814D01*
X030105Y037840D01*
X030109Y037867D01*
X030111Y037894D01*
X030109Y037921D01*
X030105Y037948D01*
X030099Y037974D01*
X030090Y037999D01*
X030078Y038024D01*
X030064Y038047D01*
X030048Y038069D01*
X030047Y038070D01*
X030065Y038109D01*
X030605D01*
X030622Y038070D01*
X030621Y038069D01*
X030605Y038047D01*
X030591Y038024D01*
X030580Y037999D01*
X030571Y037974D01*
X030564Y037948D01*
X030560Y037921D01*
X030559Y037894D01*
X030560Y037867D01*
X030564Y037840D01*
X030571Y037814D01*
X030580Y037788D01*
X030591Y037764D01*
X030605Y037740D01*
X030621Y037719D01*
X030640Y037699D01*
X030660Y037680D01*
X030681Y037664D01*
X030705Y037650D01*
X030729Y037639D01*
X030755Y037630D01*
X030781Y037623D01*
X030808Y037619D01*
X030835Y037618D01*
X030862Y037619D01*
X030888Y037623D01*
X030915Y037630D01*
X030940Y037639D01*
X030965Y037650D01*
X030988Y037664D01*
X031010Y037680D01*
X031030Y037699D01*
X031048Y037719D01*
X031064Y037740D01*
X031078Y037764D01*
X031090Y037788D01*
X031099Y037814D01*
X031105Y037840D01*
X031109Y037867D01*
X031111Y037894D01*
X031109Y037921D01*
X031105Y037948D01*
X031099Y037974D01*
X031090Y037999D01*
X031078Y038024D01*
X031064Y038047D01*
X031048Y038069D01*
X031047Y038070D01*
X031065Y038109D01*
X031605D01*
X031622Y038070D01*
X031621Y038069D01*
X031605Y038047D01*
X031591Y038024D01*
X031580Y037999D01*
X031571Y037974D01*
X031564Y037948D01*
X031560Y037921D01*
X031559Y037894D01*
X031560Y037867D01*
X031564Y037840D01*
X031571Y037814D01*
X031580Y037788D01*
X031591Y037764D01*
X031605Y037740D01*
X031621Y037719D01*
X031640Y037699D01*
X031660Y037680D01*
X031681Y037664D01*
X031705Y037650D01*
X031729Y037639D01*
X031755Y037630D01*
X031781Y037623D01*
X031808Y037619D01*
X031835Y037618D01*
X031862Y037619D01*
X031888Y037623D01*
X031915Y037630D01*
X031940Y037639D01*
X031965Y037650D01*
X031988Y037664D01*
X032010Y037680D01*
X032030Y037699D01*
X032048Y037719D01*
X032064Y037740D01*
X032078Y037764D01*
X032090Y037788D01*
X032099Y037814D01*
X032105Y037840D01*
X032109Y037867D01*
X032111Y037894D01*
X032109Y037921D01*
X032105Y037948D01*
X032099Y037974D01*
X032090Y037999D01*
X032078Y038024D01*
X032064Y038047D01*
X032048Y038069D01*
X032047Y038070D01*
X032065Y038109D01*
X032605D01*
X032622Y038070D01*
X032621Y038069D01*
X032605Y038047D01*
X032591Y038024D01*
X032580Y037999D01*
X032571Y037974D01*
X032564Y037948D01*
X032560Y037921D01*
X032559Y037894D01*
X032560Y037867D01*
X032564Y037840D01*
X032571Y037814D01*
X032580Y037788D01*
X032591Y037764D01*
X032605Y037740D01*
X032621Y037719D01*
X032640Y037699D01*
X032660Y037680D01*
X032681Y037664D01*
X032705Y037650D01*
X032729Y037639D01*
X032755Y037630D01*
X032781Y037623D01*
X032808Y037619D01*
X032835Y037618D01*
X032862Y037619D01*
X032888Y037623D01*
X032915Y037630D01*
X032940Y037639D01*
X032965Y037650D01*
X032988Y037664D01*
X033010Y037680D01*
X033030Y037699D01*
X033048Y037719D01*
X033064Y037740D01*
X033078Y037764D01*
X033090Y037788D01*
X033099Y037814D01*
X033105Y037840D01*
X033109Y037867D01*
X033111Y037894D01*
X033109Y037921D01*
X033105Y037948D01*
X033099Y037974D01*
X033090Y037999D01*
X033078Y038024D01*
X033064Y038047D01*
X033048Y038069D01*
X033047Y038070D01*
X033065Y038109D01*
X033605D01*
X033622Y038070D01*
X033621Y038069D01*
X033605Y038047D01*
X033591Y038024D01*
X033580Y037999D01*
X033571Y037974D01*
X033564Y037948D01*
X033560Y037921D01*
X033559Y037894D01*
X033560Y037867D01*
X033564Y037840D01*
X033571Y037814D01*
X033580Y037788D01*
X033591Y037764D01*
X033605Y037740D01*
X033621Y037719D01*
X033640Y037699D01*
X033660Y037680D01*
X033681Y037664D01*
X033705Y037650D01*
X033729Y037639D01*
X033755Y037630D01*
X033781Y037623D01*
X033808Y037619D01*
X033835Y037618D01*
X033862Y037619D01*
X033888Y037623D01*
X033915Y037630D01*
X033940Y037639D01*
X033965Y037650D01*
X033988Y037664D01*
X034010Y037680D01*
X034030Y037699D01*
X034048Y037719D01*
X034064Y037740D01*
X034078Y037764D01*
X034090Y037788D01*
X034099Y037814D01*
X034105Y037840D01*
X034109Y037867D01*
X034111Y037894D01*
X034109Y037921D01*
X034105Y037948D01*
X034099Y037974D01*
X034090Y037999D01*
X034078Y038024D01*
X034064Y038047D01*
X034048Y038069D01*
X034047Y038070D01*
X034065Y038109D01*
X034605D01*
X034622Y038070D01*
X034621Y038069D01*
X034605Y038047D01*
X034591Y038024D01*
X034580Y037999D01*
X034571Y037974D01*
X034564Y037948D01*
X034560Y037921D01*
X034559Y037894D01*
X034560Y037867D01*
X034564Y037840D01*
X034571Y037814D01*
X034580Y037788D01*
X034591Y037764D01*
X034605Y037740D01*
X034621Y037719D01*
X034640Y037699D01*
X034660Y037680D01*
X034681Y037664D01*
X034705Y037650D01*
X034729Y037639D01*
X034755Y037630D01*
X034781Y037623D01*
X034808Y037619D01*
X034835Y037618D01*
X034862Y037619D01*
X034888Y037623D01*
X034915Y037630D01*
X034940Y037639D01*
X034965Y037650D01*
X034988Y037664D01*
X035010Y037680D01*
X035030Y037699D01*
X035048Y037719D01*
X035064Y037740D01*
X035078Y037764D01*
X035090Y037788D01*
X035099Y037814D01*
X035105Y037840D01*
X035109Y037867D01*
X035111Y037894D01*
X035109Y037921D01*
X035105Y037948D01*
X035099Y037974D01*
X035090Y037999D01*
X035078Y038024D01*
X035064Y038047D01*
X035048Y038069D01*
X035047Y038070D01*
X035065Y038109D01*
X035540D01*
Y037992D01*
X035835D01*
X036129D01*
Y038109D01*
X037899D01*
X037909Y038070D01*
D02*
G37*
%LPC*%
G36*
X034744Y025492D02*
X034652D01*
X034661Y025476D01*
X034674Y025457D01*
X034691Y025439D01*
X034709Y025423D01*
X034728Y025409D01*
X034744Y025400D01*
Y025492D01*
D02*
G37*
G36*
X035033D02*
X034941D01*
Y025400D01*
X034957Y025409D01*
X034977Y025423D01*
X034994Y025439D01*
X035011Y025457D01*
X035024Y025476D01*
X035033Y025492D01*
D02*
G37*
G36*
X032277Y025492D02*
X032185D01*
Y025400D01*
X032201Y025409D01*
X032221Y025423D01*
X032239Y025439D01*
X032255Y025457D01*
X032269Y025476D01*
X032277Y025492D01*
D02*
G37*
G36*
X023720Y025492D02*
X023628D01*
X023637Y025476D01*
X023651Y025457D01*
X023667Y025439D01*
X023685Y025423D01*
X023705Y025409D01*
X023720Y025400D01*
Y025492D01*
D02*
G37*
G36*
X024010D02*
X023917D01*
Y025400D01*
X023933Y025409D01*
X023953Y025423D01*
X023971Y025439D01*
X023987Y025457D01*
X024001Y025476D01*
X024010Y025492D01*
D02*
G37*
G36*
X029429Y025781D02*
Y025689D01*
X029521D01*
X029513Y025705D01*
X029499Y025725D01*
X029483Y025743D01*
X029465Y025759D01*
X029445Y025773D01*
X029429Y025781D01*
D02*
G37*
G36*
X031988D02*
X031972Y025773D01*
X031953Y025759D01*
X031935Y025743D01*
X031919Y025725D01*
X031905Y025705D01*
X031896Y025689D01*
X031988D01*
Y025781D01*
D02*
G37*
G36*
X029232D02*
X029216Y025773D01*
X029197Y025759D01*
X029179Y025743D01*
X029163Y025725D01*
X029149Y025705D01*
X029140Y025689D01*
X029232D01*
Y025781D01*
D02*
G37*
G36*
X026476D02*
X026460Y025773D01*
X026441Y025759D01*
X026423Y025743D01*
X026407Y025725D01*
X026393Y025705D01*
X026384Y025689D01*
X026476D01*
Y025781D01*
D02*
G37*
G36*
X026673D02*
Y025689D01*
X026766D01*
X026757Y025705D01*
X026743Y025725D01*
X026727Y025743D01*
X026709Y025759D01*
X026689Y025773D01*
X026673Y025781D01*
D02*
G37*
G36*
X031988Y025492D02*
X031896D01*
X031905Y025476D01*
X031919Y025457D01*
X031935Y025439D01*
X031953Y025423D01*
X031972Y025409D01*
X031988Y025400D01*
Y025492D01*
D02*
G37*
G36*
X034941Y023025D02*
Y022933D01*
X035033D01*
X035024Y022949D01*
X035011Y022969D01*
X034994Y022987D01*
X034977Y023003D01*
X034957Y023017D01*
X034941Y023025D01*
D02*
G37*
G36*
X026766Y025492D02*
X026673D01*
Y025400D01*
X026689Y025409D01*
X026709Y025423D01*
X026727Y025439D01*
X026743Y025457D01*
X026757Y025476D01*
X026766Y025492D01*
D02*
G37*
G36*
X029232D02*
X029140D01*
X029149Y025476D01*
X029163Y025457D01*
X029179Y025439D01*
X029197Y025423D01*
X029216Y025409D01*
X029232Y025400D01*
Y025492D01*
D02*
G37*
G36*
X029521D02*
X029429D01*
Y025400D01*
X029445Y025409D01*
X029465Y025423D01*
X029483Y025439D01*
X029499Y025457D01*
X029513Y025476D01*
X029521Y025492D01*
D02*
G37*
G36*
X026476D02*
X026384D01*
X026393Y025476D01*
X026407Y025457D01*
X026423Y025439D01*
X026441Y025423D01*
X026460Y025409D01*
X026476Y025400D01*
Y025492D01*
D02*
G37*
G36*
X032185Y025781D02*
Y025689D01*
X032277D01*
X032269Y025705D01*
X032255Y025725D01*
X032239Y025743D01*
X032221Y025759D01*
X032201Y025773D01*
X032185Y025781D01*
D02*
G37*
G36*
X032277Y028248D02*
X032185D01*
Y028156D01*
X032201Y028164D01*
X032221Y028178D01*
X032239Y028194D01*
X032255Y028212D01*
X032269Y028232D01*
X032277Y028248D01*
D02*
G37*
G36*
X034744D02*
X034652D01*
X034661Y028232D01*
X034674Y028212D01*
X034691Y028194D01*
X034709Y028178D01*
X034728Y028164D01*
X034744Y028156D01*
Y028248D01*
D02*
G37*
G36*
X035033D02*
X034941D01*
Y028156D01*
X034957Y028164D01*
X034977Y028178D01*
X034994Y028194D01*
X035011Y028212D01*
X035024Y028232D01*
X035033Y028248D01*
D02*
G37*
G36*
X029232D02*
X029140D01*
X029149Y028232D01*
X029163Y028212D01*
X029179Y028194D01*
X029197Y028178D01*
X029216Y028164D01*
X029232Y028156D01*
Y028248D01*
D02*
G37*
G36*
X029521D02*
X029429D01*
Y028156D01*
X029445Y028164D01*
X029465Y028178D01*
X029483Y028194D01*
X029499Y028212D01*
X029513Y028232D01*
X029521Y028248D01*
D02*
G37*
G36*
X031988D02*
X031896D01*
X031905Y028232D01*
X031919Y028212D01*
X031935Y028194D01*
X031953Y028178D01*
X031972Y028164D01*
X031988Y028156D01*
Y028248D01*
D02*
G37*
G36*
X026673Y028537D02*
Y028445D01*
X026766D01*
X026757Y028461D01*
X026743Y028480D01*
X026727Y028498D01*
X026709Y028514D01*
X026689Y028528D01*
X026673Y028537D01*
D02*
G37*
G36*
X029232D02*
X029216Y028528D01*
X029197Y028514D01*
X029179Y028498D01*
X029163Y028480D01*
X029149Y028461D01*
X029140Y028445D01*
X029232D01*
Y028537D01*
D02*
G37*
G36*
X029429D02*
Y028445D01*
X029521D01*
X029513Y028461D01*
X029499Y028480D01*
X029483Y028498D01*
X029465Y028514D01*
X029445Y028528D01*
X029429Y028537D01*
D02*
G37*
G36*
X023720D02*
X023705Y028528D01*
X023685Y028514D01*
X023667Y028498D01*
X023651Y028480D01*
X023637Y028461D01*
X023628Y028445D01*
X023720D01*
Y028537D01*
D02*
G37*
G36*
X023917D02*
Y028445D01*
X024010D01*
X024001Y028461D01*
X023987Y028480D01*
X023971Y028498D01*
X023953Y028514D01*
X023933Y028528D01*
X023917Y028537D01*
D02*
G37*
G36*
X026476D02*
X026460Y028528D01*
X026441Y028514D01*
X026423Y028498D01*
X026407Y028480D01*
X026393Y028461D01*
X026384Y028445D01*
X026476D01*
Y028537D01*
D02*
G37*
G36*
X034941Y025781D02*
Y025689D01*
X035033D01*
X035024Y025705D01*
X035011Y025725D01*
X034994Y025743D01*
X034977Y025759D01*
X034957Y025773D01*
X034941Y025781D01*
D02*
G37*
G36*
X023720D02*
X023705Y025773D01*
X023685Y025759D01*
X023667Y025743D01*
X023651Y025725D01*
X023637Y025705D01*
X023628Y025689D01*
X023720D01*
Y025781D01*
D02*
G37*
G36*
X023917D02*
Y025689D01*
X024010D01*
X024001Y025705D01*
X023987Y025725D01*
X023971Y025743D01*
X023953Y025759D01*
X023933Y025773D01*
X023917Y025781D01*
D02*
G37*
G36*
X034744D02*
X034728Y025773D01*
X034709Y025759D01*
X034691Y025743D01*
X034674Y025725D01*
X034661Y025705D01*
X034652Y025689D01*
X034744D01*
Y025781D01*
D02*
G37*
G36*
X024010Y028248D02*
X023917D01*
Y028156D01*
X023933Y028164D01*
X023953Y028178D01*
X023971Y028194D01*
X023987Y028212D01*
X024001Y028232D01*
X024010Y028248D01*
D02*
G37*
G36*
X026476D02*
X026384D01*
X026393Y028232D01*
X026407Y028212D01*
X026423Y028194D01*
X026441Y028178D01*
X026460Y028164D01*
X026476Y028156D01*
Y028248D01*
D02*
G37*
G36*
X026766D02*
X026673D01*
Y028156D01*
X026689Y028164D01*
X026709Y028178D01*
X026727Y028194D01*
X026743Y028212D01*
X026757Y028232D01*
X026766Y028248D01*
D02*
G37*
G36*
X023720D02*
X023628D01*
X023637Y028232D01*
X023651Y028212D01*
X023667Y028194D01*
X023685Y028178D01*
X023705Y028164D01*
X023720Y028156D01*
Y028248D01*
D02*
G37*
G36*
Y023025D02*
X023705Y023017D01*
X023685Y023003D01*
X023667Y022987D01*
X023651Y022969D01*
X023637Y022949D01*
X023628Y022933D01*
X023720D01*
Y023025D01*
D02*
G37*
G36*
X023917D02*
Y022933D01*
X024010D01*
X024001Y022949D01*
X023987Y022969D01*
X023971Y022987D01*
X023953Y023003D01*
X023933Y023017D01*
X023917Y023025D01*
D02*
G37*
G36*
X026476D02*
X026460Y023017D01*
X026441Y023003D01*
X026423Y022987D01*
X026407Y022969D01*
X026393Y022949D01*
X026384Y022933D01*
X026476D01*
Y023025D01*
D02*
G37*
G36*
X032277Y022736D02*
X032185D01*
Y022644D01*
X032201Y022653D01*
X032221Y022667D01*
X032239Y022683D01*
X032255Y022701D01*
X032269Y022720D01*
X032277Y022736D01*
D02*
G37*
G36*
X034744D02*
X034652D01*
X034661Y022720D01*
X034674Y022701D01*
X034691Y022683D01*
X034709Y022667D01*
X034728Y022653D01*
X034744Y022644D01*
Y022736D01*
D02*
G37*
G36*
X035033D02*
X034941D01*
Y022644D01*
X034957Y022653D01*
X034977Y022667D01*
X034994Y022683D01*
X035011Y022701D01*
X035024Y022720D01*
X035033Y022736D01*
D02*
G37*
G36*
X031988Y023025D02*
X031972Y023017D01*
X031953Y023003D01*
X031935Y022987D01*
X031919Y022969D01*
X031905Y022949D01*
X031896Y022933D01*
X031988D01*
Y023025D01*
D02*
G37*
G36*
X032185D02*
Y022933D01*
X032277D01*
X032269Y022949D01*
X032255Y022969D01*
X032239Y022987D01*
X032221Y023003D01*
X032201Y023017D01*
X032185Y023025D01*
D02*
G37*
G36*
X034744D02*
X034728Y023017D01*
X034709Y023003D01*
X034691Y022987D01*
X034674Y022969D01*
X034661Y022949D01*
X034652Y022933D01*
X034744D01*
Y023025D01*
D02*
G37*
G36*
X026673D02*
Y022933D01*
X026766D01*
X026757Y022949D01*
X026743Y022969D01*
X026727Y022987D01*
X026709Y023003D01*
X026689Y023017D01*
X026673Y023025D01*
D02*
G37*
G36*
X029232D02*
X029216Y023017D01*
X029197Y023003D01*
X029179Y022987D01*
X029163Y022969D01*
X029149Y022949D01*
X029140Y022933D01*
X029232D01*
Y023025D01*
D02*
G37*
G36*
X029429D02*
Y022933D01*
X029521D01*
X029513Y022949D01*
X029499Y022969D01*
X029483Y022987D01*
X029465Y023003D01*
X029445Y023017D01*
X029429Y023025D01*
D02*
G37*
G36*
X023720Y022736D02*
X023628D01*
X023637Y022720D01*
X023651Y022701D01*
X023667Y022683D01*
X023685Y022667D01*
X023705Y022653D01*
X023720Y022644D01*
Y022736D01*
D02*
G37*
G36*
X029232D02*
X029140D01*
X029149Y022720D01*
X029163Y022701D01*
X029179Y022683D01*
X029197Y022667D01*
X029216Y022653D01*
X029232Y022644D01*
Y022736D01*
D02*
G37*
G36*
X029521D02*
X029429D01*
Y022644D01*
X029445Y022653D01*
X029465Y022667D01*
X029483Y022683D01*
X029499Y022701D01*
X029513Y022720D01*
X029521Y022736D01*
D02*
G37*
G36*
X031988D02*
X031896D01*
X031905Y022720D01*
X031919Y022701D01*
X031935Y022683D01*
X031953Y022667D01*
X031972Y022653D01*
X031988Y022644D01*
Y022736D01*
D02*
G37*
G36*
X024010D02*
X023917D01*
Y022644D01*
X023933Y022653D01*
X023953Y022667D01*
X023971Y022683D01*
X023987Y022701D01*
X024001Y022720D01*
X024010Y022736D01*
D02*
G37*
G36*
X026476D02*
X026384D01*
X026393Y022720D01*
X026407Y022701D01*
X026423Y022683D01*
X026441Y022667D01*
X026460Y022653D01*
X026476Y022644D01*
Y022736D01*
D02*
G37*
G36*
X026766D02*
X026673D01*
Y022644D01*
X026689Y022653D01*
X026709Y022667D01*
X026727Y022683D01*
X026743Y022701D01*
X026757Y022720D01*
X026766Y022736D01*
D02*
G37*
G36*
X034941Y034049D02*
Y033957D01*
X035033D01*
X035024Y033973D01*
X035011Y033992D01*
X034994Y034010D01*
X034977Y034026D01*
X034957Y034040D01*
X034941Y034049D01*
D02*
G37*
G36*
X031988D02*
X031972Y034040D01*
X031953Y034026D01*
X031935Y034010D01*
X031919Y033992D01*
X031905Y033973D01*
X031896Y033957D01*
X031988D01*
Y034049D01*
D02*
G37*
G36*
X032185D02*
Y033957D01*
X032277D01*
X032269Y033973D01*
X032255Y033992D01*
X032239Y034010D01*
X032221Y034026D01*
X032201Y034040D01*
X032185Y034049D01*
D02*
G37*
G36*
X034744D02*
X034728Y034040D01*
X034709Y034026D01*
X034691Y034010D01*
X034674Y033992D01*
X034661Y033973D01*
X034652Y033957D01*
X034744D01*
Y034049D01*
D02*
G37*
G36*
X029429D02*
Y033957D01*
X029521D01*
X029513Y033973D01*
X029499Y033992D01*
X029483Y034010D01*
X029465Y034026D01*
X029445Y034040D01*
X029429Y034049D01*
D02*
G37*
G36*
X034744Y033760D02*
X034652D01*
X034661Y033744D01*
X034674Y033724D01*
X034691Y033706D01*
X034709Y033690D01*
X034728Y033676D01*
X034744Y033668D01*
Y033760D01*
D02*
G37*
G36*
X035033D02*
X034941D01*
Y033668D01*
X034957Y033676D01*
X034977Y033690D01*
X034994Y033706D01*
X035011Y033724D01*
X035024Y033744D01*
X035033Y033760D01*
D02*
G37*
G36*
X029521D02*
X029429D01*
Y033668D01*
X029445Y033676D01*
X029465Y033690D01*
X029483Y033706D01*
X029499Y033724D01*
X029513Y033744D01*
X029521Y033760D01*
D02*
G37*
G36*
X031988D02*
X031896D01*
X031905Y033744D01*
X031919Y033724D01*
X031935Y033706D01*
X031953Y033690D01*
X031972Y033676D01*
X031988Y033668D01*
Y033760D01*
D02*
G37*
G36*
X032277D02*
X032185D01*
Y033668D01*
X032201Y033676D01*
X032221Y033690D01*
X032239Y033706D01*
X032255Y033724D01*
X032269Y033744D01*
X032277Y033760D01*
D02*
G37*
G36*
X026476Y034049D02*
X026460Y034040D01*
X026441Y034026D01*
X026423Y034010D01*
X026407Y033992D01*
X026393Y033973D01*
X026384Y033957D01*
X026476D01*
Y034049D01*
D02*
G37*
G36*
X026673D02*
Y033957D01*
X026766D01*
X026757Y033973D01*
X026743Y033992D01*
X026727Y034010D01*
X026709Y034026D01*
X026689Y034040D01*
X026673Y034049D01*
D02*
G37*
G36*
X029232D02*
X029216Y034040D01*
X029197Y034026D01*
X029179Y034010D01*
X029163Y033992D01*
X029149Y033973D01*
X029140Y033957D01*
X029232D01*
Y034049D01*
D02*
G37*
G36*
X023720D02*
X023705Y034040D01*
X023685Y034026D01*
X023667Y034010D01*
X023651Y033992D01*
X023637Y033973D01*
X023628Y033957D01*
X023720D01*
Y034049D01*
D02*
G37*
G36*
X023917D02*
Y033957D01*
X024010D01*
X024001Y033973D01*
X023987Y033992D01*
X023971Y034010D01*
X023953Y034026D01*
X023933Y034040D01*
X023917Y034049D01*
D02*
G37*
G36*
X029232Y031004D02*
X029140D01*
X029149Y030988D01*
X029163Y030968D01*
X029179Y030950D01*
X029197Y030934D01*
X029216Y030920D01*
X029232Y030912D01*
Y031004D01*
D02*
G37*
G36*
X029521D02*
X029429D01*
Y030912D01*
X029445Y030920D01*
X029465Y030934D01*
X029483Y030950D01*
X029499Y030968D01*
X029513Y030988D01*
X029521Y031004D01*
D02*
G37*
G36*
X031988D02*
X031896D01*
X031905Y030988D01*
X031919Y030968D01*
X031935Y030950D01*
X031953Y030934D01*
X031972Y030920D01*
X031988Y030912D01*
Y031004D01*
D02*
G37*
G36*
X024010D02*
X023917D01*
Y030912D01*
X023933Y030920D01*
X023953Y030934D01*
X023971Y030950D01*
X023987Y030968D01*
X024001Y030988D01*
X024010Y031004D01*
D02*
G37*
G36*
X026476D02*
X026384D01*
X026393Y030988D01*
X026407Y030968D01*
X026423Y030950D01*
X026441Y030934D01*
X026460Y030920D01*
X026476Y030912D01*
Y031004D01*
D02*
G37*
G36*
X026766D02*
X026673D01*
Y030912D01*
X026689Y030920D01*
X026709Y030934D01*
X026727Y030950D01*
X026743Y030968D01*
X026757Y030988D01*
X026766Y031004D01*
D02*
G37*
G36*
X032277D02*
X032185D01*
Y030912D01*
X032201Y030920D01*
X032221Y030934D01*
X032239Y030950D01*
X032255Y030968D01*
X032269Y030988D01*
X032277Y031004D01*
D02*
G37*
G36*
X034744D02*
X034652D01*
X034661Y030988D01*
X034674Y030968D01*
X034691Y030950D01*
X034709Y030934D01*
X034728Y030920D01*
X034744Y030912D01*
Y031004D01*
D02*
G37*
G36*
X035033D02*
X034941D01*
Y030912D01*
X034957Y030920D01*
X034977Y030934D01*
X034994Y030950D01*
X035011Y030968D01*
X035024Y030988D01*
X035033Y031004D01*
D02*
G37*
G36*
X023720D02*
X023628D01*
X023637Y030988D01*
X023651Y030968D01*
X023667Y030950D01*
X023685Y030934D01*
X023705Y030920D01*
X023720Y030912D01*
Y031004D01*
D02*
G37*
G36*
X034941Y028537D02*
Y028445D01*
X035033D01*
X035024Y028461D01*
X035011Y028480D01*
X034994Y028498D01*
X034977Y028514D01*
X034957Y028528D01*
X034941Y028537D01*
D02*
G37*
G36*
X031988D02*
X031972Y028528D01*
X031953Y028514D01*
X031935Y028498D01*
X031919Y028480D01*
X031905Y028461D01*
X031896Y028445D01*
X031988D01*
Y028537D01*
D02*
G37*
G36*
X032185D02*
Y028445D01*
X032277D01*
X032269Y028461D01*
X032255Y028480D01*
X032239Y028498D01*
X032221Y028514D01*
X032201Y028528D01*
X032185Y028537D01*
D02*
G37*
G36*
X034744D02*
X034728Y028528D01*
X034709Y028514D01*
X034691Y028498D01*
X034674Y028480D01*
X034661Y028461D01*
X034652Y028445D01*
X034744D01*
Y028537D01*
D02*
G37*
G36*
X026476Y033760D02*
X026384D01*
X026393Y033744D01*
X026407Y033724D01*
X026423Y033706D01*
X026441Y033690D01*
X026460Y033676D01*
X026476Y033668D01*
Y033760D01*
D02*
G37*
G36*
X026766D02*
X026673D01*
Y033668D01*
X026689Y033676D01*
X026709Y033690D01*
X026727Y033706D01*
X026743Y033724D01*
X026757Y033744D01*
X026766Y033760D01*
D02*
G37*
G36*
X029232D02*
X029140D01*
X029149Y033744D01*
X029163Y033724D01*
X029179Y033706D01*
X029197Y033690D01*
X029216Y033676D01*
X029232Y033668D01*
Y033760D01*
D02*
G37*
G36*
X023720D02*
X023628D01*
X023637Y033744D01*
X023651Y033724D01*
X023667Y033706D01*
X023685Y033690D01*
X023705Y033676D01*
X023720Y033668D01*
Y033760D01*
D02*
G37*
G36*
X024010D02*
X023917D01*
Y033668D01*
X023933Y033676D01*
X023953Y033690D01*
X023971Y033706D01*
X023987Y033724D01*
X024001Y033744D01*
X024010Y033760D01*
D02*
G37*
G36*
X026673Y031293D02*
Y031201D01*
X026766D01*
X026757Y031217D01*
X026743Y031236D01*
X026727Y031254D01*
X026709Y031270D01*
X026689Y031284D01*
X026673Y031293D01*
D02*
G37*
G36*
X029232D02*
X029216Y031284D01*
X029197Y031270D01*
X029179Y031254D01*
X029163Y031236D01*
X029149Y031217D01*
X029140Y031201D01*
X029232D01*
Y031293D01*
D02*
G37*
G36*
X029429D02*
Y031201D01*
X029521D01*
X029513Y031217D01*
X029499Y031236D01*
X029483Y031254D01*
X029465Y031270D01*
X029445Y031284D01*
X029429Y031293D01*
D02*
G37*
G36*
X023720D02*
X023705Y031284D01*
X023685Y031270D01*
X023667Y031254D01*
X023651Y031236D01*
X023637Y031217D01*
X023628Y031201D01*
X023720D01*
Y031293D01*
D02*
G37*
G36*
X023917D02*
Y031201D01*
X024010D01*
X024001Y031217D01*
X023987Y031236D01*
X023971Y031254D01*
X023953Y031270D01*
X023933Y031284D01*
X023917Y031293D01*
D02*
G37*
G36*
X026476D02*
X026460Y031284D01*
X026441Y031270D01*
X026423Y031254D01*
X026407Y031236D01*
X026393Y031217D01*
X026384Y031201D01*
X026476D01*
Y031293D01*
D02*
G37*
G36*
X034941D02*
Y031201D01*
X035033D01*
X035024Y031217D01*
X035011Y031236D01*
X034994Y031254D01*
X034977Y031270D01*
X034957Y031284D01*
X034941Y031293D01*
D02*
G37*
G36*
X031988D02*
X031972Y031284D01*
X031953Y031270D01*
X031935Y031254D01*
X031919Y031236D01*
X031905Y031217D01*
X031896Y031201D01*
X031988D01*
Y031293D01*
D02*
G37*
G36*
X032185D02*
Y031201D01*
X032277D01*
X032269Y031217D01*
X032255Y031236D01*
X032239Y031254D01*
X032221Y031270D01*
X032201Y031284D01*
X032185Y031293D01*
D02*
G37*
G36*
X034744D02*
X034728Y031284D01*
X034709Y031270D01*
X034691Y031254D01*
X034674Y031236D01*
X034661Y031217D01*
X034652Y031201D01*
X034744D01*
Y031293D01*
D02*
G37*
G36*
X031835Y020075D02*
X031808Y020074D01*
X031781Y020070D01*
X031755Y020063D01*
X031729Y020054D01*
X031705Y020043D01*
X031681Y020029D01*
X031660Y020012D01*
X031640Y019994D01*
X031621Y019974D01*
X031605Y019952D01*
X031591Y019929D01*
X031580Y019905D01*
X031571Y019879D01*
X031564Y019853D01*
X031560Y019826D01*
X031559Y019799D01*
X031560Y019772D01*
X031564Y019745D01*
X031571Y019719D01*
X031580Y019694D01*
X031591Y019669D01*
X031605Y019646D01*
X031621Y019624D01*
X031640Y019604D01*
X031660Y019586D01*
X031681Y019570D01*
X031705Y019556D01*
X031729Y019544D01*
X031755Y019535D01*
X031781Y019529D01*
X031808Y019525D01*
X031835Y019523D01*
X031862Y019525D01*
X031888Y019529D01*
X031915Y019535D01*
X031940Y019544D01*
X031965Y019556D01*
X031988Y019570D01*
X032010Y019586D01*
X032030Y019604D01*
X032048Y019624D01*
X032064Y019646D01*
X032078Y019669D01*
X032090Y019694D01*
X032099Y019719D01*
X032105Y019745D01*
X032109Y019772D01*
X032111Y019799D01*
X032109Y019826D01*
X032105Y019853D01*
X032099Y019879D01*
X032090Y019905D01*
X032078Y019929D01*
X032064Y019952D01*
X032048Y019974D01*
X032030Y019994D01*
X032010Y020012D01*
X031988Y020029D01*
X031965Y020043D01*
X031940Y020054D01*
X031915Y020063D01*
X031888Y020070D01*
X031862Y020074D01*
X031835Y020075D01*
D02*
G37*
G36*
X032835D02*
X032808Y020074D01*
X032781Y020070D01*
X032755Y020063D01*
X032729Y020054D01*
X032705Y020043D01*
X032681Y020029D01*
X032660Y020012D01*
X032640Y019994D01*
X032621Y019974D01*
X032605Y019952D01*
X032591Y019929D01*
X032580Y019905D01*
X032571Y019879D01*
X032564Y019853D01*
X032560Y019826D01*
X032559Y019799D01*
X032560Y019772D01*
X032564Y019745D01*
X032571Y019719D01*
X032580Y019694D01*
X032591Y019669D01*
X032605Y019646D01*
X032621Y019624D01*
X032640Y019604D01*
X032660Y019586D01*
X032681Y019570D01*
X032705Y019556D01*
X032729Y019544D01*
X032755Y019535D01*
X032781Y019529D01*
X032808Y019525D01*
X032835Y019523D01*
X032862Y019525D01*
X032888Y019529D01*
X032915Y019535D01*
X032940Y019544D01*
X032965Y019556D01*
X032988Y019570D01*
X033010Y019586D01*
X033030Y019604D01*
X033048Y019624D01*
X033064Y019646D01*
X033078Y019669D01*
X033090Y019694D01*
X033099Y019719D01*
X033105Y019745D01*
X033109Y019772D01*
X033111Y019799D01*
X033109Y019826D01*
X033105Y019853D01*
X033099Y019879D01*
X033090Y019905D01*
X033078Y019929D01*
X033064Y019952D01*
X033048Y019974D01*
X033030Y019994D01*
X033010Y020012D01*
X032988Y020029D01*
X032965Y020043D01*
X032940Y020054D01*
X032915Y020063D01*
X032888Y020070D01*
X032862Y020074D01*
X032835Y020075D01*
D02*
G37*
G36*
X033835D02*
X033808Y020074D01*
X033781Y020070D01*
X033755Y020063D01*
X033729Y020054D01*
X033705Y020043D01*
X033681Y020029D01*
X033660Y020012D01*
X033640Y019994D01*
X033621Y019974D01*
X033605Y019952D01*
X033591Y019929D01*
X033580Y019905D01*
X033571Y019879D01*
X033564Y019853D01*
X033560Y019826D01*
X033559Y019799D01*
X033560Y019772D01*
X033564Y019745D01*
X033571Y019719D01*
X033580Y019694D01*
X033591Y019669D01*
X033605Y019646D01*
X033621Y019624D01*
X033640Y019604D01*
X033660Y019586D01*
X033681Y019570D01*
X033705Y019556D01*
X033729Y019544D01*
X033755Y019535D01*
X033781Y019529D01*
X033808Y019525D01*
X033835Y019523D01*
X033862Y019525D01*
X033888Y019529D01*
X033915Y019535D01*
X033940Y019544D01*
X033965Y019556D01*
X033988Y019570D01*
X034010Y019586D01*
X034030Y019604D01*
X034048Y019624D01*
X034064Y019646D01*
X034078Y019669D01*
X034090Y019694D01*
X034099Y019719D01*
X034105Y019745D01*
X034109Y019772D01*
X034111Y019799D01*
X034109Y019826D01*
X034105Y019853D01*
X034099Y019879D01*
X034090Y019905D01*
X034078Y019929D01*
X034064Y019952D01*
X034048Y019974D01*
X034030Y019994D01*
X034010Y020012D01*
X033988Y020029D01*
X033965Y020043D01*
X033940Y020054D01*
X033915Y020063D01*
X033888Y020070D01*
X033862Y020074D01*
X033835Y020075D01*
D02*
G37*
G36*
X028835D02*
X028808Y020074D01*
X028781Y020070D01*
X028755Y020063D01*
X028729Y020054D01*
X028705Y020043D01*
X028681Y020029D01*
X028660Y020012D01*
X028640Y019994D01*
X028621Y019974D01*
X028605Y019952D01*
X028591Y019929D01*
X028580Y019905D01*
X028571Y019879D01*
X028564Y019853D01*
X028560Y019826D01*
X028559Y019799D01*
X028560Y019772D01*
X028564Y019745D01*
X028571Y019719D01*
X028580Y019694D01*
X028591Y019669D01*
X028605Y019646D01*
X028621Y019624D01*
X028640Y019604D01*
X028660Y019586D01*
X028681Y019570D01*
X028705Y019556D01*
X028729Y019544D01*
X028755Y019535D01*
X028781Y019529D01*
X028808Y019525D01*
X028835Y019523D01*
X028862Y019525D01*
X028888Y019529D01*
X028915Y019535D01*
X028940Y019544D01*
X028965Y019556D01*
X028988Y019570D01*
X029010Y019586D01*
X029030Y019604D01*
X029048Y019624D01*
X029064Y019646D01*
X029078Y019669D01*
X029090Y019694D01*
X029099Y019719D01*
X029105Y019745D01*
X029109Y019772D01*
X029111Y019799D01*
X029109Y019826D01*
X029105Y019853D01*
X029099Y019879D01*
X029090Y019905D01*
X029078Y019929D01*
X029064Y019952D01*
X029048Y019974D01*
X029030Y019994D01*
X029010Y020012D01*
X028988Y020029D01*
X028965Y020043D01*
X028940Y020054D01*
X028915Y020063D01*
X028888Y020070D01*
X028862Y020074D01*
X028835Y020075D01*
D02*
G37*
G36*
X029835D02*
X029808Y020074D01*
X029781Y020070D01*
X029755Y020063D01*
X029729Y020054D01*
X029705Y020043D01*
X029681Y020029D01*
X029660Y020012D01*
X029640Y019994D01*
X029621Y019974D01*
X029605Y019952D01*
X029591Y019929D01*
X029580Y019905D01*
X029571Y019879D01*
X029564Y019853D01*
X029560Y019826D01*
X029559Y019799D01*
X029560Y019772D01*
X029564Y019745D01*
X029571Y019719D01*
X029580Y019694D01*
X029591Y019669D01*
X029605Y019646D01*
X029621Y019624D01*
X029640Y019604D01*
X029660Y019586D01*
X029681Y019570D01*
X029705Y019556D01*
X029729Y019544D01*
X029755Y019535D01*
X029781Y019529D01*
X029808Y019525D01*
X029835Y019523D01*
X029862Y019525D01*
X029888Y019529D01*
X029915Y019535D01*
X029940Y019544D01*
X029965Y019556D01*
X029988Y019570D01*
X030010Y019586D01*
X030030Y019604D01*
X030048Y019624D01*
X030064Y019646D01*
X030078Y019669D01*
X030090Y019694D01*
X030099Y019719D01*
X030105Y019745D01*
X030109Y019772D01*
X030111Y019799D01*
X030109Y019826D01*
X030105Y019853D01*
X030099Y019879D01*
X030090Y019905D01*
X030078Y019929D01*
X030064Y019952D01*
X030048Y019974D01*
X030030Y019994D01*
X030010Y020012D01*
X029988Y020029D01*
X029965Y020043D01*
X029940Y020054D01*
X029915Y020063D01*
X029888Y020070D01*
X029862Y020074D01*
X029835Y020075D01*
D02*
G37*
G36*
X030835D02*
X030808Y020074D01*
X030781Y020070D01*
X030755Y020063D01*
X030729Y020054D01*
X030705Y020043D01*
X030681Y020029D01*
X030660Y020012D01*
X030640Y019994D01*
X030621Y019974D01*
X030605Y019952D01*
X030591Y019929D01*
X030580Y019905D01*
X030571Y019879D01*
X030564Y019853D01*
X030560Y019826D01*
X030559Y019799D01*
X030560Y019772D01*
X030564Y019745D01*
X030571Y019719D01*
X030580Y019694D01*
X030591Y019669D01*
X030605Y019646D01*
X030621Y019624D01*
X030640Y019604D01*
X030660Y019586D01*
X030681Y019570D01*
X030705Y019556D01*
X030729Y019544D01*
X030755Y019535D01*
X030781Y019529D01*
X030808Y019525D01*
X030835Y019523D01*
X030862Y019525D01*
X030888Y019529D01*
X030915Y019535D01*
X030940Y019544D01*
X030965Y019556D01*
X030988Y019570D01*
X031010Y019586D01*
X031030Y019604D01*
X031048Y019624D01*
X031064Y019646D01*
X031078Y019669D01*
X031090Y019694D01*
X031099Y019719D01*
X031105Y019745D01*
X031109Y019772D01*
X031111Y019799D01*
X031109Y019826D01*
X031105Y019853D01*
X031099Y019879D01*
X031090Y019905D01*
X031078Y019929D01*
X031064Y019952D01*
X031048Y019974D01*
X031030Y019994D01*
X031010Y020012D01*
X030988Y020029D01*
X030965Y020043D01*
X030940Y020054D01*
X030915Y020063D01*
X030888Y020070D01*
X030862Y020074D01*
X030835Y020075D01*
D02*
G37*
G36*
X034736Y020077D02*
X034722Y020071D01*
X034696Y020059D01*
X034671Y020044D01*
X034648Y020027D01*
X034626Y020008D01*
X034607Y019986D01*
X034590Y019963D01*
X034575Y019938D01*
X034562Y019912D01*
X034557Y019898D01*
X034736D01*
Y020077D01*
D02*
G37*
G36*
X034933Y020077D02*
Y019898D01*
X035112D01*
X035107Y019912D01*
X035094Y019938D01*
X035080Y019963D01*
X035062Y019986D01*
X035043Y020008D01*
X035022Y020027D01*
X034998Y020044D01*
X034974Y020059D01*
X034947Y020071D01*
X034933Y020077D01*
D02*
G37*
G36*
X034736Y019701D02*
X034557D01*
X034562Y019686D01*
X034575Y019660D01*
X034590Y019636D01*
X034607Y019612D01*
X034626Y019591D01*
X034648Y019571D01*
X034671Y019554D01*
X034696Y019539D01*
X034722Y019527D01*
X034736Y019522D01*
Y019701D01*
D02*
G37*
G36*
X035112D02*
X034933D01*
Y019522D01*
X034947Y019527D01*
X034974Y019539D01*
X034998Y019554D01*
X035022Y019571D01*
X035043Y019591D01*
X035062Y019612D01*
X035080Y019636D01*
X035094Y019660D01*
X035107Y019686D01*
X035112Y019701D01*
D02*
G37*
G36*
X020965Y020079D02*
X019587D01*
Y018701D01*
X020965D01*
Y020079D01*
D02*
G37*
G36*
X034736Y019077D02*
X034722Y019071D01*
X034696Y019059D01*
X034671Y019044D01*
X034648Y019027D01*
X034626Y019008D01*
X034607Y018986D01*
X034590Y018963D01*
X034575Y018938D01*
X034562Y018912D01*
X034557Y018898D01*
X034736D01*
Y019077D01*
D02*
G37*
G36*
X034933Y019077D02*
Y018898D01*
X035112D01*
X035107Y018912D01*
X035094Y018938D01*
X035080Y018963D01*
X035062Y018986D01*
X035043Y019008D01*
X035022Y019027D01*
X034998Y019044D01*
X034974Y019059D01*
X034947Y019071D01*
X034933Y019077D01*
D02*
G37*
G36*
X025835Y020075D02*
X025808Y020074D01*
X025781Y020070D01*
X025755Y020063D01*
X025729Y020054D01*
X025705Y020043D01*
X025681Y020029D01*
X025660Y020012D01*
X025640Y019994D01*
X025621Y019974D01*
X025605Y019952D01*
X025591Y019929D01*
X025580Y019905D01*
X025571Y019879D01*
X025564Y019853D01*
X025560Y019826D01*
X025559Y019799D01*
X025560Y019772D01*
X025564Y019745D01*
X025571Y019719D01*
X025580Y019694D01*
X025591Y019669D01*
X025605Y019646D01*
X025621Y019624D01*
X025640Y019604D01*
X025660Y019586D01*
X025681Y019570D01*
X025705Y019556D01*
X025729Y019544D01*
X025755Y019535D01*
X025781Y019529D01*
X025808Y019525D01*
X025835Y019523D01*
X025862Y019525D01*
X025888Y019529D01*
X025915Y019535D01*
X025940Y019544D01*
X025965Y019556D01*
X025988Y019570D01*
X026010Y019586D01*
X026030Y019604D01*
X026048Y019624D01*
X026064Y019646D01*
X026078Y019669D01*
X026090Y019694D01*
X026099Y019719D01*
X026105Y019745D01*
X026109Y019772D01*
X026111Y019799D01*
X026109Y019826D01*
X026105Y019853D01*
X026099Y019879D01*
X026090Y019905D01*
X026078Y019929D01*
X026064Y019952D01*
X026048Y019974D01*
X026030Y019994D01*
X026010Y020012D01*
X025988Y020029D01*
X025965Y020043D01*
X025940Y020054D01*
X025915Y020063D01*
X025888Y020070D01*
X025862Y020074D01*
X025835Y020075D01*
D02*
G37*
G36*
X026835D02*
X026808Y020074D01*
X026781Y020070D01*
X026755Y020063D01*
X026729Y020054D01*
X026705Y020043D01*
X026681Y020029D01*
X026660Y020012D01*
X026640Y019994D01*
X026621Y019974D01*
X026605Y019952D01*
X026591Y019929D01*
X026580Y019905D01*
X026571Y019879D01*
X026564Y019853D01*
X026560Y019826D01*
X026559Y019799D01*
X026560Y019772D01*
X026564Y019745D01*
X026571Y019719D01*
X026580Y019694D01*
X026591Y019669D01*
X026605Y019646D01*
X026621Y019624D01*
X026640Y019604D01*
X026660Y019586D01*
X026681Y019570D01*
X026705Y019556D01*
X026729Y019544D01*
X026755Y019535D01*
X026781Y019529D01*
X026808Y019525D01*
X026835Y019523D01*
X026862Y019525D01*
X026888Y019529D01*
X026915Y019535D01*
X026940Y019544D01*
X026965Y019556D01*
X026988Y019570D01*
X027010Y019586D01*
X027030Y019604D01*
X027048Y019624D01*
X027064Y019646D01*
X027078Y019669D01*
X027090Y019694D01*
X027099Y019719D01*
X027105Y019745D01*
X027109Y019772D01*
X027111Y019799D01*
X027109Y019826D01*
X027105Y019853D01*
X027099Y019879D01*
X027090Y019905D01*
X027078Y019929D01*
X027064Y019952D01*
X027048Y019974D01*
X027030Y019994D01*
X027010Y020012D01*
X026988Y020029D01*
X026965Y020043D01*
X026940Y020054D01*
X026915Y020063D01*
X026888Y020070D01*
X026862Y020074D01*
X026835Y020075D01*
D02*
G37*
G36*
X027835D02*
X027808Y020074D01*
X027781Y020070D01*
X027755Y020063D01*
X027729Y020054D01*
X027705Y020043D01*
X027681Y020029D01*
X027660Y020012D01*
X027640Y019994D01*
X027621Y019974D01*
X027605Y019952D01*
X027591Y019929D01*
X027580Y019905D01*
X027571Y019879D01*
X027564Y019853D01*
X027560Y019826D01*
X027559Y019799D01*
X027560Y019772D01*
X027564Y019745D01*
X027571Y019719D01*
X027580Y019694D01*
X027591Y019669D01*
X027605Y019646D01*
X027621Y019624D01*
X027640Y019604D01*
X027660Y019586D01*
X027681Y019570D01*
X027705Y019556D01*
X027729Y019544D01*
X027755Y019535D01*
X027781Y019529D01*
X027808Y019525D01*
X027835Y019523D01*
X027862Y019525D01*
X027888Y019529D01*
X027915Y019535D01*
X027940Y019544D01*
X027965Y019556D01*
X027988Y019570D01*
X028010Y019586D01*
X028030Y019604D01*
X028048Y019624D01*
X028064Y019646D01*
X028078Y019669D01*
X028090Y019694D01*
X028099Y019719D01*
X028105Y019745D01*
X028109Y019772D01*
X028111Y019799D01*
X028109Y019826D01*
X028105Y019853D01*
X028099Y019879D01*
X028090Y019905D01*
X028078Y019929D01*
X028064Y019952D01*
X028048Y019974D01*
X028030Y019994D01*
X028010Y020012D01*
X027988Y020029D01*
X027965Y020043D01*
X027940Y020054D01*
X027915Y020063D01*
X027888Y020070D01*
X027862Y020074D01*
X027835Y020075D01*
D02*
G37*
G36*
X022835D02*
X022808Y020074D01*
X022781Y020070D01*
X022755Y020063D01*
X022729Y020054D01*
X022705Y020043D01*
X022681Y020029D01*
X022660Y020012D01*
X022640Y019994D01*
X022621Y019974D01*
X022605Y019952D01*
X022591Y019929D01*
X022580Y019905D01*
X022571Y019879D01*
X022564Y019853D01*
X022560Y019826D01*
X022559Y019799D01*
X022560Y019772D01*
X022564Y019745D01*
X022571Y019719D01*
X022580Y019694D01*
X022591Y019669D01*
X022605Y019646D01*
X022621Y019624D01*
X022640Y019604D01*
X022660Y019586D01*
X022681Y019570D01*
X022705Y019556D01*
X022729Y019544D01*
X022755Y019535D01*
X022781Y019529D01*
X022808Y019525D01*
X022835Y019523D01*
X022862Y019525D01*
X022888Y019529D01*
X022915Y019535D01*
X022940Y019544D01*
X022965Y019556D01*
X022988Y019570D01*
X023010Y019586D01*
X023030Y019604D01*
X023048Y019624D01*
X023064Y019646D01*
X023078Y019669D01*
X023090Y019694D01*
X023099Y019719D01*
X023105Y019745D01*
X023109Y019772D01*
X023111Y019799D01*
X023109Y019826D01*
X023105Y019853D01*
X023099Y019879D01*
X023090Y019905D01*
X023078Y019929D01*
X023064Y019952D01*
X023048Y019974D01*
X023030Y019994D01*
X023010Y020012D01*
X022988Y020029D01*
X022965Y020043D01*
X022940Y020054D01*
X022915Y020063D01*
X022888Y020070D01*
X022862Y020074D01*
X022835Y020075D01*
D02*
G37*
G36*
X023835D02*
X023808Y020074D01*
X023781Y020070D01*
X023755Y020063D01*
X023729Y020054D01*
X023705Y020043D01*
X023681Y020029D01*
X023660Y020012D01*
X023640Y019994D01*
X023621Y019974D01*
X023605Y019952D01*
X023591Y019929D01*
X023580Y019905D01*
X023571Y019879D01*
X023564Y019853D01*
X023560Y019826D01*
X023559Y019799D01*
X023560Y019772D01*
X023564Y019745D01*
X023571Y019719D01*
X023580Y019694D01*
X023591Y019669D01*
X023605Y019646D01*
X023621Y019624D01*
X023640Y019604D01*
X023660Y019586D01*
X023681Y019570D01*
X023705Y019556D01*
X023729Y019544D01*
X023755Y019535D01*
X023781Y019529D01*
X023808Y019525D01*
X023835Y019523D01*
X023862Y019525D01*
X023888Y019529D01*
X023915Y019535D01*
X023940Y019544D01*
X023965Y019556D01*
X023988Y019570D01*
X024010Y019586D01*
X024030Y019604D01*
X024048Y019624D01*
X024064Y019646D01*
X024078Y019669D01*
X024090Y019694D01*
X024099Y019719D01*
X024105Y019745D01*
X024109Y019772D01*
X024111Y019799D01*
X024109Y019826D01*
X024105Y019853D01*
X024099Y019879D01*
X024090Y019905D01*
X024078Y019929D01*
X024064Y019952D01*
X024048Y019974D01*
X024030Y019994D01*
X024010Y020012D01*
X023988Y020029D01*
X023965Y020043D01*
X023940Y020054D01*
X023915Y020063D01*
X023888Y020070D01*
X023862Y020074D01*
X023835Y020075D01*
D02*
G37*
G36*
X024835D02*
X024808Y020074D01*
X024781Y020070D01*
X024755Y020063D01*
X024729Y020054D01*
X024705Y020043D01*
X024681Y020029D01*
X024660Y020012D01*
X024640Y019994D01*
X024621Y019974D01*
X024605Y019952D01*
X024591Y019929D01*
X024580Y019905D01*
X024571Y019879D01*
X024564Y019853D01*
X024560Y019826D01*
X024559Y019799D01*
X024560Y019772D01*
X024564Y019745D01*
X024571Y019719D01*
X024580Y019694D01*
X024591Y019669D01*
X024605Y019646D01*
X024621Y019624D01*
X024640Y019604D01*
X024660Y019586D01*
X024681Y019570D01*
X024705Y019556D01*
X024729Y019544D01*
X024755Y019535D01*
X024781Y019529D01*
X024808Y019525D01*
X024835Y019523D01*
X024862Y019525D01*
X024888Y019529D01*
X024915Y019535D01*
X024940Y019544D01*
X024965Y019556D01*
X024988Y019570D01*
X025010Y019586D01*
X025030Y019604D01*
X025048Y019624D01*
X025064Y019646D01*
X025078Y019669D01*
X025090Y019694D01*
X025099Y019719D01*
X025105Y019745D01*
X025109Y019772D01*
X025111Y019799D01*
X025109Y019826D01*
X025105Y019853D01*
X025099Y019879D01*
X025090Y019905D01*
X025078Y019929D01*
X025064Y019952D01*
X025048Y019974D01*
X025030Y019994D01*
X025010Y020012D01*
X024988Y020029D01*
X024965Y020043D01*
X024940Y020054D01*
X024915Y020063D01*
X024888Y020070D01*
X024862Y020074D01*
X024835Y020075D01*
D02*
G37*
G36*
X037780Y026126D02*
X037752Y026125D01*
X037726Y026121D01*
X037699Y026114D01*
X037674Y026105D01*
X037649Y026094D01*
X037626Y026080D01*
X037605Y026064D01*
X037584Y026045D01*
X037566Y026025D01*
X037550Y026004D01*
X037536Y025980D01*
X037525Y025956D01*
X037516Y025930D01*
X037509Y025904D01*
X037505Y025877D01*
X037504Y025850D01*
X037505Y025823D01*
X037509Y025797D01*
X037516Y025770D01*
X037525Y025745D01*
X037536Y025720D01*
X037550Y025697D01*
X037566Y025675D01*
X037584Y025655D01*
X037605Y025637D01*
X037626Y025621D01*
X037649Y025607D01*
X037674Y025596D01*
X037699Y025586D01*
X037726Y025580D01*
X037752Y025576D01*
X037780Y025575D01*
X037807Y025576D01*
X037833Y025580D01*
X037860Y025586D01*
X037885Y025596D01*
X037910Y025607D01*
X037933Y025621D01*
X037955Y025637D01*
X037975Y025655D01*
X037993Y025675D01*
X038009Y025697D01*
X038023Y025720D01*
X038034Y025745D01*
X038044Y025770D01*
X038050Y025797D01*
X038054Y025823D01*
X038055Y025850D01*
X038054Y025877D01*
X038050Y025904D01*
X038044Y025930D01*
X038034Y025956D01*
X038023Y025980D01*
X038009Y026004D01*
X037993Y026025D01*
X037975Y026045D01*
X037955Y026064D01*
X037933Y026080D01*
X037910Y026094D01*
X037885Y026105D01*
X037860Y026114D01*
X037833Y026121D01*
X037807Y026125D01*
X037780Y026126D01*
D02*
G37*
G36*
X020783Y023120D02*
Y022941D01*
X020962D01*
X020957Y022955D01*
X020945Y022981D01*
X020930Y023006D01*
X020913Y023029D01*
X020893Y023051D01*
X020872Y023070D01*
X020849Y023088D01*
X020824Y023102D01*
X020798Y023115D01*
X020783Y023120D01*
D02*
G37*
G36*
X020685Y024118D02*
X020658Y024117D01*
X020631Y024113D01*
X020605Y024107D01*
X020579Y024097D01*
X020555Y024086D01*
X020532Y024072D01*
X020510Y024056D01*
X020490Y024038D01*
X020472Y024018D01*
X020456Y023996D01*
X020442Y023973D01*
X020430Y023948D01*
X020421Y023923D01*
X020414Y023896D01*
X020410Y023870D01*
X020409Y023843D01*
X020410Y023815D01*
X020414Y023789D01*
X020421Y023762D01*
X020430Y023737D01*
X020442Y023712D01*
X020456Y023689D01*
X020472Y023668D01*
X020490Y023647D01*
X020510Y023629D01*
X020532Y023613D01*
X020555Y023599D01*
X020579Y023588D01*
X020605Y023579D01*
X020631Y023572D01*
X020658Y023568D01*
X020685Y023567D01*
X020712Y023568D01*
X020739Y023572D01*
X020765Y023579D01*
X020791Y023588D01*
X020815Y023599D01*
X020838Y023613D01*
X020860Y023629D01*
X020880Y023647D01*
X020898Y023668D01*
X020914Y023689D01*
X020928Y023712D01*
X020940Y023737D01*
X020949Y023762D01*
X020956Y023789D01*
X020960Y023815D01*
X020961Y023843D01*
X020960Y023870D01*
X020956Y023896D01*
X020949Y023923D01*
X020940Y023948D01*
X020928Y023973D01*
X020914Y023996D01*
X020898Y024018D01*
X020880Y024038D01*
X020860Y024056D01*
X020838Y024072D01*
X020815Y024086D01*
X020791Y024097D01*
X020765Y024107D01*
X020739Y024113D01*
X020712Y024117D01*
X020685Y024118D01*
D02*
G37*
G36*
X037780Y024126D02*
X037752Y024125D01*
X037726Y024121D01*
X037699Y024114D01*
X037674Y024105D01*
X037649Y024094D01*
X037626Y024080D01*
X037605Y024064D01*
X037584Y024045D01*
X037566Y024025D01*
X037550Y024004D01*
X037536Y023980D01*
X037525Y023956D01*
X037516Y023930D01*
X037509Y023904D01*
X037505Y023877D01*
X037504Y023850D01*
X037505Y023823D01*
X037509Y023797D01*
X037516Y023770D01*
X037525Y023745D01*
X037536Y023720D01*
X037550Y023697D01*
X037566Y023675D01*
X037584Y023655D01*
X037605Y023637D01*
X037626Y023621D01*
X037649Y023607D01*
X037674Y023596D01*
X037699Y023586D01*
X037726Y023580D01*
X037752Y023576D01*
X037780Y023575D01*
X037807Y023576D01*
X037833Y023580D01*
X037860Y023586D01*
X037885Y023596D01*
X037910Y023607D01*
X037933Y023621D01*
X037955Y023637D01*
X037975Y023655D01*
X037993Y023675D01*
X038009Y023697D01*
X038023Y023720D01*
X038034Y023745D01*
X038044Y023770D01*
X038050Y023797D01*
X038054Y023823D01*
X038055Y023850D01*
X038054Y023877D01*
X038050Y023904D01*
X038044Y023930D01*
X038034Y023956D01*
X038023Y023980D01*
X038009Y024004D01*
X037993Y024025D01*
X037975Y024045D01*
X037955Y024064D01*
X037933Y024080D01*
X037910Y024094D01*
X037885Y024105D01*
X037860Y024114D01*
X037833Y024121D01*
X037807Y024125D01*
X037780Y024126D01*
D02*
G37*
G36*
X019783Y023120D02*
Y022941D01*
X019962D01*
X019957Y022955D01*
X019945Y022981D01*
X019930Y023006D01*
X019913Y023029D01*
X019893Y023051D01*
X019872Y023070D01*
X019849Y023088D01*
X019824Y023102D01*
X019798Y023115D01*
X019783Y023120D01*
D02*
G37*
G36*
X020587D02*
X020572Y023115D01*
X020546Y023102D01*
X020521Y023088D01*
X020498Y023070D01*
X020477Y023051D01*
X020457Y023029D01*
X020440Y023006D01*
X020425Y022981D01*
X020413Y022955D01*
X020408Y022941D01*
X020587D01*
Y023120D01*
D02*
G37*
G36*
X020685Y025118D02*
X020658Y025117D01*
X020631Y025113D01*
X020605Y025107D01*
X020579Y025097D01*
X020555Y025086D01*
X020532Y025072D01*
X020510Y025056D01*
X020490Y025038D01*
X020472Y025018D01*
X020456Y024996D01*
X020442Y024973D01*
X020430Y024948D01*
X020421Y024923D01*
X020414Y024896D01*
X020410Y024870D01*
X020409Y024843D01*
X020410Y024815D01*
X020414Y024789D01*
X020421Y024762D01*
X020430Y024737D01*
X020442Y024712D01*
X020456Y024689D01*
X020472Y024667D01*
X020490Y024647D01*
X020510Y024629D01*
X020532Y024613D01*
X020555Y024599D01*
X020579Y024588D01*
X020605Y024579D01*
X020631Y024572D01*
X020658Y024568D01*
X020685Y024567D01*
X020712Y024568D01*
X020739Y024572D01*
X020765Y024579D01*
X020791Y024588D01*
X020815Y024599D01*
X020838Y024613D01*
X020860Y024629D01*
X020880Y024647D01*
X020898Y024667D01*
X020914Y024689D01*
X020928Y024712D01*
X020940Y024737D01*
X020949Y024762D01*
X020956Y024789D01*
X020960Y024815D01*
X020961Y024843D01*
X020960Y024870D01*
X020956Y024896D01*
X020949Y024923D01*
X020940Y024948D01*
X020928Y024973D01*
X020914Y024996D01*
X020898Y025018D01*
X020880Y025038D01*
X020860Y025056D01*
X020838Y025072D01*
X020815Y025086D01*
X020791Y025097D01*
X020765Y025107D01*
X020739Y025113D01*
X020712Y025117D01*
X020685Y025118D01*
D02*
G37*
G36*
X037780Y025126D02*
X037752Y025125D01*
X037726Y025121D01*
X037699Y025114D01*
X037674Y025105D01*
X037649Y025094D01*
X037626Y025080D01*
X037605Y025064D01*
X037584Y025045D01*
X037566Y025025D01*
X037550Y025004D01*
X037536Y024980D01*
X037525Y024956D01*
X037516Y024930D01*
X037509Y024904D01*
X037505Y024877D01*
X037504Y024850D01*
X037505Y024823D01*
X037509Y024797D01*
X037516Y024770D01*
X037525Y024745D01*
X037536Y024720D01*
X037550Y024697D01*
X037566Y024675D01*
X037584Y024655D01*
X037605Y024637D01*
X037626Y024621D01*
X037649Y024607D01*
X037674Y024596D01*
X037699Y024586D01*
X037726Y024580D01*
X037752Y024576D01*
X037780Y024575D01*
X037807Y024576D01*
X037833Y024580D01*
X037860Y024586D01*
X037885Y024596D01*
X037910Y024607D01*
X037933Y024621D01*
X037955Y024637D01*
X037975Y024655D01*
X037993Y024675D01*
X038009Y024697D01*
X038023Y024720D01*
X038034Y024745D01*
X038044Y024770D01*
X038050Y024797D01*
X038054Y024823D01*
X038055Y024850D01*
X038054Y024877D01*
X038050Y024904D01*
X038044Y024930D01*
X038034Y024956D01*
X038023Y024980D01*
X038009Y025004D01*
X037993Y025025D01*
X037975Y025045D01*
X037955Y025064D01*
X037933Y025080D01*
X037910Y025094D01*
X037885Y025105D01*
X037860Y025114D01*
X037833Y025121D01*
X037807Y025125D01*
X037780Y025126D01*
D02*
G37*
G36*
X020685Y027118D02*
X020658Y027117D01*
X020631Y027113D01*
X020605Y027107D01*
X020579Y027097D01*
X020555Y027086D01*
X020532Y027072D01*
X020510Y027056D01*
X020490Y027038D01*
X020472Y027018D01*
X020456Y026996D01*
X020442Y026973D01*
X020430Y026948D01*
X020421Y026923D01*
X020414Y026896D01*
X020410Y026870D01*
X020409Y026843D01*
X020410Y026815D01*
X020414Y026789D01*
X020421Y026762D01*
X020430Y026737D01*
X020442Y026712D01*
X020456Y026689D01*
X020472Y026667D01*
X020490Y026647D01*
X020510Y026629D01*
X020532Y026613D01*
X020555Y026599D01*
X020579Y026588D01*
X020605Y026579D01*
X020631Y026572D01*
X020658Y026568D01*
X020685Y026567D01*
X020712Y026568D01*
X020739Y026572D01*
X020765Y026579D01*
X020791Y026588D01*
X020815Y026599D01*
X020838Y026613D01*
X020860Y026629D01*
X020880Y026647D01*
X020898Y026667D01*
X020914Y026689D01*
X020928Y026712D01*
X020940Y026737D01*
X020949Y026762D01*
X020956Y026789D01*
X020960Y026815D01*
X020961Y026843D01*
X020960Y026870D01*
X020956Y026896D01*
X020949Y026923D01*
X020940Y026948D01*
X020928Y026973D01*
X020914Y026996D01*
X020898Y027018D01*
X020880Y027038D01*
X020860Y027056D01*
X020838Y027072D01*
X020815Y027086D01*
X020791Y027097D01*
X020765Y027107D01*
X020739Y027113D01*
X020712Y027117D01*
X020685Y027118D01*
D02*
G37*
G36*
X037780Y027126D02*
X037752Y027125D01*
X037726Y027121D01*
X037699Y027114D01*
X037674Y027105D01*
X037649Y027094D01*
X037626Y027080D01*
X037605Y027064D01*
X037584Y027045D01*
X037566Y027025D01*
X037550Y027004D01*
X037536Y026980D01*
X037525Y026956D01*
X037516Y026930D01*
X037509Y026904D01*
X037505Y026877D01*
X037504Y026850D01*
X037505Y026823D01*
X037509Y026797D01*
X037516Y026770D01*
X037525Y026745D01*
X037536Y026720D01*
X037550Y026697D01*
X037566Y026675D01*
X037584Y026655D01*
X037605Y026637D01*
X037626Y026621D01*
X037649Y026607D01*
X037674Y026596D01*
X037699Y026586D01*
X037726Y026580D01*
X037752Y026576D01*
X037780Y026575D01*
X037807Y026576D01*
X037833Y026580D01*
X037860Y026586D01*
X037885Y026596D01*
X037910Y026607D01*
X037933Y026621D01*
X037955Y026637D01*
X037975Y026655D01*
X037993Y026675D01*
X038009Y026697D01*
X038023Y026720D01*
X038034Y026745D01*
X038044Y026770D01*
X038050Y026797D01*
X038054Y026823D01*
X038055Y026850D01*
X038054Y026877D01*
X038050Y026904D01*
X038044Y026930D01*
X038034Y026956D01*
X038023Y026980D01*
X038009Y027004D01*
X037993Y027025D01*
X037975Y027045D01*
X037955Y027064D01*
X037933Y027080D01*
X037910Y027094D01*
X037885Y027105D01*
X037860Y027114D01*
X037833Y027121D01*
X037807Y027125D01*
X037780Y027126D01*
D02*
G37*
G36*
X020685Y028118D02*
X020658Y028117D01*
X020631Y028113D01*
X020605Y028107D01*
X020579Y028097D01*
X020555Y028086D01*
X020532Y028072D01*
X020510Y028056D01*
X020490Y028038D01*
X020472Y028018D01*
X020456Y027996D01*
X020442Y027973D01*
X020430Y027948D01*
X020421Y027923D01*
X020414Y027896D01*
X020410Y027870D01*
X020409Y027843D01*
X020410Y027815D01*
X020414Y027789D01*
X020421Y027762D01*
X020430Y027737D01*
X020442Y027712D01*
X020456Y027689D01*
X020472Y027668D01*
X020490Y027647D01*
X020510Y027629D01*
X020532Y027613D01*
X020555Y027599D01*
X020579Y027588D01*
X020605Y027579D01*
X020631Y027572D01*
X020658Y027568D01*
X020685Y027567D01*
X020712Y027568D01*
X020739Y027572D01*
X020765Y027579D01*
X020791Y027588D01*
X020815Y027599D01*
X020838Y027613D01*
X020860Y027629D01*
X020880Y027647D01*
X020898Y027668D01*
X020914Y027689D01*
X020928Y027712D01*
X020940Y027737D01*
X020949Y027762D01*
X020956Y027789D01*
X020960Y027815D01*
X020961Y027843D01*
X020960Y027870D01*
X020956Y027896D01*
X020949Y027923D01*
X020940Y027948D01*
X020928Y027973D01*
X020914Y027996D01*
X020898Y028018D01*
X020880Y028038D01*
X020860Y028056D01*
X020838Y028072D01*
X020815Y028086D01*
X020791Y028097D01*
X020765Y028107D01*
X020739Y028113D01*
X020712Y028117D01*
X020685Y028118D01*
D02*
G37*
G36*
X037780Y028126D02*
X037752Y028125D01*
X037726Y028121D01*
X037699Y028114D01*
X037674Y028105D01*
X037649Y028094D01*
X037626Y028080D01*
X037605Y028064D01*
X037584Y028045D01*
X037566Y028025D01*
X037550Y028004D01*
X037536Y027980D01*
X037525Y027956D01*
X037516Y027930D01*
X037509Y027904D01*
X037505Y027877D01*
X037504Y027850D01*
X037505Y027823D01*
X037509Y027797D01*
X037516Y027770D01*
X037525Y027745D01*
X037536Y027720D01*
X037550Y027697D01*
X037566Y027675D01*
X037584Y027655D01*
X037605Y027637D01*
X037626Y027621D01*
X037649Y027607D01*
X037674Y027596D01*
X037699Y027586D01*
X037726Y027580D01*
X037752Y027576D01*
X037780Y027575D01*
X037807Y027576D01*
X037833Y027580D01*
X037860Y027586D01*
X037885Y027596D01*
X037910Y027607D01*
X037933Y027621D01*
X037955Y027637D01*
X037975Y027655D01*
X037993Y027675D01*
X038009Y027697D01*
X038023Y027720D01*
X038034Y027745D01*
X038044Y027770D01*
X038050Y027797D01*
X038054Y027823D01*
X038055Y027850D01*
X038054Y027877D01*
X038050Y027904D01*
X038044Y027930D01*
X038034Y027956D01*
X038023Y027980D01*
X038009Y028004D01*
X037993Y028025D01*
X037975Y028045D01*
X037955Y028064D01*
X037933Y028080D01*
X037910Y028094D01*
X037885Y028105D01*
X037860Y028114D01*
X037833Y028121D01*
X037807Y028125D01*
X037780Y028126D01*
D02*
G37*
G36*
X037681Y021752D02*
X037502D01*
X037507Y021738D01*
X037520Y021711D01*
X037535Y021687D01*
X037552Y021663D01*
X037571Y021642D01*
X037593Y021623D01*
X037616Y021605D01*
X037641Y021591D01*
X037667Y021578D01*
X037681Y021573D01*
Y021752D01*
D02*
G37*
G36*
X038057D02*
X037878D01*
Y021573D01*
X037892Y021578D01*
X037918Y021591D01*
X037943Y021605D01*
X037966Y021623D01*
X037988Y021642D01*
X038007Y021663D01*
X038025Y021687D01*
X038039Y021711D01*
X038052Y021738D01*
X038057Y021752D01*
D02*
G37*
G36*
X038681Y022145D02*
X038485D01*
Y021949D01*
X038681D01*
Y022145D01*
D02*
G37*
G36*
Y021752D02*
X038485D01*
Y021556D01*
X038681D01*
Y021752D01*
D02*
G37*
G36*
X038189Y020053D02*
X038149Y020047D01*
X038104Y020037D01*
X038059Y020025D01*
X038015Y020009D01*
X037972Y019992D01*
X037930Y019971D01*
X037890Y019949D01*
X037851Y019923D01*
X037814Y019896D01*
X037778Y019866D01*
X037744Y019834D01*
X037713Y019801D01*
X037683Y019765D01*
X037655Y019728D01*
X037630Y019689D01*
X037607Y019648D01*
X037587Y019607D01*
X037569Y019564D01*
X037554Y019520D01*
X037542Y019475D01*
X037532Y019430D01*
X037526Y019390D01*
X038189D01*
Y020053D01*
D02*
G37*
G36*
X037681Y022128D02*
X037667Y022123D01*
X037641Y022110D01*
X037616Y022095D01*
X037593Y022078D01*
X037571Y022059D01*
X037552Y022037D01*
X037535Y022014D01*
X037520Y021989D01*
X037507Y021963D01*
X037502Y021949D01*
X037681D01*
Y022128D01*
D02*
G37*
G36*
X020962Y022744D02*
X020783D01*
Y022565D01*
X020798Y022570D01*
X020824Y022583D01*
X020849Y022598D01*
X020872Y022615D01*
X020893Y022634D01*
X020913Y022656D01*
X020930Y022679D01*
X020945Y022704D01*
X020957Y022730D01*
X020962Y022744D01*
D02*
G37*
G36*
X037780Y023126D02*
X037752Y023125D01*
X037726Y023121D01*
X037699Y023114D01*
X037674Y023105D01*
X037649Y023094D01*
X037626Y023080D01*
X037605Y023064D01*
X037584Y023045D01*
X037566Y023025D01*
X037550Y023004D01*
X037536Y022980D01*
X037525Y022956D01*
X037516Y022930D01*
X037509Y022904D01*
X037505Y022877D01*
X037504Y022850D01*
X037505Y022823D01*
X037509Y022797D01*
X037516Y022770D01*
X037525Y022745D01*
X037536Y022720D01*
X037550Y022697D01*
X037566Y022675D01*
X037584Y022655D01*
X037605Y022637D01*
X037626Y022621D01*
X037649Y022607D01*
X037674Y022596D01*
X037699Y022586D01*
X037726Y022580D01*
X037752Y022576D01*
X037780Y022575D01*
X037807Y022576D01*
X037833Y022580D01*
X037860Y022586D01*
X037885Y022596D01*
X037910Y022607D01*
X037933Y022621D01*
X037955Y022637D01*
X037975Y022655D01*
X037993Y022675D01*
X038009Y022697D01*
X038023Y022720D01*
X038034Y022745D01*
X038044Y022770D01*
X038050Y022797D01*
X038054Y022823D01*
X038055Y022850D01*
X038054Y022877D01*
X038050Y022904D01*
X038044Y022930D01*
X038034Y022956D01*
X038023Y022980D01*
X038009Y023004D01*
X037993Y023025D01*
X037975Y023045D01*
X037955Y023064D01*
X037933Y023080D01*
X037910Y023094D01*
X037885Y023105D01*
X037860Y023114D01*
X037833Y023121D01*
X037807Y023125D01*
X037780Y023126D01*
D02*
G37*
G36*
X037878Y022128D02*
Y021949D01*
X038057D01*
X038052Y021963D01*
X038039Y021989D01*
X038025Y022014D01*
X038007Y022037D01*
X037988Y022059D01*
X037966Y022078D01*
X037943Y022095D01*
X037918Y022110D01*
X037892Y022123D01*
X037878Y022128D01*
D02*
G37*
G36*
X019962Y022744D02*
X019783D01*
Y022565D01*
X019798Y022570D01*
X019824Y022583D01*
X019849Y022598D01*
X019872Y022615D01*
X019893Y022634D01*
X019913Y022656D01*
X019930Y022679D01*
X019945Y022704D01*
X019957Y022730D01*
X019962Y022744D01*
D02*
G37*
G36*
X020587D02*
X020408D01*
X020413Y022730D01*
X020425Y022704D01*
X020440Y022679D01*
X020457Y022656D01*
X020477Y022634D01*
X020498Y022615D01*
X020521Y022598D01*
X020546Y022583D01*
X020572Y022570D01*
X020587Y022565D01*
Y022744D01*
D02*
G37*
G36*
X019979Y034744D02*
X019783D01*
Y034548D01*
X019979D01*
Y034744D01*
D02*
G37*
G36*
X020587D02*
X020408D01*
X020413Y034730D01*
X020425Y034704D01*
X020440Y034679D01*
X020457Y034656D01*
X020477Y034634D01*
X020498Y034615D01*
X020521Y034598D01*
X020546Y034583D01*
X020572Y034570D01*
X020587Y034565D01*
Y034744D01*
D02*
G37*
G36*
Y035120D02*
X020572Y035115D01*
X020546Y035102D01*
X020521Y035088D01*
X020498Y035070D01*
X020477Y035051D01*
X020457Y035029D01*
X020440Y035006D01*
X020425Y034981D01*
X020413Y034955D01*
X020408Y034941D01*
X020587D01*
Y035120D01*
D02*
G37*
G36*
X020783D02*
Y034941D01*
X020962D01*
X020957Y034955D01*
X020945Y034981D01*
X020930Y035006D01*
X020913Y035029D01*
X020893Y035051D01*
X020872Y035070D01*
X020849Y035088D01*
X020824Y035102D01*
X020798Y035115D01*
X020783Y035120D01*
D02*
G37*
G36*
X038681Y035128D02*
X038667Y035123D01*
X038641Y035110D01*
X038616Y035095D01*
X038593Y035078D01*
X038571Y035059D01*
X038552Y035037D01*
X038535Y035014D01*
X038520Y034989D01*
X038507Y034963D01*
X038502Y034949D01*
X038681D01*
Y035128D01*
D02*
G37*
G36*
X020962Y034744D02*
X020783D01*
Y034565D01*
X020798Y034570D01*
X020824Y034583D01*
X020849Y034598D01*
X020872Y034615D01*
X020893Y034634D01*
X020913Y034656D01*
X020930Y034679D01*
X020945Y034704D01*
X020957Y034730D01*
X020962Y034744D01*
D02*
G37*
G36*
X038681Y034752D02*
X038502D01*
X038507Y034738D01*
X038520Y034711D01*
X038535Y034687D01*
X038552Y034663D01*
X038571Y034642D01*
X038593Y034623D01*
X038616Y034605D01*
X038641Y034591D01*
X038667Y034578D01*
X038681Y034573D01*
Y034752D01*
D02*
G37*
G36*
X019979Y035137D02*
X019783D01*
Y034941D01*
X019979D01*
Y035137D01*
D02*
G37*
G36*
X037681Y034128D02*
X037667Y034123D01*
X037641Y034110D01*
X037616Y034095D01*
X037593Y034078D01*
X037571Y034059D01*
X037552Y034037D01*
X037535Y034014D01*
X037520Y033989D01*
X037507Y033963D01*
X037502Y033949D01*
X037681D01*
Y034128D01*
D02*
G37*
G36*
X037878D02*
Y033949D01*
X038057D01*
X038052Y033963D01*
X038039Y033989D01*
X038025Y034014D01*
X038007Y034037D01*
X037988Y034059D01*
X037966Y034078D01*
X037943Y034095D01*
X037918Y034110D01*
X037892Y034123D01*
X037878Y034128D01*
D02*
G37*
G36*
X038189Y037303D02*
X037526D01*
X037532Y037263D01*
X037542Y037218D01*
X037554Y037173D01*
X037569Y037129D01*
X037587Y037086D01*
X037607Y037045D01*
X037630Y037004D01*
X037655Y036965D01*
X037683Y036928D01*
X037713Y036892D01*
X037744Y036858D01*
X037778Y036827D01*
X037814Y036797D01*
X037851Y036769D01*
X037890Y036744D01*
X037930Y036721D01*
X037972Y036701D01*
X038015Y036683D01*
X038059Y036668D01*
X038104Y036656D01*
X038149Y036646D01*
X038189Y036640D01*
Y037303D01*
D02*
G37*
G36*
X023736Y037171D02*
X023722Y037166D01*
X023696Y037154D01*
X023671Y037139D01*
X023648Y037121D01*
X023626Y037102D01*
X023607Y037081D01*
X023590Y037057D01*
X023575Y037033D01*
X023562Y037006D01*
X023557Y036992D01*
X023736D01*
Y037171D01*
D02*
G37*
G36*
X023933D02*
Y036992D01*
X024112D01*
X024107Y037006D01*
X024095Y037033D01*
X024080Y037057D01*
X024062Y037081D01*
X024043Y037102D01*
X024022Y037121D01*
X023998Y037139D01*
X023974Y037154D01*
X023947Y037166D01*
X023933Y037171D01*
D02*
G37*
G36*
X032835Y037170D02*
X032808Y037168D01*
X032781Y037164D01*
X032755Y037158D01*
X032729Y037149D01*
X032705Y037137D01*
X032681Y037123D01*
X032660Y037107D01*
X032640Y037089D01*
X032621Y037069D01*
X032605Y037047D01*
X032591Y037024D01*
X032580Y036999D01*
X032571Y036974D01*
X032564Y036948D01*
X032560Y036921D01*
X032559Y036894D01*
X032560Y036867D01*
X032564Y036840D01*
X032571Y036814D01*
X032580Y036788D01*
X032591Y036764D01*
X032605Y036740D01*
X032621Y036719D01*
X032640Y036699D01*
X032660Y036680D01*
X032681Y036664D01*
X032705Y036650D01*
X032729Y036639D01*
X032755Y036630D01*
X032781Y036623D01*
X032808Y036619D01*
X032835Y036618D01*
X032862Y036619D01*
X032888Y036623D01*
X032915Y036630D01*
X032940Y036639D01*
X032965Y036650D01*
X032988Y036664D01*
X033010Y036680D01*
X033030Y036699D01*
X033048Y036719D01*
X033064Y036740D01*
X033078Y036764D01*
X033090Y036788D01*
X033099Y036814D01*
X033105Y036840D01*
X033109Y036867D01*
X033111Y036894D01*
X033109Y036921D01*
X033105Y036948D01*
X033099Y036974D01*
X033090Y036999D01*
X033078Y037024D01*
X033064Y037047D01*
X033048Y037069D01*
X033030Y037089D01*
X033010Y037107D01*
X032988Y037123D01*
X032965Y037137D01*
X032940Y037149D01*
X032915Y037158D01*
X032888Y037164D01*
X032862Y037168D01*
X032835Y037170D01*
D02*
G37*
G36*
X033835D02*
X033808Y037168D01*
X033781Y037164D01*
X033755Y037158D01*
X033729Y037149D01*
X033705Y037137D01*
X033681Y037123D01*
X033660Y037107D01*
X033640Y037089D01*
X033621Y037069D01*
X033605Y037047D01*
X033591Y037024D01*
X033580Y036999D01*
X033571Y036974D01*
X033564Y036948D01*
X033560Y036921D01*
X033559Y036894D01*
X033560Y036867D01*
X033564Y036840D01*
X033571Y036814D01*
X033580Y036788D01*
X033591Y036764D01*
X033605Y036740D01*
X033621Y036719D01*
X033640Y036699D01*
X033660Y036680D01*
X033681Y036664D01*
X033705Y036650D01*
X033729Y036639D01*
X033755Y036630D01*
X033781Y036623D01*
X033808Y036619D01*
X033835Y036618D01*
X033862Y036619D01*
X033888Y036623D01*
X033915Y036630D01*
X033940Y036639D01*
X033965Y036650D01*
X033988Y036664D01*
X034010Y036680D01*
X034030Y036699D01*
X034048Y036719D01*
X034064Y036740D01*
X034078Y036764D01*
X034090Y036788D01*
X034099Y036814D01*
X034105Y036840D01*
X034109Y036867D01*
X034111Y036894D01*
X034109Y036921D01*
X034105Y036948D01*
X034099Y036974D01*
X034090Y036999D01*
X034078Y037024D01*
X034064Y037047D01*
X034048Y037069D01*
X034030Y037089D01*
X034010Y037107D01*
X033988Y037123D01*
X033965Y037137D01*
X033940Y037149D01*
X033915Y037158D01*
X033888Y037164D01*
X033862Y037168D01*
X033835Y037170D01*
D02*
G37*
G36*
X034835D02*
X034808Y037168D01*
X034781Y037164D01*
X034755Y037158D01*
X034729Y037149D01*
X034705Y037137D01*
X034681Y037123D01*
X034660Y037107D01*
X034640Y037089D01*
X034621Y037069D01*
X034605Y037047D01*
X034591Y037024D01*
X034580Y036999D01*
X034571Y036974D01*
X034564Y036948D01*
X034560Y036921D01*
X034559Y036894D01*
X034560Y036867D01*
X034564Y036840D01*
X034571Y036814D01*
X034580Y036788D01*
X034591Y036764D01*
X034605Y036740D01*
X034621Y036719D01*
X034640Y036699D01*
X034660Y036680D01*
X034681Y036664D01*
X034705Y036650D01*
X034729Y036639D01*
X034755Y036630D01*
X034781Y036623D01*
X034808Y036619D01*
X034835Y036618D01*
X034862Y036619D01*
X034888Y036623D01*
X034915Y036630D01*
X034940Y036639D01*
X034965Y036650D01*
X034988Y036664D01*
X035010Y036680D01*
X035030Y036699D01*
X035048Y036719D01*
X035064Y036740D01*
X035078Y036764D01*
X035090Y036788D01*
X035099Y036814D01*
X035105Y036840D01*
X035109Y036867D01*
X035111Y036894D01*
X035109Y036921D01*
X035105Y036948D01*
X035099Y036974D01*
X035090Y036999D01*
X035078Y037024D01*
X035064Y037047D01*
X035048Y037069D01*
X035030Y037089D01*
X035010Y037107D01*
X034988Y037123D01*
X034965Y037137D01*
X034940Y037149D01*
X034915Y037158D01*
X034888Y037164D01*
X034862Y037168D01*
X034835Y037170D01*
D02*
G37*
G36*
X036129Y037795D02*
X035933D01*
Y037599D01*
X036129D01*
Y037795D01*
D02*
G37*
G36*
X022736Y037795D02*
X022557D01*
X022562Y037781D01*
X022575Y037755D01*
X022590Y037730D01*
X022607Y037707D01*
X022626Y037685D01*
X022648Y037666D01*
X022671Y037649D01*
X022696Y037634D01*
X022722Y037621D01*
X022736Y037616D01*
Y037795D01*
D02*
G37*
G36*
X023112D02*
X022933D01*
Y037616D01*
X022947Y037621D01*
X022974Y037634D01*
X022998Y037649D01*
X023022Y037666D01*
X023043Y037685D01*
X023062Y037707D01*
X023080Y037730D01*
X023094Y037755D01*
X023107Y037781D01*
X023112Y037795D01*
D02*
G37*
G36*
X035736Y037171D02*
X035722Y037166D01*
X035696Y037154D01*
X035671Y037139D01*
X035648Y037121D01*
X035626Y037102D01*
X035607Y037081D01*
X035590Y037057D01*
X035575Y037033D01*
X035562Y037006D01*
X035557Y036992D01*
X035736D01*
Y037171D01*
D02*
G37*
G36*
X035933Y037171D02*
Y036992D01*
X036112D01*
X036107Y037006D01*
X036095Y037033D01*
X036080Y037057D01*
X036062Y037081D01*
X036043Y037102D01*
X036022Y037121D01*
X035998Y037139D01*
X035974Y037154D01*
X035947Y037166D01*
X035933Y037171D01*
D02*
G37*
G36*
X035736Y037795D02*
X035540D01*
Y037599D01*
X035736D01*
Y037795D01*
D02*
G37*
G36*
X031835Y037170D02*
X031808Y037168D01*
X031781Y037164D01*
X031755Y037158D01*
X031729Y037149D01*
X031705Y037137D01*
X031681Y037123D01*
X031660Y037107D01*
X031640Y037089D01*
X031621Y037069D01*
X031605Y037047D01*
X031591Y037024D01*
X031580Y036999D01*
X031571Y036974D01*
X031564Y036948D01*
X031560Y036921D01*
X031559Y036894D01*
X031560Y036867D01*
X031564Y036840D01*
X031571Y036814D01*
X031580Y036788D01*
X031591Y036764D01*
X031605Y036740D01*
X031621Y036719D01*
X031640Y036699D01*
X031660Y036680D01*
X031681Y036664D01*
X031705Y036650D01*
X031729Y036639D01*
X031755Y036630D01*
X031781Y036623D01*
X031808Y036619D01*
X031835Y036618D01*
X031862Y036619D01*
X031888Y036623D01*
X031915Y036630D01*
X031940Y036639D01*
X031965Y036650D01*
X031988Y036664D01*
X032010Y036680D01*
X032030Y036699D01*
X032048Y036719D01*
X032064Y036740D01*
X032078Y036764D01*
X032090Y036788D01*
X032099Y036814D01*
X032105Y036840D01*
X032109Y036867D01*
X032111Y036894D01*
X032109Y036921D01*
X032105Y036948D01*
X032099Y036974D01*
X032090Y036999D01*
X032078Y037024D01*
X032064Y037047D01*
X032048Y037069D01*
X032030Y037089D01*
X032010Y037107D01*
X031988Y037123D01*
X031965Y037137D01*
X031940Y037149D01*
X031915Y037158D01*
X031888Y037164D01*
X031862Y037168D01*
X031835Y037170D01*
D02*
G37*
G36*
X024112Y036795D02*
X023933D01*
Y036616D01*
X023947Y036621D01*
X023974Y036634D01*
X023998Y036649D01*
X024022Y036666D01*
X024043Y036685D01*
X024062Y036707D01*
X024080Y036730D01*
X024095Y036755D01*
X024107Y036781D01*
X024112Y036795D01*
D02*
G37*
G36*
X036112Y036795D02*
X035933D01*
Y036616D01*
X035947Y036621D01*
X035974Y036634D01*
X035998Y036649D01*
X036022Y036666D01*
X036043Y036685D01*
X036062Y036707D01*
X036080Y036730D01*
X036095Y036755D01*
X036107Y036781D01*
X036112Y036795D01*
D02*
G37*
G36*
X024835Y037170D02*
X024808Y037168D01*
X024781Y037164D01*
X024755Y037158D01*
X024729Y037149D01*
X024705Y037137D01*
X024681Y037123D01*
X024660Y037107D01*
X024640Y037089D01*
X024621Y037069D01*
X024605Y037047D01*
X024591Y037024D01*
X024580Y036999D01*
X024571Y036974D01*
X024564Y036948D01*
X024560Y036921D01*
X024559Y036894D01*
X024560Y036867D01*
X024564Y036840D01*
X024571Y036814D01*
X024580Y036788D01*
X024591Y036764D01*
X024605Y036740D01*
X024621Y036719D01*
X024640Y036699D01*
X024660Y036680D01*
X024681Y036664D01*
X024705Y036650D01*
X024729Y036639D01*
X024755Y036630D01*
X024781Y036623D01*
X024808Y036619D01*
X024835Y036618D01*
X024862Y036619D01*
X024888Y036623D01*
X024915Y036630D01*
X024940Y036639D01*
X024965Y036650D01*
X024988Y036664D01*
X025010Y036680D01*
X025030Y036699D01*
X025048Y036719D01*
X025064Y036740D01*
X025078Y036764D01*
X025090Y036788D01*
X025099Y036814D01*
X025105Y036840D01*
X025109Y036867D01*
X025111Y036894D01*
X025109Y036921D01*
X025105Y036948D01*
X025099Y036974D01*
X025090Y036999D01*
X025078Y037024D01*
X025064Y037047D01*
X025048Y037069D01*
X025030Y037089D01*
X025010Y037107D01*
X024988Y037123D01*
X024965Y037137D01*
X024940Y037149D01*
X024915Y037158D01*
X024888Y037164D01*
X024862Y037168D01*
X024835Y037170D01*
D02*
G37*
G36*
X020965Y037992D02*
X019587D01*
Y036614D01*
X020965D01*
Y037992D01*
D02*
G37*
G36*
X035736Y036795D02*
X035557D01*
X035562Y036781D01*
X035575Y036755D01*
X035590Y036730D01*
X035607Y036707D01*
X035626Y036685D01*
X035648Y036666D01*
X035671Y036649D01*
X035696Y036634D01*
X035722Y036621D01*
X035736Y036616D01*
Y036795D01*
D02*
G37*
G36*
X023736Y036795D02*
X023557D01*
X023562Y036781D01*
X023575Y036755D01*
X023590Y036730D01*
X023607Y036707D01*
X023626Y036685D01*
X023648Y036666D01*
X023671Y036649D01*
X023696Y036634D01*
X023722Y036621D01*
X023736Y036616D01*
Y036795D01*
D02*
G37*
G36*
X028835Y037170D02*
X028808Y037168D01*
X028781Y037164D01*
X028755Y037158D01*
X028729Y037149D01*
X028705Y037137D01*
X028681Y037123D01*
X028660Y037107D01*
X028640Y037089D01*
X028621Y037069D01*
X028605Y037047D01*
X028591Y037024D01*
X028580Y036999D01*
X028571Y036974D01*
X028564Y036948D01*
X028560Y036921D01*
X028559Y036894D01*
X028560Y036867D01*
X028564Y036840D01*
X028571Y036814D01*
X028580Y036788D01*
X028591Y036764D01*
X028605Y036740D01*
X028621Y036719D01*
X028640Y036699D01*
X028660Y036680D01*
X028681Y036664D01*
X028705Y036650D01*
X028729Y036639D01*
X028755Y036630D01*
X028781Y036623D01*
X028808Y036619D01*
X028835Y036618D01*
X028862Y036619D01*
X028888Y036623D01*
X028915Y036630D01*
X028940Y036639D01*
X028965Y036650D01*
X028988Y036664D01*
X029010Y036680D01*
X029030Y036699D01*
X029048Y036719D01*
X029064Y036740D01*
X029078Y036764D01*
X029090Y036788D01*
X029099Y036814D01*
X029105Y036840D01*
X029109Y036867D01*
X029111Y036894D01*
X029109Y036921D01*
X029105Y036948D01*
X029099Y036974D01*
X029090Y036999D01*
X029078Y037024D01*
X029064Y037047D01*
X029048Y037069D01*
X029030Y037089D01*
X029010Y037107D01*
X028988Y037123D01*
X028965Y037137D01*
X028940Y037149D01*
X028915Y037158D01*
X028888Y037164D01*
X028862Y037168D01*
X028835Y037170D01*
D02*
G37*
G36*
X029835D02*
X029808Y037168D01*
X029781Y037164D01*
X029755Y037158D01*
X029729Y037149D01*
X029705Y037137D01*
X029681Y037123D01*
X029660Y037107D01*
X029640Y037089D01*
X029621Y037069D01*
X029605Y037047D01*
X029591Y037024D01*
X029580Y036999D01*
X029571Y036974D01*
X029564Y036948D01*
X029560Y036921D01*
X029559Y036894D01*
X029560Y036867D01*
X029564Y036840D01*
X029571Y036814D01*
X029580Y036788D01*
X029591Y036764D01*
X029605Y036740D01*
X029621Y036719D01*
X029640Y036699D01*
X029660Y036680D01*
X029681Y036664D01*
X029705Y036650D01*
X029729Y036639D01*
X029755Y036630D01*
X029781Y036623D01*
X029808Y036619D01*
X029835Y036618D01*
X029862Y036619D01*
X029888Y036623D01*
X029915Y036630D01*
X029940Y036639D01*
X029965Y036650D01*
X029988Y036664D01*
X030010Y036680D01*
X030030Y036699D01*
X030048Y036719D01*
X030064Y036740D01*
X030078Y036764D01*
X030090Y036788D01*
X030099Y036814D01*
X030105Y036840D01*
X030109Y036867D01*
X030111Y036894D01*
X030109Y036921D01*
X030105Y036948D01*
X030099Y036974D01*
X030090Y036999D01*
X030078Y037024D01*
X030064Y037047D01*
X030048Y037069D01*
X030030Y037089D01*
X030010Y037107D01*
X029988Y037123D01*
X029965Y037137D01*
X029940Y037149D01*
X029915Y037158D01*
X029888Y037164D01*
X029862Y037168D01*
X029835Y037170D01*
D02*
G37*
G36*
X030835D02*
X030808Y037168D01*
X030781Y037164D01*
X030755Y037158D01*
X030729Y037149D01*
X030705Y037137D01*
X030681Y037123D01*
X030660Y037107D01*
X030640Y037089D01*
X030621Y037069D01*
X030605Y037047D01*
X030591Y037024D01*
X030580Y036999D01*
X030571Y036974D01*
X030564Y036948D01*
X030560Y036921D01*
X030559Y036894D01*
X030560Y036867D01*
X030564Y036840D01*
X030571Y036814D01*
X030580Y036788D01*
X030591Y036764D01*
X030605Y036740D01*
X030621Y036719D01*
X030640Y036699D01*
X030660Y036680D01*
X030681Y036664D01*
X030705Y036650D01*
X030729Y036639D01*
X030755Y036630D01*
X030781Y036623D01*
X030808Y036619D01*
X030835Y036618D01*
X030862Y036619D01*
X030888Y036623D01*
X030915Y036630D01*
X030940Y036639D01*
X030965Y036650D01*
X030988Y036664D01*
X031010Y036680D01*
X031030Y036699D01*
X031048Y036719D01*
X031064Y036740D01*
X031078Y036764D01*
X031090Y036788D01*
X031099Y036814D01*
X031105Y036840D01*
X031109Y036867D01*
X031111Y036894D01*
X031109Y036921D01*
X031105Y036948D01*
X031099Y036974D01*
X031090Y036999D01*
X031078Y037024D01*
X031064Y037047D01*
X031048Y037069D01*
X031030Y037089D01*
X031010Y037107D01*
X030988Y037123D01*
X030965Y037137D01*
X030940Y037149D01*
X030915Y037158D01*
X030888Y037164D01*
X030862Y037168D01*
X030835Y037170D01*
D02*
G37*
G36*
X025835D02*
X025808Y037168D01*
X025781Y037164D01*
X025755Y037158D01*
X025729Y037149D01*
X025705Y037137D01*
X025681Y037123D01*
X025660Y037107D01*
X025640Y037089D01*
X025621Y037069D01*
X025605Y037047D01*
X025591Y037024D01*
X025580Y036999D01*
X025571Y036974D01*
X025564Y036948D01*
X025560Y036921D01*
X025559Y036894D01*
X025560Y036867D01*
X025564Y036840D01*
X025571Y036814D01*
X025580Y036788D01*
X025591Y036764D01*
X025605Y036740D01*
X025621Y036719D01*
X025640Y036699D01*
X025660Y036680D01*
X025681Y036664D01*
X025705Y036650D01*
X025729Y036639D01*
X025755Y036630D01*
X025781Y036623D01*
X025808Y036619D01*
X025835Y036618D01*
X025862Y036619D01*
X025888Y036623D01*
X025915Y036630D01*
X025940Y036639D01*
X025965Y036650D01*
X025988Y036664D01*
X026010Y036680D01*
X026030Y036699D01*
X026048Y036719D01*
X026064Y036740D01*
X026078Y036764D01*
X026090Y036788D01*
X026099Y036814D01*
X026105Y036840D01*
X026109Y036867D01*
X026111Y036894D01*
X026109Y036921D01*
X026105Y036948D01*
X026099Y036974D01*
X026090Y036999D01*
X026078Y037024D01*
X026064Y037047D01*
X026048Y037069D01*
X026030Y037089D01*
X026010Y037107D01*
X025988Y037123D01*
X025965Y037137D01*
X025940Y037149D01*
X025915Y037158D01*
X025888Y037164D01*
X025862Y037168D01*
X025835Y037170D01*
D02*
G37*
G36*
X026835D02*
X026808Y037168D01*
X026781Y037164D01*
X026755Y037158D01*
X026729Y037149D01*
X026705Y037137D01*
X026681Y037123D01*
X026660Y037107D01*
X026640Y037089D01*
X026621Y037069D01*
X026605Y037047D01*
X026591Y037024D01*
X026580Y036999D01*
X026571Y036974D01*
X026564Y036948D01*
X026560Y036921D01*
X026559Y036894D01*
X026560Y036867D01*
X026564Y036840D01*
X026571Y036814D01*
X026580Y036788D01*
X026591Y036764D01*
X026605Y036740D01*
X026621Y036719D01*
X026640Y036699D01*
X026660Y036680D01*
X026681Y036664D01*
X026705Y036650D01*
X026729Y036639D01*
X026755Y036630D01*
X026781Y036623D01*
X026808Y036619D01*
X026835Y036618D01*
X026862Y036619D01*
X026888Y036623D01*
X026915Y036630D01*
X026940Y036639D01*
X026965Y036650D01*
X026988Y036664D01*
X027010Y036680D01*
X027030Y036699D01*
X027048Y036719D01*
X027064Y036740D01*
X027078Y036764D01*
X027090Y036788D01*
X027099Y036814D01*
X027105Y036840D01*
X027109Y036867D01*
X027111Y036894D01*
X027109Y036921D01*
X027105Y036948D01*
X027099Y036974D01*
X027090Y036999D01*
X027078Y037024D01*
X027064Y037047D01*
X027048Y037069D01*
X027030Y037089D01*
X027010Y037107D01*
X026988Y037123D01*
X026965Y037137D01*
X026940Y037149D01*
X026915Y037158D01*
X026888Y037164D01*
X026862Y037168D01*
X026835Y037170D01*
D02*
G37*
G36*
X027835D02*
X027808Y037168D01*
X027781Y037164D01*
X027755Y037158D01*
X027729Y037149D01*
X027705Y037137D01*
X027681Y037123D01*
X027660Y037107D01*
X027640Y037089D01*
X027621Y037069D01*
X027605Y037047D01*
X027591Y037024D01*
X027580Y036999D01*
X027571Y036974D01*
X027564Y036948D01*
X027560Y036921D01*
X027559Y036894D01*
X027560Y036867D01*
X027564Y036840D01*
X027571Y036814D01*
X027580Y036788D01*
X027591Y036764D01*
X027605Y036740D01*
X027621Y036719D01*
X027640Y036699D01*
X027660Y036680D01*
X027681Y036664D01*
X027705Y036650D01*
X027729Y036639D01*
X027755Y036630D01*
X027781Y036623D01*
X027808Y036619D01*
X027835Y036618D01*
X027862Y036619D01*
X027888Y036623D01*
X027915Y036630D01*
X027940Y036639D01*
X027965Y036650D01*
X027988Y036664D01*
X028010Y036680D01*
X028030Y036699D01*
X028048Y036719D01*
X028064Y036740D01*
X028078Y036764D01*
X028090Y036788D01*
X028099Y036814D01*
X028105Y036840D01*
X028109Y036867D01*
X028111Y036894D01*
X028109Y036921D01*
X028105Y036948D01*
X028099Y036974D01*
X028090Y036999D01*
X028078Y037024D01*
X028064Y037047D01*
X028048Y037069D01*
X028030Y037089D01*
X028010Y037107D01*
X027988Y037123D01*
X027965Y037137D01*
X027940Y037149D01*
X027915Y037158D01*
X027888Y037164D01*
X027862Y037168D01*
X027835Y037170D01*
D02*
G37*
G36*
X019783Y031120D02*
Y030941D01*
X019962D01*
X019957Y030955D01*
X019945Y030981D01*
X019930Y031006D01*
X019913Y031029D01*
X019893Y031051D01*
X019872Y031070D01*
X019849Y031088D01*
X019824Y031102D01*
X019798Y031115D01*
X019783Y031120D01*
D02*
G37*
G36*
X020587D02*
X020572Y031115D01*
X020546Y031102D01*
X020521Y031088D01*
X020498Y031070D01*
X020477Y031051D01*
X020457Y031029D01*
X020440Y031006D01*
X020425Y030981D01*
X020413Y030955D01*
X020408Y030941D01*
X020587D01*
Y031120D01*
D02*
G37*
G36*
X020783D02*
Y030941D01*
X020962D01*
X020957Y030955D01*
X020945Y030981D01*
X020930Y031006D01*
X020913Y031029D01*
X020893Y031051D01*
X020872Y031070D01*
X020849Y031088D01*
X020824Y031102D01*
X020798Y031115D01*
X020783Y031120D01*
D02*
G37*
G36*
X020685Y029118D02*
X020658Y029117D01*
X020631Y029113D01*
X020605Y029107D01*
X020579Y029097D01*
X020555Y029086D01*
X020532Y029072D01*
X020510Y029056D01*
X020490Y029038D01*
X020472Y029018D01*
X020456Y028996D01*
X020442Y028973D01*
X020430Y028948D01*
X020421Y028923D01*
X020414Y028896D01*
X020410Y028870D01*
X020409Y028843D01*
X020410Y028815D01*
X020414Y028789D01*
X020421Y028762D01*
X020430Y028737D01*
X020442Y028712D01*
X020456Y028689D01*
X020472Y028668D01*
X020490Y028647D01*
X020510Y028629D01*
X020532Y028613D01*
X020555Y028599D01*
X020579Y028588D01*
X020605Y028579D01*
X020631Y028572D01*
X020658Y028568D01*
X020685Y028567D01*
X020712Y028568D01*
X020739Y028572D01*
X020765Y028579D01*
X020791Y028588D01*
X020815Y028599D01*
X020838Y028613D01*
X020860Y028629D01*
X020880Y028647D01*
X020898Y028668D01*
X020914Y028689D01*
X020928Y028712D01*
X020940Y028737D01*
X020949Y028762D01*
X020956Y028789D01*
X020960Y028815D01*
X020961Y028843D01*
X020960Y028870D01*
X020956Y028896D01*
X020949Y028923D01*
X020940Y028948D01*
X020928Y028973D01*
X020914Y028996D01*
X020898Y029018D01*
X020880Y029038D01*
X020860Y029056D01*
X020838Y029072D01*
X020815Y029086D01*
X020791Y029097D01*
X020765Y029107D01*
X020739Y029113D01*
X020712Y029117D01*
X020685Y029118D01*
D02*
G37*
G36*
X037780Y029126D02*
X037752Y029125D01*
X037726Y029121D01*
X037699Y029114D01*
X037674Y029105D01*
X037649Y029094D01*
X037626Y029080D01*
X037605Y029064D01*
X037584Y029045D01*
X037566Y029025D01*
X037550Y029004D01*
X037536Y028980D01*
X037525Y028956D01*
X037516Y028930D01*
X037509Y028904D01*
X037505Y028877D01*
X037504Y028850D01*
X037505Y028823D01*
X037509Y028797D01*
X037516Y028770D01*
X037525Y028745D01*
X037536Y028720D01*
X037550Y028697D01*
X037566Y028675D01*
X037584Y028655D01*
X037605Y028637D01*
X037626Y028621D01*
X037649Y028607D01*
X037674Y028596D01*
X037699Y028586D01*
X037726Y028580D01*
X037752Y028576D01*
X037780Y028575D01*
X037807Y028576D01*
X037833Y028580D01*
X037860Y028586D01*
X037885Y028596D01*
X037910Y028607D01*
X037933Y028621D01*
X037955Y028637D01*
X037975Y028655D01*
X037993Y028675D01*
X038009Y028697D01*
X038023Y028720D01*
X038034Y028745D01*
X038044Y028770D01*
X038050Y028797D01*
X038054Y028823D01*
X038055Y028850D01*
X038054Y028877D01*
X038050Y028904D01*
X038044Y028930D01*
X038034Y028956D01*
X038023Y028980D01*
X038009Y029004D01*
X037993Y029025D01*
X037975Y029045D01*
X037955Y029064D01*
X037933Y029080D01*
X037910Y029094D01*
X037885Y029105D01*
X037860Y029114D01*
X037833Y029121D01*
X037807Y029125D01*
X037780Y029126D01*
D02*
G37*
G36*
X020587Y030744D02*
X020408D01*
X020413Y030730D01*
X020425Y030704D01*
X020440Y030679D01*
X020457Y030656D01*
X020477Y030634D01*
X020498Y030615D01*
X020521Y030598D01*
X020546Y030583D01*
X020572Y030570D01*
X020587Y030565D01*
Y030744D01*
D02*
G37*
G36*
X020962D02*
X020783D01*
Y030565D01*
X020798Y030570D01*
X020824Y030583D01*
X020849Y030598D01*
X020872Y030615D01*
X020893Y030634D01*
X020913Y030656D01*
X020930Y030679D01*
X020945Y030704D01*
X020957Y030730D01*
X020962Y030744D01*
D02*
G37*
G36*
X037780Y031126D02*
X037752Y031125D01*
X037726Y031121D01*
X037699Y031114D01*
X037674Y031105D01*
X037649Y031094D01*
X037626Y031080D01*
X037605Y031064D01*
X037584Y031045D01*
X037566Y031025D01*
X037550Y031004D01*
X037536Y030980D01*
X037525Y030956D01*
X037516Y030930D01*
X037509Y030904D01*
X037505Y030877D01*
X037504Y030850D01*
X037505Y030823D01*
X037509Y030797D01*
X037516Y030770D01*
X037525Y030745D01*
X037536Y030720D01*
X037550Y030697D01*
X037566Y030675D01*
X037584Y030655D01*
X037605Y030637D01*
X037626Y030621D01*
X037649Y030607D01*
X037674Y030596D01*
X037699Y030586D01*
X037726Y030580D01*
X037752Y030576D01*
X037780Y030575D01*
X037807Y030576D01*
X037833Y030580D01*
X037860Y030586D01*
X037885Y030596D01*
X037910Y030607D01*
X037933Y030621D01*
X037955Y030637D01*
X037975Y030655D01*
X037993Y030675D01*
X038009Y030697D01*
X038023Y030720D01*
X038034Y030745D01*
X038044Y030770D01*
X038050Y030797D01*
X038054Y030823D01*
X038055Y030850D01*
X038054Y030877D01*
X038050Y030904D01*
X038044Y030930D01*
X038034Y030956D01*
X038023Y030980D01*
X038009Y031004D01*
X037993Y031025D01*
X037975Y031045D01*
X037955Y031064D01*
X037933Y031080D01*
X037910Y031094D01*
X037885Y031105D01*
X037860Y031114D01*
X037833Y031121D01*
X037807Y031125D01*
X037780Y031126D01*
D02*
G37*
G36*
X020685Y030118D02*
X020658Y030117D01*
X020631Y030113D01*
X020605Y030107D01*
X020579Y030097D01*
X020555Y030086D01*
X020532Y030072D01*
X020510Y030056D01*
X020490Y030038D01*
X020472Y030018D01*
X020456Y029996D01*
X020442Y029973D01*
X020430Y029948D01*
X020421Y029923D01*
X020414Y029896D01*
X020410Y029870D01*
X020409Y029843D01*
X020410Y029815D01*
X020414Y029789D01*
X020421Y029762D01*
X020430Y029737D01*
X020442Y029712D01*
X020456Y029689D01*
X020472Y029667D01*
X020490Y029647D01*
X020510Y029629D01*
X020532Y029613D01*
X020555Y029599D01*
X020579Y029588D01*
X020605Y029579D01*
X020631Y029572D01*
X020658Y029568D01*
X020685Y029567D01*
X020712Y029568D01*
X020739Y029572D01*
X020765Y029579D01*
X020791Y029588D01*
X020815Y029599D01*
X020838Y029613D01*
X020860Y029629D01*
X020880Y029647D01*
X020898Y029667D01*
X020914Y029689D01*
X020928Y029712D01*
X020940Y029737D01*
X020949Y029762D01*
X020956Y029789D01*
X020960Y029815D01*
X020961Y029843D01*
X020960Y029870D01*
X020956Y029896D01*
X020949Y029923D01*
X020940Y029948D01*
X020928Y029973D01*
X020914Y029996D01*
X020898Y030018D01*
X020880Y030038D01*
X020860Y030056D01*
X020838Y030072D01*
X020815Y030086D01*
X020791Y030097D01*
X020765Y030107D01*
X020739Y030113D01*
X020712Y030117D01*
X020685Y030118D01*
D02*
G37*
G36*
X037780Y030126D02*
X037752Y030125D01*
X037726Y030121D01*
X037699Y030114D01*
X037674Y030105D01*
X037649Y030094D01*
X037626Y030080D01*
X037605Y030064D01*
X037584Y030045D01*
X037566Y030025D01*
X037550Y030004D01*
X037536Y029980D01*
X037525Y029956D01*
X037516Y029930D01*
X037509Y029904D01*
X037505Y029877D01*
X037504Y029850D01*
X037505Y029823D01*
X037509Y029797D01*
X037516Y029770D01*
X037525Y029745D01*
X037536Y029720D01*
X037550Y029697D01*
X037566Y029675D01*
X037584Y029655D01*
X037605Y029637D01*
X037626Y029621D01*
X037649Y029607D01*
X037674Y029596D01*
X037699Y029586D01*
X037726Y029580D01*
X037752Y029576D01*
X037780Y029575D01*
X037807Y029576D01*
X037833Y029580D01*
X037860Y029586D01*
X037885Y029596D01*
X037910Y029607D01*
X037933Y029621D01*
X037955Y029637D01*
X037975Y029655D01*
X037993Y029675D01*
X038009Y029697D01*
X038023Y029720D01*
X038034Y029745D01*
X038044Y029770D01*
X038050Y029797D01*
X038054Y029823D01*
X038055Y029850D01*
X038054Y029877D01*
X038050Y029904D01*
X038044Y029930D01*
X038034Y029956D01*
X038023Y029980D01*
X038009Y030004D01*
X037993Y030025D01*
X037975Y030045D01*
X037955Y030064D01*
X037933Y030080D01*
X037910Y030094D01*
X037885Y030105D01*
X037860Y030114D01*
X037833Y030121D01*
X037807Y030125D01*
X037780Y030126D01*
D02*
G37*
G36*
X019962Y030744D02*
X019783D01*
Y030565D01*
X019798Y030570D01*
X019824Y030583D01*
X019849Y030598D01*
X019872Y030615D01*
X019893Y030634D01*
X019913Y030656D01*
X019930Y030679D01*
X019945Y030704D01*
X019957Y030730D01*
X019962Y030744D01*
D02*
G37*
G36*
X037780Y033126D02*
X037752Y033125D01*
X037726Y033121D01*
X037699Y033114D01*
X037674Y033105D01*
X037649Y033094D01*
X037626Y033080D01*
X037605Y033064D01*
X037584Y033045D01*
X037566Y033025D01*
X037550Y033004D01*
X037536Y032980D01*
X037525Y032956D01*
X037516Y032930D01*
X037509Y032904D01*
X037505Y032877D01*
X037504Y032850D01*
X037505Y032823D01*
X037509Y032797D01*
X037516Y032770D01*
X037525Y032745D01*
X037536Y032720D01*
X037550Y032697D01*
X037566Y032675D01*
X037584Y032655D01*
X037605Y032637D01*
X037626Y032621D01*
X037649Y032607D01*
X037674Y032596D01*
X037699Y032586D01*
X037726Y032580D01*
X037752Y032576D01*
X037780Y032575D01*
X037807Y032576D01*
X037833Y032580D01*
X037860Y032586D01*
X037885Y032596D01*
X037910Y032607D01*
X037933Y032621D01*
X037955Y032637D01*
X037975Y032655D01*
X037993Y032675D01*
X038009Y032697D01*
X038023Y032720D01*
X038034Y032745D01*
X038044Y032770D01*
X038050Y032797D01*
X038054Y032823D01*
X038055Y032850D01*
X038054Y032877D01*
X038050Y032904D01*
X038044Y032930D01*
X038034Y032956D01*
X038023Y032980D01*
X038009Y033004D01*
X037993Y033025D01*
X037975Y033045D01*
X037955Y033064D01*
X037933Y033080D01*
X037910Y033094D01*
X037885Y033105D01*
X037860Y033114D01*
X037833Y033121D01*
X037807Y033125D01*
X037780Y033126D01*
D02*
G37*
G36*
X020685Y034118D02*
X020658Y034117D01*
X020631Y034113D01*
X020605Y034107D01*
X020579Y034097D01*
X020555Y034086D01*
X020532Y034072D01*
X020510Y034056D01*
X020490Y034038D01*
X020472Y034018D01*
X020456Y033996D01*
X020442Y033973D01*
X020430Y033948D01*
X020421Y033923D01*
X020414Y033896D01*
X020410Y033870D01*
X020409Y033843D01*
X020410Y033815D01*
X020414Y033789D01*
X020421Y033762D01*
X020430Y033737D01*
X020442Y033712D01*
X020456Y033689D01*
X020472Y033668D01*
X020490Y033647D01*
X020510Y033629D01*
X020532Y033613D01*
X020555Y033599D01*
X020579Y033588D01*
X020605Y033579D01*
X020631Y033572D01*
X020658Y033568D01*
X020685Y033567D01*
X020712Y033568D01*
X020739Y033572D01*
X020765Y033579D01*
X020791Y033588D01*
X020815Y033599D01*
X020838Y033613D01*
X020860Y033629D01*
X020880Y033647D01*
X020898Y033668D01*
X020914Y033689D01*
X020928Y033712D01*
X020940Y033737D01*
X020949Y033762D01*
X020956Y033789D01*
X020960Y033815D01*
X020961Y033843D01*
X020960Y033870D01*
X020956Y033896D01*
X020949Y033923D01*
X020940Y033948D01*
X020928Y033973D01*
X020914Y033996D01*
X020898Y034018D01*
X020880Y034038D01*
X020860Y034056D01*
X020838Y034072D01*
X020815Y034086D01*
X020791Y034097D01*
X020765Y034107D01*
X020739Y034113D01*
X020712Y034117D01*
X020685Y034118D01*
D02*
G37*
G36*
X037681Y033752D02*
X037502D01*
X037507Y033738D01*
X037520Y033712D01*
X037535Y033687D01*
X037552Y033663D01*
X037571Y033642D01*
X037593Y033623D01*
X037616Y033605D01*
X037641Y033591D01*
X037667Y033578D01*
X037681Y033573D01*
Y033752D01*
D02*
G37*
G36*
X020587Y032120D02*
X020572Y032115D01*
X020546Y032102D01*
X020521Y032088D01*
X020498Y032070D01*
X020477Y032051D01*
X020457Y032029D01*
X020440Y032006D01*
X020425Y031981D01*
X020413Y031955D01*
X020408Y031941D01*
X020587D01*
Y032120D01*
D02*
G37*
G36*
X020783D02*
Y031941D01*
X020962D01*
X020957Y031955D01*
X020945Y031981D01*
X020930Y032006D01*
X020913Y032029D01*
X020893Y032051D01*
X020872Y032070D01*
X020849Y032088D01*
X020824Y032102D01*
X020798Y032115D01*
X020783Y032120D01*
D02*
G37*
G36*
X020685Y033118D02*
X020658Y033117D01*
X020631Y033113D01*
X020605Y033107D01*
X020579Y033097D01*
X020555Y033086D01*
X020532Y033072D01*
X020510Y033056D01*
X020490Y033038D01*
X020472Y033018D01*
X020456Y032996D01*
X020442Y032973D01*
X020430Y032948D01*
X020421Y032923D01*
X020414Y032896D01*
X020410Y032870D01*
X020409Y032843D01*
X020410Y032815D01*
X020414Y032789D01*
X020421Y032762D01*
X020430Y032737D01*
X020442Y032712D01*
X020456Y032689D01*
X020472Y032668D01*
X020490Y032647D01*
X020510Y032629D01*
X020532Y032613D01*
X020555Y032599D01*
X020579Y032588D01*
X020605Y032579D01*
X020631Y032572D01*
X020658Y032568D01*
X020685Y032567D01*
X020712Y032568D01*
X020739Y032572D01*
X020765Y032579D01*
X020791Y032588D01*
X020815Y032599D01*
X020838Y032613D01*
X020860Y032629D01*
X020880Y032647D01*
X020898Y032668D01*
X020914Y032689D01*
X020928Y032712D01*
X020940Y032737D01*
X020949Y032762D01*
X020956Y032789D01*
X020960Y032815D01*
X020961Y032843D01*
X020960Y032870D01*
X020956Y032896D01*
X020949Y032923D01*
X020940Y032948D01*
X020928Y032973D01*
X020914Y032996D01*
X020898Y033018D01*
X020880Y033038D01*
X020860Y033056D01*
X020838Y033072D01*
X020815Y033086D01*
X020791Y033097D01*
X020765Y033107D01*
X020739Y033113D01*
X020712Y033117D01*
X020685Y033118D01*
D02*
G37*
G36*
X038057Y033752D02*
X037878D01*
Y033573D01*
X037892Y033578D01*
X037918Y033591D01*
X037943Y033605D01*
X037966Y033623D01*
X037988Y033642D01*
X038007Y033663D01*
X038025Y033687D01*
X038039Y033712D01*
X038052Y033738D01*
X038057Y033752D01*
D02*
G37*
G36*
X037780Y032126D02*
X037752Y032125D01*
X037726Y032121D01*
X037699Y032114D01*
X037674Y032105D01*
X037649Y032094D01*
X037626Y032080D01*
X037605Y032064D01*
X037584Y032045D01*
X037566Y032025D01*
X037550Y032004D01*
X037536Y031980D01*
X037525Y031956D01*
X037516Y031930D01*
X037509Y031904D01*
X037505Y031877D01*
X037504Y031850D01*
X037505Y031823D01*
X037509Y031797D01*
X037516Y031770D01*
X037525Y031745D01*
X037536Y031720D01*
X037550Y031697D01*
X037566Y031675D01*
X037584Y031655D01*
X037605Y031637D01*
X037626Y031621D01*
X037649Y031607D01*
X037674Y031596D01*
X037699Y031586D01*
X037726Y031580D01*
X037752Y031576D01*
X037780Y031575D01*
X037807Y031576D01*
X037833Y031580D01*
X037860Y031586D01*
X037885Y031596D01*
X037910Y031607D01*
X037933Y031621D01*
X037955Y031637D01*
X037975Y031655D01*
X037993Y031675D01*
X038009Y031697D01*
X038023Y031720D01*
X038034Y031745D01*
X038044Y031770D01*
X038050Y031797D01*
X038054Y031823D01*
X038055Y031850D01*
X038054Y031877D01*
X038050Y031904D01*
X038044Y031930D01*
X038034Y031956D01*
X038023Y031980D01*
X038009Y032004D01*
X037993Y032025D01*
X037975Y032045D01*
X037955Y032064D01*
X037933Y032080D01*
X037910Y032094D01*
X037885Y032105D01*
X037860Y032114D01*
X037833Y032121D01*
X037807Y032125D01*
X037780Y032126D01*
D02*
G37*
G36*
X020587Y031744D02*
X020408D01*
X020413Y031730D01*
X020425Y031704D01*
X020440Y031679D01*
X020457Y031656D01*
X020477Y031634D01*
X020498Y031615D01*
X020521Y031598D01*
X020546Y031583D01*
X020572Y031570D01*
X020587Y031565D01*
Y031744D01*
D02*
G37*
G36*
X020962D02*
X020783D01*
Y031565D01*
X020798Y031570D01*
X020824Y031583D01*
X020849Y031598D01*
X020872Y031615D01*
X020893Y031634D01*
X020913Y031656D01*
X020930Y031679D01*
X020945Y031704D01*
X020957Y031730D01*
X020962Y031744D01*
D02*
G37*
%LPD*%
D13*
X020276Y019390D02*
D03*
Y037303D02*
D03*
D15*
X022835Y022843D02*
Y036894D01*
X023819Y034850D02*
X037780D01*
X019685Y025843D02*
X020685D01*
X019685Y021843D02*
X020685D01*
X034843D01*
X035835Y018799D02*
Y019799D01*
Y033850D01*
D16*
X038287Y019291D02*
D03*
Y037402D02*
D03*
D17*
X020685Y021843D02*
D03*
X019685D02*
D03*
X020685Y022843D02*
D03*
X019685D02*
D03*
X020685Y023843D02*
D03*
X019685D02*
D03*
X020685Y024843D02*
D03*
X019685D02*
D03*
X020685Y025843D02*
D03*
X019685D02*
D03*
X020685Y026843D02*
D03*
X019685D02*
D03*
X020685Y027843D02*
D03*
X019685D02*
D03*
X020685Y028843D02*
D03*
X019685D02*
D03*
X020685Y029843D02*
D03*
X019685D02*
D03*
X020685Y030843D02*
D03*
X019685D02*
D03*
X020685Y031843D02*
D03*
X019685D02*
D03*
X020685Y032843D02*
D03*
X019685D02*
D03*
X020685Y033843D02*
D03*
X019685D02*
D03*
X020685Y034843D02*
D03*
X035835Y019799D02*
D03*
Y018799D02*
D03*
X034835Y019799D02*
D03*
Y018799D02*
D03*
X033835Y019799D02*
D03*
Y018799D02*
D03*
X032835Y019799D02*
D03*
Y018799D02*
D03*
X031835Y019799D02*
D03*
Y018799D02*
D03*
X030835Y019799D02*
D03*
Y018799D02*
D03*
X029835Y019799D02*
D03*
Y018799D02*
D03*
X028835Y019799D02*
D03*
Y018799D02*
D03*
X027835Y019799D02*
D03*
Y018799D02*
D03*
X026835Y019799D02*
D03*
Y018799D02*
D03*
X025835Y019799D02*
D03*
Y018799D02*
D03*
X024835Y019799D02*
D03*
Y018799D02*
D03*
X023835Y019799D02*
D03*
Y018799D02*
D03*
X022835Y019799D02*
D03*
X037780Y034850D02*
D03*
X038780D02*
D03*
X037780Y033850D02*
D03*
X038780D02*
D03*
X037780Y032850D02*
D03*
X038780D02*
D03*
X037780Y031850D02*
D03*
X038780D02*
D03*
X037780Y030850D02*
D03*
X038780D02*
D03*
X037780Y029850D02*
D03*
X038780D02*
D03*
X037780Y028850D02*
D03*
X038780D02*
D03*
X037780Y027850D02*
D03*
X038780D02*
D03*
X037780Y026850D02*
D03*
X038780D02*
D03*
X037780Y025850D02*
D03*
X038780D02*
D03*
X037780Y024850D02*
D03*
X038780D02*
D03*
X037780Y023850D02*
D03*
X038780D02*
D03*
X037780Y022850D02*
D03*
X038780D02*
D03*
X037780Y021850D02*
D03*
X022835Y036894D02*
D03*
Y037894D02*
D03*
X023835Y036894D02*
D03*
Y037894D02*
D03*
X024835Y036894D02*
D03*
Y037894D02*
D03*
X025835Y036894D02*
D03*
Y037894D02*
D03*
X026835Y036894D02*
D03*
Y037894D02*
D03*
X027835Y036894D02*
D03*
Y037894D02*
D03*
X028835Y036894D02*
D03*
Y037894D02*
D03*
X029835Y036894D02*
D03*
Y037894D02*
D03*
X030835Y036894D02*
D03*
Y037894D02*
D03*
X031835Y036894D02*
D03*
Y037894D02*
D03*
X032835Y036894D02*
D03*
Y037894D02*
D03*
X033835Y036894D02*
D03*
Y037894D02*
D03*
X034835Y036894D02*
D03*
Y037894D02*
D03*
X035835Y036894D02*
D03*
D18*
X019685Y034843D02*
D03*
X038780Y021850D02*
D03*
D19*
X022835Y018799D02*
D03*
X035835Y037894D02*
D03*
D20*
X023819Y022835D02*
D03*
X026575D02*
D03*
X029331D02*
D03*
X032087D02*
D03*
X034843D02*
D03*
X023819Y025591D02*
D03*
X026575Y025591D02*
D03*
X029331D02*
D03*
X032087D02*
D03*
X034843Y025591D02*
D03*
Y028346D02*
D03*
X032087D02*
D03*
X029331D02*
D03*
X026575D02*
D03*
X023819D02*
D03*
X034843Y031102D02*
D03*
X032087D02*
D03*
X029331D02*
D03*
X026575D02*
D03*
X023819D02*
D03*
Y033858D02*
D03*
X026575D02*
D03*
X029331D02*
D03*
X032087D02*
D03*
X034843D02*
D03*
M02*
